M48
;DRILL file {KiCad 4.1.0-alpha+201607130321+6976~46~ubuntu14.04.1-product} date Wed Jul 13 20:18:58 2016
;FORMAT={-:-/ absolute / metric / decimal}
FMAT,2
METRIC,TZ
T1C0.600
T2C0.800
T3C0.900
T4C1.000
T5C1.001
T6C1.016
T7C1.300
T8C3.048
T9C1.600
T10C3.198
T11C3.200
%
G90
G05
M71
T1
X0Y0
X69.Y-130.5
X76.Y-121.
X77.Y-132.
X86.Y-121.
X87.5Y-138.
X88.Y-132.
X94.5Y-120.
X100.Y-132.
X106.Y-125.5
X109.5Y-125.5
X110.Y-123.25
X111.5Y-111.
X111.5Y-126.
X113.4Y-124.4
X114.75Y-108.75
X117.6Y-125.3
X118.5Y-118.25
X119.196Y-112.419
X120.Y-116.8
X120.Y-128.
X120.4Y-123.6
X120.75Y-114.75
X122.Y-128.
X123.6Y-121.5
X135.4Y-117.577
X136.Y-110.5
X136.7Y-123.45
X138.8Y-126.3
X139.85Y-109.753
X141.9Y-109.75
X142.8Y-122.9
X144.8Y-116.9
X144.9Y-113.65
X145.414Y-118.684
X146.5Y-128.
X147.4Y-119.35
X148.1Y-122.9
X148.5Y-76.3
X148.55Y-84.25
X148.7Y-129.1
X149.4Y-120.5
X150.7Y-84.2
X150.8Y-76.3
X161.5Y-119.1
X162.Y-111.5
X163.5Y-123.1
X164.7Y-84.15
X164.95Y-90.35
X165.6Y-126.3
X166.65Y-85.4
X166.7Y-109.15
X167.05Y-90.7
X168.55Y-108.45
X169.05Y-70.6
X169.3Y-91.5
X169.4Y-123.2
X171.1Y-116.5
X171.2Y-118.875
X173.2Y-109.5
X173.25Y-90.9
X173.25Y-119.5
X173.35Y-72.5
X173.7Y-128.
X174.Y-123.
X175.5Y-129.9
X176.2Y-125.2
X189.2Y-117.1
X190.5Y-109.
X191.Y-122.2
X192.5Y-68.5
X193.4Y-126.
X194.5Y-66.5
X194.6Y-108.2
X196.4Y-107.3
X196.7Y-121.5
X198.677Y-114.895
X198.8Y-116.9
X200.Y-56.5
X200.5Y-106.
X200.6Y-116.9
X200.6Y-128.1
X202.Y-51.5
X202.1Y-123.7
X202.5Y-117.7
X204.Y-120.
X208.3Y-92.1
X208.5Y-85.2
X210.9Y-90.4
X211.1Y-85.2
X213.6Y-121.7
X216.Y-105.
X218.5Y-105.
X219.5Y-69.
X219.8Y-142.
X221.5Y-67.
X227.5Y-139.
X229.5Y-125.7
X231.3Y-124.9
X233.5Y-131.9
X236.Y-142.
X255.Y-141.5
X263.5Y-141.5
X269.Y-99.
X272.5Y-99.
T2
X108.555Y-130.395
X109.825Y-127.855
X111.095Y-130.395
X112.365Y-127.855
X113.635Y-130.395
X114.905Y-127.855
X116.175Y-130.395
X117.445Y-127.855
X135.555Y-130.395
X136.825Y-127.855
X138.095Y-130.395
X139.365Y-127.855
X140.635Y-130.395
X141.905Y-127.855
X143.175Y-130.395
X144.445Y-127.855
X162.555Y-130.395
X163.825Y-127.855
X165.095Y-130.395
X166.365Y-127.855
X167.635Y-130.395
X168.905Y-127.855
X170.175Y-130.395
X171.445Y-127.855
X189.635Y-130.395
X190.905Y-127.855
X192.175Y-130.395
X193.445Y-127.855
X194.715Y-130.395
X195.985Y-127.855
X197.255Y-130.395
X198.525Y-127.855
T3
X106.65Y-131.665
X133.65Y-131.665
X160.65Y-131.665
X187.73Y-131.665
T4
X70.25Y-138.
X74.75Y-138.
X80.25Y-138.
X84.75Y-138.
X90.25Y-138.
X94.75Y-138.
T5
X70.96Y-121.
X73.5Y-121.
X80.96Y-121.
X83.5Y-121.
X89.96Y-121.
X92.5Y-121.
X194.266Y-53.87
X196.806Y-53.87
X199.346Y-53.87
X201.886Y-53.87
X203.41Y-102.13
X204.426Y-53.87
X205.95Y-102.13
X206.966Y-53.87
X208.49Y-102.13
X209.506Y-53.87
X211.03Y-102.13
X212.046Y-53.87
X213.57Y-102.13
X214.586Y-53.87
X216.11Y-102.13
X217.126Y-53.87
X218.65Y-102.13
X221.19Y-53.87
X221.19Y-102.13
X223.73Y-53.87
X226.27Y-53.87
X226.27Y-102.13
X228.81Y-53.87
X228.81Y-102.13
X231.35Y-53.87
X231.35Y-102.13
X233.89Y-53.87
X233.89Y-102.13
X236.43Y-53.87
X236.43Y-102.13
X238.97Y-53.87
X238.97Y-102.13
X241.51Y-102.13
X244.05Y-53.87
X244.05Y-102.13
X246.59Y-53.87
X249.13Y-53.87
X249.13Y-102.13
X251.67Y-53.87
X251.67Y-102.13
X254.21Y-53.87
X254.21Y-102.13
X256.75Y-53.87
X256.75Y-102.13
X259.29Y-53.87
X259.29Y-102.13
X261.83Y-53.87
X261.83Y-102.13
X264.37Y-102.13
X266.91Y-102.13
X269.45Y-53.87
X269.45Y-56.41
X269.45Y-58.95
X269.45Y-61.49
X269.45Y-64.03
X269.45Y-66.57
X269.45Y-69.11
X269.45Y-71.65
X269.45Y-74.19
X269.45Y-76.73
X269.45Y-79.27
X269.45Y-81.81
X269.45Y-84.35
X269.45Y-86.89
X269.45Y-89.43
X269.45Y-91.97
X269.45Y-94.51
X269.45Y-97.05
X271.99Y-53.87
X271.99Y-56.41
X271.99Y-58.95
X271.99Y-61.49
X271.99Y-64.03
X271.99Y-66.57
X271.99Y-69.11
X271.99Y-71.65
X271.99Y-74.19
X271.99Y-76.73
X271.99Y-79.27
X271.99Y-81.81
X271.99Y-84.35
X271.99Y-86.89
X271.99Y-89.43
X271.99Y-91.97
X271.99Y-94.51
X271.99Y-97.05
T6
X219.075Y-134.08
X220.46Y-136.92
X221.845Y-134.08
X223.23Y-136.92
X224.615Y-134.08
X226.Y-136.92
X227.385Y-134.08
X228.77Y-136.92
X230.155Y-134.08
X253.615Y-134.08
X255.Y-136.92
X256.385Y-134.08
X257.77Y-136.92
X259.155Y-134.08
X260.54Y-136.92
X261.925Y-134.08
X263.31Y-136.92
X264.695Y-134.08
T7
X69.Y-135.5
X76.Y-135.5
X79.Y-135.5
X86.Y-135.5
X89.Y-135.5
X96.Y-135.5
T8
X212.115Y-135.5
X237.115Y-135.5
X246.655Y-135.5
X271.655Y-135.5
T9
X107.92Y-141.19
X118.08Y-132.3
X134.92Y-141.19
X145.08Y-132.3
X161.92Y-141.19
X172.08Y-132.3
X189.Y-141.19
X199.16Y-132.3
T10
X189.44Y-102.13
X190.71Y-53.87
X241.51Y-69.11
X241.51Y-97.05
X265.64Y-53.87
X271.99Y-102.13
T11
X75.Y-45.
X75.Y-110.
X270.Y-45.
X270.Y-110.
T0
M30
