<?xml version="1.0" standalone="no"?>
 <!DOCTYPE svg PUBLIC "-//W3C//DTD SVG 1.1//EN" 
 "http://www.w3.org/Graphics/SVG/1.1/DTD/svg11.dtd"> 
<svg xmlns="http://www.w3.org/2000/svg" version="1.1" 
    width="23.2334cm" height="12.7889cm" viewBox="0 0 91470 50350 ">
<title>SVG Picture created as camera-crane-controller-brd.svg date 2016/07/21 16:17:18 </title>
  <desc>Picture generated by PCBNEW </desc>
<g style="fill:#000000; fill-opacity:1;stroke:#000000; stroke-opacity:1;
stroke-linecap:round; stroke-linejoin:round; "
 transform="translate(0 0) scale(1 1)">
</g>
<g style="fill:#000000; fill-opacity:0.0; 
stroke:#000000; stroke-width:-0.000393701; stroke-opacity:1; 
stroke-linecap:round; stroke-linejoin:round;">
</g>
<g style="fill:#008484; fill-opacity:0.0; 
stroke:#008484; stroke-width:-0.000393701; stroke-opacity:1; 
stroke-linecap:round; stroke-linejoin:round;">
</g>
<g style="fill:#008484; fill-opacity:0.0; 
stroke:#008484; stroke-width:39.3701; stroke-opacity:1; 
stroke-linecap:round; stroke-linejoin:round;">
<path d="M14415 41991
L13310 41991
" />
<path d="M15181 37440
L15181 37363
" />
<path d="M15299 37363
L15299 37440
" />
<path d="M12425.7 39404.5 A255.906 255.906 0.0 0 0 12681.6 39660.4 " />
<circle cx="15240.6" cy="37672.2" r="255.906" /> 
<circle cx="12976.9" cy="38656.5" r="196.85" /> 
<circle cx="12484.7" cy="37672.2" r="255.906" /> 
<path d="M13862 38656
L13862 37672
" />
<path d="M15299.8 37892.2 A393.701 393.701 0.0 0 0 15299.7 37899.8 " />
<path d="M12410 37475
L12416 37471
" />
<path d="M12416 37471
L12421 37458
" />
<path d="M12421 37458
L12423 37438
" />
<path d="M12239 37475
L12239 37869
" />
<path d="M12858 38636
L13134 38636
" />
<path d="M14591 38636
L14866 38636
" />
<path d="M12671 38274
L12671 39522
" />
<path d="M15053 39522
L15053 38274
" />
<path d="M12671 39522
L15053 39522
" />
<path d="M12671 39542
L12671 39522
" />
<path d="M15053 39542
L15053 39522
" />
<path d="M12671 39522
L12652 39522
" />
<path d="M15073 39522
L15053 39522
" />
<path d="M12543 39404
L12425 39404
" />
<path d="M12425 37363
L12543 37363
" />
<path d="M12543 37440
L12425 37440
" />
<path d="M15043 39542
L15043 39660
" />
<path d="M15181 39404
L15299 39404
" />
<path d="M15299 37083
L15181 37083
" />
<path d="M12543 37083
L12425 37083
" />
<path d="M15323 37475
L15323 37869
" />
<path d="M12401 37869
L12401 37475
" />
<path d="M15485 37869
L15485 37475
" />
<path d="M12543 37363
L12543 37083
" />
<path d="M12425 37363
L12425 37083
" />
<path d="M12425 37081
L12543 37081
" />
<path d="M12543 37081
L12543 37083
" />
<path d="M12425 37083
L12425 37081
" />
<path d="M15181 39404
L15181 37440
" />
<path d="M15299 39404
L15299 37440
" />
<path d="M12543 39404
L12543 37440
" />
<path d="M12425 39404
L12425 37440
" />
<path d="M15043.8 39660.4 A255.906 255.906 0.0 0 0 15299.7 39404.5 " />
<path d="M15059.5 39541.4 A137.795 137.795 0.0 0 0 15181.6 39404.5 " />
<path d="M15181 37363
L15181 37083
" />
<path d="M15299 37363
L15299 37083
" />
<path d="M15181 37081
L15299 37081
" />
<path d="M15181 37083
L15181 37081
" />
<path d="M15299 37081
L15299 37083
" />
<path d="M15300 37160
L15300 37396
" />
<path d="M12543.8 39404.5 A137.795 137.795 0.0 0 0 12665.8 39541.4 " />
<path d="M12543 37363
L12543 37440
" />
<path d="M12425 37440
L12425 37363
" />
<path d="M15043 39660
L12681 39660
" />
<circle cx="14748.5" cy="38656.5" r="196.85" /> 
<path d="M15181.6 37490.9 A91.7362 91.7362 0.0 0 0 15176.2 37532.2 " />
<path d="M12858 37967
L13134 37967
" />
<path d="M13134 37967
L13134 38636
" />
<path d="M12858 37967
L12858 38636
" />
<path d="M14866 37967
L14866 38636
" />
<path d="M14866 37967
L14591 37967
" />
<path d="M14591 37967
L14591 38636
" />
<path d="M15485 37475
L15323 37475
" />
<path d="M15485 37869
L15323 37869
" />
<path d="M12239 37475
L12401 37475
" />
<path d="M12239 37869
L12401 37869
" />
<path d="M15485 37475
L15509 37475
" />
<path d="M15509 37869
L15485 37869
" />
<path d="M12215 37475
L12239 37475
" />
<path d="M12239 37869
L12215 37869
" />
<path d="M12549.1 37532.2 A94.2591 94.2591 0.0 0 0 12543.8 37490.9 " />
<path d="M12549 37532
L12549 37812
" />
<path d="M12543.8 37853.6 A91.7362 91.7362 0.0 0 0 12549.1 37812.3 " />
<path d="M15176.2 37812.3 A94.2591 94.2591 0.0 0 0 15181.6 37853.6 " />
<path d="M15176 37812
L15176 37532
" />
<path d="M13862 38656
L14748 38656
" />
<path d="M13862 37672
L15240 37672
" />
<path d="M13199 39660
L13270 41953
" />
<path d="M14454 41953
L14526 39660
" />
<path d="M14866 38754
L14591 38754
" />
<path d="M14866 38636
L14866 38754
" />
<path d="M14591 38754
L14591 38636
" />
<path d="M12858 38754
L13134 38754
" />
<path d="M12858 38754
L12858 38636
" />
<path d="M13134 38636
L13134 38754
" />
<path d="M13274 38274
L13134 38274
" />
<path d="M12858 38274
L12671 38274
" />
<path d="M13274 38195
L13274 38274
" />
<path d="M15310 37473
L15315 37475
" />
<path d="M15315 37475
L15323 37475
" />
<path d="M15323 37869
L15304 37869
" />
<path d="M15304.8 37869.1 A34.5701 34.5701 0.0 0 0 15299.8 37892.2 " />
<path d="M12424 37877
L12421 37869
" />
<path d="M12421 37869
L12420 37869
" />
<path d="M12420 37869
L12401 37869
" />
<path d="M12401 37475
L12410 37475
" />
<path d="M12425.7 37899.8 A393.701 393.701 0.0 0 0 12425.6 37892.2 " />
<path d="M12844 39660
L12844 39699
" />
<path d="M13187 39699
L13187 39660
" />
<path d="M14537 39660
L14537 39699
" />
<path d="M14880 39699
L14880 39660
" />
<path d="M12652 39522.6 A19.685 19.685 0.0 0 0 12671.7 39542.3 " />
<path d="M15053.6 39542.3 A19.685 19.685 0.0 0 0 15073.3 39522.6 " />
<path d="M12652 39522
L12652 38274
" />
<path d="M12652 38274
L12671 38274
" />
<path d="M15073 38274
L15073 39522
" />
<path d="M15053 38274
L15073 38274
" />
<path d="M12652 38195
L12652 38274
" />
<path d="M12652 38195
L12858 38195
" />
<path d="M13134 38195
L13274 38195
" />
<path d="M15073 38195
L15073 38274
" />
<path d="M14451 38195
L14591 38195
" />
<path d="M14866 38195
L15073 38195
" />
<path d="M13187 39699
L12844 39699
" />
<path d="M14880 39699
L14537 39699
" />
<path d="M13270 41953
L14454 41953
" />
<path d="M15299 37440
L15181 37440
" />
<path d="M15181 37363
L15299 37363
" />
<path d="M12681 39542
L12681 39660
" />
<path d="M14415.1 41991.1 A39.3701 39.3701 0.0 0 0 14454.4 41953 " />
<path d="M13270.9 41953 A39.3701 39.3701 0.0 0 0 13310.3 41991.1 " />
<path d="M15509 37869
L15509 37475
" />
<path d="M12215 37475
L12215 37869
" />
<path d="M13274 38195
L13577 38195
" />
<path d="M14148 38195
L14148 38274
" />
<path d="M14148 38195
L14451 38195
" />
<path d="M14451 38195
L14451 38274
" />
<path d="M15053 38274
L14866 38274
" />
<path d="M14591 38274
L14451 38274
" />
<path d="M13577 38195
L13577 38274
" />
<path d="M14148 38274
L13577 38274
" />
<path d="M15053 39542
L12671 39542
" />
<path d="M12423 37438
L12424 37414
" />
<path d="M12424 37414
L12424 37396
" />
<path d="M12424 37396
L12424 37160
" />
<path d="M12425 37892
L12424 37877
" />
<path d="M15300 37396
L15301 37422
" />
<path d="M15301 37422
L15302 37445
" />
<path d="M15302 37445
L15305 37463
" />
<path d="M15305 37463
L15310 37473
" />
<path d="M10478 41991
L9373 41991
" />
<path d="M11244 37440
L11244 37363
" />
<path d="M11362 37363
L11362 37440
" />
<path d="M8488.66 39404.5 A255.906 255.906 0.0 0 0 8744.57 39660.4 " />
<circle cx="11303.6" cy="37672.2" r="255.906" /> 
<circle cx="9039.84" cy="38656.5" r="196.85" /> 
<circle cx="8547.72" cy="37672.2" r="255.906" /> 
<path d="M9925 38656
L9925 37672
" />
<path d="M11362.8 37892.2 A393.701 393.701 0.0 0 0 11362.7 37899.8 " />
<path d="M8473 37475
L8479 37471
" />
<path d="M8479 37471
L8484 37458
" />
<path d="M8484 37458
L8486 37438
" />
<path d="M8302 37475
L8302 37869
" />
<path d="M8921 38636
L9197 38636
" />
<path d="M10654 38636
L10929 38636
" />
<path d="M8734 38274
L8734 39522
" />
<path d="M11116 39522
L11116 38274
" />
<path d="M8734 39522
L11116 39522
" />
<path d="M8734 39542
L8734 39522
" />
<path d="M11116 39542
L11116 39522
" />
<path d="M8734 39522
L8715 39522
" />
<path d="M11136 39522
L11116 39522
" />
<path d="M8606 39404
L8488 39404
" />
<path d="M8488 37363
L8606 37363
" />
<path d="M8606 37440
L8488 37440
" />
<path d="M11106 39542
L11106 39660
" />
<path d="M11244 39404
L11362 39404
" />
<path d="M11362 37083
L11244 37083
" />
<path d="M8606 37083
L8488 37083
" />
<path d="M11386 37475
L11386 37869
" />
<path d="M8464 37869
L8464 37475
" />
<path d="M11548 37869
L11548 37475
" />
<path d="M8606 37363
L8606 37083
" />
<path d="M8488 37363
L8488 37083
" />
<path d="M8488 37081
L8606 37081
" />
<path d="M8606 37081
L8606 37083
" />
<path d="M8488 37083
L8488 37081
" />
<path d="M11244 39404
L11244 37440
" />
<path d="M11362 39404
L11362 37440
" />
<path d="M8606 39404
L8606 37440
" />
<path d="M8488 39404
L8488 37440
" />
<path d="M11106.8 39660.4 A255.906 255.906 0.0 0 0 11362.7 39404.5 " />
<path d="M11122.5 39541.4 A137.795 137.795 0.0 0 0 11244.6 39404.5 " />
<path d="M11244 37363
L11244 37083
" />
<path d="M11362 37363
L11362 37083
" />
<path d="M11244 37081
L11362 37081
" />
<path d="M11244 37083
L11244 37081
" />
<path d="M11362 37081
L11362 37083
" />
<path d="M11363 37160
L11363 37396
" />
<path d="M8606.77 39404.5 A137.795 137.795 0.0 0 0 8728.84 39541.4 " />
<path d="M8606 37363
L8606 37440
" />
<path d="M8488 37440
L8488 37363
" />
<path d="M11106 39660
L8744 39660
" />
<circle cx="10811.5" cy="38656.5" r="196.85" /> 
<path d="M11244.6 37490.9 A91.7362 91.7362 0.0 0 0 11239.2 37532.2 " />
<path d="M8921 37967
L9197 37967
" />
<path d="M9197 37967
L9197 38636
" />
<path d="M8921 37967
L8921 38636
" />
<path d="M10929 37967
L10929 38636
" />
<path d="M10929 37967
L10654 37967
" />
<path d="M10654 37967
L10654 38636
" />
<path d="M11548 37475
L11386 37475
" />
<path d="M11548 37869
L11386 37869
" />
<path d="M8302 37475
L8464 37475
" />
<path d="M8302 37869
L8464 37869
" />
<path d="M11548 37475
L11572 37475
" />
<path d="M11572 37869
L11548 37869
" />
<path d="M8278 37475
L8302 37475
" />
<path d="M8302 37869
L8278 37869
" />
<path d="M8612.13 37532.2 A94.2591 94.2591 0.0 0 0 8606.77 37490.9 " />
<path d="M8612 37532
L8612 37812
" />
<path d="M8606.77 37853.6 A91.7362 91.7362 0.0 0 0 8612.13 37812.3 " />
<path d="M11239.2 37812.3 A94.2591 94.2591 0.0 0 0 11244.6 37853.6 " />
<path d="M11239 37812
L11239 37532
" />
<path d="M9925 38656
L10811 38656
" />
<path d="M9925 37672
L11303 37672
" />
<path d="M9262 39660
L9333 41953
" />
<path d="M10517 41953
L10589 39660
" />
<path d="M10929 38754
L10654 38754
" />
<path d="M10929 38636
L10929 38754
" />
<path d="M10654 38754
L10654 38636
" />
<path d="M8921 38754
L9197 38754
" />
<path d="M8921 38754
L8921 38636
" />
<path d="M9197 38636
L9197 38754
" />
<path d="M9337 38274
L9197 38274
" />
<path d="M8921 38274
L8734 38274
" />
<path d="M9337 38195
L9337 38274
" />
<path d="M11373 37473
L11378 37475
" />
<path d="M11378 37475
L11386 37475
" />
<path d="M11386 37869
L11367 37869
" />
<path d="M11367.8 37869.1 A34.5701 34.5701 0.0 0 0 11362.8 37892.2 " />
<path d="M8487 37877
L8484 37869
" />
<path d="M8484 37869
L8483 37869
" />
<path d="M8483 37869
L8464 37869
" />
<path d="M8464 37475
L8473 37475
" />
<path d="M8488.66 37899.8 A393.701 393.701 0.0 0 0 8488.59 37892.2 " />
<path d="M8907 39660
L8907 39699
" />
<path d="M9250 39699
L9250 39660
" />
<path d="M10600 39660
L10600 39699
" />
<path d="M10943 39699
L10943 39660
" />
<path d="M8715.04 39522.6 A19.685 19.685 0.0 0 0 8734.72 39542.3 " />
<path d="M11116.6 39542.3 A19.685 19.685 0.0 0 0 11136.3 39522.6 " />
<path d="M8715 39522
L8715 38274
" />
<path d="M8715 38274
L8734 38274
" />
<path d="M11136 38274
L11136 39522
" />
<path d="M11116 38274
L11136 38274
" />
<path d="M8715 38195
L8715 38274
" />
<path d="M8715 38195
L8921 38195
" />
<path d="M9197 38195
L9337 38195
" />
<path d="M11136 38195
L11136 38274
" />
<path d="M10514 38195
L10654 38195
" />
<path d="M10929 38195
L11136 38195
" />
<path d="M9250 39699
L8907 39699
" />
<path d="M10943 39699
L10600 39699
" />
<path d="M9333 41953
L10517 41953
" />
<path d="M11362 37440
L11244 37440
" />
<path d="M11244 37363
L11362 37363
" />
<path d="M8744 39542
L8744 39660
" />
<path d="M10478.1 41991.1 A39.3701 39.3701 0.0 0 0 10517.4 41953 " />
<path d="M9333.92 41953 A39.3701 39.3701 0.0 0 0 9373.27 41991.1 " />
<path d="M11572 37869
L11572 37475
" />
<path d="M8278 37475
L8278 37869
" />
<path d="M9337 38195
L9640 38195
" />
<path d="M10211 38195
L10211 38274
" />
<path d="M10211 38195
L10514 38195
" />
<path d="M10514 38195
L10514 38274
" />
<path d="M11116 38274
L10929 38274
" />
<path d="M10654 38274
L10514 38274
" />
<path d="M9640 38195
L9640 38274
" />
<path d="M10211 38274
L9640 38274
" />
<path d="M11116 39542
L8734 39542
" />
<path d="M8486 37438
L8487 37414
" />
<path d="M8487 37414
L8487 37396
" />
<path d="M8487 37396
L8487 37160
" />
<path d="M8488 37892
L8487 37877
" />
<path d="M11363 37396
L11364 37422
" />
<path d="M11364 37422
L11365 37445
" />
<path d="M11365 37445
L11368 37463
" />
<path d="M11368 37463
L11373 37473
" />
<path d="M18352 41991
L17247 41991
" />
<path d="M19118 37440
L19118 37363
" />
<path d="M19236 37363
L19236 37440
" />
<path d="M16362.7 39404.5 A255.906 255.906 0.0 0 0 16618.6 39660.4 " />
<circle cx="19177.6" cy="37672.2" r="255.906" /> 
<circle cx="16913.9" cy="38656.5" r="196.85" /> 
<circle cx="16421.7" cy="37672.2" r="255.906" /> 
<path d="M17799 38656
L17799 37672
" />
<path d="M19236.8 37892.2 A393.701 393.701 0.0 0 0 19236.7 37899.8 " />
<path d="M16347 37475
L16353 37471
" />
<path d="M16353 37471
L16358 37458
" />
<path d="M16358 37458
L16360 37438
" />
<path d="M16176 37475
L16176 37869
" />
<path d="M16795 38636
L17071 38636
" />
<path d="M18528 38636
L18803 38636
" />
<path d="M16608 38274
L16608 39522
" />
<path d="M18990 39522
L18990 38274
" />
<path d="M16608 39522
L18990 39522
" />
<path d="M16608 39542
L16608 39522
" />
<path d="M18990 39542
L18990 39522
" />
<path d="M16608 39522
L16589 39522
" />
<path d="M19010 39522
L18990 39522
" />
<path d="M16480 39404
L16362 39404
" />
<path d="M16362 37363
L16480 37363
" />
<path d="M16480 37440
L16362 37440
" />
<path d="M18980 39542
L18980 39660
" />
<path d="M19118 39404
L19236 39404
" />
<path d="M19236 37083
L19118 37083
" />
<path d="M16480 37083
L16362 37083
" />
<path d="M19260 37475
L19260 37869
" />
<path d="M16338 37869
L16338 37475
" />
<path d="M19422 37869
L19422 37475
" />
<path d="M16480 37363
L16480 37083
" />
<path d="M16362 37363
L16362 37083
" />
<path d="M16362 37081
L16480 37081
" />
<path d="M16480 37081
L16480 37083
" />
<path d="M16362 37083
L16362 37081
" />
<path d="M19118 39404
L19118 37440
" />
<path d="M19236 39404
L19236 37440
" />
<path d="M16480 39404
L16480 37440
" />
<path d="M16362 39404
L16362 37440
" />
<path d="M18980.8 39660.4 A255.906 255.906 0.0 0 0 19236.7 39404.5 " />
<path d="M18996.5 39541.4 A137.795 137.795 0.0 0 0 19118.6 39404.5 " />
<path d="M19118 37363
L19118 37083
" />
<path d="M19236 37363
L19236 37083
" />
<path d="M19118 37081
L19236 37081
" />
<path d="M19118 37083
L19118 37081
" />
<path d="M19236 37081
L19236 37083
" />
<path d="M19237 37160
L19237 37396
" />
<path d="M16480.8 39404.5 A137.795 137.795 0.0 0 0 16602.9 39541.4 " />
<path d="M16480 37363
L16480 37440
" />
<path d="M16362 37440
L16362 37363
" />
<path d="M18980 39660
L16618 39660
" />
<circle cx="18685.5" cy="38656.5" r="196.85" /> 
<path d="M19118.6 37490.9 A91.7362 91.7362 0.0 0 0 19113.2 37532.2 " />
<path d="M16795 37967
L17071 37967
" />
<path d="M17071 37967
L17071 38636
" />
<path d="M16795 37967
L16795 38636
" />
<path d="M18803 37967
L18803 38636
" />
<path d="M18803 37967
L18528 37967
" />
<path d="M18528 37967
L18528 38636
" />
<path d="M19422 37475
L19260 37475
" />
<path d="M19422 37869
L19260 37869
" />
<path d="M16176 37475
L16338 37475
" />
<path d="M16176 37869
L16338 37869
" />
<path d="M19422 37475
L19446 37475
" />
<path d="M19446 37869
L19422 37869
" />
<path d="M16152 37475
L16176 37475
" />
<path d="M16176 37869
L16152 37869
" />
<path d="M16486.1 37532.2 A94.2591 94.2591 0.0 0 0 16480.8 37490.9 " />
<path d="M16486 37532
L16486 37812
" />
<path d="M16480.8 37853.6 A91.7362 91.7362 0.0 0 0 16486.1 37812.3 " />
<path d="M19113.2 37812.3 A94.2591 94.2591 0.0 0 0 19118.6 37853.6 " />
<path d="M19113 37812
L19113 37532
" />
<path d="M17799 38656
L18685 38656
" />
<path d="M17799 37672
L19177 37672
" />
<path d="M17136 39660
L17207 41953
" />
<path d="M18391 41953
L18463 39660
" />
<path d="M18803 38754
L18528 38754
" />
<path d="M18803 38636
L18803 38754
" />
<path d="M18528 38754
L18528 38636
" />
<path d="M16795 38754
L17071 38754
" />
<path d="M16795 38754
L16795 38636
" />
<path d="M17071 38636
L17071 38754
" />
<path d="M17211 38274
L17071 38274
" />
<path d="M16795 38274
L16608 38274
" />
<path d="M17211 38195
L17211 38274
" />
<path d="M19247 37473
L19252 37475
" />
<path d="M19252 37475
L19260 37475
" />
<path d="M19260 37869
L19241 37869
" />
<path d="M19241.8 37869.1 A34.5701 34.5701 0.0 0 0 19236.8 37892.2 " />
<path d="M16361 37877
L16358 37869
" />
<path d="M16358 37869
L16357 37869
" />
<path d="M16357 37869
L16338 37869
" />
<path d="M16338 37475
L16347 37475
" />
<path d="M16362.7 37899.8 A393.701 393.701 0.0 0 0 16362.6 37892.2 " />
<path d="M16781 39660
L16781 39699
" />
<path d="M17124 39699
L17124 39660
" />
<path d="M18474 39660
L18474 39699
" />
<path d="M18817 39699
L18817 39660
" />
<path d="M16589.1 39522.6 A19.685 19.685 0.0 0 0 16608.7 39542.3 " />
<path d="M18990.6 39542.3 A19.685 19.685 0.0 0 0 19010.3 39522.6 " />
<path d="M16589 39522
L16589 38274
" />
<path d="M16589 38274
L16608 38274
" />
<path d="M19010 38274
L19010 39522
" />
<path d="M18990 38274
L19010 38274
" />
<path d="M16589 38195
L16589 38274
" />
<path d="M16589 38195
L16795 38195
" />
<path d="M17071 38195
L17211 38195
" />
<path d="M19010 38195
L19010 38274
" />
<path d="M18388 38195
L18528 38195
" />
<path d="M18803 38195
L19010 38195
" />
<path d="M17124 39699
L16781 39699
" />
<path d="M18817 39699
L18474 39699
" />
<path d="M17207 41953
L18391 41953
" />
<path d="M19236 37440
L19118 37440
" />
<path d="M19118 37363
L19236 37363
" />
<path d="M16618 39542
L16618 39660
" />
<path d="M18352.1 41991.1 A39.3701 39.3701 0.0 0 0 18391.4 41953 " />
<path d="M17207.9 41953 A39.3701 39.3701 0.0 0 0 17247.3 41991.1 " />
<path d="M19446 37869
L19446 37475
" />
<path d="M16152 37475
L16152 37869
" />
<path d="M17211 38195
L17514 38195
" />
<path d="M18085 38195
L18085 38274
" />
<path d="M18085 38195
L18388 38195
" />
<path d="M18388 38195
L18388 38274
" />
<path d="M18990 38274
L18803 38274
" />
<path d="M18528 38274
L18388 38274
" />
<path d="M17514 38195
L17514 38274
" />
<path d="M18085 38274
L17514 38274
" />
<path d="M18990 39542
L16608 39542
" />
<path d="M16360 37438
L16361 37414
" />
<path d="M16361 37414
L16361 37396
" />
<path d="M16361 37396
L16361 37160
" />
<path d="M16362 37892
L16361 37877
" />
<path d="M19237 37396
L19238 37422
" />
<path d="M19238 37422
L19239 37445
" />
<path d="M19239 37445
L19242 37463
" />
<path d="M19242 37463
L19247 37473
" />
</g>
<g style="fill:#008484; fill-opacity:0.0; 
stroke:#008484; stroke-width:59.0551; stroke-opacity:1; 
stroke-linecap:round; stroke-linejoin:round;">
<path d="M89763 36760
L76963 36760
" />
<path d="M76963 36760
L76963 43760
" />
<path d="M76963 43760
L89763 43760
" />
<path d="M89763 43760
L89763 36760
" />
<path d="M86963 43760
L86963 40760
" />
<path d="M86963 40760
L79763 40760
" />
<path d="M79763 40760
L79763 43760
" />
<path d="M86363 43760
L86363 47160
" />
<path d="M86363 47160
L80363 47160
" />
<path d="M80363 47160
L80363 43760
" />
<path d="M16722 32469
L16722 32390
" />
<path d="M16722 31447
L16722 31518
" />
<path d="M17993.3 31570 A786.653 786.653 0.0 0 0 16722.6 31445.5 " />
<path d="M17727.3 31519.1 A608.718 608.718 0.0 0 0 16899.3 31518.7 " />
<path d="M16727.6 32479.6 A782.385 782.385 0.0 0 0 18002.1 32343.1 " />
<path d="M16913.9 32390.1 A582.991 582.991 0.0 0 0 17720.2 32382.5 " />
<path d="M13179 32469
L13179 32390
" />
<path d="M13179 31447
L13179 31518
" />
<path d="M14450 31570 A786.653 786.653 0.0 0 0 13179.2 31445.5 " />
<path d="M14184 31519.1 A608.718 608.718 0.0 0 0 13356 31518.7 " />
<path d="M13184.3 32479.6 A782.385 782.385 0.0 0 0 14458.8 32343.1 " />
<path d="M13370.6 32390.1 A582.991 582.991 0.0 0 0 14176.9 32382.5 " />
<path d="M9242 32469
L9242 32390
" />
<path d="M9242 31447
L9242 31518
" />
<path d="M10513 31570 A786.653 786.653 0.0 0 0 9242.24 31445.5 " />
<path d="M10247 31519.1 A608.718 608.718 0.0 0 0 9419.01 31518.7 " />
<path d="M9247.27 32479.6 A782.385 782.385 0.0 0 0 10521.8 32343.1 " />
<path d="M9433.62 32390.1 A582.991 582.991 0.0 0 0 10239.9 32382.5 " />
</g>
<g style="fill:#008484; fill-opacity:0.0; 
stroke:#008484; stroke-width:150; stroke-opacity:1; 
stroke-linecap:round; stroke-linejoin:round;">
<path d="M50966.3 4522.64 A500 500 0.0 0 0 50466.3 5022.64 " />
<path d="M50966 4522
L88966 4522
" />
<path d="M50466 25022
L50466 5022
" />
<path d="M50466.3 25022.6 A500 500 0.0 0 0 50966.3 25522.6 " />
<path d="M50966 25522
L88966 25522
" />
<path d="M88966.3 25522.6 A500 500 0.0 0 0 89466.3 25022.6 " />
<path d="M88966 4522
L89466 5022
" />
<path d="M89466 5022
L89466 9522
" />
<path d="M89466 9522
L89966 10022
" />
<path d="M89966 10022
L89966 24022
" />
<path d="M89966 24022
L89466 24522
" />
<path d="M89466 24522
L89466 25022
" />
<path d="M59366 5022
L57366 5022
" />
<path d="M57366 5022
L57366 6022
" />
<path d="M57366 6022
L59366 6022
" />
<circle cx="56466.3" cy="5522.64" r="750" /> 
<circle cx="76466.3" cy="11522.6" r="750" /> 
<circle cx="85966.3" cy="5522.64" r="750" /> 
<path d="M67366 6022
L59366 6022
" />
<path d="M59366 6022
L59366 5022
" />
<path d="M67366 6022
L67366 5022
" />
<path d="M67366 5022
L59366 5022
" />
<path d="M75966 5022
L75966 6022
" />
<path d="M75966 6022
L67966 6022
" />
<path d="M67966 6022
L67966 5022
" />
<path d="M67966 5022
L75966 5022
" />
<path d="M84966 5022
L76966 5022
" />
<path d="M76966 5022
L76966 6022
" />
<path d="M76966 6022
L84966 6022
" />
<path d="M84966 6022
L84966 5022
" />
<path d="M86966 23022
L88966 23022
" />
<path d="M88966 23022
L88966 5022
" />
<path d="M88966 5022
L86966 5022
" />
<path d="M86966 5022
L86966 23022
" />
<circle cx="88466.3" cy="24522.6" r="750" /> 
<circle cx="76466.3" cy="22522.6" r="750" /> 
<circle cx="55966.3" cy="24522.6" r="750" /> 
<path d="M86966 25022
L78966 25022
" />
<path d="M78966 24022
L86966 24022
" />
<path d="M77966 24022
L69966 24022
" />
<path d="M69966 25022
L77966 25022
" />
<path d="M60966 25022
L68966 25022
" />
<path d="M68966 24022
L60966 24022
" />
<path d="M77966 25022
L77966 24022
" />
<path d="M78966 25022
L78966 24022
" />
<path d="M69966 24022
L69966 25022
" />
<path d="M68966 24022
L68966 25022
" />
<path d="M86966 24022
L86966 25022
" />
<path d="M60966 25022
L60966 24022
" />
</g>
<g style="fill:#008484; fill-opacity:0.0; 
stroke:#008484; stroke-width:59.0551; stroke-opacity:1; 
stroke-linecap:round; stroke-linejoin:round;">
<path d="M30793 39432
L30202 39432
" />
<path d="M30793 41400
L30793 39432
" />
<path d="M30202 41400
L30793 41400
" />
<path d="M20950 39432
L21541 39432
" />
<path d="M20950 41400
L20950 39432
" />
<path d="M21541 41400
L20950 41400
" />
<path d="M21541 42463
L30202 42463
" />
<path d="M21541 41400
L21541 42463
" />
<path d="M30202 41400
L30202 42463
" />
<path d="M30202 32739
L30202 41400
" />
<path d="M21541 32739
L30202 32739
" />
<path d="M21541 41400
L21541 32739
" />
<path d="M25871 41400
L30202 41400
" />
<path d="M25871 41400
L21541 41400
" />
<path d="M41422 39432
L40832 39432
" />
<path d="M41422 41400
L41422 39432
" />
<path d="M40832 41400
L41422 41400
" />
<path d="M31580 39432
L32170 39432
" />
<path d="M31580 41400
L31580 39432
" />
<path d="M32170 41400
L31580 41400
" />
<path d="M32170 42463
L40832 42463
" />
<path d="M32170 41400
L32170 42463
" />
<path d="M40832 41400
L40832 42463
" />
<path d="M40832 32739
L40832 41400
" />
<path d="M32170 32739
L40832 32739
" />
<path d="M32170 41400
L32170 32739
" />
<path d="M36501 41400
L40832 41400
" />
<path d="M36501 41400
L32170 41400
" />
<path d="M52052 39432
L51462 39432
" />
<path d="M52052 41400
L52052 39432
" />
<path d="M51462 41400
L52052 41400
" />
<path d="M42210 39432
L42800 39432
" />
<path d="M42210 41400
L42210 39432
" />
<path d="M42800 41400
L42210 41400
" />
<path d="M42800 42463
L51462 42463
" />
<path d="M42800 41400
L42800 42463
" />
<path d="M51462 41400
L51462 42463
" />
<path d="M51462 32739
L51462 41400
" />
<path d="M42800 32739
L51462 32739
" />
<path d="M42800 41400
L42800 32739
" />
<path d="M47131 41400
L51462 41400
" />
<path d="M47131 41400
L42800 41400
" />
<path d="M62714 39432
L62123 39432
" />
<path d="M62714 41400
L62714 39432
" />
<path d="M62123 41400
L62714 41400
" />
<path d="M52871 39432
L53462 39432
" />
<path d="M52871 41400
L52871 39432
" />
<path d="M53462 41400
L52871 41400
" />
<path d="M53462 42463
L62123 42463
" />
<path d="M53462 41400
L53462 42463
" />
<path d="M62123 41400
L62123 42463
" />
<path d="M62123 32739
L62123 41400
" />
<path d="M53462 32739
L62123 32739
" />
<path d="M53462 41400
L53462 32739
" />
<path d="M57793 41400
L62123 41400
" />
<path d="M57793 41400
L53462 41400
" />
<path d="M76164 36760
L63364 36760
" />
<path d="M63364 36760
L63364 43760
" />
<path d="M63364 43760
L76164 43760
" />
<path d="M76164 43760
L76164 36760
" />
<path d="M73364 43760
L73364 40760
" />
<path d="M73364 40760
L66164 40760
" />
<path d="M66164 40760
L66164 43760
" />
<path d="M72764 43760
L72764 47160
" />
<path d="M72764 47160
L66764 47160
" />
<path d="M66764 47160
L66764 43760
" />
</g>
<g style="fill:#C2C200; fill-opacity:0.0; 
stroke:#C2C200; stroke-width:59.0551; stroke-opacity:1; 
stroke-linecap:round; stroke-linejoin:round;">
<path d="M10386 555
L10254 367
" />
<path d="M10161 555
L10161 161
L10311 161
L10348 180
L10367 198
L10386 236
L10386 292
L10367 330
L10348 348
L10311 367
L10161 367
" />
<path d="M10554 348
L10686 348
" />
<path d="M10742 555
L10554 555
L10554 161
L10742 161
" />
<path d="M11042 348
L10911 348
" />
<path d="M10911 555
L10911 161
L11098 161
" />
<path d="M11304 161
L11304 255
" />
<path d="M11211 217
L11304 255
L11398 217
" />
<path d="M11248 330
L11304 255
L11361 330
" />
<path d="M11604 161
L11604 255
" />
<path d="M11511 217
L11604 255
L11698 217
" />
<path d="M11548 330
L11604 255
L11661 330
" />
<path d="M87157 555
L87026 367
" />
<path d="M86932 555
L86932 161
L87082 161
L87120 180
L87139 198
L87157 236
L87157 292
L87139 330
L87120 348
L87082 367
L86932 367
" />
<path d="M87326 348
L87457 348
" />
<path d="M87514 555
L87326 555
L87326 161
L87514 161
" />
<path d="M87814 348
L87682 348
" />
<path d="M87682 555
L87682 161
L87870 161
" />
<path d="M88076 161
L88076 255
" />
<path d="M87982 217
L88076 255
L88170 217
" />
<path d="M88020 330
L88076 255
L88132 330
" />
<path d="M88376 161
L88376 255
" />
<path d="M88282 217
L88376 255
L88470 217
" />
<path d="M88320 330
L88376 255
L88432 330
" />
<path d="M10386 26145
L10254 25958
" />
<path d="M10161 26145
L10161 25751
L10311 25751
L10348 25770
L10367 25789
L10386 25826
L10386 25883
L10367 25920
L10348 25939
L10311 25958
L10161 25958
" />
<path d="M10554 25939
L10686 25939
" />
<path d="M10742 26145
L10554 26145
L10554 25751
L10742 25751
" />
<path d="M11042 25939
L10911 25939
" />
<path d="M10911 26145
L10911 25751
L11098 25751
" />
<path d="M11304 25751
L11304 25845
" />
<path d="M11211 25808
L11304 25845
L11398 25808
" />
<path d="M11248 25920
L11304 25845
L11361 25920
" />
<path d="M11604 25751
L11604 25845
" />
<path d="M11511 25808
L11604 25845
L11698 25808
" />
<path d="M11548 25920
L11604 25845
L11661 25920
" />
<path d="M13338 37622
L13395 37641
L13488 37641
L13526 37622
L13545 37604
L13563 37566
L13563 37529
L13545 37491
L13526 37472
L13488 37454
L13413 37435
L13376 37416
L13357 37397
L13338 37360
L13338 37322
L13357 37285
L13376 37266
L13413 37247
L13507 37247
L13563 37266
" />
<path d="M13695 37247
L13788 37641
L13863 37360
L13938 37641
L14032 37247
" />
<path d="M14163 37285
L14182 37266
L14220 37247
L14313 37247
L14351 37266
L14370 37285
L14388 37322
L14388 37360
L14370 37416
L14145 37641
L14388 37641
" />
<path d="M9401 37622
L9458 37641
L9551 37641
L9589 37622
L9608 37604
L9626 37566
L9626 37529
L9608 37491
L9589 37472
L9551 37454
L9476 37435
L9439 37416
L9420 37397
L9401 37360
L9401 37322
L9420 37285
L9439 37266
L9476 37247
L9570 37247
L9626 37266
" />
<path d="M9758 37247
L9851 37641
L9926 37360
L10001 37641
L10095 37247
" />
<path d="M10208 37247
L10451 37247
L10320 37397
L10376 37397
L10414 37416
L10433 37435
L10451 37472
L10451 37566
L10433 37604
L10414 37622
L10376 37641
L10264 37641
L10226 37622
L10208 37604
" />
<path d="M17275 37622
L17332 37641
L17425 37641
L17463 37622
L17482 37604
L17500 37566
L17500 37529
L17482 37491
L17463 37472
L17425 37454
L17350 37435
L17313 37416
L17294 37397
L17275 37360
L17275 37322
L17294 37285
L17313 37266
L17350 37247
L17444 37247
L17500 37266
" />
<path d="M17632 37247
L17725 37641
L17800 37360
L17875 37641
L17969 37247
" />
<path d="M18325 37641
L18100 37641
" />
<path d="M18213 37641
L18213 37247
L18175 37304
L18138 37341
L18100 37360
" />
<path d="M82781 41444
L82781 41726
L82763 41782
L82725 41819
L82669 41838
L82631 41838
" />
<path d="M82931 41444
L83175 41444
L83044 41594
L83100 41594
L83138 41613
L83156 41632
L83175 41669
L83175 41763
L83156 41801
L83138 41819
L83100 41838
L82988 41838
L82950 41819
L82931 41801
" />
<path d="M17262 33334
L17262 32940
L17356 32940
L17412 32959
L17449 32997
L17468 33034
L17487 33109
L17487 33165
L17468 33240
L17449 33278
L17412 33315
L17356 33334
L17262 33334
" />
<path d="M17862 33334
L17637 33334
" />
<path d="M17749 33334
L17749 32940
L17712 32997
L17674 33034
L17637 33053
" />
</g>
<g style="fill:#008484; fill-opacity:0.0; 
stroke:#008484; stroke-width:59.0551; stroke-opacity:1; 
stroke-linecap:round; stroke-linejoin:round;">
<path d="M16032 32814
L16032 32421
" />
<path d="M16257 32814
L16088 32589
" />
<path d="M16257 32421
L16032 32646
" />
</g>
<g style="fill:#C2C200; fill-opacity:0.0; 
stroke:#C2C200; stroke-width:59.0551; stroke-opacity:1; 
stroke-linecap:round; stroke-linejoin:round;">
<path d="M13718 33334
L13718 32940
L13812 32940
L13868 32959
L13906 32997
L13925 33034
L13943 33109
L13943 33165
L13925 33240
L13906 33278
L13868 33315
L13812 33334
L13718 33334
" />
<path d="M14093 32978
L14112 32959
L14150 32940
L14243 32940
L14281 32959
L14300 32978
L14318 33015
L14318 33053
L14300 33109
L14075 33334
L14318 33334
" />
</g>
<g style="fill:#008484; fill-opacity:0.0; 
stroke:#008484; stroke-width:59.0551; stroke-opacity:1; 
stroke-linecap:round; stroke-linejoin:round;">
<path d="M12489 32814
L12489 32421
" />
<path d="M12714 32814
L12545 32589
" />
<path d="M12714 32421
L12489 32646
" />
</g>
<g style="fill:#C2C200; fill-opacity:0.0; 
stroke:#C2C200; stroke-width:59.0551; stroke-opacity:1; 
stroke-linecap:round; stroke-linejoin:round;">
<path d="M9781 33334
L9781 32940
L9875 32940
L9931 32959
L9969 32997
L9988 33034
L10006 33109
L10006 33165
L9988 33240
L9969 33278
L9931 33315
L9875 33334
L9781 33334
" />
<path d="M10138 32940
L10381 32940
L10250 33090
L10306 33090
L10344 33109
L10363 33128
L10381 33165
L10381 33259
L10363 33297
L10344 33315
L10306 33334
L10194 33334
L10156 33315
L10138 33297
" />
</g>
<g style="fill:#008484; fill-opacity:0.0; 
stroke:#008484; stroke-width:59.0551; stroke-opacity:1; 
stroke-linecap:round; stroke-linejoin:round;">
<path d="M8552 32814
L8552 32421
" />
<path d="M8777 32814
L8608 32589
" />
<path d="M8777 32421
L8552 32646
" />
</g>
<g style="fill:#008484; fill-opacity:0.0; 
stroke:#008484; stroke-width:80; stroke-opacity:1; 
stroke-linecap:round; stroke-linejoin:round;">
<path d="M69832 15303
L69832 15589
L69813 15646
L69775 15684
L69718 15703
L69680 15703
" />
<path d="M70232 15703
L70004 15703
" />
<path d="M70118 15703
L70118 15303
L70080 15360
L70042 15398
L70004 15417
" />
</g>
<g style="fill:#C2C200; fill-opacity:0.0; 
stroke:#C2C200; stroke-width:80; stroke-opacity:1; 
stroke-linecap:round; stroke-linejoin:round;">
</g>
<g style="fill:#C2C200; fill-opacity:0.0; 
stroke:#C2C200; stroke-width:59.0551; stroke-opacity:1; 
stroke-linecap:round; stroke-linejoin:round;">
<path d="M25581 43310
L25581 42917
L25731 42917
L25768 42936
L25787 42954
L25806 42992
L25806 43048
L25787 43086
L25768 43104
L25731 43123
L25581 43123
" />
<path d="M26181 43310
L25956 43310
" />
<path d="M26068 43310
L26068 42917
L26031 42973
L25993 43011
L25956 43029
" />
<path d="M36211 43310
L36211 42917
L36361 42917
L36398 42936
L36417 42954
L36436 42992
L36436 43048
L36417 43086
L36398 43104
L36361 43123
L36211 43123
" />
<path d="M36586 42954
L36604 42936
L36642 42917
L36736 42917
L36773 42936
L36792 42954
L36811 42992
L36811 43029
L36792 43086
L36567 43310
L36811 43310
" />
<path d="M46841 43310
L46841 42917
L46991 42917
L47028 42936
L47047 42954
L47065 42992
L47065 43048
L47047 43086
L47028 43104
L46991 43123
L46841 43123
" />
<path d="M47197 42917
L47440 42917
L47309 43067
L47365 43067
L47403 43086
L47422 43104
L47440 43142
L47440 43235
L47422 43273
L47403 43292
L47365 43310
L47253 43310
L47215 43292
L47197 43273
" />
<path d="M57502 43310
L57502 42917
L57652 42917
L57689 42936
L57708 42954
L57727 42992
L57727 43048
L57708 43086
L57689 43104
L57652 43123
L57502 43123
" />
<path d="M58064 43048
L58064 43310
" />
<path d="M57971 42898
L57877 43179
L58121 43179
" />
<path d="M69183 41444
L69183 41726
L69164 41782
L69127 41819
L69070 41838
L69033 41838
" />
<path d="M69352 41482
L69370 41463
L69408 41444
L69502 41444
L69539 41463
L69558 41482
L69577 41519
L69577 41557
L69558 41613
L69333 41838
L69577 41838
" />
<path d="M87157 26145
L87026 25958
" />
<path d="M86932 26145
L86932 25751
L87082 25751
L87120 25770
L87139 25789
L87157 25826
L87157 25883
L87139 25920
L87120 25939
L87082 25958
L86932 25958
" />
<path d="M87326 25939
L87457 25939
" />
<path d="M87514 26145
L87326 26145
L87326 25751
L87514 25751
" />
<path d="M87814 25939
L87682 25939
" />
<path d="M87682 26145
L87682 25751
L87870 25751
" />
<path d="M88076 25751
L88076 25845
" />
<path d="M87982 25808
L88076 25845
L88170 25808
" />
<path d="M88020 25920
L88076 25845
L88132 25920
" />
<path d="M88376 25751
L88376 25845
" />
<path d="M88282 25808
L88376 25845
L88470 25808
" />
<path d="M88320 25920
L88376 25845
L88432 25920
" />
</g>
<g style="fill:#000000; fill-opacity:0.0; 
stroke:#000000; stroke-width:59.0551; stroke-opacity:1; 
stroke-linecap:round; stroke-linejoin:round;">
</g>
<g style="fill:#FF00FF; fill-opacity:0.0; 
stroke:#FF00FF; stroke-width:59.0551; stroke-opacity:1; 
stroke-linecap:round; stroke-linejoin:round;">
</g>
<g style="fill:#FF00FF; fill-opacity:0.0; 
stroke:#FF00FF; stroke-width:118.11; stroke-opacity:1; 
stroke-linecap:round; stroke-linejoin:round;">
<path d="M75014 41057
L75014 40466
L75154 40466
L75239 40495
L75295 40551
L75323 40607
L75351 40720
L75351 40804
L75323 40916
L75295 40973
L75239 41029
L75154 41057
L75014 41057
" />
<path d="M75829 41029
L75773 41057
L75660 41057
L75604 41029
L75576 40973
L75576 40748
L75604 40691
L75660 40663
L75773 40663
L75829 40691
L75857 40748
L75857 40804
L75576 40860
" />
<path d="M75717 40466
L75688 40495
L75717 40523
L75745 40495
L75717 40466
L75717 40523
" />
<path d="M76110 41057
L76110 40663
" />
<path d="M76110 40720
L76138 40691
L76195 40663
L76279 40663
L76335 40691
L76363 40748
L76363 41057
" />
<path d="M76363 40748
L76392 40691
L76448 40663
L76532 40663
L76588 40691
L76616 40748
L76616 41057
" />
<path d="M77123 41029
L77066 41057
L76954 41057
L76898 41029
L76870 40973
L76870 40748
L76898 40691
L76954 40663
L77066 40663
L77123 40691
L77151 40748
L77151 40804
L76870 40860
" />
<path d="M77376 41029
L77432 41057
L77544 41057
L77601 41029
L77629 40973
L77629 40945
L77601 40888
L77544 40860
L77460 40860
L77404 40832
L77376 40776
L77376 40748
L77404 40691
L77460 40663
L77544 40663
L77601 40691
" />
<path d="M77882 41057
L77882 40663
" />
<path d="M77882 40466
L77854 40495
L77882 40523
L77910 40495
L77882 40466
L77882 40523
" />
<path d="M78248 41057
L78191 41029
L78163 41001
L78135 40945
L78135 40776
L78163 40720
L78191 40691
L78248 40663
L78332 40663
L78388 40691
L78416 40720
L78444 40776
L78444 40945
L78416 41001
L78388 41029
L78332 41057
L78248 41057
" />
<path d="M78697 41001
L78726 41029
L78697 41057
L78669 41029
L78697 41001
L78697 41057
" />
<path d="M78697 40832
L78669 40495
L78697 40466
L78726 40495
L78697 40832
L78697 40466
" />
<path d="M70627 41470
L70823 42061
L71020 41470
" />
<path d="M71442 42033
L71386 42061
L71273 42061
L71217 42033
L71189 41977
L71189 41752
L71217 41695
L71273 41667
L71386 41667
L71442 41695
L71470 41752
L71470 41808
L71189 41864
" />
<path d="M71723 42061
L71723 41667
" />
<path d="M71723 41470
L71695 41499
L71723 41527
L71751 41499
L71723 41470
L71723 41527
" />
<path d="M72258 42061
L72258 41470
" />
<path d="M72258 42033
L72201 42061
L72089 42061
L72033 42033
L72005 42005
L71976 41948
L71976 41780
L72005 41723
L72033 41695
L72089 41667
L72201 41667
L72258 41695
" />
<path d="M72539 42061
L72539 41667
" />
<path d="M72539 41780
L72567 41723
L72595 41695
L72651 41667
L72708 41667
" />
<path d="M72989 42061
L72933 42033
L72904 42005
L72876 41948
L72876 41780
L72904 41723
L72933 41695
L72989 41667
L73073 41667
L73129 41695
L73158 41723
L73186 41780
L73186 41948
L73158 42005
L73129 42033
L73073 42061
L72989 42061
" />
<path d="M73692 42061
L73692 41470
" />
<path d="M73692 42033
L73636 42061
L73523 42061
L73467 42033
L73439 42005
L73411 41948
L73411 41780
L73439 41723
L73467 41695
L73523 41667
L73636 41667
L73692 41695
" />
<path d="M73973 42061
L73973 41667
" />
<path d="M73973 41470
L73945 41499
L73973 41527
L74001 41499
L73973 41470
L73973 41527
" />
<path d="M74254 41667
L74254 42061
" />
<path d="M74254 41723
L74282 41695
L74339 41667
L74423 41667
L74479 41695
L74507 41752
L74507 42061
" />
<path d="M74789 42061
L74789 41667
" />
<path d="M74789 41470
L74760 41499
L74789 41527
L74817 41499
L74789 41470
L74789 41527
" />
<path d="M75042 42033
L75098 42061
L75210 42061
L75267 42033
L75295 41977
L75295 41948
L75267 41892
L75210 41864
L75126 41864
L75070 41836
L75042 41780
L75042 41752
L75070 41695
L75126 41667
L75210 41667
L75267 41695
" />
<path d="M75998 42061
L75998 41470
L76138 41470
L76223 41499
L76279 41555
L76307 41611
L76335 41723
L76335 41808
L76307 41920
L76279 41977
L76223 42033
L76138 42061
L75998 42061
" />
<path d="M76785 41752
L76870 41780
L76898 41808
L76926 41864
L76926 41948
L76898 42005
L76870 42033
L76813 42061
L76588 42061
L76588 41470
L76785 41470
L76841 41499
L76870 41527
L76898 41583
L76898 41639
L76870 41695
L76841 41723
L76785 41752
L76588 41752
" />
<path d="M77207 42061
L77320 42061
L77376 42033
L77404 42005
L77460 41920
L77488 41808
L77488 41583
L77460 41527
L77432 41499
L77376 41470
L77263 41470
L77207 41499
L77179 41527
L77151 41583
L77151 41723
L77179 41780
L77207 41808
L77263 41836
L77376 41836
L77432 41808
L77460 41780
L77488 41723
" />
<path d="M78107 41667
L78332 41667
" />
<path d="M78191 42061
L78191 41555
L78219 41499
L78276 41470
L78332 41470
" />
<path d="M78613 42061
L78557 42033
L78529 42005
L78501 41948
L78501 41780
L78529 41723
L78557 41695
L78613 41667
L78697 41667
L78754 41695
L78782 41723
L78810 41780
L78810 41948
L78782 42005
L78754 42033
L78697 42061
L78613 42061
" />
<path d="M79147 42061
L79091 42033
L79063 42005
L79035 41948
L79035 41780
L79063 41723
L79091 41695
L79147 41667
L79232 41667
L79288 41695
L79316 41723
L79344 41780
L79344 41948
L79316 42005
L79288 42033
L79232 42061
L79147 42061
" />
<path d="M79513 41667
L79738 41667
" />
<path d="M79597 41470
L79597 41977
L79625 42033
L79682 42061
L79738 42061
" />
<path d="M79935 41667
L79935 42258
" />
<path d="M79935 41695
L79991 41667
L80104 41667
L80160 41695
L80188 41723
L80216 41780
L80216 41948
L80188 42005
L80160 42033
L80104 42061
L79991 42061
L79935 42033
" />
<path d="M80469 42061
L80469 41667
" />
<path d="M80469 41780
L80497 41723
L80525 41695
L80582 41667
L80638 41667
" />
<path d="M80835 42061
L80835 41667
" />
<path d="M80835 41470
L80807 41499
L80835 41527
L80863 41499
L80835 41470
L80835 41527
" />
<path d="M81116 41667
L81116 42061
" />
<path d="M81116 41723
L81144 41695
L81200 41667
L81285 41667
L81341 41695
L81369 41752
L81369 42061
" />
<path d="M81566 41667
L81791 41667
" />
<path d="M81650 41470
L81650 41977
L81678 42033
L81735 42061
L81791 42061
" />
<path d="M82241 42061
L82241 41752
L82213 41695
L82156 41667
L82044 41667
L81988 41695
" />
<path d="M82241 42033
L82185 42061
L82044 42061
L81988 42033
L81960 41977
L81960 41920
L81988 41864
L82044 41836
L82185 41836
L82241 41808
" />
<path d="M82494 42033
L82550 42061
L82663 42061
L82719 42033
L82747 41977
L82747 41948
L82719 41892
L82663 41864
L82578 41864
L82522 41836
L82494 41780
L82494 41752
L82522 41695
L82578 41667
L82663 41667
L82719 41695
" />
<path d="M83000 42005
L83028 42033
L83000 42061
L82972 42033
L83000 42005
L83000 42061
" />
<path d="M83000 41836
L82972 41499
L83000 41470
L83028 41499
L83000 41836
L83000 41470
" />
<path d="M70894 43065
L70556 43065
" />
<path d="M70725 43065
L70725 42474
L70669 42559
L70613 42615
L70556 42643
" />
<path d="M71597 43065
L71597 42474
" />
<path d="M71653 42840
L71822 43065
" />
<path d="M71822 42671
L71597 42896
" />
<path d="M72300 43037
L72244 43065
L72131 43065
L72075 43037
L72047 42981
L72047 42756
L72075 42699
L72131 42671
L72244 42671
L72300 42699
L72328 42756
L72328 42812
L72047 42868
" />
<path d="M72581 43065
L72581 42671
" />
<path d="M72581 42474
L72553 42502
L72581 42531
L72609 42502
L72581 42474
L72581 42531
" />
<path d="M73115 43037
L73059 43065
L72947 43065
L72890 43037
L72862 43009
L72834 42952
L72834 42784
L72862 42727
L72890 42699
L72947 42671
L73059 42671
L73115 42699
" />
<path d="M72890 42446
L73003 42531
L73115 42446
" />
<path d="M73368 43065
L73368 42671
" />
<path d="M73368 42474
L73340 42502
L73368 42531
L73397 42502
L73368 42474
L73368 42531
" />
<path d="M73903 43065
L73903 42756
L73875 42699
L73818 42671
L73706 42671
L73650 42699
" />
<path d="M73903 43037
L73847 43065
L73706 43065
L73650 43037
L73622 42981
L73622 42924
L73650 42868
L73706 42840
L73847 42840
L73903 42812
" />
<path d="M74156 43037
L74212 43065
L74325 43065
L74381 43037
L74409 42981
L74409 42952
L74381 42896
L74325 42868
L74240 42868
L74184 42840
L74156 42784
L74156 42756
L74184 42699
L74240 42671
L74325 42671
L74381 42699
" />
<path d="M74662 43065
L74662 42671
" />
<path d="M74662 42474
L74634 42502
L74662 42531
L74690 42502
L74662 42474
L74662 42531
" />
<path d="M75365 43037
L75421 43065
L75534 43065
L75590 43037
L75618 42981
L75618 42952
L75590 42896
L75534 42868
L75449 42868
L75393 42840
L75365 42784
L75365 42756
L75393 42699
L75449 42671
L75534 42671
L75590 42699
" />
<path d="M76124 42671
L76124 43065
" />
<path d="M75871 42671
L75871 42981
L75899 43037
L75956 43065
L76040 43065
L76096 43037
L76124 43009
" />
<path d="M77137 42474
L76856 42474
L76827 42756
L76856 42727
L76912 42699
L77052 42699
L77109 42727
L77137 42756
L77165 42812
L77165 42952
L77137 43009
L77109 43037
L77052 43065
L76912 43065
L76856 43037
L76827 43009
" />
<path d="M77446 43037
L77446 43065
L77418 43121
L77390 43149
" />
<path d="M78121 42531
L78149 42502
L78205 42474
L78346 42474
L78402 42502
L78430 42531
L78458 42587
L78458 42643
L78430 42727
L78093 43065
L78458 43065
" />
<path d="M79133 43037
L79190 43065
L79302 43065
L79358 43037
L79386 42981
L79386 42952
L79358 42896
L79302 42868
L79218 42868
L79161 42840
L79133 42784
L79133 42756
L79161 42699
L79218 42671
L79302 42671
L79358 42699
" />
<path d="M79893 42671
L79893 43065
" />
<path d="M79640 42671
L79640 42981
L79668 43037
L79724 43065
L79808 43065
L79865 43037
L79893 43009
" />
<path d="M80877 42671
L80877 43065
" />
<path d="M80736 42446
L80596 42868
L80961 42868
" />
<path d="M81636 43065
L81636 42671
" />
<path d="M81636 42474
L81608 42502
L81636 42531
L81664 42502
L81636 42474
L81636 42531
" />
<path d="M81917 43065
L81917 42671
" />
<path d="M81917 42784
L81946 42727
L81974 42699
L82030 42671
L82086 42671
" />
<path d="M82649 42671
L82874 42671
" />
<path d="M82733 42474
L82733 42981
L82761 43037
L82817 43065
L82874 43065
" />
<path d="M82986 42671
L83211 42671
" />
<path d="M83070 42474
L83070 42981
L83098 43037
L83155 43065
L83211 43065
" />
<path d="M3166 23121
L3166 23459
" />
<path d="M3166 23290
L2575 23290
L2660 23346
L2716 23402
L2744 23459
" />
<path d="M2575 22756
L2575 22699
L2604 22643
L2632 22615
L2688 22587
L2800 22559
L2941 22559
L3053 22587
L3110 22615
L3138 22643
L3166 22699
L3166 22756
L3138 22812
L3110 22840
L3053 22868
L2941 22896
L2800 22896
L2688 22868
L2632 22840
L2604 22812
L2575 22756
" />
<path d="M2575 22024
L2575 22306
L2857 22334
L2829 22306
L2800 22249
L2800 22109
L2829 22053
L2857 22024
L2913 21996
L3053 21996
L3110 22024
L3138 22053
L3166 22109
L3166 22249
L3138 22306
L3110 22334
" />
<path d="M3138 21715
L3166 21715
L3222 21743
L3250 21771
" />
<path d="M2575 21349
L2575 21293
L2604 21237
L2632 21209
L2688 21181
L2800 21153
L2941 21153
L3053 21181
L3110 21209
L3138 21237
L3166 21293
L3166 21349
L3138 21406
L3110 21434
L3053 21462
L2941 21490
L2800 21490
L2688 21462
L2632 21434
L2604 21406
L2575 21349
" />
<path d="M2575 20787
L2575 20731
L2604 20675
L2632 20646
L2688 20618
L2800 20590
L2941 20590
L3053 20618
L3110 20646
L3138 20675
L3166 20731
L3166 20787
L3138 20843
L3110 20871
L3053 20900
L2941 20928
L2800 20928
L2688 20900
L2632 20871
L2604 20843
L2575 20787
" />
<path d="M2575 20225
L2575 20168
L2604 20112
L2632 20084
L2688 20056
L2800 20028
L2941 20028
L3053 20056
L3110 20084
L3138 20112
L3166 20168
L3166 20225
L3138 20281
L3110 20309
L3053 20337
L2941 20365
L2800 20365
L2688 20337
L2632 20309
L2604 20281
L2575 20225
" />
<path d="M3166 19325
L2772 19325
" />
<path d="M2829 19325
L2800 19297
L2772 19240
L2772 19156
L2800 19100
L2857 19072
L3166 19072
" />
<path d="M2857 19072
L2800 19044
L2772 18987
L2772 18903
L2800 18847
L2857 18819
L3166 18819
" />
<path d="M3166 18537
L2772 18537
" />
<path d="M2829 18537
L2800 18509
L2772 18453
L2772 18369
L2800 18312
L2857 18284
L3166 18284
" />
<path d="M2857 18284
L2800 18256
L2772 18200
L2772 18116
L2800 18059
L2857 18031
L3166 18031
" />
<path d="M3430 41400
L3430 62
" />
<path d="M7761 41400
L2367 41400
" />
<path d="M7761 62
L2367 62
" />
<path d="M3430 62
L3661 505
" />
<path d="M3430 62
L3199 505
" />
<path d="M3430 41400
L3661 40957
" />
<path d="M3430 41400
L3199 40957
" />
<path d="M9786 46923
L9448 46923
" />
<path d="M9617 46923
L9617 46333
L9561 46417
L9505 46473
L9448 46501
" />
<path d="M10151 46333
L10208 46333
L10264 46361
L10292 46389
L10320 46445
L10348 46558
L10348 46698
L10320 46811
L10292 46867
L10264 46895
L10208 46923
L10151 46923
L10095 46895
L10067 46867
L10039 46811
L10011 46698
L10011 46558
L10039 46445
L10067 46389
L10095 46361
L10151 46333
" />
<path d="M10629 46895
L10629 46923
L10601 46979
L10573 47008
" />
<path d="M10995 46333
L11051 46333
L11107 46361
L11136 46389
L11164 46445
L11192 46558
L11192 46698
L11164 46811
L11136 46867
L11107 46895
L11051 46923
L10995 46923
L10939 46895
L10911 46867
L10883 46811
L10854 46698
L10854 46558
L10883 46445
L10911 46389
L10939 46361
L10995 46333
" />
<path d="M11557 46333
L11614 46333
L11670 46361
L11698 46389
L11726 46445
L11754 46558
L11754 46698
L11726 46811
L11698 46867
L11670 46895
L11614 46923
L11557 46923
L11501 46895
L11473 46867
L11445 46811
L11417 46698
L11417 46558
L11445 46445
L11473 46389
L11501 46361
L11557 46333
" />
<path d="M12120 46333
L12176 46333
L12232 46361
L12260 46389
L12289 46445
L12317 46558
L12317 46698
L12289 46811
L12260 46867
L12232 46895
L12176 46923
L12120 46923
L12064 46895
L12035 46867
L12007 46811
L11979 46698
L11979 46558
L12007 46445
L12035 46389
L12064 46361
L12120 46333
" />
<path d="M13020 46923
L13020 46529
" />
<path d="M13020 46586
L13048 46558
L13104 46529
L13188 46529
L13245 46558
L13273 46614
L13273 46923
" />
<path d="M13273 46614
L13301 46558
L13357 46529
L13442 46529
L13498 46558
L13526 46614
L13526 46923
" />
<path d="M13807 46923
L13807 46529
" />
<path d="M13807 46586
L13835 46558
L13892 46529
L13976 46529
L14032 46558
L14060 46614
L14060 46923
" />
<path d="M14060 46614
L14088 46558
L14145 46529
L14229 46529
L14285 46558
L14313 46614
L14313 46923
" />
<path d="M13863 46125
L9926 46125
" />
<path d="M13863 41400
L13863 47187
" />
<path d="M9926 41400
L9926 47187
" />
<path d="M9926 46125
L10370 45894
" />
<path d="M9926 46125
L10370 46355
" />
<path d="M13863 46125
L13420 45894
" />
<path d="M13863 46125
L13420 46355
" />
<path d="M13723 44758
L13385 44758
" />
<path d="M13554 44758
L13554 44167
L13498 44252
L13442 44308
L13385 44336
" />
<path d="M14088 44167
L14145 44167
L14201 44195
L14229 44223
L14257 44280
L14285 44392
L14285 44533
L14257 44645
L14229 44702
L14201 44730
L14145 44758
L14088 44758
L14032 44730
L14004 44702
L13976 44645
L13948 44533
L13948 44392
L13976 44280
L14004 44223
L14032 44195
L14088 44167
" />
<path d="M14566 44730
L14566 44758
L14538 44814
L14510 44842
" />
<path d="M14932 44167
L14988 44167
L15044 44195
L15073 44223
L15101 44280
L15129 44392
L15129 44533
L15101 44645
L15073 44702
L15044 44730
L14988 44758
L14932 44758
L14876 44730
L14848 44702
L14820 44645
L14791 44533
L14791 44392
L14820 44280
L14848 44223
L14876 44195
L14932 44167
" />
<path d="M15494 44167
L15551 44167
L15607 44195
L15635 44223
L15663 44280
L15691 44392
L15691 44533
L15663 44645
L15635 44702
L15607 44730
L15551 44758
L15494 44758
L15438 44730
L15410 44702
L15382 44645
L15354 44533
L15354 44392
L15382 44280
L15410 44223
L15438 44195
L15494 44167
" />
<path d="M16057 44167
L16113 44167
L16169 44195
L16197 44223
L16226 44280
L16254 44392
L16254 44533
L16226 44645
L16197 44702
L16169 44730
L16113 44758
L16057 44758
L16001 44730
L15973 44702
L15944 44645
L15916 44533
L15916 44392
L15944 44280
L15973 44223
L16001 44195
L16057 44167
" />
<path d="M16957 44758
L16957 44364
" />
<path d="M16957 44420
L16985 44392
L17041 44364
L17125 44364
L17182 44392
L17210 44448
L17210 44758
" />
<path d="M17210 44448
L17238 44392
L17294 44364
L17379 44364
L17435 44392
L17463 44448
L17463 44758
" />
<path d="M17744 44758
L17744 44364
" />
<path d="M17744 44420
L17772 44392
L17829 44364
L17913 44364
L17969 44392
L17997 44448
L17997 44758
" />
<path d="M17997 44448
L18025 44392
L18082 44364
L18166 44364
L18222 44392
L18250 44448
L18250 44758
" />
<path d="M17800 43959
L13863 43959
" />
<path d="M17800 41400
L17800 45022
" />
<path d="M13863 41400
L13863 45022
" />
<path d="M13863 43959
L14307 43728
" />
<path d="M13863 43959
L14307 44190
" />
<path d="M17800 43959
L17357 43728
" />
<path d="M17800 43959
L17357 44190
" />
<path d="M19389 44225
L19417 44196
L19474 44168
L19614 44168
L19670 44196
L19699 44225
L19727 44281
L19727 44337
L19699 44421
L19361 44759
L19727 44759
" />
<path d="M20092 44168
L20149 44168
L20205 44196
L20233 44225
L20261 44281
L20289 44393
L20289 44534
L20261 44646
L20233 44703
L20205 44731
L20149 44759
L20092 44759
L20036 44731
L20008 44703
L19980 44646
L19952 44534
L19952 44393
L19980 44281
L20008 44225
L20036 44196
L20092 44168
" />
<path d="M20570 44731
L20570 44759
L20542 44815
L20514 44843
" />
<path d="M21105 44168
L20823 44168
L20795 44450
L20823 44421
L20880 44393
L21020 44393
L21077 44421
L21105 44450
L21133 44506
L21133 44646
L21105 44703
L21077 44731
L21020 44759
L20880 44759
L20823 44731
L20795 44703
" />
<path d="M21498 44168
L21555 44168
L21611 44196
L21639 44225
L21667 44281
L21695 44393
L21695 44534
L21667 44646
L21639 44703
L21611 44731
L21555 44759
L21498 44759
L21442 44731
L21414 44703
L21386 44646
L21358 44534
L21358 44393
L21386 44281
L21414 44225
L21442 44196
L21498 44168
" />
<path d="M22061 44168
L22117 44168
L22173 44196
L22201 44225
L22230 44281
L22258 44393
L22258 44534
L22230 44646
L22201 44703
L22173 44731
L22117 44759
L22061 44759
L22005 44731
L21976 44703
L21948 44646
L21920 44534
L21920 44393
L21948 44281
L21976 44225
L22005 44196
L22061 44168
" />
<path d="M22961 44759
L22961 44365
" />
<path d="M22961 44421
L22989 44393
L23045 44365
L23129 44365
L23186 44393
L23214 44450
L23214 44759
" />
<path d="M23214 44450
L23242 44393
L23298 44365
L23383 44365
L23439 44393
L23467 44450
L23467 44759
" />
<path d="M23748 44759
L23748 44365
" />
<path d="M23748 44421
L23776 44393
L23832 44365
L23917 44365
L23973 44393
L24001 44450
L24001 44759
" />
<path d="M24001 44450
L24029 44393
L24086 44365
L24170 44365
L24226 44393
L24254 44450
L24254 44759
" />
<path d="M25871 43960
L17800 43960
" />
<path d="M25871 41400
L25871 45023
" />
<path d="M17800 41400
L17800 45023
" />
<path d="M17800 43960
L18244 43729
" />
<path d="M17800 43960
L18244 44191
" />
<path d="M25871 43960
L25428 43729
" />
<path d="M25871 43960
L25428 44191
" />
<path d="M74145 44167
L74510 44167
L74313 44392
L74398 44392
L74454 44420
L74482 44448
L74510 44505
L74510 44645
L74482 44702
L74454 44730
L74398 44758
L74229 44758
L74173 44730
L74145 44702
" />
<path d="M75016 44364
L75016 44758
" />
<path d="M74876 44139
L74735 44561
L75101 44561
" />
<path d="M75354 44730
L75354 44758
L75326 44814
L75298 44842
" />
<path d="M75860 44167
L75748 44167
L75691 44195
L75663 44223
L75607 44308
L75579 44420
L75579 44645
L75607 44702
L75635 44730
L75691 44758
L75804 44758
L75860 44730
L75888 44702
L75916 44645
L75916 44505
L75888 44448
L75860 44420
L75804 44392
L75691 44392
L75635 44420
L75607 44448
L75579 44505
" />
<path d="M76282 44167
L76338 44167
L76394 44195
L76422 44223
L76451 44280
L76479 44392
L76479 44533
L76451 44645
L76422 44702
L76394 44730
L76338 44758
L76282 44758
L76226 44730
L76197 44702
L76169 44645
L76141 44533
L76141 44392
L76169 44280
L76197 44223
L76226 44195
L76282 44167
" />
<path d="M76844 44167
L76901 44167
L76957 44195
L76985 44223
L77013 44280
L77041 44392
L77041 44533
L77013 44645
L76985 44702
L76957 44730
L76901 44758
L76844 44758
L76788 44730
L76760 44702
L76732 44645
L76704 44533
L76704 44392
L76732 44280
L76760 44223
L76788 44195
L76844 44167
" />
<path d="M77744 44758
L77744 44364
" />
<path d="M77744 44420
L77772 44392
L77829 44364
L77913 44364
L77969 44392
L77997 44448
L77997 44758
" />
<path d="M77997 44448
L78025 44392
L78082 44364
L78166 44364
L78222 44392
L78250 44448
L78250 44758
" />
<path d="M78532 44758
L78532 44364
" />
<path d="M78532 44420
L78560 44392
L78616 44364
L78700 44364
L78757 44392
L78785 44448
L78785 44758
" />
<path d="M78785 44448
L78813 44392
L78869 44364
L78953 44364
L79010 44392
L79038 44448
L79038 44758
" />
<path d="M69808 43959
L83430 43959
" />
<path d="M69808 41400
L69808 45022
" />
<path d="M83430 41400
L83430 45022
" />
<path d="M83430 43959
L82987 44190
" />
<path d="M83430 43959
L82987 43728
" />
<path d="M69808 43959
L70252 44190
" />
<path d="M69808 43959
L70252 43728
" />
<path d="M61310 44128
L61676 44128
L61479 44353
L61563 44353
L61619 44381
L61647 44409
L61676 44465
L61676 44606
L61647 44662
L61619 44690
L61563 44718
L61394 44718
L61338 44690
L61310 44662
" />
<path d="M62041 44128
L62097 44128
L62154 44156
L62182 44184
L62210 44240
L62238 44353
L62238 44493
L62210 44606
L62182 44662
L62154 44690
L62097 44718
L62041 44718
L61985 44690
L61957 44662
L61929 44606
L61901 44493
L61901 44353
L61929 44240
L61957 44184
L61985 44156
L62041 44128
" />
<path d="M62519 44690
L62519 44718
L62491 44775
L62463 44803
" />
<path d="M63025 44128
L62913 44128
L62857 44156
L62829 44184
L62772 44268
L62744 44381
L62744 44606
L62772 44662
L62800 44690
L62857 44718
L62969 44718
L63025 44690
L63053 44662
L63082 44606
L63082 44465
L63053 44409
L63025 44381
L62969 44353
L62857 44353
L62800 44381
L62772 44409
L62744 44465
" />
<path d="M63447 44128
L63503 44128
L63560 44156
L63588 44184
L63616 44240
L63644 44353
L63644 44493
L63616 44606
L63588 44662
L63560 44690
L63503 44718
L63447 44718
L63391 44690
L63363 44662
L63335 44606
L63307 44493
L63307 44353
L63335 44240
L63363 44184
L63391 44156
L63447 44128
" />
<path d="M64010 44128
L64066 44128
L64122 44156
L64150 44184
L64178 44240
L64206 44353
L64206 44493
L64178 44606
L64150 44662
L64122 44690
L64066 44718
L64010 44718
L63953 44690
L63925 44662
L63897 44606
L63869 44493
L63869 44353
L63897 44240
L63925 44184
L63953 44156
L64010 44128
" />
<path d="M64910 44718
L64910 44325
" />
<path d="M64910 44381
L64938 44353
L64994 44325
L65078 44325
L65134 44353
L65163 44409
L65163 44718
" />
<path d="M65163 44409
L65191 44353
L65247 44325
L65331 44325
L65388 44353
L65416 44409
L65416 44718
" />
<path d="M65697 44718
L65697 44325
" />
<path d="M65697 44381
L65725 44353
L65781 44325
L65866 44325
L65922 44353
L65950 44409
L65950 44718
" />
<path d="M65950 44409
L65978 44353
L66034 44325
L66119 44325
L66175 44353
L66203 44409
L66203 44718
" />
<path d="M57761 43920
L69808 43920
" />
<path d="M57761 41400
L57761 44983
" />
<path d="M69808 41400
L69808 44983
" />
<path d="M69808 43920
L69365 44151
" />
<path d="M69808 43920
L69365 43689
" />
<path d="M57761 43920
L58205 44151
" />
<path d="M57761 43920
L58205 43689
" />
<path d="M49999 44223
L50028 44195
L50084 44167
L50224 44167
L50281 44195
L50309 44223
L50337 44280
L50337 44336
L50309 44420
L49971 44758
L50337 44758
" />
<path d="M50534 44167
L50928 44167
L50674 44758
" />
<path d="M51181 44730
L51181 44758
L51152 44814
L51124 44842
" />
<path d="M51546 44167
L51602 44167
L51659 44195
L51687 44223
L51715 44280
L51743 44392
L51743 44533
L51715 44645
L51687 44702
L51659 44730
L51602 44758
L51546 44758
L51490 44730
L51462 44702
L51434 44645
L51406 44533
L51406 44392
L51434 44280
L51462 44223
L51490 44195
L51546 44167
" />
<path d="M52109 44167
L52165 44167
L52221 44195
L52249 44223
L52277 44280
L52305 44392
L52305 44533
L52277 44645
L52249 44702
L52221 44730
L52165 44758
L52109 44758
L52052 44730
L52024 44702
L51996 44645
L51968 44533
L51968 44392
L51996 44280
L52024 44223
L52052 44195
L52109 44167
" />
<path d="M52671 44167
L52727 44167
L52784 44195
L52812 44223
L52840 44280
L52868 44392
L52868 44533
L52840 44645
L52812 44702
L52784 44730
L52727 44758
L52671 44758
L52615 44730
L52587 44702
L52559 44645
L52530 44533
L52530 44392
L52559 44280
L52587 44223
L52615 44195
L52671 44167
" />
<path d="M53571 44758
L53571 44364
" />
<path d="M53571 44420
L53599 44392
L53655 44364
L53740 44364
L53796 44392
L53824 44448
L53824 44758
" />
<path d="M53824 44448
L53852 44392
L53908 44364
L53993 44364
L54049 44392
L54077 44448
L54077 44758
" />
<path d="M54358 44758
L54358 44364
" />
<path d="M54358 44420
L54386 44392
L54443 44364
L54527 44364
L54583 44392
L54611 44448
L54611 44758
" />
<path d="M54611 44448
L54640 44392
L54696 44364
L54780 44364
L54836 44392
L54865 44448
L54865 44758
" />
<path d="M47131 43959
L57761 43959
" />
<path d="M47131 41400
L47131 45022
" />
<path d="M57761 41400
L57761 45022
" />
<path d="M57761 43959
L57318 44190
" />
<path d="M57761 43959
L57318 43728
" />
<path d="M47131 43959
L47575 44190
" />
<path d="M47131 43959
L47575 43728
" />
<path d="M39370 44223
L39398 44195
L39454 44167
L39595 44167
L39651 44195
L39679 44223
L39707 44280
L39707 44336
L39679 44420
L39341 44758
L39707 44758
" />
<path d="M39904 44167
L40298 44167
L40044 44758
" />
<path d="M40551 44730
L40551 44758
L40523 44814
L40494 44842
" />
<path d="M40916 44167
L40973 44167
L41029 44195
L41057 44223
L41085 44280
L41113 44392
L41113 44533
L41085 44645
L41057 44702
L41029 44730
L40973 44758
L40916 44758
L40860 44730
L40832 44702
L40804 44645
L40776 44533
L40776 44392
L40804 44280
L40832 44223
L40860 44195
L40916 44167
" />
<path d="M41479 44167
L41535 44167
L41591 44195
L41619 44223
L41647 44280
L41676 44392
L41676 44533
L41647 44645
L41619 44702
L41591 44730
L41535 44758
L41479 44758
L41422 44730
L41394 44702
L41366 44645
L41338 44533
L41338 44392
L41366 44280
L41394 44223
L41422 44195
L41479 44167
" />
<path d="M42041 44167
L42097 44167
L42154 44195
L42182 44223
L42210 44280
L42238 44392
L42238 44533
L42210 44645
L42182 44702
L42154 44730
L42097 44758
L42041 44758
L41985 44730
L41957 44702
L41929 44645
L41901 44533
L41901 44392
L41929 44280
L41957 44223
L41985 44195
L42041 44167
" />
<path d="M42941 44758
L42941 44364
" />
<path d="M42941 44420
L42969 44392
L43025 44364
L43110 44364
L43166 44392
L43194 44448
L43194 44758
" />
<path d="M43194 44448
L43222 44392
L43278 44364
L43363 44364
L43419 44392
L43447 44448
L43447 44758
" />
<path d="M43728 44758
L43728 44364
" />
<path d="M43728 44420
L43757 44392
L43813 44364
L43897 44364
L43953 44392
L43982 44448
L43982 44758
" />
<path d="M43982 44448
L44010 44392
L44066 44364
L44150 44364
L44206 44392
L44235 44448
L44235 44758
" />
<path d="M36501 43959
L47131 43959
" />
<path d="M36501 41400
L36501 45022
" />
<path d="M47131 41400
L47131 45022
" />
<path d="M47131 43959
L46688 44190
" />
<path d="M47131 43959
L46688 43728
" />
<path d="M36501 43959
L36945 44190
" />
<path d="M36501 43959
L36945 43728
" />
<path d="M28740 44223
L28768 44195
L28824 44167
L28965 44167
L29021 44195
L29049 44223
L29077 44280
L29077 44336
L29049 44420
L28712 44758
L29077 44758
" />
<path d="M29274 44167
L29668 44167
L29415 44758
" />
<path d="M29921 44730
L29921 44758
L29893 44814
L29865 44842
" />
<path d="M30286 44167
L30343 44167
L30399 44195
L30427 44223
L30455 44280
L30483 44392
L30483 44533
L30455 44645
L30427 44702
L30399 44730
L30343 44758
L30286 44758
L30230 44730
L30202 44702
L30174 44645
L30146 44533
L30146 44392
L30174 44280
L30202 44223
L30230 44195
L30286 44167
" />
<path d="M30849 44167
L30905 44167
L30961 44195
L30989 44223
L31017 44280
L31046 44392
L31046 44533
L31017 44645
L30989 44702
L30961 44730
L30905 44758
L30849 44758
L30793 44730
L30764 44702
L30736 44645
L30708 44533
L30708 44392
L30736 44280
L30764 44223
L30793 44195
L30849 44167
" />
<path d="M31411 44167
L31467 44167
L31524 44195
L31552 44223
L31580 44280
L31608 44392
L31608 44533
L31580 44645
L31552 44702
L31524 44730
L31467 44758
L31411 44758
L31355 44730
L31327 44702
L31299 44645
L31271 44533
L31271 44392
L31299 44280
L31327 44223
L31355 44195
L31411 44167
" />
<path d="M32311 44758
L32311 44364
" />
<path d="M32311 44420
L32339 44392
L32395 44364
L32480 44364
L32536 44392
L32564 44448
L32564 44758
" />
<path d="M32564 44448
L32592 44392
L32649 44364
L32733 44364
L32789 44392
L32817 44448
L32817 44758
" />
<path d="M33098 44758
L33098 44364
" />
<path d="M33098 44420
L33127 44392
L33183 44364
L33267 44364
L33323 44392
L33352 44448
L33352 44758
" />
<path d="M33352 44448
L33380 44392
L33436 44364
L33520 44364
L33577 44392
L33605 44448
L33605 44758
" />
<path d="M36501 43959
L25871 43959
" />
<path d="M36501 41400
L36501 45022
" />
<path d="M25871 41400
L25871 45022
" />
<path d="M25871 43959
L26315 43728
" />
<path d="M25871 43959
L26315 44190
" />
<path d="M36501 43959
L36058 43728
" />
<path d="M36501 43959
L36058 44190
" />
<path d="M46175 49538
L46203 49510
L46259 49482
L46400 49482
L46456 49510
L46484 49538
L46512 49595
L46512 49651
L46484 49735
L46147 50073
L46512 50073
" />
<path d="M46878 49482
L46934 49482
L46991 49510
L47019 49538
L47047 49595
L47075 49707
L47075 49848
L47047 49960
L47019 50017
L46991 50045
L46934 50073
L46878 50073
L46822 50045
L46794 50017
L46766 49960
L46737 49848
L46737 49707
L46766 49595
L46794 49538
L46822 49510
L46878 49482
" />
<path d="M47356 50073
L47469 50073
L47525 50045
L47553 50017
L47609 49932
L47637 49820
L47637 49595
L47609 49538
L47581 49510
L47525 49482
L47412 49482
L47356 49510
L47328 49538
L47300 49595
L47300 49735
L47328 49792
L47356 49820
L47412 49848
L47525 49848
L47581 49820
L47609 49792
L47637 49735
" />
<path d="M47919 50045
L47919 50073
L47890 50129
L47862 50157
" />
<path d="M48284 49482
L48340 49482
L48397 49510
L48425 49538
L48453 49595
L48481 49707
L48481 49848
L48453 49960
L48425 50017
L48397 50045
L48340 50073
L48284 50073
L48228 50045
L48200 50017
L48172 49960
L48143 49848
L48143 49707
L48172 49595
L48200 49538
L48228 49510
L48284 49482
" />
<path d="M48847 49482
L48903 49482
L48959 49510
L48987 49538
L49015 49595
L49043 49707
L49043 49848
L49015 49960
L48987 50017
L48959 50045
L48903 50073
L48847 50073
L48790 50045
L48762 50017
L48734 49960
L48706 49848
L48706 49707
L48734 49595
L48762 49538
L48790 49510
L48847 49482
" />
<path d="M49409 49482
L49465 49482
L49521 49510
L49550 49538
L49578 49595
L49606 49707
L49606 49848
L49578 49960
L49550 50017
L49521 50045
L49465 50073
L49409 50073
L49353 50045
L49325 50017
L49296 49960
L49268 49848
L49268 49707
L49296 49595
L49325 49538
L49353 49510
L49409 49482
" />
<path d="M50309 50073
L50309 49679
" />
<path d="M50309 49735
L50337 49707
L50393 49679
L50478 49679
L50534 49707
L50562 49763
L50562 50073
" />
<path d="M50562 49763
L50590 49707
L50646 49679
L50731 49679
L50787 49707
L50815 49763
L50815 50073
" />
<path d="M51096 50073
L51096 49679
" />
<path d="M51096 49735
L51124 49707
L51181 49679
L51265 49679
L51321 49707
L51349 49763
L51349 50073
" />
<path d="M51349 49763
L51377 49707
L51434 49679
L51518 49679
L51574 49707
L51602 49763
L51602 50073
" />
<path d="M90044 49274
L7761 49274
" />
<path d="M90044 41400
L90044 50337
" />
<path d="M7761 41400
L7761 50337
" />
<path d="M7761 49274
L8205 49043
" />
<path d="M7761 49274
L8205 49505
" />
<path d="M90044 49274
L89601 49043
" />
<path d="M90044 49274
L89601 49505
" />
</g>
<g style="fill:#FF00FF; fill-opacity:0.0; 
stroke:#FF00FF; stroke-width:59.0551; stroke-opacity:1; 
stroke-linecap:round; stroke-linejoin:round;">
<circle cx="10911.1" cy="2030.51" r="1259.84" /> 
<circle cx="87682.8" cy="2030.51" r="1259.84" /> 
<circle cx="10911.1" cy="27621.1" r="1259.84" /> 
<circle cx="87682.8" cy="27621.1" r="1259.84" /> 
</g>
<g style="fill:#000000; fill-opacity:0.0; 
stroke:#000000; stroke-width:59.0551; stroke-opacity:1; 
stroke-linecap:round; stroke-linejoin:round;">
</g>
<g style="fill:#C2C200; fill-opacity:0.0; 
stroke:#C2C200; stroke-width:59.0551; stroke-opacity:1; 
stroke-linecap:round; stroke-linejoin:round;">
<path d="M90044 62
L90044 41400
" />
<path d="M7761 62
L90044 62
" />
<path d="M7761 41400
L7761 62
" />
<path d="M90044 41400
L7761 41400
" />
</g> 
</svg>
