G04 #@! TF.FileFunction,Copper,L2,Bot,Signal*
%FSLAX46Y46*%
G04 Gerber Fmt 4.6, Leading zero omitted, Abs format (unit mm)*
G04 Created by KiCad (PCBNEW 4.1.0-alpha+201607130321+6976~46~ubuntu14.04.1-product) date Wed Jul 13 20:18:51 2016*
%MOMM*%
%LPD*%
G01*
G04 APERTURE LIST*
%ADD10C,0.100000*%
%ADD11C,2.500000*%
%ADD12C,2.000000*%
%ADD13C,3.810000*%
%ADD14R,1.524000X1.524000*%
%ADD15C,1.524000*%
%ADD16R,1.200000X0.750000*%
%ADD17R,2.000000X2.000000*%
%ADD18O,1.524000X2.199640*%
%ADD19O,1.524000X2.197100*%
%ADD20O,1.998980X1.539240*%
%ADD21O,1.998980X1.536700*%
%ADD22C,1.800000*%
%ADD23R,1.200000X0.900000*%
%ADD24R,1.500000X0.600000*%
%ADD25C,1.600000*%
%ADD26C,1.000000*%
%ADD27C,0.800000*%
%ADD28C,0.600000*%
%ADD29C,2.000000*%
%ADD30C,0.254000*%
G04 APERTURE END LIST*
D10*
D11*
X79000000Y-135500000D03*
X86000000Y-135500000D03*
D12*
X80250000Y-138000000D03*
X84750000Y-138000000D03*
D11*
X69000000Y-135500000D03*
X76000000Y-135500000D03*
D12*
X70250000Y-138000000D03*
X74750000Y-138000000D03*
D11*
X89000000Y-135500000D03*
X96000000Y-135500000D03*
D12*
X90250000Y-138000000D03*
X94750000Y-138000000D03*
D13*
X246655000Y-135500000D03*
X271655000Y-135500000D03*
D14*
X253615000Y-134080000D03*
D15*
X256385000Y-134080000D03*
X259155000Y-134080000D03*
X261925000Y-134080000D03*
X264695000Y-134080000D03*
X263310000Y-136920000D03*
X260540000Y-136920000D03*
X257770000Y-136920000D03*
X255000000Y-136920000D03*
D16*
X118550000Y-121500000D03*
X120450000Y-121500000D03*
X171121800Y-121499626D03*
X173021800Y-121499626D03*
X145000000Y-121500000D03*
X146900000Y-121500000D03*
X199000000Y-120100000D03*
X200900000Y-120100000D03*
D17*
X89960000Y-121000000D03*
D12*
X92500000Y-121000000D03*
D17*
X80960000Y-121000000D03*
D12*
X83500000Y-121000000D03*
D17*
X70960000Y-121000000D03*
D12*
X73500000Y-121000000D03*
D18*
X203410000Y-102130000D03*
X205950000Y-102130000D03*
X208490000Y-102130000D03*
X211030000Y-102130000D03*
X213570000Y-102130000D03*
X216110000Y-102130000D03*
X218650000Y-102130000D03*
X221190000Y-102130000D03*
X226270000Y-102130000D03*
X228810000Y-102130000D03*
X231350000Y-102130000D03*
X233890000Y-102130000D03*
X236430000Y-102130000D03*
X238970000Y-102130000D03*
X241510000Y-102130000D03*
X244050000Y-102130000D03*
X249130000Y-102130000D03*
X251670000Y-102130000D03*
X254210000Y-102130000D03*
D19*
X256750000Y-102130000D03*
X259290000Y-102130000D03*
X261830000Y-102130000D03*
X264370000Y-102130000D03*
X266910000Y-102130000D03*
D20*
X269201080Y-97050000D03*
X269201080Y-94510000D03*
X269201080Y-91970000D03*
X269201080Y-89430000D03*
X269201080Y-86890000D03*
X269201080Y-84350000D03*
X269201080Y-81810000D03*
X269201080Y-79270000D03*
X269201080Y-76730000D03*
X269201080Y-74190000D03*
X269201080Y-71650000D03*
X269201080Y-69110000D03*
X269201080Y-66570000D03*
X269201080Y-64030000D03*
X269201080Y-61490000D03*
X269201080Y-58950000D03*
X269201080Y-56410000D03*
X269201080Y-53870000D03*
D21*
X272236380Y-97050000D03*
X272236380Y-94510000D03*
X272236380Y-91970000D03*
X272236380Y-89430000D03*
X272236380Y-86890000D03*
X272236380Y-84350000D03*
X272236380Y-81810000D03*
X272236380Y-79270000D03*
X272236380Y-76730000D03*
X272236380Y-74190000D03*
X272236380Y-71650000D03*
X272236380Y-69110000D03*
X272236380Y-66570000D03*
X272236380Y-64030000D03*
X272236380Y-61490000D03*
X272236380Y-58950000D03*
X272236380Y-56410000D03*
X272236380Y-53870000D03*
D19*
X261830000Y-53870000D03*
X259290000Y-53870000D03*
X256750000Y-53870000D03*
X254210000Y-53870000D03*
X251670000Y-53870000D03*
X249130000Y-53870000D03*
X246590000Y-53870000D03*
X244050000Y-53870000D03*
X238970000Y-53870000D03*
X236430000Y-53870000D03*
X233890000Y-53870000D03*
X231350000Y-53870000D03*
X228810000Y-53870000D03*
X226270000Y-53870000D03*
X223730000Y-53870000D03*
X221190000Y-53870000D03*
X217126000Y-53870000D03*
X214586000Y-53870000D03*
X212046000Y-53870000D03*
X209506000Y-53870000D03*
X206966000Y-53870000D03*
X204426000Y-53870000D03*
X201886000Y-53870000D03*
X199346000Y-53870000D03*
X196806000Y-53870000D03*
X194266000Y-53870000D03*
D15*
X108555000Y-130395000D03*
X111095000Y-130395000D03*
X113635000Y-130395000D03*
X116175000Y-130395000D03*
X109825000Y-127855000D03*
X112365000Y-127855000D03*
X114905000Y-127855000D03*
X117445000Y-127855000D03*
X106650000Y-131665000D03*
D22*
X107920000Y-141190000D03*
X118080000Y-132300000D03*
D15*
X135555000Y-130395000D03*
X138095000Y-130395000D03*
X140635000Y-130395000D03*
X143175000Y-130395000D03*
X136825000Y-127855000D03*
X139365000Y-127855000D03*
X141905000Y-127855000D03*
X144445000Y-127855000D03*
X133650000Y-131665000D03*
D22*
X134920000Y-141190000D03*
X145080000Y-132300000D03*
D15*
X162555000Y-130395000D03*
X165095000Y-130395000D03*
X167635000Y-130395000D03*
X170175000Y-130395000D03*
X163825000Y-127855000D03*
X166365000Y-127855000D03*
X168905000Y-127855000D03*
X171445000Y-127855000D03*
X160650000Y-131665000D03*
D22*
X161920000Y-141190000D03*
X172080000Y-132300000D03*
D15*
X189635000Y-130395000D03*
X192175000Y-130395000D03*
X194715000Y-130395000D03*
X197255000Y-130395000D03*
X190905000Y-127855000D03*
X193445000Y-127855000D03*
X195985000Y-127855000D03*
X198525000Y-127855000D03*
X187730000Y-131665000D03*
D22*
X189000000Y-141190000D03*
X199160000Y-132300000D03*
D23*
X90000000Y-117500000D03*
X92200000Y-117500000D03*
X80900000Y-117500000D03*
X83100000Y-117500000D03*
X70900000Y-117500000D03*
X73100000Y-117500000D03*
X89900000Y-132000000D03*
X92100000Y-132000000D03*
X78900000Y-132000000D03*
X81100000Y-132000000D03*
X68900000Y-132000000D03*
X71100000Y-132000000D03*
X229100000Y-132000000D03*
X226900000Y-132000000D03*
X229400000Y-130000000D03*
X231600000Y-130000000D03*
X229400000Y-127500000D03*
X231600000Y-127500000D03*
D24*
X110800000Y-121445000D03*
X110800000Y-120175000D03*
X110800000Y-118905000D03*
X110800000Y-117635000D03*
X110800000Y-116365000D03*
X110800000Y-115095000D03*
X110800000Y-113825000D03*
X110800000Y-112555000D03*
X116200000Y-112555000D03*
X116200000Y-113825000D03*
X116200000Y-115095000D03*
X116200000Y-116365000D03*
X116200000Y-117635000D03*
X116200000Y-118905000D03*
X116200000Y-120175000D03*
X116200000Y-121445000D03*
X163571800Y-121444626D03*
X163571800Y-120174626D03*
X163571800Y-118904626D03*
X163571800Y-117634626D03*
X163571800Y-116364626D03*
X163571800Y-115094626D03*
X163571800Y-113824626D03*
X163571800Y-112554626D03*
X168971800Y-112554626D03*
X168971800Y-113824626D03*
X168971800Y-115094626D03*
X168971800Y-116364626D03*
X168971800Y-117634626D03*
X168971800Y-118904626D03*
X168971800Y-120174626D03*
X168971800Y-121444626D03*
X137300000Y-121445000D03*
X137300000Y-120175000D03*
X137300000Y-118905000D03*
X137300000Y-117635000D03*
X137300000Y-116365000D03*
X137300000Y-115095000D03*
X137300000Y-113825000D03*
X137300000Y-112555000D03*
X142700000Y-112555000D03*
X142700000Y-113825000D03*
X142700000Y-115095000D03*
X142700000Y-116365000D03*
X142700000Y-117635000D03*
X142700000Y-118905000D03*
X142700000Y-120175000D03*
X142700000Y-121445000D03*
X191300000Y-119945000D03*
X191300000Y-118675000D03*
X191300000Y-117405000D03*
X191300000Y-116135000D03*
X191300000Y-114865000D03*
X191300000Y-113595000D03*
X191300000Y-112325000D03*
X191300000Y-111055000D03*
X196700000Y-111055000D03*
X196700000Y-112325000D03*
X196700000Y-113595000D03*
X196700000Y-114865000D03*
X196700000Y-116135000D03*
X196700000Y-117405000D03*
X196700000Y-118675000D03*
X196700000Y-119945000D03*
D13*
X212115000Y-135500000D03*
X237115000Y-135500000D03*
D14*
X219075000Y-134080000D03*
D15*
X221845000Y-134080000D03*
X224615000Y-134080000D03*
X227385000Y-134080000D03*
X230155000Y-134080000D03*
X228770000Y-136920000D03*
X226000000Y-136920000D03*
X223230000Y-136920000D03*
X220460000Y-136920000D03*
D25*
X236000000Y-142000000D03*
X219800000Y-142000000D03*
X69000000Y-130500000D03*
X77000000Y-132000000D03*
X88000000Y-132000000D03*
X100000000Y-132000000D03*
X144800000Y-116900000D03*
X161499994Y-119100000D03*
X229500000Y-125700000D03*
X213600000Y-121700000D03*
X198677241Y-114895010D03*
X196700000Y-121500000D03*
X189200000Y-117100000D03*
X135400010Y-117577143D03*
X142800000Y-122900000D03*
X169400000Y-123200000D03*
X171100000Y-116500000D03*
X120400000Y-123600000D03*
X120000000Y-116800000D03*
X117600000Y-125300000D03*
X113400000Y-124400000D03*
X227500000Y-139000000D03*
X255000000Y-141500000D03*
X263500000Y-141500000D03*
X272500000Y-99000000D03*
X269000000Y-99000000D03*
X202000000Y-51500000D03*
X200000000Y-56500000D03*
X218500000Y-105000000D03*
X216000000Y-105000000D03*
X190500000Y-109000000D03*
X162000000Y-111500000D03*
X111500000Y-111000000D03*
X136000000Y-110500000D03*
X87500000Y-138000000D03*
X94500000Y-120000000D03*
X86000000Y-121000000D03*
X76000000Y-121000000D03*
X123600000Y-121500000D03*
X148100000Y-122900000D03*
X174000000Y-123000000D03*
X204000000Y-120000000D03*
X231300000Y-124900000D03*
X233500000Y-131900000D03*
X208300000Y-92100000D03*
X191000000Y-122200000D03*
X196400000Y-107300000D03*
X208500000Y-85200000D03*
X164950000Y-90350000D03*
X164700000Y-84150000D03*
X200600000Y-116900000D03*
X200500000Y-106000000D03*
X144900000Y-113650000D03*
X147400000Y-119350000D03*
X210900000Y-90400000D03*
X211100000Y-85200000D03*
X167050000Y-90700000D03*
X166650000Y-85400000D03*
X163500000Y-123100000D03*
X168550000Y-108450000D03*
X110000000Y-123250000D03*
X114750000Y-108750000D03*
X136700000Y-123450000D03*
X141900000Y-109750000D03*
X150700000Y-84200000D03*
X150800000Y-76300000D03*
X148550000Y-84250000D03*
X148500000Y-76300000D03*
X173250000Y-119500000D03*
X173250000Y-90900000D03*
X173350000Y-72500000D03*
X173200000Y-109500000D03*
X169050000Y-70600000D03*
X169300000Y-91500000D03*
X120749990Y-114750000D03*
X122000000Y-128000000D03*
X118500000Y-118250012D03*
X120000000Y-128000000D03*
X109500000Y-125500000D03*
X106000000Y-125500000D03*
X119196063Y-112419094D03*
X111500000Y-126000000D03*
X149400000Y-120500000D03*
X148700000Y-129100000D03*
X145414224Y-118683874D03*
X146500000Y-128000000D03*
X138800000Y-126300000D03*
X139850011Y-109752511D03*
X176200000Y-125200000D03*
X175500000Y-129900000D03*
X171200000Y-118874616D03*
X173700000Y-128000000D03*
X165600000Y-126300000D03*
X166700000Y-109150000D03*
X202500000Y-117700000D03*
X202100000Y-123700000D03*
X198800000Y-116900000D03*
X200600000Y-128100000D03*
X194600000Y-108200000D03*
X193400000Y-126000000D03*
X192500000Y-68500000D03*
X219500000Y-69000000D03*
X194500000Y-66500000D03*
X221500000Y-67000000D03*
D26*
X213600000Y-130500000D02*
X212500000Y-130500000D01*
X212500000Y-130500000D02*
X199800000Y-143200000D01*
X199800000Y-143200000D02*
X140000000Y-143200000D01*
X230000000Y-134000000D02*
X230155000Y-133845000D01*
X230155000Y-133845000D02*
X230155000Y-133055000D01*
X230155000Y-133055000D02*
X229100000Y-132000000D01*
X236000000Y-142000000D02*
X246000000Y-142000000D01*
X253615000Y-134385000D02*
X253615000Y-134080000D01*
X246000000Y-142000000D02*
X253615000Y-134385000D01*
X213600000Y-130500000D02*
X216000000Y-132900000D01*
X216000000Y-132900000D02*
X216000000Y-138200000D01*
X216000000Y-138200000D02*
X218800000Y-141000000D01*
X218800000Y-141000000D02*
X219800000Y-142000000D01*
D27*
X140000000Y-143200000D02*
X139800000Y-143000000D01*
X139800000Y-143000000D02*
X105500000Y-143000000D01*
X105500000Y-143000000D02*
X100000000Y-137500000D01*
X100000000Y-137500000D02*
X100000000Y-133131370D01*
X100000000Y-133131370D02*
X100000000Y-132000000D01*
X68900000Y-132000000D02*
X68900000Y-130600000D01*
X68900000Y-130600000D02*
X69000000Y-130500000D01*
X77000000Y-132000000D02*
X78900000Y-132000000D01*
X88000000Y-132000000D02*
X89900000Y-132000000D01*
D28*
X144265000Y-116365000D02*
X142700000Y-116365000D01*
X144800000Y-116900000D02*
X144265000Y-116365000D01*
X161499994Y-118356432D02*
X161499994Y-119100000D01*
X162221800Y-117634626D02*
X161499994Y-118356432D01*
X163571800Y-117634626D02*
X162221800Y-117634626D01*
X110800000Y-117635000D02*
X111635000Y-117635000D01*
X111635000Y-117635000D02*
X112700000Y-118700000D01*
X112700000Y-118700000D02*
X112700000Y-123700000D01*
X112700000Y-123700000D02*
X113400000Y-124400000D01*
D26*
X140000000Y-143200000D02*
X119300000Y-122500000D01*
X119300000Y-122500000D02*
X118550000Y-121750000D01*
D28*
X120400000Y-123600000D02*
X119300000Y-122500000D01*
D26*
X118550000Y-121750000D02*
X118550000Y-121500000D01*
X213600000Y-126200000D02*
X213600000Y-130500000D01*
X201200000Y-138600000D02*
X160725000Y-138600000D01*
X160725000Y-138600000D02*
X145000000Y-122875000D01*
X145000000Y-122875000D02*
X145000000Y-121500000D01*
X213600000Y-126200000D02*
X201200000Y-138600000D01*
X213600000Y-121700000D02*
X213600000Y-126200000D01*
X213600000Y-121700000D02*
X213600000Y-122800000D01*
X213600000Y-122800000D02*
X200000000Y-136400000D01*
X200000000Y-136400000D02*
X184647174Y-136400000D01*
X184647174Y-136400000D02*
X171121800Y-122874626D01*
X171121800Y-122874626D02*
X171121800Y-121499626D01*
X213600000Y-121700000D02*
X199225000Y-121700000D01*
X199225000Y-121700000D02*
X199000000Y-121475000D01*
X199000000Y-121475000D02*
X199000000Y-120100000D01*
X229500000Y-125700000D02*
X229500000Y-127400000D01*
X229500000Y-127400000D02*
X229400000Y-127500000D01*
D29*
X213570000Y-102130000D02*
X213570000Y-121670000D01*
X213570000Y-121670000D02*
X213600000Y-121700000D01*
D28*
X196700000Y-114865000D02*
X198647231Y-114865000D01*
X198647231Y-114865000D02*
X198677241Y-114895010D01*
X199000000Y-120100000D02*
X196855000Y-120100000D01*
X196855000Y-120100000D02*
X196700000Y-119945000D01*
X196700000Y-119945000D02*
X196700000Y-121500000D01*
X191300000Y-116135000D02*
X190165000Y-116135000D01*
X190165000Y-116135000D02*
X189200000Y-117100000D01*
X135457867Y-117635000D02*
X135400010Y-117577143D01*
X137300000Y-117635000D02*
X135457867Y-117635000D01*
X145000000Y-121500000D02*
X142755000Y-121500000D01*
X142755000Y-121500000D02*
X142700000Y-121445000D01*
X142700000Y-121445000D02*
X142700000Y-122800000D01*
X142700000Y-122800000D02*
X142800000Y-122900000D01*
X168971800Y-121444626D02*
X168971800Y-122771800D01*
X168971800Y-122771800D02*
X169400000Y-123200000D01*
X171100000Y-116500000D02*
X169107174Y-116500000D01*
X169107174Y-116500000D02*
X168971800Y-116364626D01*
X168971800Y-121444626D02*
X171066800Y-121444626D01*
X171066800Y-121444626D02*
X171121800Y-121499626D01*
X116200000Y-116365000D02*
X119565000Y-116365000D01*
X119565000Y-116365000D02*
X120000000Y-116800000D01*
X117600000Y-125300000D02*
X117600000Y-122845000D01*
X117600000Y-122845000D02*
X116200000Y-121445000D01*
X116200000Y-121445000D02*
X118495000Y-121445000D01*
X118495000Y-121445000D02*
X118550000Y-121500000D01*
D26*
X229400000Y-130000000D02*
X229400000Y-127500000D01*
X229100000Y-132000000D02*
X229100000Y-130300000D01*
X229100000Y-130300000D02*
X229400000Y-130000000D01*
D28*
X226000000Y-136920000D02*
X226000000Y-137500000D01*
X226000000Y-137500000D02*
X227500000Y-139000000D01*
X263000000Y-137000000D02*
X263000000Y-141000000D01*
X263000000Y-141000000D02*
X263500000Y-141500000D01*
X269450000Y-97050000D02*
X269450000Y-98550000D01*
X269450000Y-98550000D02*
X269000000Y-99000000D01*
X201886000Y-53870000D02*
X201886000Y-54614000D01*
X201886000Y-54614000D02*
X200000000Y-56500000D01*
X216110000Y-102130000D02*
X216110000Y-104890000D01*
X216110000Y-104890000D02*
X216000000Y-105000000D01*
X191300000Y-111055000D02*
X191300000Y-109800000D01*
X191300000Y-109800000D02*
X190500000Y-109000000D01*
X163571800Y-112554626D02*
X163054626Y-112554626D01*
X163054626Y-112554626D02*
X162000000Y-111500000D01*
X110800000Y-112555000D02*
X110800000Y-111700000D01*
X110800000Y-111700000D02*
X111500000Y-111000000D01*
X137300000Y-112555000D02*
X137300000Y-111800000D01*
X137300000Y-111800000D02*
X136000000Y-110500000D01*
X84750000Y-138000000D02*
X87500000Y-138000000D01*
X92500000Y-121000000D02*
X93500000Y-121000000D01*
X93500000Y-121000000D02*
X94500000Y-120000000D01*
X83500000Y-121000000D02*
X86000000Y-121000000D01*
X73500000Y-121000000D02*
X76000000Y-121000000D01*
D26*
X120450000Y-121500000D02*
X123600000Y-121500000D01*
X146900000Y-121500000D02*
X146900000Y-121700000D01*
X146900000Y-121700000D02*
X148100000Y-122900000D01*
X173021800Y-121499626D02*
X173021800Y-122021800D01*
X173021800Y-122021800D02*
X174000000Y-123000000D01*
X200900000Y-120100000D02*
X203900000Y-120100000D01*
X203900000Y-120100000D02*
X204000000Y-120000000D01*
D28*
X89960000Y-121000000D02*
X89960000Y-117540000D01*
X89960000Y-117540000D02*
X90000000Y-117500000D01*
X80960000Y-121000000D02*
X80960000Y-117560000D01*
X80960000Y-117560000D02*
X80900000Y-117500000D01*
X70960000Y-121000000D02*
X70960000Y-117560000D01*
X70960000Y-117560000D02*
X70900000Y-117500000D01*
X226270000Y-102130000D02*
X226270000Y-117430000D01*
X226270000Y-117430000D02*
X219075000Y-124625000D01*
X219075000Y-124625000D02*
X219075000Y-133925000D01*
X219075000Y-133925000D02*
X219000000Y-134000000D01*
X228810000Y-102130000D02*
X228810000Y-118090000D01*
X228810000Y-118090000D02*
X221845000Y-125055000D01*
X221845000Y-125055000D02*
X221845000Y-133845000D01*
X221845000Y-133845000D02*
X222000000Y-134000000D01*
X231350000Y-102130000D02*
X231350000Y-118750000D01*
X231350000Y-118750000D02*
X224615000Y-125485000D01*
X224615000Y-125485000D02*
X224615000Y-133885000D01*
X224615000Y-133885000D02*
X224500000Y-134000000D01*
X226900000Y-132000000D02*
X226900000Y-133595000D01*
X226900000Y-133595000D02*
X227385000Y-134080000D01*
X233890000Y-119110000D02*
X226900000Y-126100000D01*
X226900000Y-126100000D02*
X226900000Y-132000000D01*
X233890000Y-102130000D02*
X233890000Y-119110000D01*
D27*
X226900000Y-132000000D02*
X226900000Y-132280000D01*
D28*
X220500000Y-137000000D02*
X220500000Y-140200000D01*
X233500000Y-141200000D02*
X233500000Y-131900000D01*
X220500000Y-140200000D02*
X224200000Y-143900000D01*
X224200000Y-143900000D02*
X230800000Y-143900000D01*
X230800000Y-143900000D02*
X233500000Y-141200000D01*
X231300000Y-124900000D02*
X231300000Y-127200000D01*
X231300000Y-127200000D02*
X231600000Y-127500000D01*
X236430000Y-102130000D02*
X236430000Y-122820000D01*
X236430000Y-122820000D02*
X231750000Y-127500000D01*
X231750000Y-127500000D02*
X231600000Y-127500000D01*
D27*
X223500000Y-137000000D02*
X223500000Y-140500000D01*
X223500000Y-140500000D02*
X225250000Y-142250000D01*
X225250000Y-142250000D02*
X229750000Y-142250000D01*
X229750000Y-142250000D02*
X231760000Y-140240000D01*
X231760000Y-140240000D02*
X231760000Y-129990000D01*
D28*
X238970000Y-102130000D02*
X238970000Y-122780000D01*
X238970000Y-122780000D02*
X233322000Y-128428000D01*
D27*
X231750000Y-130000000D02*
X232250000Y-129500000D01*
X232250000Y-129500000D02*
X233322000Y-128428000D01*
X231760000Y-129990000D02*
X232250000Y-129500000D01*
X231760000Y-129990000D02*
X233322000Y-128428000D01*
X231600000Y-130000000D02*
X231750000Y-130000000D01*
D28*
X269450000Y-71650000D02*
X259950000Y-71650000D01*
X259950000Y-71650000D02*
X241200000Y-90400000D01*
X241200000Y-90400000D02*
X213900000Y-90400000D01*
X213900000Y-90400000D02*
X210400000Y-93900000D01*
X210400000Y-93900000D02*
X204800000Y-93900000D01*
X204800000Y-93900000D02*
X198200000Y-100500000D01*
X198200000Y-100500000D02*
X198200000Y-108655000D01*
X198200000Y-108655000D02*
X196700000Y-110155000D01*
X196700000Y-110155000D02*
X196700000Y-111055000D01*
X269450000Y-69110000D02*
X257890000Y-69110000D01*
X257890000Y-69110000D02*
X240100000Y-86900000D01*
X240100000Y-86900000D02*
X162550000Y-86900000D01*
X152000000Y-97450000D02*
X152000000Y-102150000D01*
X162550000Y-86900000D02*
X152000000Y-97450000D01*
X152000000Y-102150000D02*
X142700000Y-111450000D01*
X142700000Y-111450000D02*
X142700000Y-112555000D01*
X269450000Y-66570000D02*
X255630000Y-66570000D01*
X255630000Y-66570000D02*
X238900000Y-83300000D01*
X238900000Y-83300000D02*
X210200000Y-83300000D01*
X210200000Y-83300000D02*
X208500000Y-85000000D01*
X208500000Y-85000000D02*
X208500000Y-85200000D01*
X196400000Y-107300000D02*
X196400000Y-99600000D01*
X196400000Y-99600000D02*
X203800000Y-92200000D01*
X203800000Y-92200000D02*
X208200000Y-92200000D01*
X208200000Y-92200000D02*
X208300000Y-92100000D01*
X191000000Y-122200000D02*
X191000000Y-120245000D01*
X191000000Y-120245000D02*
X191300000Y-119945000D01*
X269450000Y-64030000D02*
X252870000Y-64030000D01*
X252870000Y-64030000D02*
X237100000Y-79800000D01*
X237100000Y-79800000D02*
X208200000Y-79800000D01*
X208200000Y-79800000D02*
X204100001Y-83899999D01*
X204100001Y-83899999D02*
X164950001Y-83899999D01*
X164950001Y-83899999D02*
X164700000Y-84150000D01*
X164999988Y-93000000D02*
X164999988Y-113746438D01*
X164999988Y-92400012D02*
X164999988Y-93000000D01*
X164999988Y-91531358D02*
X164999988Y-93000000D01*
X164950000Y-90350000D02*
X164950000Y-91481370D01*
X164950000Y-91481370D02*
X164999988Y-91531358D01*
X165000000Y-92400000D02*
X164999988Y-92400012D01*
X164999988Y-113746438D02*
X164921800Y-113824626D01*
X164921800Y-113824626D02*
X163571800Y-113824626D01*
X200600000Y-116900000D02*
X200600000Y-118031370D01*
X200600000Y-118031370D02*
X199956370Y-118675000D01*
X199956370Y-118675000D02*
X198050000Y-118675000D01*
X198050000Y-118675000D02*
X196700000Y-118675000D01*
X205600000Y-95800000D02*
X200500000Y-100900000D01*
X200500000Y-100900000D02*
X200500000Y-106000000D01*
X211500000Y-95800000D02*
X205600000Y-95800000D01*
X215100000Y-92200000D02*
X211500000Y-95800000D01*
X241900000Y-92200000D02*
X215100000Y-92200000D01*
X261180370Y-72919630D02*
X241900000Y-92200000D01*
X271990000Y-71650000D02*
X270720370Y-72919630D01*
X270720370Y-72919630D02*
X261180370Y-72919630D01*
X144900000Y-113650000D02*
X144850000Y-113600000D01*
X153600000Y-102850000D02*
X153600000Y-98250000D01*
X144850000Y-113600000D02*
X144850000Y-111600000D01*
X144850000Y-111600000D02*
X153600000Y-102850000D01*
X153600000Y-98250000D02*
X163300000Y-88550000D01*
X163300000Y-88550000D02*
X240450000Y-88550000D01*
X240450000Y-88550000D02*
X258620370Y-70379630D01*
X258620370Y-70379630D02*
X270720370Y-70379630D01*
X270720370Y-70379630D02*
X271990000Y-69110000D01*
X147400000Y-119350000D02*
X146575000Y-120175000D01*
X146575000Y-120175000D02*
X142700000Y-120175000D01*
X271990000Y-66570000D02*
X270719630Y-67840370D01*
X270719630Y-67840370D02*
X256659630Y-67840370D01*
X256659630Y-67840370D02*
X239400000Y-85100000D01*
X239400000Y-85100000D02*
X211200000Y-85100000D01*
X211200000Y-85100000D02*
X211100000Y-85000000D01*
X211100000Y-85000000D02*
X211100000Y-85200000D01*
X210900000Y-90400000D02*
X203100000Y-90400000D01*
X203100000Y-90400000D02*
X192900000Y-100600000D01*
X192900000Y-100600000D02*
X192900000Y-112075000D01*
X192900000Y-112075000D02*
X192650000Y-112325000D01*
X192650000Y-112325000D02*
X191300000Y-112325000D01*
X271990000Y-64030000D02*
X270720370Y-65299630D01*
X270720370Y-65299630D02*
X254200370Y-65299630D01*
X254200370Y-65299630D02*
X238000000Y-81500000D01*
X238000000Y-81500000D02*
X209500000Y-81500000D01*
X209500000Y-81500000D02*
X205600000Y-85400000D01*
X205600000Y-85400000D02*
X166650000Y-85400000D01*
X167050000Y-90700000D02*
X167150000Y-90800000D01*
X167150000Y-90800000D02*
X166600000Y-91350000D01*
X166600000Y-91350000D02*
X166600000Y-92400000D01*
X166650000Y-92350000D02*
X166600000Y-92400000D01*
X166600000Y-92400000D02*
X166600000Y-106500000D01*
X166600000Y-106500000D02*
X168550000Y-108450000D01*
X163500000Y-123100000D02*
X163500000Y-121516426D01*
X163500000Y-121516426D02*
X163571800Y-121444626D01*
X228810000Y-53870000D02*
X228810000Y-56190000D01*
X228810000Y-56190000D02*
X202500000Y-82500000D01*
X202500000Y-82500000D02*
X147500000Y-82500000D01*
X147500000Y-82500000D02*
X123500000Y-106500000D01*
X117550000Y-120175000D02*
X116200000Y-120175000D01*
X123500000Y-106500000D02*
X123500000Y-117500000D01*
X123500000Y-117500000D02*
X120825000Y-120175000D01*
X120825000Y-120175000D02*
X117550000Y-120175000D01*
X192450000Y-81000000D02*
X192000000Y-81000000D01*
X192000000Y-81000000D02*
X146855000Y-81000000D01*
X200838550Y-81000000D02*
X192000000Y-81000000D01*
X226270000Y-53870000D02*
X226270000Y-55568550D01*
X226270000Y-55568550D02*
X200838550Y-81000000D01*
X146855000Y-81000000D02*
X116200000Y-111655000D01*
X116200000Y-111655000D02*
X116200000Y-112555000D01*
X223730000Y-53870000D02*
X223730000Y-55270000D01*
X199500000Y-79500000D02*
X146227194Y-79500000D01*
X111727194Y-114000000D02*
X111000000Y-114000000D01*
X223730000Y-55270000D02*
X199500000Y-79500000D01*
X146227194Y-79500000D02*
X111727194Y-114000000D01*
X111000000Y-114000000D02*
X110825000Y-113825000D01*
X110825000Y-113825000D02*
X110800000Y-113825000D01*
X221190000Y-53870000D02*
X221190000Y-54810000D01*
X221190000Y-54810000D02*
X198050000Y-77950000D01*
X198050000Y-77950000D02*
X145700000Y-77950000D01*
X145700000Y-77950000D02*
X114900000Y-108750000D01*
X114900000Y-108750000D02*
X114750000Y-108750000D01*
X110799999Y-122450001D02*
X110000000Y-123250000D01*
X110800000Y-121445000D02*
X110799999Y-122450001D01*
X217126000Y-53870000D02*
X217126000Y-55874000D01*
X217126000Y-55874000D02*
X196650000Y-76350000D01*
X196650000Y-76350000D02*
X190000000Y-76350000D01*
X190350000Y-76350000D02*
X190000000Y-76350000D01*
X190000000Y-76350000D02*
X150850000Y-76350000D01*
X136700000Y-123450000D02*
X137300000Y-122850000D01*
X137300000Y-122850000D02*
X137300000Y-121445000D01*
X150700000Y-84200000D02*
X150700000Y-100950000D01*
X150700000Y-100950000D02*
X141900000Y-109750000D01*
X150850000Y-76350000D02*
X150800000Y-76300000D01*
X189400000Y-74650000D02*
X189000000Y-74650000D01*
X189000000Y-74650000D02*
X150150000Y-74650000D01*
X214586000Y-53870000D02*
X214586000Y-55568550D01*
X214586000Y-55568550D02*
X195504550Y-74650000D01*
X195504550Y-74650000D02*
X189000000Y-74650000D01*
X138250000Y-108800000D02*
X139050000Y-108000000D01*
X139050000Y-108000000D02*
X140500000Y-108000000D01*
X138250000Y-110300000D02*
X138250000Y-108800000D01*
X138800000Y-110850000D02*
X138250000Y-110300000D01*
X138800000Y-113550000D02*
X138800000Y-110850000D01*
X138525000Y-113825000D02*
X138800000Y-113550000D01*
X137300000Y-113825000D02*
X138525000Y-113825000D01*
X148550000Y-99950000D02*
X140500000Y-108000000D01*
X148550000Y-84250000D02*
X148550000Y-99950000D01*
X137300000Y-113825000D02*
X137980002Y-113825000D01*
X150150000Y-74650000D02*
X148500000Y-76300000D01*
X212046000Y-53870000D02*
X212046000Y-54954000D01*
X212046000Y-54954000D02*
X194500000Y-72500000D01*
X194500000Y-72500000D02*
X186206000Y-72500000D01*
X186206000Y-72500000D02*
X173350000Y-72500000D01*
X168971800Y-120174626D02*
X172575374Y-120174626D01*
X172575374Y-120174626D02*
X173250000Y-119500000D01*
X173200000Y-90950000D02*
X173250000Y-90900000D01*
X173200000Y-109500000D02*
X173200000Y-90950000D01*
X188100000Y-70600000D02*
X187000000Y-70600000D01*
X187000000Y-70600000D02*
X169050000Y-70600000D01*
X209506000Y-53870000D02*
X209506000Y-54206550D01*
X209506000Y-54206550D02*
X193112550Y-70600000D01*
X193112550Y-70600000D02*
X187000000Y-70600000D01*
X170099999Y-92299999D02*
X169300000Y-91500000D01*
X170321800Y-92521800D02*
X170099999Y-92299999D01*
X170321800Y-111654626D02*
X170321800Y-92521800D01*
X169421800Y-112554626D02*
X170321800Y-111654626D01*
X168971800Y-112554626D02*
X169421800Y-112554626D01*
D26*
X262000000Y-134000000D02*
X261925000Y-133925000D01*
X261925000Y-133925000D02*
X261925000Y-116725000D01*
X261925000Y-116725000D02*
X251670000Y-106470000D01*
X251670000Y-106470000D02*
X251670000Y-102130000D01*
X265000000Y-134000000D02*
X264695000Y-133695000D01*
X264695000Y-133695000D02*
X264695000Y-115595000D01*
X264695000Y-115595000D02*
X254210000Y-105110000D01*
X254210000Y-105110000D02*
X254210000Y-102130000D01*
X259000000Y-134000000D02*
X259155000Y-133845000D01*
X259155000Y-133845000D02*
X259155000Y-117455000D01*
X259155000Y-117455000D02*
X249130000Y-107430000D01*
X249130000Y-107430000D02*
X249130000Y-102130000D01*
D28*
X110800000Y-120175000D02*
X109452806Y-120175000D01*
X109452806Y-120175000D02*
X108000000Y-121627806D01*
X108000000Y-121627806D02*
X108000000Y-129840000D01*
X108000000Y-129840000D02*
X108555000Y-130395000D01*
X111095000Y-130395000D02*
X111095000Y-130705000D01*
X111095000Y-130705000D02*
X108000000Y-133800000D01*
X108000000Y-133800000D02*
X105900000Y-133800000D01*
X105900000Y-133800000D02*
X104400000Y-132300000D01*
X104400000Y-132300000D02*
X104400000Y-120100000D01*
X104400000Y-120100000D02*
X109405000Y-115095000D01*
X109405000Y-115095000D02*
X110800000Y-115095000D01*
X116200000Y-115095000D02*
X120404990Y-115095000D01*
X120404990Y-115095000D02*
X120749990Y-114750000D01*
X119500000Y-134500000D02*
X122000000Y-132000000D01*
X122000000Y-132000000D02*
X122000000Y-128000000D01*
X116662370Y-134500000D02*
X119500000Y-134500000D01*
X113635000Y-130395000D02*
X113635000Y-131472630D01*
X113635000Y-131472630D02*
X116662370Y-134500000D01*
X118499988Y-118250012D02*
X118500000Y-118250012D01*
X117950001Y-118799999D02*
X118499988Y-118250012D01*
X116295000Y-119000000D02*
X117750000Y-119000000D01*
X117750000Y-119000000D02*
X117950001Y-118799999D01*
X116200000Y-118905000D02*
X117845000Y-118905000D01*
X117845000Y-118905000D02*
X117950001Y-118799999D01*
X116175000Y-130395000D02*
X117605000Y-130395000D01*
X117605000Y-130395000D02*
X120000000Y-128000000D01*
X110800000Y-118905000D02*
X109095000Y-118905000D01*
X109095000Y-118905000D02*
X106000000Y-122000000D01*
X106000000Y-122000000D02*
X106000000Y-125500000D01*
X109500000Y-127180000D02*
X109500000Y-125500000D01*
X110000000Y-127680000D02*
X109500000Y-127180000D01*
X117790157Y-113825000D02*
X119196063Y-112419094D01*
X116200000Y-113825000D02*
X117790157Y-113825000D01*
X112365000Y-127855000D02*
X112365000Y-126865000D01*
X112365000Y-126865000D02*
X111500000Y-126000000D01*
X114905000Y-127855000D02*
X114905000Y-123705000D01*
X113800000Y-118300000D02*
X111865000Y-116365000D01*
X114905000Y-123705000D02*
X113800000Y-122600000D01*
X113800000Y-122600000D02*
X113800000Y-118300000D01*
X111865000Y-116365000D02*
X110800000Y-116365000D01*
X117445000Y-127855000D02*
X116000000Y-126410000D01*
X116000000Y-126410000D02*
X116000000Y-123527194D01*
X116000000Y-123527194D02*
X114750000Y-122277194D01*
X114750000Y-122277194D02*
X114750000Y-118250000D01*
X115365000Y-117635000D02*
X116200000Y-117635000D01*
X114750000Y-118250000D02*
X115365000Y-117635000D01*
X132800000Y-121900000D02*
X134525000Y-120175000D01*
X134525000Y-120175000D02*
X137300000Y-120175000D01*
X132800000Y-126562370D02*
X132800000Y-121900000D01*
X135555000Y-130395000D02*
X135555000Y-129317370D01*
X135555000Y-129317370D02*
X132800000Y-126562370D01*
X138095000Y-130395000D02*
X134590000Y-133900000D01*
X134590000Y-133900000D02*
X132900000Y-133900000D01*
X132900000Y-133900000D02*
X131600000Y-132600000D01*
X131600000Y-132600000D02*
X131600000Y-117500000D01*
X131600000Y-117500000D02*
X134005000Y-115095000D01*
X134005000Y-115095000D02*
X137300000Y-115095000D01*
X140635000Y-130395000D02*
X140635000Y-131135000D01*
X140635000Y-131135000D02*
X143800000Y-134300000D01*
X148700001Y-129100001D02*
X148700000Y-129100000D01*
X143800000Y-134300000D02*
X146300000Y-134300000D01*
X146300000Y-134300000D02*
X148700001Y-131899999D01*
X148700001Y-131899999D02*
X148700001Y-129100001D01*
X149400000Y-120500000D02*
X149400000Y-119368630D01*
X149400000Y-119368630D02*
X145126370Y-115095000D01*
X145126370Y-115095000D02*
X144050000Y-115095000D01*
X144050000Y-115095000D02*
X142700000Y-115095000D01*
X142700000Y-118905000D02*
X145193098Y-118905000D01*
X145193098Y-118905000D02*
X145414224Y-118683874D01*
X143175000Y-130395000D02*
X144105000Y-130395000D01*
X144105000Y-130395000D02*
X146500000Y-128000000D01*
X138650000Y-118905000D02*
X137300000Y-118905000D01*
X136825000Y-125874487D02*
X139200000Y-123499487D01*
X139200000Y-119455000D02*
X138650000Y-118905000D01*
X136825000Y-127855000D02*
X136825000Y-125874487D01*
X139200000Y-123499487D02*
X139200000Y-119455000D01*
X139365000Y-126777370D02*
X138887630Y-126300000D01*
X139365000Y-127855000D02*
X139365000Y-126777370D01*
X138887630Y-126300000D02*
X138800000Y-126300000D01*
X142700000Y-113825000D02*
X141350000Y-113825000D01*
X141350000Y-113825000D02*
X139850011Y-112325011D01*
X139850011Y-112325011D02*
X139850011Y-109752511D01*
X141905000Y-127855000D02*
X140300000Y-126250000D01*
X140300000Y-126250000D02*
X140300000Y-118500000D01*
X140300000Y-118500000D02*
X138165000Y-116365000D01*
X138165000Y-116365000D02*
X137300000Y-116365000D01*
X144445000Y-127855000D02*
X141300000Y-124710000D01*
X141300000Y-124710000D02*
X141300000Y-118354998D01*
X141300000Y-118354998D02*
X142019998Y-117635000D01*
X142019998Y-117635000D02*
X142700000Y-117635000D01*
X163571800Y-120174626D02*
X162891798Y-120174626D01*
X162891798Y-120174626D02*
X161793001Y-121273423D01*
X161793001Y-121273423D02*
X161793001Y-129633001D01*
X161793001Y-129633001D02*
X162555000Y-130395000D01*
X165095000Y-130395000D02*
X165095000Y-130405000D01*
X165095000Y-130405000D02*
X162100000Y-133400000D01*
X162221800Y-115094626D02*
X163571800Y-115094626D01*
X162100000Y-133400000D02*
X159800000Y-133400000D01*
X159800000Y-133400000D02*
X158600000Y-132200000D01*
X158600000Y-132200000D02*
X158600000Y-118716426D01*
X158600000Y-118716426D02*
X162221800Y-115094626D01*
X176200000Y-125200000D02*
X176200000Y-119300000D01*
X176200000Y-119300000D02*
X171994626Y-115094626D01*
X171994626Y-115094626D02*
X168971800Y-115094626D01*
X175400000Y-132300000D02*
X175400000Y-130000000D01*
X175400000Y-130000000D02*
X175500000Y-129900000D01*
X167635000Y-130395000D02*
X167635000Y-132235000D01*
X167635000Y-132235000D02*
X169600000Y-134200000D01*
X169600000Y-134200000D02*
X173500000Y-134200000D01*
X173500000Y-134200000D02*
X175400000Y-132300000D01*
X171169990Y-118904626D02*
X171200000Y-118874616D01*
X168971800Y-118904626D02*
X171169990Y-118904626D01*
X170175000Y-130395000D02*
X171305000Y-130395000D01*
X171305000Y-130395000D02*
X173700000Y-128000000D01*
X163825000Y-127855000D02*
X163825000Y-125475000D01*
X163825000Y-125475000D02*
X165200000Y-124100000D01*
X165200000Y-124100000D02*
X165200000Y-119852824D01*
X165200000Y-119852824D02*
X164251802Y-118904626D01*
X164251802Y-118904626D02*
X163571800Y-118904626D01*
X165600000Y-127090000D02*
X165600000Y-126300000D01*
X166365000Y-127855000D02*
X165600000Y-127090000D01*
X166700000Y-110281370D02*
X166700000Y-109150000D01*
X167621800Y-113824626D02*
X166700000Y-112902826D01*
X168971800Y-113824626D02*
X167621800Y-113824626D01*
X166700000Y-112902826D02*
X166700000Y-110281370D01*
X168905000Y-127855000D02*
X168905000Y-126805000D01*
X168905000Y-126805000D02*
X166300000Y-124200000D01*
X166300000Y-124200000D02*
X166300000Y-117742826D01*
X166300000Y-117742826D02*
X164921800Y-116364626D01*
X164921800Y-116364626D02*
X163571800Y-116364626D01*
X168905000Y-127855000D02*
X169183638Y-127576362D01*
X171445000Y-127855000D02*
X171445000Y-127445000D01*
X171445000Y-127445000D02*
X167400000Y-123400000D01*
X167400000Y-123400000D02*
X167400000Y-118526424D01*
X167400000Y-118526424D02*
X168291798Y-117634626D01*
X168291798Y-117634626D02*
X168971800Y-117634626D01*
X189635000Y-130395000D02*
X189635000Y-118990000D01*
X189950000Y-118675000D02*
X191300000Y-118675000D01*
X189635000Y-118990000D02*
X189950000Y-118675000D01*
X192175000Y-130395000D02*
X192175000Y-130925000D01*
X192175000Y-130925000D02*
X189600000Y-133500000D01*
X189600000Y-133500000D02*
X186600000Y-133500000D01*
X186600000Y-133500000D02*
X185500000Y-132400000D01*
X189705000Y-113595000D02*
X191300000Y-113595000D01*
X185500000Y-132400000D02*
X185500000Y-117800000D01*
X185500000Y-117800000D02*
X189705000Y-113595000D01*
X194715000Y-130395000D02*
X194715000Y-131215000D01*
X194715000Y-131215000D02*
X197800000Y-134300000D01*
X197800000Y-134300000D02*
X199700000Y-134300000D01*
X199700000Y-134300000D02*
X202000001Y-131999999D01*
X202000001Y-131999999D02*
X202000001Y-123799999D01*
X202000001Y-123799999D02*
X202100000Y-123700000D01*
X202500000Y-117700000D02*
X202500000Y-116100000D01*
X202500000Y-116100000D02*
X199995000Y-113595000D01*
X199995000Y-113595000D02*
X196700000Y-113595000D01*
X198800000Y-116900000D02*
X198295000Y-117405000D01*
X198295000Y-117405000D02*
X196700000Y-117405000D01*
X197255000Y-130395000D02*
X198305000Y-130395000D01*
X198305000Y-130395000D02*
X200600000Y-128100000D01*
X190905000Y-127855000D02*
X190905000Y-126150388D01*
X192800000Y-118000000D02*
X192205000Y-117405000D01*
X190905000Y-126150388D02*
X192800000Y-124255388D01*
X192800000Y-124255388D02*
X192800000Y-118000000D01*
X192205000Y-117405000D02*
X191300000Y-117405000D01*
X194600000Y-109331370D02*
X194600000Y-108200000D01*
X194600000Y-111575000D02*
X194600000Y-109331370D01*
X195350000Y-112325000D02*
X194600000Y-111575000D01*
X196700000Y-112325000D02*
X195350000Y-112325000D01*
X193445000Y-127855000D02*
X193445000Y-126045000D01*
X193445000Y-126045000D02*
X193400000Y-126000000D01*
X195985000Y-127855000D02*
X195985000Y-126571728D01*
X195985000Y-126571728D02*
X193900021Y-124486749D01*
X193900021Y-124486749D02*
X193900021Y-116500021D01*
X193900021Y-116500021D02*
X192265000Y-114865000D01*
X192265000Y-114865000D02*
X191300000Y-114865000D01*
X198525000Y-127855000D02*
X198525000Y-127125000D01*
X198525000Y-127125000D02*
X195100000Y-123700000D01*
X195100000Y-123700000D02*
X195100000Y-116900000D01*
X195100000Y-116900000D02*
X195865000Y-116135000D01*
X195865000Y-116135000D02*
X196700000Y-116135000D01*
X196132550Y-62500000D02*
X148400000Y-62500000D01*
X148400000Y-62500000D02*
X93400000Y-117500000D01*
X93400000Y-117500000D02*
X92200000Y-117500000D01*
X204426000Y-53870000D02*
X204426000Y-54206550D01*
X204426000Y-54206550D02*
X196132550Y-62500000D01*
X196806000Y-53870000D02*
X196806000Y-59694000D01*
X196806000Y-59694000D02*
X196000000Y-60500000D01*
X196000000Y-60500000D02*
X147000000Y-60500000D01*
X147000000Y-60500000D02*
X92500000Y-115000000D01*
X92500000Y-115000000D02*
X86800000Y-115000000D01*
X86800000Y-115000000D02*
X84300000Y-117500000D01*
X84300000Y-117500000D02*
X83100000Y-117500000D01*
X91500000Y-113000000D02*
X78800000Y-113000000D01*
X78800000Y-113000000D02*
X74300000Y-117500000D01*
X74300000Y-117500000D02*
X73100000Y-117500000D01*
X146000000Y-58500000D02*
X91500000Y-113000000D01*
X189972550Y-58500000D02*
X146000000Y-58500000D01*
X194266000Y-53870000D02*
X194266000Y-54206550D01*
X194266000Y-54206550D02*
X189972550Y-58500000D01*
D27*
X151000000Y-68500000D02*
X101500000Y-118000000D01*
X92250000Y-132000000D02*
X101500000Y-122750000D01*
X92100000Y-132000000D02*
X92250000Y-132000000D01*
X101500000Y-122750000D02*
X101500000Y-118000000D01*
X192500000Y-68500000D02*
X151000000Y-68500000D01*
X233890000Y-53870000D02*
X233890000Y-58110000D01*
X233890000Y-58110000D02*
X223000000Y-69000000D01*
X223000000Y-69000000D02*
X219500000Y-69000000D01*
X92100000Y-132000000D02*
X92100000Y-136150000D01*
X92100000Y-136150000D02*
X90250000Y-138000000D01*
X81100000Y-132000000D02*
X84500000Y-132000000D01*
X84500000Y-132000000D02*
X87000000Y-129500000D01*
X87000000Y-129500000D02*
X91000000Y-129500000D01*
X91000000Y-129500000D02*
X99000000Y-121500000D01*
X99000000Y-121500000D02*
X99000000Y-117500000D01*
X99000000Y-117500000D02*
X150000000Y-66500000D01*
X150000000Y-66500000D02*
X194500000Y-66500000D01*
X80250000Y-138000000D02*
X81100000Y-137150000D01*
X81100000Y-137150000D02*
X81100000Y-132000000D01*
X231350000Y-53870000D02*
X231350000Y-57150000D01*
X231350000Y-57150000D02*
X221500000Y-67000000D01*
X231350000Y-53870000D02*
X231350000Y-54206550D01*
X149000000Y-64500000D02*
X97000000Y-116500000D01*
X90500000Y-126500000D02*
X97000000Y-120000000D01*
X97000000Y-120000000D02*
X97000000Y-116500000D01*
X87000000Y-126500000D02*
X84000000Y-129500000D01*
X87000000Y-126500000D02*
X90500000Y-126500000D01*
X206966000Y-53870000D02*
X206966000Y-54206550D01*
X206966000Y-54206550D02*
X196672550Y-64500000D01*
X196672550Y-64500000D02*
X149000000Y-64500000D01*
X84000000Y-129500000D02*
X75000000Y-129500000D01*
X75000000Y-129500000D02*
X72500000Y-132000000D01*
X72500000Y-132000000D02*
X71100000Y-132000000D01*
X70250000Y-138000000D02*
X71100000Y-137150000D01*
X71100000Y-137150000D02*
X71100000Y-132000000D01*
D30*
G36*
X275290000Y-144290000D02*
X231732290Y-144290000D01*
X233738103Y-142284187D01*
X234564752Y-142284187D01*
X234782757Y-142811800D01*
X235186077Y-143215824D01*
X235713309Y-143434750D01*
X236284187Y-143435248D01*
X236811800Y-143217243D01*
X236894187Y-143135000D01*
X246000000Y-143135000D01*
X246434346Y-143048603D01*
X246802566Y-142802566D01*
X251704919Y-137900213D01*
X254199392Y-137900213D01*
X254268857Y-138142397D01*
X254792302Y-138329144D01*
X255347368Y-138301362D01*
X255731143Y-138142397D01*
X255800608Y-137900213D01*
X256969392Y-137900213D01*
X257038857Y-138142397D01*
X257562302Y-138329144D01*
X258117368Y-138301362D01*
X258501143Y-138142397D01*
X258570608Y-137900213D01*
X259739392Y-137900213D01*
X259808857Y-138142397D01*
X260332302Y-138329144D01*
X260887368Y-138301362D01*
X261271143Y-138142397D01*
X261340608Y-137900213D01*
X262509392Y-137900213D01*
X262578857Y-138142397D01*
X263102302Y-138329144D01*
X263657368Y-138301362D01*
X264041143Y-138142397D01*
X264110608Y-137900213D01*
X263310000Y-137099605D01*
X262509392Y-137900213D01*
X261340608Y-137900213D01*
X260540000Y-137099605D01*
X259739392Y-137900213D01*
X258570608Y-137900213D01*
X257770000Y-137099605D01*
X256969392Y-137900213D01*
X255800608Y-137900213D01*
X255000000Y-137099605D01*
X254199392Y-137900213D01*
X251704919Y-137900213D01*
X252892830Y-136712302D01*
X253590856Y-136712302D01*
X253618638Y-137267368D01*
X253777603Y-137651143D01*
X254019787Y-137720608D01*
X254820395Y-136920000D01*
X255179605Y-136920000D01*
X255980213Y-137720608D01*
X256222397Y-137651143D01*
X256385030Y-137195288D01*
X256388638Y-137267368D01*
X256547603Y-137651143D01*
X256789787Y-137720608D01*
X257590395Y-136920000D01*
X257949605Y-136920000D01*
X258750213Y-137720608D01*
X258992397Y-137651143D01*
X259155030Y-137195288D01*
X259158638Y-137267368D01*
X259317603Y-137651143D01*
X259559787Y-137720608D01*
X260360395Y-136920000D01*
X260719605Y-136920000D01*
X261520213Y-137720608D01*
X261762397Y-137651143D01*
X261925030Y-137195288D01*
X261928638Y-137267368D01*
X262087603Y-137651143D01*
X262329787Y-137720608D01*
X263130395Y-136920000D01*
X263489605Y-136920000D01*
X264290213Y-137720608D01*
X264532397Y-137651143D01*
X264719144Y-137127698D01*
X264691362Y-136572632D01*
X264532397Y-136188857D01*
X264290213Y-136119392D01*
X263489605Y-136920000D01*
X263130395Y-136920000D01*
X262329787Y-136119392D01*
X262087603Y-136188857D01*
X261924970Y-136644712D01*
X261921362Y-136572632D01*
X261762397Y-136188857D01*
X261520213Y-136119392D01*
X260719605Y-136920000D01*
X260360395Y-136920000D01*
X259559787Y-136119392D01*
X259317603Y-136188857D01*
X259154970Y-136644712D01*
X259151362Y-136572632D01*
X258992397Y-136188857D01*
X258750213Y-136119392D01*
X257949605Y-136920000D01*
X257590395Y-136920000D01*
X256789787Y-136119392D01*
X256547603Y-136188857D01*
X256384970Y-136644712D01*
X256381362Y-136572632D01*
X256222397Y-136188857D01*
X255980213Y-136119392D01*
X255179605Y-136920000D01*
X254820395Y-136920000D01*
X254019787Y-136119392D01*
X253777603Y-136188857D01*
X253590856Y-136712302D01*
X252892830Y-136712302D01*
X253665345Y-135939787D01*
X254199392Y-135939787D01*
X255000000Y-136740395D01*
X255800608Y-135939787D01*
X256969392Y-135939787D01*
X257770000Y-136740395D01*
X258570608Y-135939787D01*
X259739392Y-135939787D01*
X260540000Y-136740395D01*
X261340608Y-135939787D01*
X262509392Y-135939787D01*
X263310000Y-136740395D01*
X264047374Y-136003021D01*
X269114560Y-136003021D01*
X269500437Y-136936915D01*
X270214327Y-137652052D01*
X271147546Y-138039559D01*
X272158021Y-138040440D01*
X273091915Y-137654563D01*
X273807052Y-136940673D01*
X274194559Y-136007454D01*
X274195440Y-134996979D01*
X273809563Y-134063085D01*
X273095673Y-133347948D01*
X272162454Y-132960441D01*
X271151979Y-132959560D01*
X270218085Y-133345437D01*
X269502948Y-134059327D01*
X269115441Y-134992546D01*
X269114560Y-136003021D01*
X264047374Y-136003021D01*
X264110608Y-135939787D01*
X264041143Y-135697603D01*
X263517698Y-135510856D01*
X262962632Y-135538638D01*
X262578857Y-135697603D01*
X262509392Y-135939787D01*
X261340608Y-135939787D01*
X261271143Y-135697603D01*
X260747698Y-135510856D01*
X260192632Y-135538638D01*
X259808857Y-135697603D01*
X259739392Y-135939787D01*
X258570608Y-135939787D01*
X258501143Y-135697603D01*
X257977698Y-135510856D01*
X257422632Y-135538638D01*
X257038857Y-135697603D01*
X256969392Y-135939787D01*
X255800608Y-135939787D01*
X255731143Y-135697603D01*
X255207698Y-135510856D01*
X254652632Y-135538638D01*
X254268857Y-135697603D01*
X254199392Y-135939787D01*
X253665345Y-135939787D01*
X254115692Y-135489440D01*
X254377000Y-135489440D01*
X254624765Y-135440157D01*
X254834809Y-135299809D01*
X254975157Y-135089765D01*
X254981035Y-135060213D01*
X255584392Y-135060213D01*
X255653857Y-135302397D01*
X256177302Y-135489144D01*
X256732368Y-135461362D01*
X257116143Y-135302397D01*
X257185608Y-135060213D01*
X256385000Y-134259605D01*
X255584392Y-135060213D01*
X254981035Y-135060213D01*
X255024440Y-134842000D01*
X255024440Y-134477588D01*
X255162603Y-134811143D01*
X255404787Y-134880608D01*
X256205395Y-134080000D01*
X255404787Y-133279392D01*
X255162603Y-133348857D01*
X255024440Y-133736123D01*
X255024440Y-133318000D01*
X254981036Y-133099787D01*
X255584392Y-133099787D01*
X256385000Y-133900395D01*
X257185608Y-133099787D01*
X257116143Y-132857603D01*
X256592698Y-132670856D01*
X256037632Y-132698638D01*
X255653857Y-132857603D01*
X255584392Y-133099787D01*
X254981036Y-133099787D01*
X254975157Y-133070235D01*
X254834809Y-132860191D01*
X254624765Y-132719843D01*
X254377000Y-132670560D01*
X252853000Y-132670560D01*
X252605235Y-132719843D01*
X252395191Y-132860191D01*
X252254843Y-133070235D01*
X252205560Y-133318000D01*
X252205560Y-134189308D01*
X245529868Y-140865000D01*
X236894606Y-140865000D01*
X236813923Y-140784176D01*
X236286691Y-140565250D01*
X235715813Y-140564752D01*
X235188200Y-140782757D01*
X234784176Y-141186077D01*
X234565250Y-141713309D01*
X234564752Y-142284187D01*
X233738103Y-142284187D01*
X234161145Y-141861145D01*
X234258252Y-141715813D01*
X234363827Y-141557809D01*
X234435000Y-141200000D01*
X234435000Y-136003021D01*
X234574560Y-136003021D01*
X234960437Y-136936915D01*
X235674327Y-137652052D01*
X236607546Y-138039559D01*
X237618021Y-138040440D01*
X238551915Y-137654563D01*
X239267052Y-136940673D01*
X239654559Y-136007454D01*
X239654562Y-136003021D01*
X244114560Y-136003021D01*
X244500437Y-136936915D01*
X245214327Y-137652052D01*
X246147546Y-138039559D01*
X247158021Y-138040440D01*
X248091915Y-137654563D01*
X248807052Y-136940673D01*
X249194559Y-136007454D01*
X249195440Y-134996979D01*
X248809563Y-134063085D01*
X248095673Y-133347948D01*
X247162454Y-132960441D01*
X246151979Y-132959560D01*
X245218085Y-133345437D01*
X244502948Y-134059327D01*
X244115441Y-134992546D01*
X244114560Y-136003021D01*
X239654562Y-136003021D01*
X239655440Y-134996979D01*
X239269563Y-134063085D01*
X238555673Y-133347948D01*
X237622454Y-132960441D01*
X236611979Y-132959560D01*
X235678085Y-133345437D01*
X234962948Y-134059327D01*
X234575441Y-134992546D01*
X234574560Y-136003021D01*
X234435000Y-136003021D01*
X234435000Y-132994258D01*
X234715824Y-132713923D01*
X234934750Y-132186691D01*
X234935248Y-131615813D01*
X234717243Y-131088200D01*
X234313923Y-130684176D01*
X233786691Y-130465250D01*
X233215813Y-130464752D01*
X232811256Y-130631911D01*
X232847440Y-130450000D01*
X232847440Y-130366272D01*
X233299789Y-129913923D01*
X234053856Y-129159855D01*
X234278215Y-128824077D01*
X234285665Y-128786625D01*
X239631145Y-123441145D01*
X239833827Y-123137809D01*
X239905000Y-122780000D01*
X239905000Y-103524934D01*
X239957828Y-103489635D01*
X240240000Y-103067336D01*
X240522172Y-103489635D01*
X240975391Y-103792467D01*
X241510000Y-103898807D01*
X242044609Y-103792467D01*
X242497828Y-103489635D01*
X242780000Y-103067336D01*
X243062172Y-103489635D01*
X243515391Y-103792467D01*
X244050000Y-103898807D01*
X244584609Y-103792467D01*
X245037828Y-103489635D01*
X245340660Y-103036416D01*
X245447000Y-102501807D01*
X245447000Y-101758193D01*
X247733000Y-101758193D01*
X247733000Y-102501807D01*
X247839340Y-103036416D01*
X247995000Y-103269377D01*
X247995000Y-107430000D01*
X248081397Y-107864346D01*
X248246741Y-108111800D01*
X248327434Y-108232566D01*
X258020000Y-117925132D01*
X258020000Y-133239086D01*
X257971371Y-133287630D01*
X257768538Y-133776107D01*
X257766362Y-133732632D01*
X257607397Y-133348857D01*
X257365213Y-133279392D01*
X256564605Y-134080000D01*
X257365213Y-134880608D01*
X257607397Y-134811143D01*
X257764081Y-134371964D01*
X257969990Y-134870303D01*
X258362630Y-135263629D01*
X258875900Y-135476757D01*
X259431661Y-135477242D01*
X259945303Y-135265010D01*
X260338629Y-134872370D01*
X260540233Y-134386853D01*
X260739990Y-134870303D01*
X261132630Y-135263629D01*
X261645900Y-135476757D01*
X262201661Y-135477242D01*
X262715303Y-135265010D01*
X263108629Y-134872370D01*
X263310233Y-134386853D01*
X263509990Y-134870303D01*
X263902630Y-135263629D01*
X264415900Y-135476757D01*
X264971661Y-135477242D01*
X265485303Y-135265010D01*
X265878629Y-134872370D01*
X266091757Y-134359100D01*
X266091881Y-134216772D01*
X266135000Y-134000000D01*
X266048603Y-133565655D01*
X265905606Y-133351645D01*
X265880010Y-133289697D01*
X265832238Y-133241842D01*
X265830000Y-133238492D01*
X265830000Y-115595000D01*
X265743603Y-115160654D01*
X265497566Y-114792434D01*
X261147751Y-110442619D01*
X267764613Y-110442619D01*
X268104155Y-111264372D01*
X268732321Y-111893636D01*
X269553481Y-112234611D01*
X270442619Y-112235387D01*
X271264372Y-111895845D01*
X271893636Y-111267679D01*
X272234611Y-110446519D01*
X272235387Y-109557381D01*
X271895845Y-108735628D01*
X271267679Y-108106364D01*
X270446519Y-107765389D01*
X269557381Y-107764613D01*
X268735628Y-108104155D01*
X268106364Y-108732321D01*
X267765389Y-109553481D01*
X267764613Y-110442619D01*
X261147751Y-110442619D01*
X255345000Y-104639868D01*
X255345000Y-103269377D01*
X255480433Y-103066688D01*
X255762172Y-103488340D01*
X256215391Y-103791172D01*
X256750000Y-103897512D01*
X257284609Y-103791172D01*
X257737828Y-103488340D01*
X258020000Y-103066041D01*
X258302172Y-103488340D01*
X258755391Y-103791172D01*
X259290000Y-103897512D01*
X259824609Y-103791172D01*
X260277828Y-103488340D01*
X260560000Y-103066041D01*
X260842172Y-103488340D01*
X261295391Y-103791172D01*
X261830000Y-103897512D01*
X262364609Y-103791172D01*
X262817828Y-103488340D01*
X263100000Y-103066041D01*
X263382172Y-103488340D01*
X263835391Y-103791172D01*
X264370000Y-103897512D01*
X264904609Y-103791172D01*
X265357828Y-103488340D01*
X265640000Y-103066041D01*
X265922172Y-103488340D01*
X266375391Y-103791172D01*
X266910000Y-103897512D01*
X267444609Y-103791172D01*
X267897828Y-103488340D01*
X268200660Y-103035121D01*
X268292699Y-102572407D01*
X269755683Y-102572407D01*
X270095062Y-103393766D01*
X270722928Y-104022729D01*
X271543694Y-104363541D01*
X272432407Y-104364317D01*
X273253766Y-104024938D01*
X273882729Y-103397072D01*
X274223541Y-102576306D01*
X274224317Y-101687593D01*
X273884938Y-100866234D01*
X273257072Y-100237271D01*
X272436306Y-99896459D01*
X271547593Y-99895683D01*
X270726234Y-100235062D01*
X270097271Y-100862928D01*
X269756459Y-101683694D01*
X269755683Y-102572407D01*
X268292699Y-102572407D01*
X268307000Y-102500512D01*
X268307000Y-101759488D01*
X268200660Y-101224879D01*
X267897828Y-100771660D01*
X267444609Y-100468828D01*
X266910000Y-100362488D01*
X266375391Y-100468828D01*
X265922172Y-100771660D01*
X265640000Y-101193959D01*
X265357828Y-100771660D01*
X264904609Y-100468828D01*
X264370000Y-100362488D01*
X263835391Y-100468828D01*
X263382172Y-100771660D01*
X263100000Y-101193959D01*
X262817828Y-100771660D01*
X262364609Y-100468828D01*
X261830000Y-100362488D01*
X261295391Y-100468828D01*
X260842172Y-100771660D01*
X260560000Y-101193959D01*
X260277828Y-100771660D01*
X259824609Y-100468828D01*
X259290000Y-100362488D01*
X258755391Y-100468828D01*
X258302172Y-100771660D01*
X258020000Y-101193959D01*
X257737828Y-100771660D01*
X257284609Y-100468828D01*
X256750000Y-100362488D01*
X256215391Y-100468828D01*
X255762172Y-100771660D01*
X255480433Y-101193312D01*
X255197828Y-100770365D01*
X254744609Y-100467533D01*
X254210000Y-100361193D01*
X253675391Y-100467533D01*
X253222172Y-100770365D01*
X252940000Y-101192664D01*
X252657828Y-100770365D01*
X252204609Y-100467533D01*
X251670000Y-100361193D01*
X251135391Y-100467533D01*
X250682172Y-100770365D01*
X250400000Y-101192664D01*
X250117828Y-100770365D01*
X249664609Y-100467533D01*
X249130000Y-100361193D01*
X248595391Y-100467533D01*
X248142172Y-100770365D01*
X247839340Y-101223584D01*
X247733000Y-101758193D01*
X245447000Y-101758193D01*
X245340660Y-101223584D01*
X245037828Y-100770365D01*
X244584609Y-100467533D01*
X244050000Y-100361193D01*
X243515391Y-100467533D01*
X243062172Y-100770365D01*
X242780000Y-101192664D01*
X242497828Y-100770365D01*
X242044609Y-100467533D01*
X241510000Y-100361193D01*
X240975391Y-100467533D01*
X240522172Y-100770365D01*
X240240000Y-101192664D01*
X239957828Y-100770365D01*
X239504609Y-100467533D01*
X238970000Y-100361193D01*
X238435391Y-100467533D01*
X237982172Y-100770365D01*
X237700000Y-101192664D01*
X237417828Y-100770365D01*
X236964609Y-100467533D01*
X236430000Y-100361193D01*
X235895391Y-100467533D01*
X235442172Y-100770365D01*
X235160000Y-101192664D01*
X234877828Y-100770365D01*
X234424609Y-100467533D01*
X233890000Y-100361193D01*
X233355391Y-100467533D01*
X232902172Y-100770365D01*
X232620000Y-101192664D01*
X232337828Y-100770365D01*
X231884609Y-100467533D01*
X231350000Y-100361193D01*
X230815391Y-100467533D01*
X230362172Y-100770365D01*
X230080000Y-101192664D01*
X229797828Y-100770365D01*
X229344609Y-100467533D01*
X228810000Y-100361193D01*
X228275391Y-100467533D01*
X227822172Y-100770365D01*
X227540000Y-101192664D01*
X227257828Y-100770365D01*
X226804609Y-100467533D01*
X226270000Y-100361193D01*
X225735391Y-100467533D01*
X225282172Y-100770365D01*
X224979340Y-101223584D01*
X224873000Y-101758193D01*
X224873000Y-102501807D01*
X224979340Y-103036416D01*
X225282172Y-103489635D01*
X225335000Y-103524934D01*
X225335000Y-117042710D01*
X218413855Y-123963855D01*
X218211173Y-124267191D01*
X218140000Y-124625000D01*
X218140000Y-132704971D01*
X218065235Y-132719843D01*
X217855191Y-132860191D01*
X217714843Y-133070235D01*
X217665560Y-133318000D01*
X217665560Y-134842000D01*
X217714843Y-135089765D01*
X217855191Y-135299809D01*
X218065235Y-135440157D01*
X218313000Y-135489440D01*
X219837000Y-135489440D01*
X220084765Y-135440157D01*
X220294809Y-135299809D01*
X220435157Y-135089765D01*
X220484440Y-134842000D01*
X220484440Y-134445438D01*
X220659990Y-134870303D01*
X221052630Y-135263629D01*
X221565900Y-135476757D01*
X222121661Y-135477242D01*
X222635303Y-135265010D01*
X223028629Y-134872370D01*
X223230233Y-134386853D01*
X223429990Y-134870303D01*
X223822630Y-135263629D01*
X224335900Y-135476757D01*
X224891661Y-135477242D01*
X225405303Y-135265010D01*
X225798629Y-134872370D01*
X226000233Y-134386853D01*
X226199990Y-134870303D01*
X226592630Y-135263629D01*
X227105900Y-135476757D01*
X227661661Y-135477242D01*
X228175303Y-135265010D01*
X228568629Y-134872370D01*
X228770233Y-134386853D01*
X228969990Y-134870303D01*
X229362630Y-135263629D01*
X229875900Y-135476757D01*
X230431661Y-135477242D01*
X230725000Y-135356037D01*
X230725000Y-139811289D01*
X229321288Y-141215000D01*
X225678711Y-141215000D01*
X224535000Y-140071288D01*
X224535000Y-137900213D01*
X225199392Y-137900213D01*
X225268857Y-138142397D01*
X225792302Y-138329144D01*
X226347368Y-138301362D01*
X226731143Y-138142397D01*
X226800608Y-137900213D01*
X227969392Y-137900213D01*
X228038857Y-138142397D01*
X228562302Y-138329144D01*
X229117368Y-138301362D01*
X229501143Y-138142397D01*
X229570608Y-137900213D01*
X228770000Y-137099605D01*
X227969392Y-137900213D01*
X226800608Y-137900213D01*
X226000000Y-137099605D01*
X225199392Y-137900213D01*
X224535000Y-137900213D01*
X224535000Y-137420076D01*
X224616462Y-137223893D01*
X224618638Y-137267368D01*
X224777603Y-137651143D01*
X225019787Y-137720608D01*
X225820395Y-136920000D01*
X226179605Y-136920000D01*
X226980213Y-137720608D01*
X227222397Y-137651143D01*
X227385030Y-137195288D01*
X227388638Y-137267368D01*
X227547603Y-137651143D01*
X227789787Y-137720608D01*
X228590395Y-136920000D01*
X228949605Y-136920000D01*
X229750213Y-137720608D01*
X229992397Y-137651143D01*
X230179144Y-137127698D01*
X230151362Y-136572632D01*
X229992397Y-136188857D01*
X229750213Y-136119392D01*
X228949605Y-136920000D01*
X228590395Y-136920000D01*
X227789787Y-136119392D01*
X227547603Y-136188857D01*
X227384970Y-136644712D01*
X227381362Y-136572632D01*
X227222397Y-136188857D01*
X226980213Y-136119392D01*
X226179605Y-136920000D01*
X225820395Y-136920000D01*
X225019787Y-136119392D01*
X224777603Y-136188857D01*
X224620919Y-136628036D01*
X224415010Y-136129697D01*
X224225432Y-135939787D01*
X225199392Y-135939787D01*
X226000000Y-136740395D01*
X226800608Y-135939787D01*
X227969392Y-135939787D01*
X228770000Y-136740395D01*
X229570608Y-135939787D01*
X229501143Y-135697603D01*
X228977698Y-135510856D01*
X228422632Y-135538638D01*
X228038857Y-135697603D01*
X227969392Y-135939787D01*
X226800608Y-135939787D01*
X226731143Y-135697603D01*
X226207698Y-135510856D01*
X225652632Y-135538638D01*
X225268857Y-135697603D01*
X225199392Y-135939787D01*
X224225432Y-135939787D01*
X224022370Y-135736371D01*
X223509100Y-135523243D01*
X222953339Y-135522758D01*
X222439697Y-135734990D01*
X222046371Y-136127630D01*
X221844767Y-136613147D01*
X221645010Y-136129697D01*
X221252370Y-135736371D01*
X220739100Y-135523243D01*
X220183339Y-135522758D01*
X219669697Y-135734990D01*
X219276371Y-136127630D01*
X219063243Y-136640900D01*
X219062758Y-137196661D01*
X219274990Y-137710303D01*
X219565000Y-138000820D01*
X219565000Y-140159868D01*
X217135000Y-137729868D01*
X217135000Y-132900000D01*
X217127271Y-132861145D01*
X217048604Y-132465655D01*
X216802567Y-132097434D01*
X214735000Y-130029868D01*
X214735000Y-122870230D01*
X214756119Y-122856119D01*
X215110542Y-122325687D01*
X215235000Y-121700000D01*
X215205000Y-121549181D01*
X215205000Y-103536821D01*
X215211974Y-103545450D01*
X215692723Y-103807080D01*
X215766930Y-103822040D01*
X215983000Y-103699540D01*
X215983000Y-102257000D01*
X216237000Y-102257000D01*
X216237000Y-103699540D01*
X216453070Y-103822040D01*
X216527277Y-103807080D01*
X217008026Y-103545450D01*
X217352059Y-103119761D01*
X217380000Y-103025097D01*
X217407941Y-103119761D01*
X217751974Y-103545450D01*
X218232723Y-103807080D01*
X218306930Y-103822040D01*
X218523000Y-103699540D01*
X218523000Y-102257000D01*
X216237000Y-102257000D01*
X215983000Y-102257000D01*
X215963000Y-102257000D01*
X215963000Y-102003000D01*
X215983000Y-102003000D01*
X215983000Y-100560460D01*
X216237000Y-100560460D01*
X216237000Y-102003000D01*
X218523000Y-102003000D01*
X218523000Y-100560460D01*
X218777000Y-100560460D01*
X218777000Y-102003000D01*
X218797000Y-102003000D01*
X218797000Y-102257000D01*
X218777000Y-102257000D01*
X218777000Y-103699540D01*
X218993070Y-103822040D01*
X219067277Y-103807080D01*
X219548026Y-103545450D01*
X219892059Y-103119761D01*
X219911353Y-103054394D01*
X220202172Y-103489635D01*
X220655391Y-103792467D01*
X221190000Y-103898807D01*
X221724609Y-103792467D01*
X222177828Y-103489635D01*
X222480660Y-103036416D01*
X222587000Y-102501807D01*
X222587000Y-101758193D01*
X222480660Y-101223584D01*
X222177828Y-100770365D01*
X221724609Y-100467533D01*
X221190000Y-100361193D01*
X220655391Y-100467533D01*
X220202172Y-100770365D01*
X219911353Y-101205606D01*
X219892059Y-101140239D01*
X219548026Y-100714550D01*
X219067277Y-100452920D01*
X218993070Y-100437960D01*
X218777000Y-100560460D01*
X218523000Y-100560460D01*
X218306930Y-100437960D01*
X218232723Y-100452920D01*
X217751974Y-100714550D01*
X217407941Y-101140239D01*
X217380000Y-101234903D01*
X217352059Y-101140239D01*
X217008026Y-100714550D01*
X216527277Y-100452920D01*
X216453070Y-100437960D01*
X216237000Y-100560460D01*
X215983000Y-100560460D01*
X215766930Y-100437960D01*
X215692723Y-100452920D01*
X215211974Y-100714550D01*
X214867941Y-101140239D01*
X214858546Y-101172070D01*
X214726120Y-100973880D01*
X214667755Y-100934882D01*
X214557828Y-100770365D01*
X214104609Y-100467533D01*
X213570000Y-100361193D01*
X213035391Y-100467533D01*
X212582172Y-100770365D01*
X212472245Y-100934882D01*
X212413880Y-100973880D01*
X212283847Y-101168489D01*
X212017828Y-100770365D01*
X211564609Y-100467533D01*
X211030000Y-100361193D01*
X210495391Y-100467533D01*
X210042172Y-100770365D01*
X209760000Y-101192664D01*
X209477828Y-100770365D01*
X209024609Y-100467533D01*
X208490000Y-100361193D01*
X207955391Y-100467533D01*
X207502172Y-100770365D01*
X207220000Y-101192664D01*
X206937828Y-100770365D01*
X206484609Y-100467533D01*
X205950000Y-100361193D01*
X205415391Y-100467533D01*
X204962172Y-100770365D01*
X204680000Y-101192664D01*
X204397828Y-100770365D01*
X203944609Y-100467533D01*
X203410000Y-100361193D01*
X202875391Y-100467533D01*
X202422172Y-100770365D01*
X202119340Y-101223584D01*
X202013000Y-101758193D01*
X202013000Y-102501807D01*
X202119340Y-103036416D01*
X202422172Y-103489635D01*
X202875391Y-103792467D01*
X203410000Y-103898807D01*
X203944609Y-103792467D01*
X204397828Y-103489635D01*
X204680000Y-103067336D01*
X204962172Y-103489635D01*
X205415391Y-103792467D01*
X205950000Y-103898807D01*
X206484609Y-103792467D01*
X206937828Y-103489635D01*
X207220000Y-103067336D01*
X207502172Y-103489635D01*
X207955391Y-103792467D01*
X208490000Y-103898807D01*
X209024609Y-103792467D01*
X209477828Y-103489635D01*
X209760000Y-103067336D01*
X210042172Y-103489635D01*
X210495391Y-103792467D01*
X211030000Y-103898807D01*
X211564609Y-103792467D01*
X211935000Y-103544979D01*
X211935000Y-120565000D01*
X202135000Y-120565000D01*
X202135000Y-120385750D01*
X201976250Y-120227000D01*
X201027000Y-120227000D01*
X201027000Y-120247000D01*
X200773000Y-120247000D01*
X200773000Y-120227000D01*
X200753000Y-120227000D01*
X200753000Y-119973000D01*
X200773000Y-119973000D01*
X200773000Y-119248750D01*
X201027000Y-119248750D01*
X201027000Y-119973000D01*
X201976250Y-119973000D01*
X202135000Y-119814250D01*
X202135000Y-119598690D01*
X202038327Y-119365301D01*
X201859698Y-119186673D01*
X201626309Y-119090000D01*
X201185750Y-119090000D01*
X201027000Y-119248750D01*
X200773000Y-119248750D01*
X200738955Y-119214705D01*
X201261145Y-118692515D01*
X201342144Y-118571291D01*
X201686077Y-118915824D01*
X202213309Y-119134750D01*
X202784187Y-119135248D01*
X203311800Y-118917243D01*
X203715824Y-118513923D01*
X203934750Y-117986691D01*
X203935248Y-117415813D01*
X203717243Y-116888200D01*
X203435000Y-116605464D01*
X203435000Y-116100000D01*
X203363827Y-115742191D01*
X203161145Y-115438855D01*
X200656145Y-112933855D01*
X200352809Y-112731173D01*
X199995000Y-112660000D01*
X198090478Y-112660000D01*
X198097440Y-112625000D01*
X198097440Y-112025000D01*
X198048157Y-111777235D01*
X197989868Y-111690000D01*
X198048157Y-111602765D01*
X198097440Y-111355000D01*
X198097440Y-110755000D01*
X198048157Y-110507235D01*
X197907809Y-110297191D01*
X197891198Y-110286092D01*
X198861145Y-109316145D01*
X199063827Y-109012809D01*
X199135000Y-108655000D01*
X199135000Y-106454200D01*
X199282757Y-106811800D01*
X199686077Y-107215824D01*
X200213309Y-107434750D01*
X200784187Y-107435248D01*
X201311800Y-107217243D01*
X201715824Y-106813923D01*
X201934750Y-106286691D01*
X201935248Y-105715813D01*
X201717243Y-105188200D01*
X201435000Y-104905464D01*
X201435000Y-101287290D01*
X205229883Y-97492407D01*
X239275683Y-97492407D01*
X239615062Y-98313766D01*
X240242928Y-98942729D01*
X241063694Y-99283541D01*
X241952407Y-99284317D01*
X242773766Y-98944938D01*
X243402729Y-98317072D01*
X243743541Y-97496306D01*
X243743630Y-97394267D01*
X267609433Y-97394267D01*
X267624907Y-97479012D01*
X267891564Y-97961563D01*
X268322587Y-98305337D01*
X268852357Y-98457997D01*
X269074080Y-98300505D01*
X269074080Y-97177000D01*
X269328080Y-97177000D01*
X269328080Y-98300505D01*
X269549803Y-98457997D01*
X270079573Y-98305337D01*
X270510596Y-97961563D01*
X270718634Y-97585092D01*
X270927319Y-97961880D01*
X271358332Y-98304970D01*
X271887831Y-98457002D01*
X272109380Y-98299296D01*
X272109380Y-97177000D01*
X272363380Y-97177000D01*
X272363380Y-98299296D01*
X272584929Y-98457002D01*
X273114428Y-98304970D01*
X273545441Y-97961880D01*
X273812351Y-97479965D01*
X273828038Y-97394068D01*
X273705623Y-97177000D01*
X272363380Y-97177000D01*
X272109380Y-97177000D01*
X270767137Y-97177000D01*
X270718708Y-97262875D01*
X270670330Y-97177000D01*
X269328080Y-97177000D01*
X269074080Y-97177000D01*
X267731830Y-97177000D01*
X267609433Y-97394267D01*
X243743630Y-97394267D01*
X243744317Y-96607593D01*
X243404938Y-95786234D01*
X242777072Y-95157271D01*
X241956306Y-94816459D01*
X241067593Y-94815683D01*
X240246234Y-95155062D01*
X239617271Y-95782928D01*
X239276459Y-96603694D01*
X239275683Y-97492407D01*
X205229883Y-97492407D01*
X205987290Y-96735000D01*
X211500000Y-96735000D01*
X211857809Y-96663827D01*
X212161145Y-96461145D01*
X215487290Y-93135000D01*
X241900000Y-93135000D01*
X242257809Y-93063827D01*
X242561145Y-92861145D01*
X261567660Y-73854630D01*
X267601277Y-73854630D01*
X267534568Y-74190000D01*
X267641488Y-74727525D01*
X267945972Y-75183216D01*
X268360207Y-75460000D01*
X267945972Y-75736784D01*
X267641488Y-76192475D01*
X267534568Y-76730000D01*
X267641488Y-77267525D01*
X267945972Y-77723216D01*
X268360207Y-78000000D01*
X267945972Y-78276784D01*
X267641488Y-78732475D01*
X267534568Y-79270000D01*
X267641488Y-79807525D01*
X267945972Y-80263216D01*
X268360207Y-80540000D01*
X267945972Y-80816784D01*
X267641488Y-81272475D01*
X267534568Y-81810000D01*
X267641488Y-82347525D01*
X267945972Y-82803216D01*
X268360207Y-83080000D01*
X267945972Y-83356784D01*
X267641488Y-83812475D01*
X267534568Y-84350000D01*
X267641488Y-84887525D01*
X267945972Y-85343216D01*
X268360207Y-85620000D01*
X267945972Y-85896784D01*
X267641488Y-86352475D01*
X267534568Y-86890000D01*
X267641488Y-87427525D01*
X267945972Y-87883216D01*
X268360207Y-88160000D01*
X267945972Y-88436784D01*
X267641488Y-88892475D01*
X267534568Y-89430000D01*
X267641488Y-89967525D01*
X267945972Y-90423216D01*
X268360207Y-90700000D01*
X267945972Y-90976784D01*
X267641488Y-91432475D01*
X267534568Y-91970000D01*
X267641488Y-92507525D01*
X267945972Y-92963216D01*
X268360207Y-93240000D01*
X267945972Y-93516784D01*
X267641488Y-93972475D01*
X267534568Y-94510000D01*
X267641488Y-95047525D01*
X267945972Y-95503216D01*
X268364204Y-95782671D01*
X268322587Y-95794663D01*
X267891564Y-96138437D01*
X267624907Y-96620988D01*
X267609433Y-96705733D01*
X267731830Y-96923000D01*
X269074080Y-96923000D01*
X269074080Y-96903000D01*
X269328080Y-96903000D01*
X269328080Y-96923000D01*
X270670330Y-96923000D01*
X270718708Y-96837125D01*
X270767137Y-96923000D01*
X272109380Y-96923000D01*
X272109380Y-96903000D01*
X272363380Y-96903000D01*
X272363380Y-96923000D01*
X273705623Y-96923000D01*
X273828038Y-96705932D01*
X273812351Y-96620035D01*
X273545441Y-96138120D01*
X273114428Y-95795030D01*
X273072012Y-95782851D01*
X273491860Y-95502318D01*
X273796068Y-95047039D01*
X273902892Y-94510000D01*
X273796068Y-93972961D01*
X273491860Y-93517682D01*
X273076280Y-93240000D01*
X273491860Y-92962318D01*
X273796068Y-92507039D01*
X273902892Y-91970000D01*
X273796068Y-91432961D01*
X273491860Y-90977682D01*
X273076280Y-90700000D01*
X273491860Y-90422318D01*
X273796068Y-89967039D01*
X273902892Y-89430000D01*
X273796068Y-88892961D01*
X273491860Y-88437682D01*
X273076280Y-88160000D01*
X273491860Y-87882318D01*
X273796068Y-87427039D01*
X273902892Y-86890000D01*
X273796068Y-86352961D01*
X273491860Y-85897682D01*
X273076280Y-85620000D01*
X273491860Y-85342318D01*
X273796068Y-84887039D01*
X273902892Y-84350000D01*
X273796068Y-83812961D01*
X273491860Y-83357682D01*
X273076280Y-83080000D01*
X273491860Y-82802318D01*
X273796068Y-82347039D01*
X273902892Y-81810000D01*
X273796068Y-81272961D01*
X273491860Y-80817682D01*
X273076280Y-80540000D01*
X273491860Y-80262318D01*
X273796068Y-79807039D01*
X273902892Y-79270000D01*
X273796068Y-78732961D01*
X273491860Y-78277682D01*
X273076280Y-78000000D01*
X273491860Y-77722318D01*
X273796068Y-77267039D01*
X273902892Y-76730000D01*
X273796068Y-76192961D01*
X273491860Y-75737682D01*
X273076280Y-75460000D01*
X273491860Y-75182318D01*
X273796068Y-74727039D01*
X273902892Y-74190000D01*
X273796068Y-73652961D01*
X273491860Y-73197682D01*
X273076280Y-72920000D01*
X273491860Y-72642318D01*
X273796068Y-72187039D01*
X273902892Y-71650000D01*
X273796068Y-71112961D01*
X273491860Y-70657682D01*
X273076280Y-70380000D01*
X273491860Y-70102318D01*
X273796068Y-69647039D01*
X273902892Y-69110000D01*
X273796068Y-68572961D01*
X273491860Y-68117682D01*
X273076280Y-67840000D01*
X273491860Y-67562318D01*
X273796068Y-67107039D01*
X273902892Y-66570000D01*
X273796068Y-66032961D01*
X273491860Y-65577682D01*
X273076280Y-65300000D01*
X273491860Y-65022318D01*
X273796068Y-64567039D01*
X273902892Y-64030000D01*
X273796068Y-63492961D01*
X273491860Y-63037682D01*
X273076280Y-62760000D01*
X273491860Y-62482318D01*
X273796068Y-62027039D01*
X273902892Y-61490000D01*
X273796068Y-60952961D01*
X273491860Y-60497682D01*
X273076280Y-60220000D01*
X273491860Y-59942318D01*
X273796068Y-59487039D01*
X273902892Y-58950000D01*
X273796068Y-58412961D01*
X273491860Y-57957682D01*
X273076280Y-57680000D01*
X273491860Y-57402318D01*
X273796068Y-56947039D01*
X273902892Y-56410000D01*
X273796068Y-55872961D01*
X273491860Y-55417682D01*
X273076280Y-55140000D01*
X273491860Y-54862318D01*
X273796068Y-54407039D01*
X273902892Y-53870000D01*
X273796068Y-53332961D01*
X273491860Y-52877682D01*
X273036581Y-52573474D01*
X272499542Y-52466650D01*
X271973218Y-52466650D01*
X271436179Y-52573474D01*
X270980900Y-52877682D01*
X270718844Y-53269876D01*
X270456188Y-52876784D01*
X270000497Y-52572300D01*
X269462972Y-52465380D01*
X268939188Y-52465380D01*
X268401663Y-52572300D01*
X267945972Y-52876784D01*
X267761068Y-53153511D01*
X267534938Y-52606234D01*
X266907072Y-51977271D01*
X266086306Y-51636459D01*
X265197593Y-51635683D01*
X264376234Y-51975062D01*
X263747271Y-52602928D01*
X263406459Y-53423694D01*
X263405683Y-54312407D01*
X263745062Y-55133766D01*
X264372928Y-55762729D01*
X265193694Y-56103541D01*
X266082407Y-56104317D01*
X266903766Y-55764938D01*
X267532729Y-55137072D01*
X267761243Y-54586750D01*
X267945972Y-54863216D01*
X268360207Y-55140000D01*
X267945972Y-55416784D01*
X267641488Y-55872475D01*
X267534568Y-56410000D01*
X267641488Y-56947525D01*
X267945972Y-57403216D01*
X268360207Y-57680000D01*
X267945972Y-57956784D01*
X267641488Y-58412475D01*
X267534568Y-58950000D01*
X267641488Y-59487525D01*
X267945972Y-59943216D01*
X268360207Y-60220000D01*
X267945972Y-60496784D01*
X267641488Y-60952475D01*
X267534568Y-61490000D01*
X267641488Y-62027525D01*
X267945972Y-62483216D01*
X268360207Y-62760000D01*
X267945972Y-63036784D01*
X267907073Y-63095000D01*
X252870000Y-63095000D01*
X252512191Y-63166173D01*
X252208855Y-63368855D01*
X236712710Y-78865000D01*
X208200000Y-78865000D01*
X207842191Y-78936173D01*
X207538855Y-79138855D01*
X203712711Y-82964999D01*
X203357291Y-82964999D01*
X229471145Y-56851145D01*
X229673827Y-56547809D01*
X229745000Y-56190000D01*
X229745000Y-55263639D01*
X229797828Y-55228340D01*
X230080000Y-54806041D01*
X230315000Y-55157742D01*
X230315000Y-56721289D01*
X221471313Y-65564975D01*
X221215813Y-65564752D01*
X220688200Y-65782757D01*
X220284176Y-66186077D01*
X220065250Y-66713309D01*
X220064752Y-67284187D01*
X220262524Y-67762833D01*
X219786691Y-67565250D01*
X219215813Y-67564752D01*
X218688200Y-67782757D01*
X218284176Y-68186077D01*
X218065250Y-68713309D01*
X218064752Y-69284187D01*
X218282757Y-69811800D01*
X218686077Y-70215824D01*
X219213309Y-70434750D01*
X219784187Y-70435248D01*
X220311800Y-70217243D01*
X220494361Y-70035000D01*
X222999995Y-70035000D01*
X223000000Y-70035001D01*
X223396077Y-69956215D01*
X223731856Y-69731856D01*
X223911304Y-69552407D01*
X239275683Y-69552407D01*
X239615062Y-70373766D01*
X240242928Y-71002729D01*
X241063694Y-71343541D01*
X241952407Y-71344317D01*
X242773766Y-71004938D01*
X243402729Y-70377072D01*
X243743541Y-69556306D01*
X243744317Y-68667593D01*
X243404938Y-67846234D01*
X242777072Y-67217271D01*
X241956306Y-66876459D01*
X241067593Y-66875683D01*
X240246234Y-67215062D01*
X239617271Y-67842928D01*
X239276459Y-68663694D01*
X239275683Y-69552407D01*
X223911304Y-69552407D01*
X234621853Y-58841858D01*
X234621856Y-58841856D01*
X234846215Y-58506077D01*
X234864834Y-58412475D01*
X234925001Y-58110000D01*
X234925000Y-58109995D01*
X234925000Y-55157742D01*
X235160000Y-54806041D01*
X235442172Y-55228340D01*
X235895391Y-55531172D01*
X236430000Y-55637512D01*
X236964609Y-55531172D01*
X237417828Y-55228340D01*
X237700000Y-54806041D01*
X237982172Y-55228340D01*
X238435391Y-55531172D01*
X238970000Y-55637512D01*
X239504609Y-55531172D01*
X239957828Y-55228340D01*
X240260660Y-54775121D01*
X240367000Y-54240512D01*
X240367000Y-53499488D01*
X242653000Y-53499488D01*
X242653000Y-54240512D01*
X242759340Y-54775121D01*
X243062172Y-55228340D01*
X243515391Y-55531172D01*
X244050000Y-55637512D01*
X244584609Y-55531172D01*
X245037828Y-55228340D01*
X245320000Y-54806041D01*
X245602172Y-55228340D01*
X246055391Y-55531172D01*
X246590000Y-55637512D01*
X247124609Y-55531172D01*
X247577828Y-55228340D01*
X247860000Y-54806041D01*
X248142172Y-55228340D01*
X248595391Y-55531172D01*
X249130000Y-55637512D01*
X249664609Y-55531172D01*
X250117828Y-55228340D01*
X250400000Y-54806041D01*
X250682172Y-55228340D01*
X251135391Y-55531172D01*
X251670000Y-55637512D01*
X252204609Y-55531172D01*
X252657828Y-55228340D01*
X252940000Y-54806041D01*
X253222172Y-55228340D01*
X253675391Y-55531172D01*
X254210000Y-55637512D01*
X254744609Y-55531172D01*
X255197828Y-55228340D01*
X255480000Y-54806041D01*
X255762172Y-55228340D01*
X256215391Y-55531172D01*
X256750000Y-55637512D01*
X257284609Y-55531172D01*
X257737828Y-55228340D01*
X258020000Y-54806041D01*
X258302172Y-55228340D01*
X258755391Y-55531172D01*
X259290000Y-55637512D01*
X259824609Y-55531172D01*
X260277828Y-55228340D01*
X260560000Y-54806041D01*
X260842172Y-55228340D01*
X261295391Y-55531172D01*
X261830000Y-55637512D01*
X262364609Y-55531172D01*
X262817828Y-55228340D01*
X263120660Y-54775121D01*
X263227000Y-54240512D01*
X263227000Y-53499488D01*
X263120660Y-52964879D01*
X262817828Y-52511660D01*
X262364609Y-52208828D01*
X261830000Y-52102488D01*
X261295391Y-52208828D01*
X260842172Y-52511660D01*
X260560000Y-52933959D01*
X260277828Y-52511660D01*
X259824609Y-52208828D01*
X259290000Y-52102488D01*
X258755391Y-52208828D01*
X258302172Y-52511660D01*
X258020000Y-52933959D01*
X257737828Y-52511660D01*
X257284609Y-52208828D01*
X256750000Y-52102488D01*
X256215391Y-52208828D01*
X255762172Y-52511660D01*
X255480000Y-52933959D01*
X255197828Y-52511660D01*
X254744609Y-52208828D01*
X254210000Y-52102488D01*
X253675391Y-52208828D01*
X253222172Y-52511660D01*
X252940000Y-52933959D01*
X252657828Y-52511660D01*
X252204609Y-52208828D01*
X251670000Y-52102488D01*
X251135391Y-52208828D01*
X250682172Y-52511660D01*
X250400000Y-52933959D01*
X250117828Y-52511660D01*
X249664609Y-52208828D01*
X249130000Y-52102488D01*
X248595391Y-52208828D01*
X248142172Y-52511660D01*
X247860000Y-52933959D01*
X247577828Y-52511660D01*
X247124609Y-52208828D01*
X246590000Y-52102488D01*
X246055391Y-52208828D01*
X245602172Y-52511660D01*
X245320000Y-52933959D01*
X245037828Y-52511660D01*
X244584609Y-52208828D01*
X244050000Y-52102488D01*
X243515391Y-52208828D01*
X243062172Y-52511660D01*
X242759340Y-52964879D01*
X242653000Y-53499488D01*
X240367000Y-53499488D01*
X240260660Y-52964879D01*
X239957828Y-52511660D01*
X239504609Y-52208828D01*
X238970000Y-52102488D01*
X238435391Y-52208828D01*
X237982172Y-52511660D01*
X237700000Y-52933959D01*
X237417828Y-52511660D01*
X236964609Y-52208828D01*
X236430000Y-52102488D01*
X235895391Y-52208828D01*
X235442172Y-52511660D01*
X235160000Y-52933959D01*
X234877828Y-52511660D01*
X234424609Y-52208828D01*
X233890000Y-52102488D01*
X233355391Y-52208828D01*
X232902172Y-52511660D01*
X232620000Y-52933959D01*
X232337828Y-52511660D01*
X231884609Y-52208828D01*
X231350000Y-52102488D01*
X230815391Y-52208828D01*
X230362172Y-52511660D01*
X230080000Y-52933959D01*
X229797828Y-52511660D01*
X229344609Y-52208828D01*
X228810000Y-52102488D01*
X228275391Y-52208828D01*
X227822172Y-52511660D01*
X227540000Y-52933959D01*
X227257828Y-52511660D01*
X226804609Y-52208828D01*
X226270000Y-52102488D01*
X225735391Y-52208828D01*
X225282172Y-52511660D01*
X225000000Y-52933959D01*
X224717828Y-52511660D01*
X224264609Y-52208828D01*
X223730000Y-52102488D01*
X223195391Y-52208828D01*
X222742172Y-52511660D01*
X222460000Y-52933959D01*
X222177828Y-52511660D01*
X221724609Y-52208828D01*
X221190000Y-52102488D01*
X220655391Y-52208828D01*
X220202172Y-52511660D01*
X219899340Y-52964879D01*
X219793000Y-53499488D01*
X219793000Y-54240512D01*
X219899340Y-54775121D01*
X219900641Y-54777069D01*
X197662710Y-77015000D01*
X197305376Y-77015000D01*
X197311145Y-77011145D01*
X217787145Y-56535145D01*
X217989827Y-56231809D01*
X218061000Y-55874000D01*
X218061000Y-55263639D01*
X218113828Y-55228340D01*
X218416660Y-54775121D01*
X218523000Y-54240512D01*
X218523000Y-53499488D01*
X218416660Y-52964879D01*
X218113828Y-52511660D01*
X217660609Y-52208828D01*
X217126000Y-52102488D01*
X216591391Y-52208828D01*
X216138172Y-52511660D01*
X215856000Y-52933959D01*
X215573828Y-52511660D01*
X215120609Y-52208828D01*
X214586000Y-52102488D01*
X214051391Y-52208828D01*
X213598172Y-52511660D01*
X213316000Y-52933959D01*
X213033828Y-52511660D01*
X212580609Y-52208828D01*
X212046000Y-52102488D01*
X211511391Y-52208828D01*
X211058172Y-52511660D01*
X210776000Y-52933959D01*
X210493828Y-52511660D01*
X210040609Y-52208828D01*
X209506000Y-52102488D01*
X208971391Y-52208828D01*
X208518172Y-52511660D01*
X208236000Y-52933959D01*
X207953828Y-52511660D01*
X207500609Y-52208828D01*
X206966000Y-52102488D01*
X206431391Y-52208828D01*
X205978172Y-52511660D01*
X205696000Y-52933959D01*
X205413828Y-52511660D01*
X204960609Y-52208828D01*
X204426000Y-52102488D01*
X203891391Y-52208828D01*
X203438172Y-52511660D01*
X203147358Y-52946893D01*
X203128059Y-52881509D01*
X202784026Y-52455820D01*
X202303277Y-52194190D01*
X202229070Y-52179230D01*
X202013000Y-52301730D01*
X202013000Y-53743000D01*
X202033000Y-53743000D01*
X202033000Y-53997000D01*
X202013000Y-53997000D01*
X202013000Y-54017000D01*
X201759000Y-54017000D01*
X201759000Y-53997000D01*
X201739000Y-53997000D01*
X201739000Y-53743000D01*
X201759000Y-53743000D01*
X201759000Y-52301730D01*
X201542930Y-52179230D01*
X201468723Y-52194190D01*
X200987974Y-52455820D01*
X200643941Y-52881509D01*
X200624642Y-52946893D01*
X200333828Y-52511660D01*
X199880609Y-52208828D01*
X199346000Y-52102488D01*
X198811391Y-52208828D01*
X198358172Y-52511660D01*
X198076000Y-52933959D01*
X197793828Y-52511660D01*
X197340609Y-52208828D01*
X196806000Y-52102488D01*
X196271391Y-52208828D01*
X195818172Y-52511660D01*
X195536000Y-52933959D01*
X195253828Y-52511660D01*
X194800609Y-52208828D01*
X194266000Y-52102488D01*
X193731391Y-52208828D01*
X193278172Y-52511660D01*
X192975340Y-52964879D01*
X192903129Y-53327910D01*
X192604938Y-52606234D01*
X191977072Y-51977271D01*
X191156306Y-51636459D01*
X190267593Y-51635683D01*
X189446234Y-51975062D01*
X188817271Y-52602928D01*
X188476459Y-53423694D01*
X188475683Y-54312407D01*
X188815062Y-55133766D01*
X189442928Y-55762729D01*
X190263694Y-56103541D01*
X191046036Y-56104224D01*
X189585260Y-57565000D01*
X146000000Y-57565000D01*
X145642191Y-57636173D01*
X145338855Y-57838855D01*
X91112710Y-112065000D01*
X78800000Y-112065000D01*
X78442191Y-112136173D01*
X78138855Y-112338855D01*
X73994584Y-116483126D01*
X73947765Y-116451843D01*
X73700000Y-116402560D01*
X72500000Y-116402560D01*
X72252235Y-116451843D01*
X72042191Y-116592191D01*
X72000000Y-116655334D01*
X71957809Y-116592191D01*
X71747765Y-116451843D01*
X71500000Y-116402560D01*
X70300000Y-116402560D01*
X70052235Y-116451843D01*
X69842191Y-116592191D01*
X69701843Y-116802235D01*
X69652560Y-117050000D01*
X69652560Y-117950000D01*
X69701843Y-118197765D01*
X69842191Y-118407809D01*
X70025000Y-118529959D01*
X70025000Y-119352560D01*
X69960000Y-119352560D01*
X69712235Y-119401843D01*
X69502191Y-119542191D01*
X69361843Y-119752235D01*
X69312560Y-120000000D01*
X69312560Y-122000000D01*
X69361843Y-122247765D01*
X69502191Y-122457809D01*
X69712235Y-122598157D01*
X69960000Y-122647440D01*
X71960000Y-122647440D01*
X72207765Y-122598157D01*
X72417809Y-122457809D01*
X72558157Y-122247765D01*
X72559600Y-122240509D01*
X72625736Y-122419387D01*
X73235461Y-122645908D01*
X73885460Y-122621856D01*
X74374264Y-122419387D01*
X74472927Y-122152532D01*
X73500000Y-121179605D01*
X73485858Y-121193748D01*
X73306253Y-121014143D01*
X73320395Y-121000000D01*
X73679605Y-121000000D01*
X74652532Y-121972927D01*
X74919387Y-121874264D01*
X75145908Y-121264539D01*
X75121856Y-120614540D01*
X74919387Y-120125736D01*
X74652532Y-120027073D01*
X73679605Y-121000000D01*
X73320395Y-121000000D01*
X73306253Y-120985858D01*
X73485858Y-120806253D01*
X73500000Y-120820395D01*
X74472927Y-119847468D01*
X74374264Y-119580613D01*
X73764539Y-119354092D01*
X73114540Y-119378144D01*
X72625736Y-119580613D01*
X72559600Y-119759491D01*
X72558157Y-119752235D01*
X72417809Y-119542191D01*
X72207765Y-119401843D01*
X71960000Y-119352560D01*
X71895000Y-119352560D01*
X71895000Y-118449777D01*
X71957809Y-118407809D01*
X72000000Y-118344666D01*
X72042191Y-118407809D01*
X72252235Y-118548157D01*
X72500000Y-118597440D01*
X73700000Y-118597440D01*
X73947765Y-118548157D01*
X74117115Y-118435000D01*
X74300000Y-118435000D01*
X74657809Y-118363827D01*
X74961145Y-118161145D01*
X79187290Y-113935000D01*
X91500000Y-113935000D01*
X91857809Y-113863827D01*
X92161145Y-113661145D01*
X146387290Y-59435000D01*
X189972550Y-59435000D01*
X190330359Y-59363827D01*
X190633695Y-59161145D01*
X194175358Y-55619482D01*
X194266000Y-55637512D01*
X194800609Y-55531172D01*
X195253828Y-55228340D01*
X195536000Y-54806041D01*
X195818172Y-55228340D01*
X195871000Y-55263639D01*
X195871000Y-59306710D01*
X195612710Y-59565000D01*
X147000000Y-59565000D01*
X146642191Y-59636173D01*
X146338855Y-59838855D01*
X92112710Y-114065000D01*
X86800000Y-114065000D01*
X86442191Y-114136173D01*
X86138855Y-114338855D01*
X83994584Y-116483126D01*
X83947765Y-116451843D01*
X83700000Y-116402560D01*
X82500000Y-116402560D01*
X82252235Y-116451843D01*
X82042191Y-116592191D01*
X82000000Y-116655334D01*
X81957809Y-116592191D01*
X81747765Y-116451843D01*
X81500000Y-116402560D01*
X80300000Y-116402560D01*
X80052235Y-116451843D01*
X79842191Y-116592191D01*
X79701843Y-116802235D01*
X79652560Y-117050000D01*
X79652560Y-117950000D01*
X79701843Y-118197765D01*
X79842191Y-118407809D01*
X80025000Y-118529959D01*
X80025000Y-119352560D01*
X79960000Y-119352560D01*
X79712235Y-119401843D01*
X79502191Y-119542191D01*
X79361843Y-119752235D01*
X79312560Y-120000000D01*
X79312560Y-122000000D01*
X79361843Y-122247765D01*
X79502191Y-122457809D01*
X79712235Y-122598157D01*
X79960000Y-122647440D01*
X81960000Y-122647440D01*
X82207765Y-122598157D01*
X82417809Y-122457809D01*
X82558157Y-122247765D01*
X82559600Y-122240509D01*
X82625736Y-122419387D01*
X83235461Y-122645908D01*
X83885460Y-122621856D01*
X84374264Y-122419387D01*
X84472927Y-122152532D01*
X83500000Y-121179605D01*
X83485858Y-121193748D01*
X83306253Y-121014143D01*
X83320395Y-121000000D01*
X83679605Y-121000000D01*
X84652532Y-121972927D01*
X84919387Y-121874264D01*
X85145908Y-121264539D01*
X85121856Y-120614540D01*
X84919387Y-120125736D01*
X84652532Y-120027073D01*
X83679605Y-121000000D01*
X83320395Y-121000000D01*
X83306253Y-120985858D01*
X83485858Y-120806253D01*
X83500000Y-120820395D01*
X84472927Y-119847468D01*
X84374264Y-119580613D01*
X83764539Y-119354092D01*
X83114540Y-119378144D01*
X82625736Y-119580613D01*
X82559600Y-119759491D01*
X82558157Y-119752235D01*
X82417809Y-119542191D01*
X82207765Y-119401843D01*
X81960000Y-119352560D01*
X81895000Y-119352560D01*
X81895000Y-118449777D01*
X81957809Y-118407809D01*
X82000000Y-118344666D01*
X82042191Y-118407809D01*
X82252235Y-118548157D01*
X82500000Y-118597440D01*
X83700000Y-118597440D01*
X83947765Y-118548157D01*
X84117115Y-118435000D01*
X84300000Y-118435000D01*
X84657809Y-118363827D01*
X84961145Y-118161145D01*
X87187290Y-115935000D01*
X92500000Y-115935000D01*
X92857809Y-115863827D01*
X93161145Y-115661145D01*
X147387290Y-61435000D01*
X195875260Y-61435000D01*
X195745260Y-61565000D01*
X148400000Y-61565000D01*
X148042191Y-61636173D01*
X147738855Y-61838855D01*
X93094584Y-116483126D01*
X93047765Y-116451843D01*
X92800000Y-116402560D01*
X91600000Y-116402560D01*
X91352235Y-116451843D01*
X91142191Y-116592191D01*
X91100000Y-116655334D01*
X91057809Y-116592191D01*
X90847765Y-116451843D01*
X90600000Y-116402560D01*
X89400000Y-116402560D01*
X89152235Y-116451843D01*
X88942191Y-116592191D01*
X88801843Y-116802235D01*
X88752560Y-117050000D01*
X88752560Y-117950000D01*
X88801843Y-118197765D01*
X88942191Y-118407809D01*
X89025000Y-118463141D01*
X89025000Y-119352560D01*
X88960000Y-119352560D01*
X88712235Y-119401843D01*
X88502191Y-119542191D01*
X88361843Y-119752235D01*
X88312560Y-120000000D01*
X88312560Y-122000000D01*
X88361843Y-122247765D01*
X88502191Y-122457809D01*
X88712235Y-122598157D01*
X88960000Y-122647440D01*
X90960000Y-122647440D01*
X91207765Y-122598157D01*
X91417809Y-122457809D01*
X91558157Y-122247765D01*
X91559600Y-122240509D01*
X91625736Y-122419387D01*
X92235461Y-122645908D01*
X92885460Y-122621856D01*
X92934919Y-122601369D01*
X90071288Y-125465000D01*
X87000005Y-125465000D01*
X87000000Y-125464999D01*
X86603923Y-125543785D01*
X86268144Y-125768144D01*
X86268142Y-125768147D01*
X83571288Y-128465000D01*
X75000005Y-128465000D01*
X75000000Y-128464999D01*
X74603923Y-128543785D01*
X74268144Y-128768144D01*
X74268142Y-128768147D01*
X72071288Y-130965000D01*
X71967456Y-130965000D01*
X71947765Y-130951843D01*
X71700000Y-130902560D01*
X70500000Y-130902560D01*
X70376431Y-130927139D01*
X70434750Y-130786691D01*
X70435248Y-130215813D01*
X70217243Y-129688200D01*
X69813923Y-129284176D01*
X69286691Y-129065250D01*
X68715813Y-129064752D01*
X68188200Y-129282757D01*
X67784176Y-129686077D01*
X67710000Y-129864713D01*
X67710000Y-110442619D01*
X72764613Y-110442619D01*
X73104155Y-111264372D01*
X73732321Y-111893636D01*
X74553481Y-112234611D01*
X75442619Y-112235387D01*
X76264372Y-111895845D01*
X76893636Y-111267679D01*
X77234611Y-110446519D01*
X77235387Y-109557381D01*
X76895845Y-108735628D01*
X76267679Y-108106364D01*
X75446519Y-107765389D01*
X74557381Y-107764613D01*
X73735628Y-108104155D01*
X73106364Y-108732321D01*
X72765389Y-109553481D01*
X72764613Y-110442619D01*
X67710000Y-110442619D01*
X67710000Y-45442619D01*
X72764613Y-45442619D01*
X73104155Y-46264372D01*
X73732321Y-46893636D01*
X74553481Y-47234611D01*
X75442619Y-47235387D01*
X76264372Y-46895845D01*
X76893636Y-46267679D01*
X77234611Y-45446519D01*
X77234614Y-45442619D01*
X267764613Y-45442619D01*
X268104155Y-46264372D01*
X268732321Y-46893636D01*
X269553481Y-47234611D01*
X270442619Y-47235387D01*
X271264372Y-46895845D01*
X271893636Y-46267679D01*
X272234611Y-45446519D01*
X272235387Y-44557381D01*
X271895845Y-43735628D01*
X271267679Y-43106364D01*
X270446519Y-42765389D01*
X269557381Y-42764613D01*
X268735628Y-43104155D01*
X268106364Y-43732321D01*
X267765389Y-44553481D01*
X267764613Y-45442619D01*
X77234614Y-45442619D01*
X77235387Y-44557381D01*
X76895845Y-43735628D01*
X76267679Y-43106364D01*
X75446519Y-42765389D01*
X74557381Y-42764613D01*
X73735628Y-43104155D01*
X73106364Y-43732321D01*
X72765389Y-44553481D01*
X72764613Y-45442619D01*
X67710000Y-45442619D01*
X67710000Y-40710000D01*
X275290000Y-40710000D01*
X275290000Y-144290000D01*
X275290000Y-144290000D01*
G37*
X275290000Y-144290000D02*
X231732290Y-144290000D01*
X233738103Y-142284187D01*
X234564752Y-142284187D01*
X234782757Y-142811800D01*
X235186077Y-143215824D01*
X235713309Y-143434750D01*
X236284187Y-143435248D01*
X236811800Y-143217243D01*
X236894187Y-143135000D01*
X246000000Y-143135000D01*
X246434346Y-143048603D01*
X246802566Y-142802566D01*
X251704919Y-137900213D01*
X254199392Y-137900213D01*
X254268857Y-138142397D01*
X254792302Y-138329144D01*
X255347368Y-138301362D01*
X255731143Y-138142397D01*
X255800608Y-137900213D01*
X256969392Y-137900213D01*
X257038857Y-138142397D01*
X257562302Y-138329144D01*
X258117368Y-138301362D01*
X258501143Y-138142397D01*
X258570608Y-137900213D01*
X259739392Y-137900213D01*
X259808857Y-138142397D01*
X260332302Y-138329144D01*
X260887368Y-138301362D01*
X261271143Y-138142397D01*
X261340608Y-137900213D01*
X262509392Y-137900213D01*
X262578857Y-138142397D01*
X263102302Y-138329144D01*
X263657368Y-138301362D01*
X264041143Y-138142397D01*
X264110608Y-137900213D01*
X263310000Y-137099605D01*
X262509392Y-137900213D01*
X261340608Y-137900213D01*
X260540000Y-137099605D01*
X259739392Y-137900213D01*
X258570608Y-137900213D01*
X257770000Y-137099605D01*
X256969392Y-137900213D01*
X255800608Y-137900213D01*
X255000000Y-137099605D01*
X254199392Y-137900213D01*
X251704919Y-137900213D01*
X252892830Y-136712302D01*
X253590856Y-136712302D01*
X253618638Y-137267368D01*
X253777603Y-137651143D01*
X254019787Y-137720608D01*
X254820395Y-136920000D01*
X255179605Y-136920000D01*
X255980213Y-137720608D01*
X256222397Y-137651143D01*
X256385030Y-137195288D01*
X256388638Y-137267368D01*
X256547603Y-137651143D01*
X256789787Y-137720608D01*
X257590395Y-136920000D01*
X257949605Y-136920000D01*
X258750213Y-137720608D01*
X258992397Y-137651143D01*
X259155030Y-137195288D01*
X259158638Y-137267368D01*
X259317603Y-137651143D01*
X259559787Y-137720608D01*
X260360395Y-136920000D01*
X260719605Y-136920000D01*
X261520213Y-137720608D01*
X261762397Y-137651143D01*
X261925030Y-137195288D01*
X261928638Y-137267368D01*
X262087603Y-137651143D01*
X262329787Y-137720608D01*
X263130395Y-136920000D01*
X263489605Y-136920000D01*
X264290213Y-137720608D01*
X264532397Y-137651143D01*
X264719144Y-137127698D01*
X264691362Y-136572632D01*
X264532397Y-136188857D01*
X264290213Y-136119392D01*
X263489605Y-136920000D01*
X263130395Y-136920000D01*
X262329787Y-136119392D01*
X262087603Y-136188857D01*
X261924970Y-136644712D01*
X261921362Y-136572632D01*
X261762397Y-136188857D01*
X261520213Y-136119392D01*
X260719605Y-136920000D01*
X260360395Y-136920000D01*
X259559787Y-136119392D01*
X259317603Y-136188857D01*
X259154970Y-136644712D01*
X259151362Y-136572632D01*
X258992397Y-136188857D01*
X258750213Y-136119392D01*
X257949605Y-136920000D01*
X257590395Y-136920000D01*
X256789787Y-136119392D01*
X256547603Y-136188857D01*
X256384970Y-136644712D01*
X256381362Y-136572632D01*
X256222397Y-136188857D01*
X255980213Y-136119392D01*
X255179605Y-136920000D01*
X254820395Y-136920000D01*
X254019787Y-136119392D01*
X253777603Y-136188857D01*
X253590856Y-136712302D01*
X252892830Y-136712302D01*
X253665345Y-135939787D01*
X254199392Y-135939787D01*
X255000000Y-136740395D01*
X255800608Y-135939787D01*
X256969392Y-135939787D01*
X257770000Y-136740395D01*
X258570608Y-135939787D01*
X259739392Y-135939787D01*
X260540000Y-136740395D01*
X261340608Y-135939787D01*
X262509392Y-135939787D01*
X263310000Y-136740395D01*
X264047374Y-136003021D01*
X269114560Y-136003021D01*
X269500437Y-136936915D01*
X270214327Y-137652052D01*
X271147546Y-138039559D01*
X272158021Y-138040440D01*
X273091915Y-137654563D01*
X273807052Y-136940673D01*
X274194559Y-136007454D01*
X274195440Y-134996979D01*
X273809563Y-134063085D01*
X273095673Y-133347948D01*
X272162454Y-132960441D01*
X271151979Y-132959560D01*
X270218085Y-133345437D01*
X269502948Y-134059327D01*
X269115441Y-134992546D01*
X269114560Y-136003021D01*
X264047374Y-136003021D01*
X264110608Y-135939787D01*
X264041143Y-135697603D01*
X263517698Y-135510856D01*
X262962632Y-135538638D01*
X262578857Y-135697603D01*
X262509392Y-135939787D01*
X261340608Y-135939787D01*
X261271143Y-135697603D01*
X260747698Y-135510856D01*
X260192632Y-135538638D01*
X259808857Y-135697603D01*
X259739392Y-135939787D01*
X258570608Y-135939787D01*
X258501143Y-135697603D01*
X257977698Y-135510856D01*
X257422632Y-135538638D01*
X257038857Y-135697603D01*
X256969392Y-135939787D01*
X255800608Y-135939787D01*
X255731143Y-135697603D01*
X255207698Y-135510856D01*
X254652632Y-135538638D01*
X254268857Y-135697603D01*
X254199392Y-135939787D01*
X253665345Y-135939787D01*
X254115692Y-135489440D01*
X254377000Y-135489440D01*
X254624765Y-135440157D01*
X254834809Y-135299809D01*
X254975157Y-135089765D01*
X254981035Y-135060213D01*
X255584392Y-135060213D01*
X255653857Y-135302397D01*
X256177302Y-135489144D01*
X256732368Y-135461362D01*
X257116143Y-135302397D01*
X257185608Y-135060213D01*
X256385000Y-134259605D01*
X255584392Y-135060213D01*
X254981035Y-135060213D01*
X255024440Y-134842000D01*
X255024440Y-134477588D01*
X255162603Y-134811143D01*
X255404787Y-134880608D01*
X256205395Y-134080000D01*
X255404787Y-133279392D01*
X255162603Y-133348857D01*
X255024440Y-133736123D01*
X255024440Y-133318000D01*
X254981036Y-133099787D01*
X255584392Y-133099787D01*
X256385000Y-133900395D01*
X257185608Y-133099787D01*
X257116143Y-132857603D01*
X256592698Y-132670856D01*
X256037632Y-132698638D01*
X255653857Y-132857603D01*
X255584392Y-133099787D01*
X254981036Y-133099787D01*
X254975157Y-133070235D01*
X254834809Y-132860191D01*
X254624765Y-132719843D01*
X254377000Y-132670560D01*
X252853000Y-132670560D01*
X252605235Y-132719843D01*
X252395191Y-132860191D01*
X252254843Y-133070235D01*
X252205560Y-133318000D01*
X252205560Y-134189308D01*
X245529868Y-140865000D01*
X236894606Y-140865000D01*
X236813923Y-140784176D01*
X236286691Y-140565250D01*
X235715813Y-140564752D01*
X235188200Y-140782757D01*
X234784176Y-141186077D01*
X234565250Y-141713309D01*
X234564752Y-142284187D01*
X233738103Y-142284187D01*
X234161145Y-141861145D01*
X234258252Y-141715813D01*
X234363827Y-141557809D01*
X234435000Y-141200000D01*
X234435000Y-136003021D01*
X234574560Y-136003021D01*
X234960437Y-136936915D01*
X235674327Y-137652052D01*
X236607546Y-138039559D01*
X237618021Y-138040440D01*
X238551915Y-137654563D01*
X239267052Y-136940673D01*
X239654559Y-136007454D01*
X239654562Y-136003021D01*
X244114560Y-136003021D01*
X244500437Y-136936915D01*
X245214327Y-137652052D01*
X246147546Y-138039559D01*
X247158021Y-138040440D01*
X248091915Y-137654563D01*
X248807052Y-136940673D01*
X249194559Y-136007454D01*
X249195440Y-134996979D01*
X248809563Y-134063085D01*
X248095673Y-133347948D01*
X247162454Y-132960441D01*
X246151979Y-132959560D01*
X245218085Y-133345437D01*
X244502948Y-134059327D01*
X244115441Y-134992546D01*
X244114560Y-136003021D01*
X239654562Y-136003021D01*
X239655440Y-134996979D01*
X239269563Y-134063085D01*
X238555673Y-133347948D01*
X237622454Y-132960441D01*
X236611979Y-132959560D01*
X235678085Y-133345437D01*
X234962948Y-134059327D01*
X234575441Y-134992546D01*
X234574560Y-136003021D01*
X234435000Y-136003021D01*
X234435000Y-132994258D01*
X234715824Y-132713923D01*
X234934750Y-132186691D01*
X234935248Y-131615813D01*
X234717243Y-131088200D01*
X234313923Y-130684176D01*
X233786691Y-130465250D01*
X233215813Y-130464752D01*
X232811256Y-130631911D01*
X232847440Y-130450000D01*
X232847440Y-130366272D01*
X233299789Y-129913923D01*
X234053856Y-129159855D01*
X234278215Y-128824077D01*
X234285665Y-128786625D01*
X239631145Y-123441145D01*
X239833827Y-123137809D01*
X239905000Y-122780000D01*
X239905000Y-103524934D01*
X239957828Y-103489635D01*
X240240000Y-103067336D01*
X240522172Y-103489635D01*
X240975391Y-103792467D01*
X241510000Y-103898807D01*
X242044609Y-103792467D01*
X242497828Y-103489635D01*
X242780000Y-103067336D01*
X243062172Y-103489635D01*
X243515391Y-103792467D01*
X244050000Y-103898807D01*
X244584609Y-103792467D01*
X245037828Y-103489635D01*
X245340660Y-103036416D01*
X245447000Y-102501807D01*
X245447000Y-101758193D01*
X247733000Y-101758193D01*
X247733000Y-102501807D01*
X247839340Y-103036416D01*
X247995000Y-103269377D01*
X247995000Y-107430000D01*
X248081397Y-107864346D01*
X248246741Y-108111800D01*
X248327434Y-108232566D01*
X258020000Y-117925132D01*
X258020000Y-133239086D01*
X257971371Y-133287630D01*
X257768538Y-133776107D01*
X257766362Y-133732632D01*
X257607397Y-133348857D01*
X257365213Y-133279392D01*
X256564605Y-134080000D01*
X257365213Y-134880608D01*
X257607397Y-134811143D01*
X257764081Y-134371964D01*
X257969990Y-134870303D01*
X258362630Y-135263629D01*
X258875900Y-135476757D01*
X259431661Y-135477242D01*
X259945303Y-135265010D01*
X260338629Y-134872370D01*
X260540233Y-134386853D01*
X260739990Y-134870303D01*
X261132630Y-135263629D01*
X261645900Y-135476757D01*
X262201661Y-135477242D01*
X262715303Y-135265010D01*
X263108629Y-134872370D01*
X263310233Y-134386853D01*
X263509990Y-134870303D01*
X263902630Y-135263629D01*
X264415900Y-135476757D01*
X264971661Y-135477242D01*
X265485303Y-135265010D01*
X265878629Y-134872370D01*
X266091757Y-134359100D01*
X266091881Y-134216772D01*
X266135000Y-134000000D01*
X266048603Y-133565655D01*
X265905606Y-133351645D01*
X265880010Y-133289697D01*
X265832238Y-133241842D01*
X265830000Y-133238492D01*
X265830000Y-115595000D01*
X265743603Y-115160654D01*
X265497566Y-114792434D01*
X261147751Y-110442619D01*
X267764613Y-110442619D01*
X268104155Y-111264372D01*
X268732321Y-111893636D01*
X269553481Y-112234611D01*
X270442619Y-112235387D01*
X271264372Y-111895845D01*
X271893636Y-111267679D01*
X272234611Y-110446519D01*
X272235387Y-109557381D01*
X271895845Y-108735628D01*
X271267679Y-108106364D01*
X270446519Y-107765389D01*
X269557381Y-107764613D01*
X268735628Y-108104155D01*
X268106364Y-108732321D01*
X267765389Y-109553481D01*
X267764613Y-110442619D01*
X261147751Y-110442619D01*
X255345000Y-104639868D01*
X255345000Y-103269377D01*
X255480433Y-103066688D01*
X255762172Y-103488340D01*
X256215391Y-103791172D01*
X256750000Y-103897512D01*
X257284609Y-103791172D01*
X257737828Y-103488340D01*
X258020000Y-103066041D01*
X258302172Y-103488340D01*
X258755391Y-103791172D01*
X259290000Y-103897512D01*
X259824609Y-103791172D01*
X260277828Y-103488340D01*
X260560000Y-103066041D01*
X260842172Y-103488340D01*
X261295391Y-103791172D01*
X261830000Y-103897512D01*
X262364609Y-103791172D01*
X262817828Y-103488340D01*
X263100000Y-103066041D01*
X263382172Y-103488340D01*
X263835391Y-103791172D01*
X264370000Y-103897512D01*
X264904609Y-103791172D01*
X265357828Y-103488340D01*
X265640000Y-103066041D01*
X265922172Y-103488340D01*
X266375391Y-103791172D01*
X266910000Y-103897512D01*
X267444609Y-103791172D01*
X267897828Y-103488340D01*
X268200660Y-103035121D01*
X268292699Y-102572407D01*
X269755683Y-102572407D01*
X270095062Y-103393766D01*
X270722928Y-104022729D01*
X271543694Y-104363541D01*
X272432407Y-104364317D01*
X273253766Y-104024938D01*
X273882729Y-103397072D01*
X274223541Y-102576306D01*
X274224317Y-101687593D01*
X273884938Y-100866234D01*
X273257072Y-100237271D01*
X272436306Y-99896459D01*
X271547593Y-99895683D01*
X270726234Y-100235062D01*
X270097271Y-100862928D01*
X269756459Y-101683694D01*
X269755683Y-102572407D01*
X268292699Y-102572407D01*
X268307000Y-102500512D01*
X268307000Y-101759488D01*
X268200660Y-101224879D01*
X267897828Y-100771660D01*
X267444609Y-100468828D01*
X266910000Y-100362488D01*
X266375391Y-100468828D01*
X265922172Y-100771660D01*
X265640000Y-101193959D01*
X265357828Y-100771660D01*
X264904609Y-100468828D01*
X264370000Y-100362488D01*
X263835391Y-100468828D01*
X263382172Y-100771660D01*
X263100000Y-101193959D01*
X262817828Y-100771660D01*
X262364609Y-100468828D01*
X261830000Y-100362488D01*
X261295391Y-100468828D01*
X260842172Y-100771660D01*
X260560000Y-101193959D01*
X260277828Y-100771660D01*
X259824609Y-100468828D01*
X259290000Y-100362488D01*
X258755391Y-100468828D01*
X258302172Y-100771660D01*
X258020000Y-101193959D01*
X257737828Y-100771660D01*
X257284609Y-100468828D01*
X256750000Y-100362488D01*
X256215391Y-100468828D01*
X255762172Y-100771660D01*
X255480433Y-101193312D01*
X255197828Y-100770365D01*
X254744609Y-100467533D01*
X254210000Y-100361193D01*
X253675391Y-100467533D01*
X253222172Y-100770365D01*
X252940000Y-101192664D01*
X252657828Y-100770365D01*
X252204609Y-100467533D01*
X251670000Y-100361193D01*
X251135391Y-100467533D01*
X250682172Y-100770365D01*
X250400000Y-101192664D01*
X250117828Y-100770365D01*
X249664609Y-100467533D01*
X249130000Y-100361193D01*
X248595391Y-100467533D01*
X248142172Y-100770365D01*
X247839340Y-101223584D01*
X247733000Y-101758193D01*
X245447000Y-101758193D01*
X245340660Y-101223584D01*
X245037828Y-100770365D01*
X244584609Y-100467533D01*
X244050000Y-100361193D01*
X243515391Y-100467533D01*
X243062172Y-100770365D01*
X242780000Y-101192664D01*
X242497828Y-100770365D01*
X242044609Y-100467533D01*
X241510000Y-100361193D01*
X240975391Y-100467533D01*
X240522172Y-100770365D01*
X240240000Y-101192664D01*
X239957828Y-100770365D01*
X239504609Y-100467533D01*
X238970000Y-100361193D01*
X238435391Y-100467533D01*
X237982172Y-100770365D01*
X237700000Y-101192664D01*
X237417828Y-100770365D01*
X236964609Y-100467533D01*
X236430000Y-100361193D01*
X235895391Y-100467533D01*
X235442172Y-100770365D01*
X235160000Y-101192664D01*
X234877828Y-100770365D01*
X234424609Y-100467533D01*
X233890000Y-100361193D01*
X233355391Y-100467533D01*
X232902172Y-100770365D01*
X232620000Y-101192664D01*
X232337828Y-100770365D01*
X231884609Y-100467533D01*
X231350000Y-100361193D01*
X230815391Y-100467533D01*
X230362172Y-100770365D01*
X230080000Y-101192664D01*
X229797828Y-100770365D01*
X229344609Y-100467533D01*
X228810000Y-100361193D01*
X228275391Y-100467533D01*
X227822172Y-100770365D01*
X227540000Y-101192664D01*
X227257828Y-100770365D01*
X226804609Y-100467533D01*
X226270000Y-100361193D01*
X225735391Y-100467533D01*
X225282172Y-100770365D01*
X224979340Y-101223584D01*
X224873000Y-101758193D01*
X224873000Y-102501807D01*
X224979340Y-103036416D01*
X225282172Y-103489635D01*
X225335000Y-103524934D01*
X225335000Y-117042710D01*
X218413855Y-123963855D01*
X218211173Y-124267191D01*
X218140000Y-124625000D01*
X218140000Y-132704971D01*
X218065235Y-132719843D01*
X217855191Y-132860191D01*
X217714843Y-133070235D01*
X217665560Y-133318000D01*
X217665560Y-134842000D01*
X217714843Y-135089765D01*
X217855191Y-135299809D01*
X218065235Y-135440157D01*
X218313000Y-135489440D01*
X219837000Y-135489440D01*
X220084765Y-135440157D01*
X220294809Y-135299809D01*
X220435157Y-135089765D01*
X220484440Y-134842000D01*
X220484440Y-134445438D01*
X220659990Y-134870303D01*
X221052630Y-135263629D01*
X221565900Y-135476757D01*
X222121661Y-135477242D01*
X222635303Y-135265010D01*
X223028629Y-134872370D01*
X223230233Y-134386853D01*
X223429990Y-134870303D01*
X223822630Y-135263629D01*
X224335900Y-135476757D01*
X224891661Y-135477242D01*
X225405303Y-135265010D01*
X225798629Y-134872370D01*
X226000233Y-134386853D01*
X226199990Y-134870303D01*
X226592630Y-135263629D01*
X227105900Y-135476757D01*
X227661661Y-135477242D01*
X228175303Y-135265010D01*
X228568629Y-134872370D01*
X228770233Y-134386853D01*
X228969990Y-134870303D01*
X229362630Y-135263629D01*
X229875900Y-135476757D01*
X230431661Y-135477242D01*
X230725000Y-135356037D01*
X230725000Y-139811289D01*
X229321288Y-141215000D01*
X225678711Y-141215000D01*
X224535000Y-140071288D01*
X224535000Y-137900213D01*
X225199392Y-137900213D01*
X225268857Y-138142397D01*
X225792302Y-138329144D01*
X226347368Y-138301362D01*
X226731143Y-138142397D01*
X226800608Y-137900213D01*
X227969392Y-137900213D01*
X228038857Y-138142397D01*
X228562302Y-138329144D01*
X229117368Y-138301362D01*
X229501143Y-138142397D01*
X229570608Y-137900213D01*
X228770000Y-137099605D01*
X227969392Y-137900213D01*
X226800608Y-137900213D01*
X226000000Y-137099605D01*
X225199392Y-137900213D01*
X224535000Y-137900213D01*
X224535000Y-137420076D01*
X224616462Y-137223893D01*
X224618638Y-137267368D01*
X224777603Y-137651143D01*
X225019787Y-137720608D01*
X225820395Y-136920000D01*
X226179605Y-136920000D01*
X226980213Y-137720608D01*
X227222397Y-137651143D01*
X227385030Y-137195288D01*
X227388638Y-137267368D01*
X227547603Y-137651143D01*
X227789787Y-137720608D01*
X228590395Y-136920000D01*
X228949605Y-136920000D01*
X229750213Y-137720608D01*
X229992397Y-137651143D01*
X230179144Y-137127698D01*
X230151362Y-136572632D01*
X229992397Y-136188857D01*
X229750213Y-136119392D01*
X228949605Y-136920000D01*
X228590395Y-136920000D01*
X227789787Y-136119392D01*
X227547603Y-136188857D01*
X227384970Y-136644712D01*
X227381362Y-136572632D01*
X227222397Y-136188857D01*
X226980213Y-136119392D01*
X226179605Y-136920000D01*
X225820395Y-136920000D01*
X225019787Y-136119392D01*
X224777603Y-136188857D01*
X224620919Y-136628036D01*
X224415010Y-136129697D01*
X224225432Y-135939787D01*
X225199392Y-135939787D01*
X226000000Y-136740395D01*
X226800608Y-135939787D01*
X227969392Y-135939787D01*
X228770000Y-136740395D01*
X229570608Y-135939787D01*
X229501143Y-135697603D01*
X228977698Y-135510856D01*
X228422632Y-135538638D01*
X228038857Y-135697603D01*
X227969392Y-135939787D01*
X226800608Y-135939787D01*
X226731143Y-135697603D01*
X226207698Y-135510856D01*
X225652632Y-135538638D01*
X225268857Y-135697603D01*
X225199392Y-135939787D01*
X224225432Y-135939787D01*
X224022370Y-135736371D01*
X223509100Y-135523243D01*
X222953339Y-135522758D01*
X222439697Y-135734990D01*
X222046371Y-136127630D01*
X221844767Y-136613147D01*
X221645010Y-136129697D01*
X221252370Y-135736371D01*
X220739100Y-135523243D01*
X220183339Y-135522758D01*
X219669697Y-135734990D01*
X219276371Y-136127630D01*
X219063243Y-136640900D01*
X219062758Y-137196661D01*
X219274990Y-137710303D01*
X219565000Y-138000820D01*
X219565000Y-140159868D01*
X217135000Y-137729868D01*
X217135000Y-132900000D01*
X217127271Y-132861145D01*
X217048604Y-132465655D01*
X216802567Y-132097434D01*
X214735000Y-130029868D01*
X214735000Y-122870230D01*
X214756119Y-122856119D01*
X215110542Y-122325687D01*
X215235000Y-121700000D01*
X215205000Y-121549181D01*
X215205000Y-103536821D01*
X215211974Y-103545450D01*
X215692723Y-103807080D01*
X215766930Y-103822040D01*
X215983000Y-103699540D01*
X215983000Y-102257000D01*
X216237000Y-102257000D01*
X216237000Y-103699540D01*
X216453070Y-103822040D01*
X216527277Y-103807080D01*
X217008026Y-103545450D01*
X217352059Y-103119761D01*
X217380000Y-103025097D01*
X217407941Y-103119761D01*
X217751974Y-103545450D01*
X218232723Y-103807080D01*
X218306930Y-103822040D01*
X218523000Y-103699540D01*
X218523000Y-102257000D01*
X216237000Y-102257000D01*
X215983000Y-102257000D01*
X215963000Y-102257000D01*
X215963000Y-102003000D01*
X215983000Y-102003000D01*
X215983000Y-100560460D01*
X216237000Y-100560460D01*
X216237000Y-102003000D01*
X218523000Y-102003000D01*
X218523000Y-100560460D01*
X218777000Y-100560460D01*
X218777000Y-102003000D01*
X218797000Y-102003000D01*
X218797000Y-102257000D01*
X218777000Y-102257000D01*
X218777000Y-103699540D01*
X218993070Y-103822040D01*
X219067277Y-103807080D01*
X219548026Y-103545450D01*
X219892059Y-103119761D01*
X219911353Y-103054394D01*
X220202172Y-103489635D01*
X220655391Y-103792467D01*
X221190000Y-103898807D01*
X221724609Y-103792467D01*
X222177828Y-103489635D01*
X222480660Y-103036416D01*
X222587000Y-102501807D01*
X222587000Y-101758193D01*
X222480660Y-101223584D01*
X222177828Y-100770365D01*
X221724609Y-100467533D01*
X221190000Y-100361193D01*
X220655391Y-100467533D01*
X220202172Y-100770365D01*
X219911353Y-101205606D01*
X219892059Y-101140239D01*
X219548026Y-100714550D01*
X219067277Y-100452920D01*
X218993070Y-100437960D01*
X218777000Y-100560460D01*
X218523000Y-100560460D01*
X218306930Y-100437960D01*
X218232723Y-100452920D01*
X217751974Y-100714550D01*
X217407941Y-101140239D01*
X217380000Y-101234903D01*
X217352059Y-101140239D01*
X217008026Y-100714550D01*
X216527277Y-100452920D01*
X216453070Y-100437960D01*
X216237000Y-100560460D01*
X215983000Y-100560460D01*
X215766930Y-100437960D01*
X215692723Y-100452920D01*
X215211974Y-100714550D01*
X214867941Y-101140239D01*
X214858546Y-101172070D01*
X214726120Y-100973880D01*
X214667755Y-100934882D01*
X214557828Y-100770365D01*
X214104609Y-100467533D01*
X213570000Y-100361193D01*
X213035391Y-100467533D01*
X212582172Y-100770365D01*
X212472245Y-100934882D01*
X212413880Y-100973880D01*
X212283847Y-101168489D01*
X212017828Y-100770365D01*
X211564609Y-100467533D01*
X211030000Y-100361193D01*
X210495391Y-100467533D01*
X210042172Y-100770365D01*
X209760000Y-101192664D01*
X209477828Y-100770365D01*
X209024609Y-100467533D01*
X208490000Y-100361193D01*
X207955391Y-100467533D01*
X207502172Y-100770365D01*
X207220000Y-101192664D01*
X206937828Y-100770365D01*
X206484609Y-100467533D01*
X205950000Y-100361193D01*
X205415391Y-100467533D01*
X204962172Y-100770365D01*
X204680000Y-101192664D01*
X204397828Y-100770365D01*
X203944609Y-100467533D01*
X203410000Y-100361193D01*
X202875391Y-100467533D01*
X202422172Y-100770365D01*
X202119340Y-101223584D01*
X202013000Y-101758193D01*
X202013000Y-102501807D01*
X202119340Y-103036416D01*
X202422172Y-103489635D01*
X202875391Y-103792467D01*
X203410000Y-103898807D01*
X203944609Y-103792467D01*
X204397828Y-103489635D01*
X204680000Y-103067336D01*
X204962172Y-103489635D01*
X205415391Y-103792467D01*
X205950000Y-103898807D01*
X206484609Y-103792467D01*
X206937828Y-103489635D01*
X207220000Y-103067336D01*
X207502172Y-103489635D01*
X207955391Y-103792467D01*
X208490000Y-103898807D01*
X209024609Y-103792467D01*
X209477828Y-103489635D01*
X209760000Y-103067336D01*
X210042172Y-103489635D01*
X210495391Y-103792467D01*
X211030000Y-103898807D01*
X211564609Y-103792467D01*
X211935000Y-103544979D01*
X211935000Y-120565000D01*
X202135000Y-120565000D01*
X202135000Y-120385750D01*
X201976250Y-120227000D01*
X201027000Y-120227000D01*
X201027000Y-120247000D01*
X200773000Y-120247000D01*
X200773000Y-120227000D01*
X200753000Y-120227000D01*
X200753000Y-119973000D01*
X200773000Y-119973000D01*
X200773000Y-119248750D01*
X201027000Y-119248750D01*
X201027000Y-119973000D01*
X201976250Y-119973000D01*
X202135000Y-119814250D01*
X202135000Y-119598690D01*
X202038327Y-119365301D01*
X201859698Y-119186673D01*
X201626309Y-119090000D01*
X201185750Y-119090000D01*
X201027000Y-119248750D01*
X200773000Y-119248750D01*
X200738955Y-119214705D01*
X201261145Y-118692515D01*
X201342144Y-118571291D01*
X201686077Y-118915824D01*
X202213309Y-119134750D01*
X202784187Y-119135248D01*
X203311800Y-118917243D01*
X203715824Y-118513923D01*
X203934750Y-117986691D01*
X203935248Y-117415813D01*
X203717243Y-116888200D01*
X203435000Y-116605464D01*
X203435000Y-116100000D01*
X203363827Y-115742191D01*
X203161145Y-115438855D01*
X200656145Y-112933855D01*
X200352809Y-112731173D01*
X199995000Y-112660000D01*
X198090478Y-112660000D01*
X198097440Y-112625000D01*
X198097440Y-112025000D01*
X198048157Y-111777235D01*
X197989868Y-111690000D01*
X198048157Y-111602765D01*
X198097440Y-111355000D01*
X198097440Y-110755000D01*
X198048157Y-110507235D01*
X197907809Y-110297191D01*
X197891198Y-110286092D01*
X198861145Y-109316145D01*
X199063827Y-109012809D01*
X199135000Y-108655000D01*
X199135000Y-106454200D01*
X199282757Y-106811800D01*
X199686077Y-107215824D01*
X200213309Y-107434750D01*
X200784187Y-107435248D01*
X201311800Y-107217243D01*
X201715824Y-106813923D01*
X201934750Y-106286691D01*
X201935248Y-105715813D01*
X201717243Y-105188200D01*
X201435000Y-104905464D01*
X201435000Y-101287290D01*
X205229883Y-97492407D01*
X239275683Y-97492407D01*
X239615062Y-98313766D01*
X240242928Y-98942729D01*
X241063694Y-99283541D01*
X241952407Y-99284317D01*
X242773766Y-98944938D01*
X243402729Y-98317072D01*
X243743541Y-97496306D01*
X243743630Y-97394267D01*
X267609433Y-97394267D01*
X267624907Y-97479012D01*
X267891564Y-97961563D01*
X268322587Y-98305337D01*
X268852357Y-98457997D01*
X269074080Y-98300505D01*
X269074080Y-97177000D01*
X269328080Y-97177000D01*
X269328080Y-98300505D01*
X269549803Y-98457997D01*
X270079573Y-98305337D01*
X270510596Y-97961563D01*
X270718634Y-97585092D01*
X270927319Y-97961880D01*
X271358332Y-98304970D01*
X271887831Y-98457002D01*
X272109380Y-98299296D01*
X272109380Y-97177000D01*
X272363380Y-97177000D01*
X272363380Y-98299296D01*
X272584929Y-98457002D01*
X273114428Y-98304970D01*
X273545441Y-97961880D01*
X273812351Y-97479965D01*
X273828038Y-97394068D01*
X273705623Y-97177000D01*
X272363380Y-97177000D01*
X272109380Y-97177000D01*
X270767137Y-97177000D01*
X270718708Y-97262875D01*
X270670330Y-97177000D01*
X269328080Y-97177000D01*
X269074080Y-97177000D01*
X267731830Y-97177000D01*
X267609433Y-97394267D01*
X243743630Y-97394267D01*
X243744317Y-96607593D01*
X243404938Y-95786234D01*
X242777072Y-95157271D01*
X241956306Y-94816459D01*
X241067593Y-94815683D01*
X240246234Y-95155062D01*
X239617271Y-95782928D01*
X239276459Y-96603694D01*
X239275683Y-97492407D01*
X205229883Y-97492407D01*
X205987290Y-96735000D01*
X211500000Y-96735000D01*
X211857809Y-96663827D01*
X212161145Y-96461145D01*
X215487290Y-93135000D01*
X241900000Y-93135000D01*
X242257809Y-93063827D01*
X242561145Y-92861145D01*
X261567660Y-73854630D01*
X267601277Y-73854630D01*
X267534568Y-74190000D01*
X267641488Y-74727525D01*
X267945972Y-75183216D01*
X268360207Y-75460000D01*
X267945972Y-75736784D01*
X267641488Y-76192475D01*
X267534568Y-76730000D01*
X267641488Y-77267525D01*
X267945972Y-77723216D01*
X268360207Y-78000000D01*
X267945972Y-78276784D01*
X267641488Y-78732475D01*
X267534568Y-79270000D01*
X267641488Y-79807525D01*
X267945972Y-80263216D01*
X268360207Y-80540000D01*
X267945972Y-80816784D01*
X267641488Y-81272475D01*
X267534568Y-81810000D01*
X267641488Y-82347525D01*
X267945972Y-82803216D01*
X268360207Y-83080000D01*
X267945972Y-83356784D01*
X267641488Y-83812475D01*
X267534568Y-84350000D01*
X267641488Y-84887525D01*
X267945972Y-85343216D01*
X268360207Y-85620000D01*
X267945972Y-85896784D01*
X267641488Y-86352475D01*
X267534568Y-86890000D01*
X267641488Y-87427525D01*
X267945972Y-87883216D01*
X268360207Y-88160000D01*
X267945972Y-88436784D01*
X267641488Y-88892475D01*
X267534568Y-89430000D01*
X267641488Y-89967525D01*
X267945972Y-90423216D01*
X268360207Y-90700000D01*
X267945972Y-90976784D01*
X267641488Y-91432475D01*
X267534568Y-91970000D01*
X267641488Y-92507525D01*
X267945972Y-92963216D01*
X268360207Y-93240000D01*
X267945972Y-93516784D01*
X267641488Y-93972475D01*
X267534568Y-94510000D01*
X267641488Y-95047525D01*
X267945972Y-95503216D01*
X268364204Y-95782671D01*
X268322587Y-95794663D01*
X267891564Y-96138437D01*
X267624907Y-96620988D01*
X267609433Y-96705733D01*
X267731830Y-96923000D01*
X269074080Y-96923000D01*
X269074080Y-96903000D01*
X269328080Y-96903000D01*
X269328080Y-96923000D01*
X270670330Y-96923000D01*
X270718708Y-96837125D01*
X270767137Y-96923000D01*
X272109380Y-96923000D01*
X272109380Y-96903000D01*
X272363380Y-96903000D01*
X272363380Y-96923000D01*
X273705623Y-96923000D01*
X273828038Y-96705932D01*
X273812351Y-96620035D01*
X273545441Y-96138120D01*
X273114428Y-95795030D01*
X273072012Y-95782851D01*
X273491860Y-95502318D01*
X273796068Y-95047039D01*
X273902892Y-94510000D01*
X273796068Y-93972961D01*
X273491860Y-93517682D01*
X273076280Y-93240000D01*
X273491860Y-92962318D01*
X273796068Y-92507039D01*
X273902892Y-91970000D01*
X273796068Y-91432961D01*
X273491860Y-90977682D01*
X273076280Y-90700000D01*
X273491860Y-90422318D01*
X273796068Y-89967039D01*
X273902892Y-89430000D01*
X273796068Y-88892961D01*
X273491860Y-88437682D01*
X273076280Y-88160000D01*
X273491860Y-87882318D01*
X273796068Y-87427039D01*
X273902892Y-86890000D01*
X273796068Y-86352961D01*
X273491860Y-85897682D01*
X273076280Y-85620000D01*
X273491860Y-85342318D01*
X273796068Y-84887039D01*
X273902892Y-84350000D01*
X273796068Y-83812961D01*
X273491860Y-83357682D01*
X273076280Y-83080000D01*
X273491860Y-82802318D01*
X273796068Y-82347039D01*
X273902892Y-81810000D01*
X273796068Y-81272961D01*
X273491860Y-80817682D01*
X273076280Y-80540000D01*
X273491860Y-80262318D01*
X273796068Y-79807039D01*
X273902892Y-79270000D01*
X273796068Y-78732961D01*
X273491860Y-78277682D01*
X273076280Y-78000000D01*
X273491860Y-77722318D01*
X273796068Y-77267039D01*
X273902892Y-76730000D01*
X273796068Y-76192961D01*
X273491860Y-75737682D01*
X273076280Y-75460000D01*
X273491860Y-75182318D01*
X273796068Y-74727039D01*
X273902892Y-74190000D01*
X273796068Y-73652961D01*
X273491860Y-73197682D01*
X273076280Y-72920000D01*
X273491860Y-72642318D01*
X273796068Y-72187039D01*
X273902892Y-71650000D01*
X273796068Y-71112961D01*
X273491860Y-70657682D01*
X273076280Y-70380000D01*
X273491860Y-70102318D01*
X273796068Y-69647039D01*
X273902892Y-69110000D01*
X273796068Y-68572961D01*
X273491860Y-68117682D01*
X273076280Y-67840000D01*
X273491860Y-67562318D01*
X273796068Y-67107039D01*
X273902892Y-66570000D01*
X273796068Y-66032961D01*
X273491860Y-65577682D01*
X273076280Y-65300000D01*
X273491860Y-65022318D01*
X273796068Y-64567039D01*
X273902892Y-64030000D01*
X273796068Y-63492961D01*
X273491860Y-63037682D01*
X273076280Y-62760000D01*
X273491860Y-62482318D01*
X273796068Y-62027039D01*
X273902892Y-61490000D01*
X273796068Y-60952961D01*
X273491860Y-60497682D01*
X273076280Y-60220000D01*
X273491860Y-59942318D01*
X273796068Y-59487039D01*
X273902892Y-58950000D01*
X273796068Y-58412961D01*
X273491860Y-57957682D01*
X273076280Y-57680000D01*
X273491860Y-57402318D01*
X273796068Y-56947039D01*
X273902892Y-56410000D01*
X273796068Y-55872961D01*
X273491860Y-55417682D01*
X273076280Y-55140000D01*
X273491860Y-54862318D01*
X273796068Y-54407039D01*
X273902892Y-53870000D01*
X273796068Y-53332961D01*
X273491860Y-52877682D01*
X273036581Y-52573474D01*
X272499542Y-52466650D01*
X271973218Y-52466650D01*
X271436179Y-52573474D01*
X270980900Y-52877682D01*
X270718844Y-53269876D01*
X270456188Y-52876784D01*
X270000497Y-52572300D01*
X269462972Y-52465380D01*
X268939188Y-52465380D01*
X268401663Y-52572300D01*
X267945972Y-52876784D01*
X267761068Y-53153511D01*
X267534938Y-52606234D01*
X266907072Y-51977271D01*
X266086306Y-51636459D01*
X265197593Y-51635683D01*
X264376234Y-51975062D01*
X263747271Y-52602928D01*
X263406459Y-53423694D01*
X263405683Y-54312407D01*
X263745062Y-55133766D01*
X264372928Y-55762729D01*
X265193694Y-56103541D01*
X266082407Y-56104317D01*
X266903766Y-55764938D01*
X267532729Y-55137072D01*
X267761243Y-54586750D01*
X267945972Y-54863216D01*
X268360207Y-55140000D01*
X267945972Y-55416784D01*
X267641488Y-55872475D01*
X267534568Y-56410000D01*
X267641488Y-56947525D01*
X267945972Y-57403216D01*
X268360207Y-57680000D01*
X267945972Y-57956784D01*
X267641488Y-58412475D01*
X267534568Y-58950000D01*
X267641488Y-59487525D01*
X267945972Y-59943216D01*
X268360207Y-60220000D01*
X267945972Y-60496784D01*
X267641488Y-60952475D01*
X267534568Y-61490000D01*
X267641488Y-62027525D01*
X267945972Y-62483216D01*
X268360207Y-62760000D01*
X267945972Y-63036784D01*
X267907073Y-63095000D01*
X252870000Y-63095000D01*
X252512191Y-63166173D01*
X252208855Y-63368855D01*
X236712710Y-78865000D01*
X208200000Y-78865000D01*
X207842191Y-78936173D01*
X207538855Y-79138855D01*
X203712711Y-82964999D01*
X203357291Y-82964999D01*
X229471145Y-56851145D01*
X229673827Y-56547809D01*
X229745000Y-56190000D01*
X229745000Y-55263639D01*
X229797828Y-55228340D01*
X230080000Y-54806041D01*
X230315000Y-55157742D01*
X230315000Y-56721289D01*
X221471313Y-65564975D01*
X221215813Y-65564752D01*
X220688200Y-65782757D01*
X220284176Y-66186077D01*
X220065250Y-66713309D01*
X220064752Y-67284187D01*
X220262524Y-67762833D01*
X219786691Y-67565250D01*
X219215813Y-67564752D01*
X218688200Y-67782757D01*
X218284176Y-68186077D01*
X218065250Y-68713309D01*
X218064752Y-69284187D01*
X218282757Y-69811800D01*
X218686077Y-70215824D01*
X219213309Y-70434750D01*
X219784187Y-70435248D01*
X220311800Y-70217243D01*
X220494361Y-70035000D01*
X222999995Y-70035000D01*
X223000000Y-70035001D01*
X223396077Y-69956215D01*
X223731856Y-69731856D01*
X223911304Y-69552407D01*
X239275683Y-69552407D01*
X239615062Y-70373766D01*
X240242928Y-71002729D01*
X241063694Y-71343541D01*
X241952407Y-71344317D01*
X242773766Y-71004938D01*
X243402729Y-70377072D01*
X243743541Y-69556306D01*
X243744317Y-68667593D01*
X243404938Y-67846234D01*
X242777072Y-67217271D01*
X241956306Y-66876459D01*
X241067593Y-66875683D01*
X240246234Y-67215062D01*
X239617271Y-67842928D01*
X239276459Y-68663694D01*
X239275683Y-69552407D01*
X223911304Y-69552407D01*
X234621853Y-58841858D01*
X234621856Y-58841856D01*
X234846215Y-58506077D01*
X234864834Y-58412475D01*
X234925001Y-58110000D01*
X234925000Y-58109995D01*
X234925000Y-55157742D01*
X235160000Y-54806041D01*
X235442172Y-55228340D01*
X235895391Y-55531172D01*
X236430000Y-55637512D01*
X236964609Y-55531172D01*
X237417828Y-55228340D01*
X237700000Y-54806041D01*
X237982172Y-55228340D01*
X238435391Y-55531172D01*
X238970000Y-55637512D01*
X239504609Y-55531172D01*
X239957828Y-55228340D01*
X240260660Y-54775121D01*
X240367000Y-54240512D01*
X240367000Y-53499488D01*
X242653000Y-53499488D01*
X242653000Y-54240512D01*
X242759340Y-54775121D01*
X243062172Y-55228340D01*
X243515391Y-55531172D01*
X244050000Y-55637512D01*
X244584609Y-55531172D01*
X245037828Y-55228340D01*
X245320000Y-54806041D01*
X245602172Y-55228340D01*
X246055391Y-55531172D01*
X246590000Y-55637512D01*
X247124609Y-55531172D01*
X247577828Y-55228340D01*
X247860000Y-54806041D01*
X248142172Y-55228340D01*
X248595391Y-55531172D01*
X249130000Y-55637512D01*
X249664609Y-55531172D01*
X250117828Y-55228340D01*
X250400000Y-54806041D01*
X250682172Y-55228340D01*
X251135391Y-55531172D01*
X251670000Y-55637512D01*
X252204609Y-55531172D01*
X252657828Y-55228340D01*
X252940000Y-54806041D01*
X253222172Y-55228340D01*
X253675391Y-55531172D01*
X254210000Y-55637512D01*
X254744609Y-55531172D01*
X255197828Y-55228340D01*
X255480000Y-54806041D01*
X255762172Y-55228340D01*
X256215391Y-55531172D01*
X256750000Y-55637512D01*
X257284609Y-55531172D01*
X257737828Y-55228340D01*
X258020000Y-54806041D01*
X258302172Y-55228340D01*
X258755391Y-55531172D01*
X259290000Y-55637512D01*
X259824609Y-55531172D01*
X260277828Y-55228340D01*
X260560000Y-54806041D01*
X260842172Y-55228340D01*
X261295391Y-55531172D01*
X261830000Y-55637512D01*
X262364609Y-55531172D01*
X262817828Y-55228340D01*
X263120660Y-54775121D01*
X263227000Y-54240512D01*
X263227000Y-53499488D01*
X263120660Y-52964879D01*
X262817828Y-52511660D01*
X262364609Y-52208828D01*
X261830000Y-52102488D01*
X261295391Y-52208828D01*
X260842172Y-52511660D01*
X260560000Y-52933959D01*
X260277828Y-52511660D01*
X259824609Y-52208828D01*
X259290000Y-52102488D01*
X258755391Y-52208828D01*
X258302172Y-52511660D01*
X258020000Y-52933959D01*
X257737828Y-52511660D01*
X257284609Y-52208828D01*
X256750000Y-52102488D01*
X256215391Y-52208828D01*
X255762172Y-52511660D01*
X255480000Y-52933959D01*
X255197828Y-52511660D01*
X254744609Y-52208828D01*
X254210000Y-52102488D01*
X253675391Y-52208828D01*
X253222172Y-52511660D01*
X252940000Y-52933959D01*
X252657828Y-52511660D01*
X252204609Y-52208828D01*
X251670000Y-52102488D01*
X251135391Y-52208828D01*
X250682172Y-52511660D01*
X250400000Y-52933959D01*
X250117828Y-52511660D01*
X249664609Y-52208828D01*
X249130000Y-52102488D01*
X248595391Y-52208828D01*
X248142172Y-52511660D01*
X247860000Y-52933959D01*
X247577828Y-52511660D01*
X247124609Y-52208828D01*
X246590000Y-52102488D01*
X246055391Y-52208828D01*
X245602172Y-52511660D01*
X245320000Y-52933959D01*
X245037828Y-52511660D01*
X244584609Y-52208828D01*
X244050000Y-52102488D01*
X243515391Y-52208828D01*
X243062172Y-52511660D01*
X242759340Y-52964879D01*
X242653000Y-53499488D01*
X240367000Y-53499488D01*
X240260660Y-52964879D01*
X239957828Y-52511660D01*
X239504609Y-52208828D01*
X238970000Y-52102488D01*
X238435391Y-52208828D01*
X237982172Y-52511660D01*
X237700000Y-52933959D01*
X237417828Y-52511660D01*
X236964609Y-52208828D01*
X236430000Y-52102488D01*
X235895391Y-52208828D01*
X235442172Y-52511660D01*
X235160000Y-52933959D01*
X234877828Y-52511660D01*
X234424609Y-52208828D01*
X233890000Y-52102488D01*
X233355391Y-52208828D01*
X232902172Y-52511660D01*
X232620000Y-52933959D01*
X232337828Y-52511660D01*
X231884609Y-52208828D01*
X231350000Y-52102488D01*
X230815391Y-52208828D01*
X230362172Y-52511660D01*
X230080000Y-52933959D01*
X229797828Y-52511660D01*
X229344609Y-52208828D01*
X228810000Y-52102488D01*
X228275391Y-52208828D01*
X227822172Y-52511660D01*
X227540000Y-52933959D01*
X227257828Y-52511660D01*
X226804609Y-52208828D01*
X226270000Y-52102488D01*
X225735391Y-52208828D01*
X225282172Y-52511660D01*
X225000000Y-52933959D01*
X224717828Y-52511660D01*
X224264609Y-52208828D01*
X223730000Y-52102488D01*
X223195391Y-52208828D01*
X222742172Y-52511660D01*
X222460000Y-52933959D01*
X222177828Y-52511660D01*
X221724609Y-52208828D01*
X221190000Y-52102488D01*
X220655391Y-52208828D01*
X220202172Y-52511660D01*
X219899340Y-52964879D01*
X219793000Y-53499488D01*
X219793000Y-54240512D01*
X219899340Y-54775121D01*
X219900641Y-54777069D01*
X197662710Y-77015000D01*
X197305376Y-77015000D01*
X197311145Y-77011145D01*
X217787145Y-56535145D01*
X217989827Y-56231809D01*
X218061000Y-55874000D01*
X218061000Y-55263639D01*
X218113828Y-55228340D01*
X218416660Y-54775121D01*
X218523000Y-54240512D01*
X218523000Y-53499488D01*
X218416660Y-52964879D01*
X218113828Y-52511660D01*
X217660609Y-52208828D01*
X217126000Y-52102488D01*
X216591391Y-52208828D01*
X216138172Y-52511660D01*
X215856000Y-52933959D01*
X215573828Y-52511660D01*
X215120609Y-52208828D01*
X214586000Y-52102488D01*
X214051391Y-52208828D01*
X213598172Y-52511660D01*
X213316000Y-52933959D01*
X213033828Y-52511660D01*
X212580609Y-52208828D01*
X212046000Y-52102488D01*
X211511391Y-52208828D01*
X211058172Y-52511660D01*
X210776000Y-52933959D01*
X210493828Y-52511660D01*
X210040609Y-52208828D01*
X209506000Y-52102488D01*
X208971391Y-52208828D01*
X208518172Y-52511660D01*
X208236000Y-52933959D01*
X207953828Y-52511660D01*
X207500609Y-52208828D01*
X206966000Y-52102488D01*
X206431391Y-52208828D01*
X205978172Y-52511660D01*
X205696000Y-52933959D01*
X205413828Y-52511660D01*
X204960609Y-52208828D01*
X204426000Y-52102488D01*
X203891391Y-52208828D01*
X203438172Y-52511660D01*
X203147358Y-52946893D01*
X203128059Y-52881509D01*
X202784026Y-52455820D01*
X202303277Y-52194190D01*
X202229070Y-52179230D01*
X202013000Y-52301730D01*
X202013000Y-53743000D01*
X202033000Y-53743000D01*
X202033000Y-53997000D01*
X202013000Y-53997000D01*
X202013000Y-54017000D01*
X201759000Y-54017000D01*
X201759000Y-53997000D01*
X201739000Y-53997000D01*
X201739000Y-53743000D01*
X201759000Y-53743000D01*
X201759000Y-52301730D01*
X201542930Y-52179230D01*
X201468723Y-52194190D01*
X200987974Y-52455820D01*
X200643941Y-52881509D01*
X200624642Y-52946893D01*
X200333828Y-52511660D01*
X199880609Y-52208828D01*
X199346000Y-52102488D01*
X198811391Y-52208828D01*
X198358172Y-52511660D01*
X198076000Y-52933959D01*
X197793828Y-52511660D01*
X197340609Y-52208828D01*
X196806000Y-52102488D01*
X196271391Y-52208828D01*
X195818172Y-52511660D01*
X195536000Y-52933959D01*
X195253828Y-52511660D01*
X194800609Y-52208828D01*
X194266000Y-52102488D01*
X193731391Y-52208828D01*
X193278172Y-52511660D01*
X192975340Y-52964879D01*
X192903129Y-53327910D01*
X192604938Y-52606234D01*
X191977072Y-51977271D01*
X191156306Y-51636459D01*
X190267593Y-51635683D01*
X189446234Y-51975062D01*
X188817271Y-52602928D01*
X188476459Y-53423694D01*
X188475683Y-54312407D01*
X188815062Y-55133766D01*
X189442928Y-55762729D01*
X190263694Y-56103541D01*
X191046036Y-56104224D01*
X189585260Y-57565000D01*
X146000000Y-57565000D01*
X145642191Y-57636173D01*
X145338855Y-57838855D01*
X91112710Y-112065000D01*
X78800000Y-112065000D01*
X78442191Y-112136173D01*
X78138855Y-112338855D01*
X73994584Y-116483126D01*
X73947765Y-116451843D01*
X73700000Y-116402560D01*
X72500000Y-116402560D01*
X72252235Y-116451843D01*
X72042191Y-116592191D01*
X72000000Y-116655334D01*
X71957809Y-116592191D01*
X71747765Y-116451843D01*
X71500000Y-116402560D01*
X70300000Y-116402560D01*
X70052235Y-116451843D01*
X69842191Y-116592191D01*
X69701843Y-116802235D01*
X69652560Y-117050000D01*
X69652560Y-117950000D01*
X69701843Y-118197765D01*
X69842191Y-118407809D01*
X70025000Y-118529959D01*
X70025000Y-119352560D01*
X69960000Y-119352560D01*
X69712235Y-119401843D01*
X69502191Y-119542191D01*
X69361843Y-119752235D01*
X69312560Y-120000000D01*
X69312560Y-122000000D01*
X69361843Y-122247765D01*
X69502191Y-122457809D01*
X69712235Y-122598157D01*
X69960000Y-122647440D01*
X71960000Y-122647440D01*
X72207765Y-122598157D01*
X72417809Y-122457809D01*
X72558157Y-122247765D01*
X72559600Y-122240509D01*
X72625736Y-122419387D01*
X73235461Y-122645908D01*
X73885460Y-122621856D01*
X74374264Y-122419387D01*
X74472927Y-122152532D01*
X73500000Y-121179605D01*
X73485858Y-121193748D01*
X73306253Y-121014143D01*
X73320395Y-121000000D01*
X73679605Y-121000000D01*
X74652532Y-121972927D01*
X74919387Y-121874264D01*
X75145908Y-121264539D01*
X75121856Y-120614540D01*
X74919387Y-120125736D01*
X74652532Y-120027073D01*
X73679605Y-121000000D01*
X73320395Y-121000000D01*
X73306253Y-120985858D01*
X73485858Y-120806253D01*
X73500000Y-120820395D01*
X74472927Y-119847468D01*
X74374264Y-119580613D01*
X73764539Y-119354092D01*
X73114540Y-119378144D01*
X72625736Y-119580613D01*
X72559600Y-119759491D01*
X72558157Y-119752235D01*
X72417809Y-119542191D01*
X72207765Y-119401843D01*
X71960000Y-119352560D01*
X71895000Y-119352560D01*
X71895000Y-118449777D01*
X71957809Y-118407809D01*
X72000000Y-118344666D01*
X72042191Y-118407809D01*
X72252235Y-118548157D01*
X72500000Y-118597440D01*
X73700000Y-118597440D01*
X73947765Y-118548157D01*
X74117115Y-118435000D01*
X74300000Y-118435000D01*
X74657809Y-118363827D01*
X74961145Y-118161145D01*
X79187290Y-113935000D01*
X91500000Y-113935000D01*
X91857809Y-113863827D01*
X92161145Y-113661145D01*
X146387290Y-59435000D01*
X189972550Y-59435000D01*
X190330359Y-59363827D01*
X190633695Y-59161145D01*
X194175358Y-55619482D01*
X194266000Y-55637512D01*
X194800609Y-55531172D01*
X195253828Y-55228340D01*
X195536000Y-54806041D01*
X195818172Y-55228340D01*
X195871000Y-55263639D01*
X195871000Y-59306710D01*
X195612710Y-59565000D01*
X147000000Y-59565000D01*
X146642191Y-59636173D01*
X146338855Y-59838855D01*
X92112710Y-114065000D01*
X86800000Y-114065000D01*
X86442191Y-114136173D01*
X86138855Y-114338855D01*
X83994584Y-116483126D01*
X83947765Y-116451843D01*
X83700000Y-116402560D01*
X82500000Y-116402560D01*
X82252235Y-116451843D01*
X82042191Y-116592191D01*
X82000000Y-116655334D01*
X81957809Y-116592191D01*
X81747765Y-116451843D01*
X81500000Y-116402560D01*
X80300000Y-116402560D01*
X80052235Y-116451843D01*
X79842191Y-116592191D01*
X79701843Y-116802235D01*
X79652560Y-117050000D01*
X79652560Y-117950000D01*
X79701843Y-118197765D01*
X79842191Y-118407809D01*
X80025000Y-118529959D01*
X80025000Y-119352560D01*
X79960000Y-119352560D01*
X79712235Y-119401843D01*
X79502191Y-119542191D01*
X79361843Y-119752235D01*
X79312560Y-120000000D01*
X79312560Y-122000000D01*
X79361843Y-122247765D01*
X79502191Y-122457809D01*
X79712235Y-122598157D01*
X79960000Y-122647440D01*
X81960000Y-122647440D01*
X82207765Y-122598157D01*
X82417809Y-122457809D01*
X82558157Y-122247765D01*
X82559600Y-122240509D01*
X82625736Y-122419387D01*
X83235461Y-122645908D01*
X83885460Y-122621856D01*
X84374264Y-122419387D01*
X84472927Y-122152532D01*
X83500000Y-121179605D01*
X83485858Y-121193748D01*
X83306253Y-121014143D01*
X83320395Y-121000000D01*
X83679605Y-121000000D01*
X84652532Y-121972927D01*
X84919387Y-121874264D01*
X85145908Y-121264539D01*
X85121856Y-120614540D01*
X84919387Y-120125736D01*
X84652532Y-120027073D01*
X83679605Y-121000000D01*
X83320395Y-121000000D01*
X83306253Y-120985858D01*
X83485858Y-120806253D01*
X83500000Y-120820395D01*
X84472927Y-119847468D01*
X84374264Y-119580613D01*
X83764539Y-119354092D01*
X83114540Y-119378144D01*
X82625736Y-119580613D01*
X82559600Y-119759491D01*
X82558157Y-119752235D01*
X82417809Y-119542191D01*
X82207765Y-119401843D01*
X81960000Y-119352560D01*
X81895000Y-119352560D01*
X81895000Y-118449777D01*
X81957809Y-118407809D01*
X82000000Y-118344666D01*
X82042191Y-118407809D01*
X82252235Y-118548157D01*
X82500000Y-118597440D01*
X83700000Y-118597440D01*
X83947765Y-118548157D01*
X84117115Y-118435000D01*
X84300000Y-118435000D01*
X84657809Y-118363827D01*
X84961145Y-118161145D01*
X87187290Y-115935000D01*
X92500000Y-115935000D01*
X92857809Y-115863827D01*
X93161145Y-115661145D01*
X147387290Y-61435000D01*
X195875260Y-61435000D01*
X195745260Y-61565000D01*
X148400000Y-61565000D01*
X148042191Y-61636173D01*
X147738855Y-61838855D01*
X93094584Y-116483126D01*
X93047765Y-116451843D01*
X92800000Y-116402560D01*
X91600000Y-116402560D01*
X91352235Y-116451843D01*
X91142191Y-116592191D01*
X91100000Y-116655334D01*
X91057809Y-116592191D01*
X90847765Y-116451843D01*
X90600000Y-116402560D01*
X89400000Y-116402560D01*
X89152235Y-116451843D01*
X88942191Y-116592191D01*
X88801843Y-116802235D01*
X88752560Y-117050000D01*
X88752560Y-117950000D01*
X88801843Y-118197765D01*
X88942191Y-118407809D01*
X89025000Y-118463141D01*
X89025000Y-119352560D01*
X88960000Y-119352560D01*
X88712235Y-119401843D01*
X88502191Y-119542191D01*
X88361843Y-119752235D01*
X88312560Y-120000000D01*
X88312560Y-122000000D01*
X88361843Y-122247765D01*
X88502191Y-122457809D01*
X88712235Y-122598157D01*
X88960000Y-122647440D01*
X90960000Y-122647440D01*
X91207765Y-122598157D01*
X91417809Y-122457809D01*
X91558157Y-122247765D01*
X91559600Y-122240509D01*
X91625736Y-122419387D01*
X92235461Y-122645908D01*
X92885460Y-122621856D01*
X92934919Y-122601369D01*
X90071288Y-125465000D01*
X87000005Y-125465000D01*
X87000000Y-125464999D01*
X86603923Y-125543785D01*
X86268144Y-125768144D01*
X86268142Y-125768147D01*
X83571288Y-128465000D01*
X75000005Y-128465000D01*
X75000000Y-128464999D01*
X74603923Y-128543785D01*
X74268144Y-128768144D01*
X74268142Y-128768147D01*
X72071288Y-130965000D01*
X71967456Y-130965000D01*
X71947765Y-130951843D01*
X71700000Y-130902560D01*
X70500000Y-130902560D01*
X70376431Y-130927139D01*
X70434750Y-130786691D01*
X70435248Y-130215813D01*
X70217243Y-129688200D01*
X69813923Y-129284176D01*
X69286691Y-129065250D01*
X68715813Y-129064752D01*
X68188200Y-129282757D01*
X67784176Y-129686077D01*
X67710000Y-129864713D01*
X67710000Y-110442619D01*
X72764613Y-110442619D01*
X73104155Y-111264372D01*
X73732321Y-111893636D01*
X74553481Y-112234611D01*
X75442619Y-112235387D01*
X76264372Y-111895845D01*
X76893636Y-111267679D01*
X77234611Y-110446519D01*
X77235387Y-109557381D01*
X76895845Y-108735628D01*
X76267679Y-108106364D01*
X75446519Y-107765389D01*
X74557381Y-107764613D01*
X73735628Y-108104155D01*
X73106364Y-108732321D01*
X72765389Y-109553481D01*
X72764613Y-110442619D01*
X67710000Y-110442619D01*
X67710000Y-45442619D01*
X72764613Y-45442619D01*
X73104155Y-46264372D01*
X73732321Y-46893636D01*
X74553481Y-47234611D01*
X75442619Y-47235387D01*
X76264372Y-46895845D01*
X76893636Y-46267679D01*
X77234611Y-45446519D01*
X77234614Y-45442619D01*
X267764613Y-45442619D01*
X268104155Y-46264372D01*
X268732321Y-46893636D01*
X269553481Y-47234611D01*
X270442619Y-47235387D01*
X271264372Y-46895845D01*
X271893636Y-46267679D01*
X272234611Y-45446519D01*
X272235387Y-44557381D01*
X271895845Y-43735628D01*
X271267679Y-43106364D01*
X270446519Y-42765389D01*
X269557381Y-42764613D01*
X268735628Y-43104155D01*
X268106364Y-43732321D01*
X267765389Y-44553481D01*
X267764613Y-45442619D01*
X77234614Y-45442619D01*
X77235387Y-44557381D01*
X76895845Y-43735628D01*
X76267679Y-43106364D01*
X75446519Y-42765389D01*
X74557381Y-42764613D01*
X73735628Y-43104155D01*
X73106364Y-43732321D01*
X72765389Y-44553481D01*
X72764613Y-45442619D01*
X67710000Y-45442619D01*
X67710000Y-40710000D01*
X275290000Y-40710000D01*
X275290000Y-144290000D01*
G36*
X150603922Y-67543785D02*
X150469429Y-67633651D01*
X150268144Y-67768144D01*
X150268142Y-67768147D01*
X100768144Y-117268144D01*
X100543785Y-117603923D01*
X100464999Y-118000000D01*
X100465000Y-118000005D01*
X100465000Y-122321289D01*
X91883728Y-130902560D01*
X91500000Y-130902560D01*
X91252235Y-130951843D01*
X91042191Y-131092191D01*
X91000000Y-131155334D01*
X90957809Y-131092191D01*
X90747765Y-130951843D01*
X90500000Y-130902560D01*
X89300000Y-130902560D01*
X89052235Y-130951843D01*
X89032544Y-130965000D01*
X88994432Y-130965000D01*
X88813923Y-130784176D01*
X88286691Y-130565250D01*
X87715813Y-130564752D01*
X87188200Y-130782757D01*
X86784176Y-131186077D01*
X86565250Y-131713309D01*
X86564752Y-132284187D01*
X86782757Y-132811800D01*
X87186077Y-133215824D01*
X87713309Y-133434750D01*
X88284187Y-133435248D01*
X88811800Y-133217243D01*
X88994361Y-133035000D01*
X89032544Y-133035000D01*
X89052235Y-133048157D01*
X89300000Y-133097440D01*
X90500000Y-133097440D01*
X90747765Y-133048157D01*
X90957809Y-132907809D01*
X91000000Y-132844666D01*
X91042191Y-132907809D01*
X91065000Y-132923050D01*
X91065000Y-135721289D01*
X90852344Y-135933945D01*
X90894388Y-135824194D01*
X90874250Y-135074565D01*
X90626123Y-134475533D01*
X90333320Y-134346285D01*
X89179605Y-135500000D01*
X89193748Y-135514143D01*
X89014143Y-135693748D01*
X89000000Y-135679605D01*
X87846285Y-136833320D01*
X87975533Y-137126123D01*
X88675806Y-137394388D01*
X88731744Y-137392885D01*
X88615284Y-137673352D01*
X88614716Y-138323795D01*
X88863106Y-138924943D01*
X89322637Y-139385278D01*
X89923352Y-139634716D01*
X90573795Y-139635284D01*
X91174943Y-139386894D01*
X91409715Y-139152532D01*
X93777073Y-139152532D01*
X93875736Y-139419387D01*
X94485461Y-139645908D01*
X95135460Y-139621856D01*
X95624264Y-139419387D01*
X95722927Y-139152532D01*
X94750000Y-138179605D01*
X93777073Y-139152532D01*
X91409715Y-139152532D01*
X91635278Y-138927363D01*
X91884716Y-138326648D01*
X91885151Y-137828561D01*
X91978250Y-137735461D01*
X93104092Y-137735461D01*
X93128144Y-138385460D01*
X93330613Y-138874264D01*
X93597468Y-138972927D01*
X94570395Y-138000000D01*
X93597468Y-137027073D01*
X93330613Y-137125736D01*
X93104092Y-137735461D01*
X91978250Y-137735461D01*
X92831853Y-136881858D01*
X92831856Y-136881856D01*
X92854833Y-136847468D01*
X93777073Y-136847468D01*
X94750000Y-137820395D01*
X94764143Y-137806253D01*
X94943748Y-137985858D01*
X94929605Y-138000000D01*
X95902532Y-138972927D01*
X96169387Y-138874264D01*
X96395908Y-138264539D01*
X96371856Y-137614540D01*
X96274010Y-137378318D01*
X96425435Y-137374250D01*
X97024467Y-137126123D01*
X97153715Y-136833320D01*
X96000000Y-135679605D01*
X95985858Y-135693748D01*
X95806253Y-135514143D01*
X95820395Y-135500000D01*
X96179605Y-135500000D01*
X97333320Y-136653715D01*
X97626123Y-136524467D01*
X97894388Y-135824194D01*
X97874250Y-135074565D01*
X97626123Y-134475533D01*
X97333320Y-134346285D01*
X96179605Y-135500000D01*
X95820395Y-135500000D01*
X94666680Y-134346285D01*
X94373877Y-134475533D01*
X94105612Y-135175806D01*
X94125750Y-135925435D01*
X94320777Y-136396271D01*
X93875736Y-136580613D01*
X93777073Y-136847468D01*
X92854833Y-136847468D01*
X93056215Y-136546077D01*
X93060514Y-136524467D01*
X93135001Y-136150000D01*
X93135000Y-136149995D01*
X93135000Y-134166680D01*
X94846285Y-134166680D01*
X96000000Y-135320395D01*
X97153715Y-134166680D01*
X97024467Y-133873877D01*
X96324194Y-133605612D01*
X95574565Y-133625750D01*
X94975533Y-133873877D01*
X94846285Y-134166680D01*
X93135000Y-134166680D01*
X93135000Y-132923050D01*
X93157809Y-132907809D01*
X93298157Y-132697765D01*
X93347440Y-132450000D01*
X93347440Y-132366272D01*
X102231853Y-123481858D01*
X102231856Y-123481856D01*
X102376754Y-123265000D01*
X102456215Y-123146078D01*
X102535000Y-122750000D01*
X102535000Y-118428712D01*
X108835021Y-112128690D01*
X109415000Y-112128690D01*
X109415000Y-112269250D01*
X109573750Y-112428000D01*
X110673000Y-112428000D01*
X110673000Y-111778750D01*
X110514250Y-111620000D01*
X109923691Y-111620000D01*
X109690302Y-111716673D01*
X109511673Y-111895301D01*
X109415000Y-112128690D01*
X108835021Y-112128690D01*
X151428711Y-69535000D01*
X168085691Y-69535000D01*
X167834176Y-69786077D01*
X167615250Y-70313309D01*
X167614752Y-70884187D01*
X167832757Y-71411800D01*
X168236077Y-71815824D01*
X168763309Y-72034750D01*
X169334187Y-72035248D01*
X169861800Y-71817243D01*
X170144536Y-71535000D01*
X172285517Y-71535000D01*
X172134176Y-71686077D01*
X171915250Y-72213309D01*
X171914752Y-72784187D01*
X172132757Y-73311800D01*
X172535254Y-73715000D01*
X150150000Y-73715000D01*
X149792191Y-73786173D01*
X149488855Y-73988855D01*
X148612612Y-74865098D01*
X148215813Y-74864752D01*
X147688200Y-75082757D01*
X147284176Y-75486077D01*
X147065250Y-76013309D01*
X147064752Y-76584187D01*
X147242760Y-77015000D01*
X145700000Y-77015000D01*
X145342191Y-77086173D01*
X145038855Y-77288855D01*
X115012481Y-107315229D01*
X114465813Y-107314752D01*
X113938200Y-107532757D01*
X113534176Y-107936077D01*
X113315250Y-108463309D01*
X113314752Y-109034187D01*
X113532757Y-109561800D01*
X113936077Y-109965824D01*
X114291497Y-110113407D01*
X112185000Y-112219904D01*
X112185000Y-112128690D01*
X112088327Y-111895301D01*
X111909698Y-111716673D01*
X111676309Y-111620000D01*
X111085750Y-111620000D01*
X110927000Y-111778750D01*
X110927000Y-112428000D01*
X110947000Y-112428000D01*
X110947000Y-112682000D01*
X110927000Y-112682000D01*
X110927000Y-112702000D01*
X110673000Y-112702000D01*
X110673000Y-112682000D01*
X109573750Y-112682000D01*
X109415000Y-112840750D01*
X109415000Y-112981310D01*
X109504768Y-113198028D01*
X109451843Y-113277235D01*
X109402560Y-113525000D01*
X109402560Y-114125000D01*
X109409522Y-114160000D01*
X109405000Y-114160000D01*
X109047191Y-114231173D01*
X108743855Y-114433855D01*
X103738855Y-119438855D01*
X103536173Y-119742191D01*
X103465000Y-120100000D01*
X103465000Y-132300000D01*
X103536173Y-132657809D01*
X103738855Y-132961145D01*
X105238855Y-134461145D01*
X105542191Y-134663827D01*
X105900000Y-134735000D01*
X108000000Y-134735000D01*
X108357809Y-134663827D01*
X108661145Y-134461145D01*
X111330084Y-131792206D01*
X111371661Y-131792242D01*
X111885303Y-131580010D01*
X112278629Y-131187370D01*
X112364949Y-130979488D01*
X112449990Y-131185303D01*
X112700000Y-131435750D01*
X112700000Y-131472630D01*
X112771173Y-131830439D01*
X112973855Y-132133775D01*
X116001225Y-135161145D01*
X116304561Y-135363827D01*
X116662370Y-135435000D01*
X119500000Y-135435000D01*
X119857809Y-135363827D01*
X120161145Y-135161145D01*
X122661145Y-132661145D01*
X122863827Y-132357809D01*
X122935000Y-132000000D01*
X122935000Y-129094258D01*
X123215824Y-128813923D01*
X123434750Y-128286691D01*
X123434791Y-128239923D01*
X134849807Y-139654939D01*
X134616009Y-139654735D01*
X134051629Y-139887932D01*
X133619449Y-140319357D01*
X133385267Y-140883330D01*
X133384735Y-141493991D01*
X133579352Y-141965000D01*
X109260265Y-141965000D01*
X109454733Y-141496670D01*
X109455265Y-140886009D01*
X109222068Y-140321629D01*
X108790643Y-139889449D01*
X108226670Y-139655267D01*
X107616009Y-139654735D01*
X107051629Y-139887932D01*
X106619449Y-140319357D01*
X106385267Y-140883330D01*
X106384735Y-141493991D01*
X106579352Y-141965000D01*
X105928711Y-141965000D01*
X101035000Y-137071288D01*
X101035000Y-132994432D01*
X101215824Y-132813923D01*
X101434750Y-132286691D01*
X101435248Y-131715813D01*
X101217243Y-131188200D01*
X100813923Y-130784176D01*
X100286691Y-130565250D01*
X99715813Y-130564752D01*
X99188200Y-130782757D01*
X98784176Y-131186077D01*
X98565250Y-131713309D01*
X98564752Y-132284187D01*
X98782757Y-132811800D01*
X98965000Y-132994361D01*
X98965000Y-137499995D01*
X98964999Y-137500000D01*
X99043785Y-137896077D01*
X99268144Y-138231856D01*
X104768142Y-143731853D01*
X104768144Y-143731856D01*
X105019791Y-143900000D01*
X105103923Y-143956215D01*
X105500000Y-144035001D01*
X105500005Y-144035000D01*
X139245975Y-144035000D01*
X139565654Y-144248603D01*
X139773770Y-144290000D01*
X67710000Y-144290000D01*
X67710000Y-136924500D01*
X67732554Y-136947054D01*
X67846286Y-136833322D01*
X67975533Y-137126123D01*
X68675806Y-137394388D01*
X68731744Y-137392885D01*
X68615284Y-137673352D01*
X68614716Y-138323795D01*
X68863106Y-138924943D01*
X69322637Y-139385278D01*
X69923352Y-139634716D01*
X70573795Y-139635284D01*
X71174943Y-139386894D01*
X71409715Y-139152532D01*
X73777073Y-139152532D01*
X73875736Y-139419387D01*
X74485461Y-139645908D01*
X75135460Y-139621856D01*
X75624264Y-139419387D01*
X75722927Y-139152532D01*
X74750000Y-138179605D01*
X73777073Y-139152532D01*
X71409715Y-139152532D01*
X71635278Y-138927363D01*
X71884716Y-138326648D01*
X71885174Y-137802059D01*
X71929673Y-137735461D01*
X73104092Y-137735461D01*
X73128144Y-138385460D01*
X73330613Y-138874264D01*
X73597468Y-138972927D01*
X74570395Y-138000000D01*
X73597468Y-137027073D01*
X73330613Y-137125736D01*
X73104092Y-137735461D01*
X71929673Y-137735461D01*
X72056215Y-137546077D01*
X72065380Y-137500000D01*
X72135001Y-137150000D01*
X72135000Y-137149995D01*
X72135000Y-136847468D01*
X73777073Y-136847468D01*
X74750000Y-137820395D01*
X74764143Y-137806253D01*
X74943748Y-137985858D01*
X74929605Y-138000000D01*
X75902532Y-138972927D01*
X76169387Y-138874264D01*
X76395908Y-138264539D01*
X76371856Y-137614540D01*
X76274010Y-137378318D01*
X76425435Y-137374250D01*
X77024467Y-137126123D01*
X77153715Y-136833320D01*
X76000000Y-135679605D01*
X75985858Y-135693748D01*
X75806253Y-135514143D01*
X75820395Y-135500000D01*
X76179605Y-135500000D01*
X77333320Y-136653715D01*
X77500000Y-136580140D01*
X77666680Y-136653715D01*
X78820395Y-135500000D01*
X77666680Y-134346285D01*
X77500000Y-134419860D01*
X77333320Y-134346285D01*
X76179605Y-135500000D01*
X75820395Y-135500000D01*
X74666680Y-134346285D01*
X74373877Y-134475533D01*
X74105612Y-135175806D01*
X74125750Y-135925435D01*
X74320777Y-136396271D01*
X73875736Y-136580613D01*
X73777073Y-136847468D01*
X72135000Y-136847468D01*
X72135000Y-134166680D01*
X74846285Y-134166680D01*
X76000000Y-135320395D01*
X77153715Y-134166680D01*
X77024467Y-133873877D01*
X76324194Y-133605612D01*
X75574565Y-133625750D01*
X74975533Y-133873877D01*
X74846285Y-134166680D01*
X72135000Y-134166680D01*
X72135000Y-133035000D01*
X72499995Y-133035000D01*
X72500000Y-133035001D01*
X72896077Y-132956215D01*
X73231856Y-132731856D01*
X75428711Y-130535000D01*
X83999995Y-130535000D01*
X84000000Y-130535001D01*
X84396077Y-130456215D01*
X84731856Y-130231856D01*
X87428711Y-127535000D01*
X90499995Y-127535000D01*
X90500000Y-127535001D01*
X90896077Y-127456215D01*
X91231856Y-127231856D01*
X97731853Y-120731858D01*
X97731856Y-120731856D01*
X97956215Y-120396077D01*
X97962471Y-120364626D01*
X97965000Y-120351913D01*
X97965000Y-121071289D01*
X90571288Y-128465000D01*
X87000005Y-128465000D01*
X87000000Y-128464999D01*
X86603923Y-128543785D01*
X86268144Y-128768144D01*
X86268142Y-128768147D01*
X84071288Y-130965000D01*
X81967456Y-130965000D01*
X81947765Y-130951843D01*
X81700000Y-130902560D01*
X80500000Y-130902560D01*
X80252235Y-130951843D01*
X80042191Y-131092191D01*
X80000000Y-131155334D01*
X79957809Y-131092191D01*
X79747765Y-130951843D01*
X79500000Y-130902560D01*
X78300000Y-130902560D01*
X78052235Y-130951843D01*
X78032544Y-130965000D01*
X77994432Y-130965000D01*
X77813923Y-130784176D01*
X77286691Y-130565250D01*
X76715813Y-130564752D01*
X76188200Y-130782757D01*
X75784176Y-131186077D01*
X75565250Y-131713309D01*
X75564752Y-132284187D01*
X75782757Y-132811800D01*
X76186077Y-133215824D01*
X76713309Y-133434750D01*
X77284187Y-133435248D01*
X77811800Y-133217243D01*
X77994361Y-133035000D01*
X78032544Y-133035000D01*
X78052235Y-133048157D01*
X78300000Y-133097440D01*
X79500000Y-133097440D01*
X79747765Y-133048157D01*
X79957809Y-132907809D01*
X80000000Y-132844666D01*
X80042191Y-132907809D01*
X80065000Y-132923050D01*
X80065000Y-133965702D01*
X80024467Y-133873877D01*
X79324194Y-133605612D01*
X78574565Y-133625750D01*
X77975533Y-133873877D01*
X77846285Y-134166680D01*
X79000000Y-135320395D01*
X79014143Y-135306253D01*
X79193748Y-135485858D01*
X79179605Y-135500000D01*
X79193748Y-135514143D01*
X79014143Y-135693748D01*
X79000000Y-135679605D01*
X77846285Y-136833320D01*
X77975533Y-137126123D01*
X78675806Y-137394388D01*
X78731744Y-137392885D01*
X78615284Y-137673352D01*
X78614716Y-138323795D01*
X78863106Y-138924943D01*
X79322637Y-139385278D01*
X79923352Y-139634716D01*
X80573795Y-139635284D01*
X81174943Y-139386894D01*
X81409715Y-139152532D01*
X83777073Y-139152532D01*
X83875736Y-139419387D01*
X84485461Y-139645908D01*
X85135460Y-139621856D01*
X85624264Y-139419387D01*
X85722927Y-139152532D01*
X84750000Y-138179605D01*
X83777073Y-139152532D01*
X81409715Y-139152532D01*
X81635278Y-138927363D01*
X81884716Y-138326648D01*
X81885174Y-137802059D01*
X81929673Y-137735461D01*
X83104092Y-137735461D01*
X83128144Y-138385460D01*
X83330613Y-138874264D01*
X83597468Y-138972927D01*
X84570395Y-138000000D01*
X83597468Y-137027073D01*
X83330613Y-137125736D01*
X83104092Y-137735461D01*
X81929673Y-137735461D01*
X82056215Y-137546077D01*
X82065380Y-137500000D01*
X82135001Y-137150000D01*
X82135000Y-137149995D01*
X82135000Y-136847468D01*
X83777073Y-136847468D01*
X84750000Y-137820395D01*
X84764143Y-137806253D01*
X84943748Y-137985858D01*
X84929605Y-138000000D01*
X85902532Y-138972927D01*
X86169387Y-138874264D01*
X86395908Y-138264539D01*
X86371856Y-137614540D01*
X86274010Y-137378318D01*
X86425435Y-137374250D01*
X87024467Y-137126123D01*
X87153715Y-136833320D01*
X86000000Y-135679605D01*
X85985858Y-135693748D01*
X85806253Y-135514143D01*
X85820395Y-135500000D01*
X86179605Y-135500000D01*
X87333320Y-136653715D01*
X87500000Y-136580140D01*
X87666680Y-136653715D01*
X88820395Y-135500000D01*
X87666680Y-134346285D01*
X87500000Y-134419860D01*
X87333320Y-134346285D01*
X86179605Y-135500000D01*
X85820395Y-135500000D01*
X84666680Y-134346285D01*
X84373877Y-134475533D01*
X84105612Y-135175806D01*
X84125750Y-135925435D01*
X84320777Y-136396271D01*
X83875736Y-136580613D01*
X83777073Y-136847468D01*
X82135000Y-136847468D01*
X82135000Y-134166680D01*
X84846285Y-134166680D01*
X86000000Y-135320395D01*
X87153715Y-134166680D01*
X87846285Y-134166680D01*
X89000000Y-135320395D01*
X90153715Y-134166680D01*
X90024467Y-133873877D01*
X89324194Y-133605612D01*
X88574565Y-133625750D01*
X87975533Y-133873877D01*
X87846285Y-134166680D01*
X87153715Y-134166680D01*
X87024467Y-133873877D01*
X86324194Y-133605612D01*
X85574565Y-133625750D01*
X84975533Y-133873877D01*
X84846285Y-134166680D01*
X82135000Y-134166680D01*
X82135000Y-133035000D01*
X84499995Y-133035000D01*
X84500000Y-133035001D01*
X84896077Y-132956215D01*
X85231856Y-132731856D01*
X87428711Y-130535000D01*
X90999995Y-130535000D01*
X91000000Y-130535001D01*
X91396077Y-130456215D01*
X91731856Y-130231856D01*
X99731853Y-122231858D01*
X99731856Y-122231856D01*
X99956215Y-121896077D01*
X100035000Y-121500000D01*
X100035000Y-117928712D01*
X150428711Y-67535000D01*
X150648087Y-67535000D01*
X150603922Y-67543785D01*
X150603922Y-67543785D01*
G37*
X150603922Y-67543785D02*
X150469429Y-67633651D01*
X150268144Y-67768144D01*
X150268142Y-67768147D01*
X100768144Y-117268144D01*
X100543785Y-117603923D01*
X100464999Y-118000000D01*
X100465000Y-118000005D01*
X100465000Y-122321289D01*
X91883728Y-130902560D01*
X91500000Y-130902560D01*
X91252235Y-130951843D01*
X91042191Y-131092191D01*
X91000000Y-131155334D01*
X90957809Y-131092191D01*
X90747765Y-130951843D01*
X90500000Y-130902560D01*
X89300000Y-130902560D01*
X89052235Y-130951843D01*
X89032544Y-130965000D01*
X88994432Y-130965000D01*
X88813923Y-130784176D01*
X88286691Y-130565250D01*
X87715813Y-130564752D01*
X87188200Y-130782757D01*
X86784176Y-131186077D01*
X86565250Y-131713309D01*
X86564752Y-132284187D01*
X86782757Y-132811800D01*
X87186077Y-133215824D01*
X87713309Y-133434750D01*
X88284187Y-133435248D01*
X88811800Y-133217243D01*
X88994361Y-133035000D01*
X89032544Y-133035000D01*
X89052235Y-133048157D01*
X89300000Y-133097440D01*
X90500000Y-133097440D01*
X90747765Y-133048157D01*
X90957809Y-132907809D01*
X91000000Y-132844666D01*
X91042191Y-132907809D01*
X91065000Y-132923050D01*
X91065000Y-135721289D01*
X90852344Y-135933945D01*
X90894388Y-135824194D01*
X90874250Y-135074565D01*
X90626123Y-134475533D01*
X90333320Y-134346285D01*
X89179605Y-135500000D01*
X89193748Y-135514143D01*
X89014143Y-135693748D01*
X89000000Y-135679605D01*
X87846285Y-136833320D01*
X87975533Y-137126123D01*
X88675806Y-137394388D01*
X88731744Y-137392885D01*
X88615284Y-137673352D01*
X88614716Y-138323795D01*
X88863106Y-138924943D01*
X89322637Y-139385278D01*
X89923352Y-139634716D01*
X90573795Y-139635284D01*
X91174943Y-139386894D01*
X91409715Y-139152532D01*
X93777073Y-139152532D01*
X93875736Y-139419387D01*
X94485461Y-139645908D01*
X95135460Y-139621856D01*
X95624264Y-139419387D01*
X95722927Y-139152532D01*
X94750000Y-138179605D01*
X93777073Y-139152532D01*
X91409715Y-139152532D01*
X91635278Y-138927363D01*
X91884716Y-138326648D01*
X91885151Y-137828561D01*
X91978250Y-137735461D01*
X93104092Y-137735461D01*
X93128144Y-138385460D01*
X93330613Y-138874264D01*
X93597468Y-138972927D01*
X94570395Y-138000000D01*
X93597468Y-137027073D01*
X93330613Y-137125736D01*
X93104092Y-137735461D01*
X91978250Y-137735461D01*
X92831853Y-136881858D01*
X92831856Y-136881856D01*
X92854833Y-136847468D01*
X93777073Y-136847468D01*
X94750000Y-137820395D01*
X94764143Y-137806253D01*
X94943748Y-137985858D01*
X94929605Y-138000000D01*
X95902532Y-138972927D01*
X96169387Y-138874264D01*
X96395908Y-138264539D01*
X96371856Y-137614540D01*
X96274010Y-137378318D01*
X96425435Y-137374250D01*
X97024467Y-137126123D01*
X97153715Y-136833320D01*
X96000000Y-135679605D01*
X95985858Y-135693748D01*
X95806253Y-135514143D01*
X95820395Y-135500000D01*
X96179605Y-135500000D01*
X97333320Y-136653715D01*
X97626123Y-136524467D01*
X97894388Y-135824194D01*
X97874250Y-135074565D01*
X97626123Y-134475533D01*
X97333320Y-134346285D01*
X96179605Y-135500000D01*
X95820395Y-135500000D01*
X94666680Y-134346285D01*
X94373877Y-134475533D01*
X94105612Y-135175806D01*
X94125750Y-135925435D01*
X94320777Y-136396271D01*
X93875736Y-136580613D01*
X93777073Y-136847468D01*
X92854833Y-136847468D01*
X93056215Y-136546077D01*
X93060514Y-136524467D01*
X93135001Y-136150000D01*
X93135000Y-136149995D01*
X93135000Y-134166680D01*
X94846285Y-134166680D01*
X96000000Y-135320395D01*
X97153715Y-134166680D01*
X97024467Y-133873877D01*
X96324194Y-133605612D01*
X95574565Y-133625750D01*
X94975533Y-133873877D01*
X94846285Y-134166680D01*
X93135000Y-134166680D01*
X93135000Y-132923050D01*
X93157809Y-132907809D01*
X93298157Y-132697765D01*
X93347440Y-132450000D01*
X93347440Y-132366272D01*
X102231853Y-123481858D01*
X102231856Y-123481856D01*
X102376754Y-123265000D01*
X102456215Y-123146078D01*
X102535000Y-122750000D01*
X102535000Y-118428712D01*
X108835021Y-112128690D01*
X109415000Y-112128690D01*
X109415000Y-112269250D01*
X109573750Y-112428000D01*
X110673000Y-112428000D01*
X110673000Y-111778750D01*
X110514250Y-111620000D01*
X109923691Y-111620000D01*
X109690302Y-111716673D01*
X109511673Y-111895301D01*
X109415000Y-112128690D01*
X108835021Y-112128690D01*
X151428711Y-69535000D01*
X168085691Y-69535000D01*
X167834176Y-69786077D01*
X167615250Y-70313309D01*
X167614752Y-70884187D01*
X167832757Y-71411800D01*
X168236077Y-71815824D01*
X168763309Y-72034750D01*
X169334187Y-72035248D01*
X169861800Y-71817243D01*
X170144536Y-71535000D01*
X172285517Y-71535000D01*
X172134176Y-71686077D01*
X171915250Y-72213309D01*
X171914752Y-72784187D01*
X172132757Y-73311800D01*
X172535254Y-73715000D01*
X150150000Y-73715000D01*
X149792191Y-73786173D01*
X149488855Y-73988855D01*
X148612612Y-74865098D01*
X148215813Y-74864752D01*
X147688200Y-75082757D01*
X147284176Y-75486077D01*
X147065250Y-76013309D01*
X147064752Y-76584187D01*
X147242760Y-77015000D01*
X145700000Y-77015000D01*
X145342191Y-77086173D01*
X145038855Y-77288855D01*
X115012481Y-107315229D01*
X114465813Y-107314752D01*
X113938200Y-107532757D01*
X113534176Y-107936077D01*
X113315250Y-108463309D01*
X113314752Y-109034187D01*
X113532757Y-109561800D01*
X113936077Y-109965824D01*
X114291497Y-110113407D01*
X112185000Y-112219904D01*
X112185000Y-112128690D01*
X112088327Y-111895301D01*
X111909698Y-111716673D01*
X111676309Y-111620000D01*
X111085750Y-111620000D01*
X110927000Y-111778750D01*
X110927000Y-112428000D01*
X110947000Y-112428000D01*
X110947000Y-112682000D01*
X110927000Y-112682000D01*
X110927000Y-112702000D01*
X110673000Y-112702000D01*
X110673000Y-112682000D01*
X109573750Y-112682000D01*
X109415000Y-112840750D01*
X109415000Y-112981310D01*
X109504768Y-113198028D01*
X109451843Y-113277235D01*
X109402560Y-113525000D01*
X109402560Y-114125000D01*
X109409522Y-114160000D01*
X109405000Y-114160000D01*
X109047191Y-114231173D01*
X108743855Y-114433855D01*
X103738855Y-119438855D01*
X103536173Y-119742191D01*
X103465000Y-120100000D01*
X103465000Y-132300000D01*
X103536173Y-132657809D01*
X103738855Y-132961145D01*
X105238855Y-134461145D01*
X105542191Y-134663827D01*
X105900000Y-134735000D01*
X108000000Y-134735000D01*
X108357809Y-134663827D01*
X108661145Y-134461145D01*
X111330084Y-131792206D01*
X111371661Y-131792242D01*
X111885303Y-131580010D01*
X112278629Y-131187370D01*
X112364949Y-130979488D01*
X112449990Y-131185303D01*
X112700000Y-131435750D01*
X112700000Y-131472630D01*
X112771173Y-131830439D01*
X112973855Y-132133775D01*
X116001225Y-135161145D01*
X116304561Y-135363827D01*
X116662370Y-135435000D01*
X119500000Y-135435000D01*
X119857809Y-135363827D01*
X120161145Y-135161145D01*
X122661145Y-132661145D01*
X122863827Y-132357809D01*
X122935000Y-132000000D01*
X122935000Y-129094258D01*
X123215824Y-128813923D01*
X123434750Y-128286691D01*
X123434791Y-128239923D01*
X134849807Y-139654939D01*
X134616009Y-139654735D01*
X134051629Y-139887932D01*
X133619449Y-140319357D01*
X133385267Y-140883330D01*
X133384735Y-141493991D01*
X133579352Y-141965000D01*
X109260265Y-141965000D01*
X109454733Y-141496670D01*
X109455265Y-140886009D01*
X109222068Y-140321629D01*
X108790643Y-139889449D01*
X108226670Y-139655267D01*
X107616009Y-139654735D01*
X107051629Y-139887932D01*
X106619449Y-140319357D01*
X106385267Y-140883330D01*
X106384735Y-141493991D01*
X106579352Y-141965000D01*
X105928711Y-141965000D01*
X101035000Y-137071288D01*
X101035000Y-132994432D01*
X101215824Y-132813923D01*
X101434750Y-132286691D01*
X101435248Y-131715813D01*
X101217243Y-131188200D01*
X100813923Y-130784176D01*
X100286691Y-130565250D01*
X99715813Y-130564752D01*
X99188200Y-130782757D01*
X98784176Y-131186077D01*
X98565250Y-131713309D01*
X98564752Y-132284187D01*
X98782757Y-132811800D01*
X98965000Y-132994361D01*
X98965000Y-137499995D01*
X98964999Y-137500000D01*
X99043785Y-137896077D01*
X99268144Y-138231856D01*
X104768142Y-143731853D01*
X104768144Y-143731856D01*
X105019791Y-143900000D01*
X105103923Y-143956215D01*
X105500000Y-144035001D01*
X105500005Y-144035000D01*
X139245975Y-144035000D01*
X139565654Y-144248603D01*
X139773770Y-144290000D01*
X67710000Y-144290000D01*
X67710000Y-136924500D01*
X67732554Y-136947054D01*
X67846286Y-136833322D01*
X67975533Y-137126123D01*
X68675806Y-137394388D01*
X68731744Y-137392885D01*
X68615284Y-137673352D01*
X68614716Y-138323795D01*
X68863106Y-138924943D01*
X69322637Y-139385278D01*
X69923352Y-139634716D01*
X70573795Y-139635284D01*
X71174943Y-139386894D01*
X71409715Y-139152532D01*
X73777073Y-139152532D01*
X73875736Y-139419387D01*
X74485461Y-139645908D01*
X75135460Y-139621856D01*
X75624264Y-139419387D01*
X75722927Y-139152532D01*
X74750000Y-138179605D01*
X73777073Y-139152532D01*
X71409715Y-139152532D01*
X71635278Y-138927363D01*
X71884716Y-138326648D01*
X71885174Y-137802059D01*
X71929673Y-137735461D01*
X73104092Y-137735461D01*
X73128144Y-138385460D01*
X73330613Y-138874264D01*
X73597468Y-138972927D01*
X74570395Y-138000000D01*
X73597468Y-137027073D01*
X73330613Y-137125736D01*
X73104092Y-137735461D01*
X71929673Y-137735461D01*
X72056215Y-137546077D01*
X72065380Y-137500000D01*
X72135001Y-137150000D01*
X72135000Y-137149995D01*
X72135000Y-136847468D01*
X73777073Y-136847468D01*
X74750000Y-137820395D01*
X74764143Y-137806253D01*
X74943748Y-137985858D01*
X74929605Y-138000000D01*
X75902532Y-138972927D01*
X76169387Y-138874264D01*
X76395908Y-138264539D01*
X76371856Y-137614540D01*
X76274010Y-137378318D01*
X76425435Y-137374250D01*
X77024467Y-137126123D01*
X77153715Y-136833320D01*
X76000000Y-135679605D01*
X75985858Y-135693748D01*
X75806253Y-135514143D01*
X75820395Y-135500000D01*
X76179605Y-135500000D01*
X77333320Y-136653715D01*
X77500000Y-136580140D01*
X77666680Y-136653715D01*
X78820395Y-135500000D01*
X77666680Y-134346285D01*
X77500000Y-134419860D01*
X77333320Y-134346285D01*
X76179605Y-135500000D01*
X75820395Y-135500000D01*
X74666680Y-134346285D01*
X74373877Y-134475533D01*
X74105612Y-135175806D01*
X74125750Y-135925435D01*
X74320777Y-136396271D01*
X73875736Y-136580613D01*
X73777073Y-136847468D01*
X72135000Y-136847468D01*
X72135000Y-134166680D01*
X74846285Y-134166680D01*
X76000000Y-135320395D01*
X77153715Y-134166680D01*
X77024467Y-133873877D01*
X76324194Y-133605612D01*
X75574565Y-133625750D01*
X74975533Y-133873877D01*
X74846285Y-134166680D01*
X72135000Y-134166680D01*
X72135000Y-133035000D01*
X72499995Y-133035000D01*
X72500000Y-133035001D01*
X72896077Y-132956215D01*
X73231856Y-132731856D01*
X75428711Y-130535000D01*
X83999995Y-130535000D01*
X84000000Y-130535001D01*
X84396077Y-130456215D01*
X84731856Y-130231856D01*
X87428711Y-127535000D01*
X90499995Y-127535000D01*
X90500000Y-127535001D01*
X90896077Y-127456215D01*
X91231856Y-127231856D01*
X97731853Y-120731858D01*
X97731856Y-120731856D01*
X97956215Y-120396077D01*
X97962471Y-120364626D01*
X97965000Y-120351913D01*
X97965000Y-121071289D01*
X90571288Y-128465000D01*
X87000005Y-128465000D01*
X87000000Y-128464999D01*
X86603923Y-128543785D01*
X86268144Y-128768144D01*
X86268142Y-128768147D01*
X84071288Y-130965000D01*
X81967456Y-130965000D01*
X81947765Y-130951843D01*
X81700000Y-130902560D01*
X80500000Y-130902560D01*
X80252235Y-130951843D01*
X80042191Y-131092191D01*
X80000000Y-131155334D01*
X79957809Y-131092191D01*
X79747765Y-130951843D01*
X79500000Y-130902560D01*
X78300000Y-130902560D01*
X78052235Y-130951843D01*
X78032544Y-130965000D01*
X77994432Y-130965000D01*
X77813923Y-130784176D01*
X77286691Y-130565250D01*
X76715813Y-130564752D01*
X76188200Y-130782757D01*
X75784176Y-131186077D01*
X75565250Y-131713309D01*
X75564752Y-132284187D01*
X75782757Y-132811800D01*
X76186077Y-133215824D01*
X76713309Y-133434750D01*
X77284187Y-133435248D01*
X77811800Y-133217243D01*
X77994361Y-133035000D01*
X78032544Y-133035000D01*
X78052235Y-133048157D01*
X78300000Y-133097440D01*
X79500000Y-133097440D01*
X79747765Y-133048157D01*
X79957809Y-132907809D01*
X80000000Y-132844666D01*
X80042191Y-132907809D01*
X80065000Y-132923050D01*
X80065000Y-133965702D01*
X80024467Y-133873877D01*
X79324194Y-133605612D01*
X78574565Y-133625750D01*
X77975533Y-133873877D01*
X77846285Y-134166680D01*
X79000000Y-135320395D01*
X79014143Y-135306253D01*
X79193748Y-135485858D01*
X79179605Y-135500000D01*
X79193748Y-135514143D01*
X79014143Y-135693748D01*
X79000000Y-135679605D01*
X77846285Y-136833320D01*
X77975533Y-137126123D01*
X78675806Y-137394388D01*
X78731744Y-137392885D01*
X78615284Y-137673352D01*
X78614716Y-138323795D01*
X78863106Y-138924943D01*
X79322637Y-139385278D01*
X79923352Y-139634716D01*
X80573795Y-139635284D01*
X81174943Y-139386894D01*
X81409715Y-139152532D01*
X83777073Y-139152532D01*
X83875736Y-139419387D01*
X84485461Y-139645908D01*
X85135460Y-139621856D01*
X85624264Y-139419387D01*
X85722927Y-139152532D01*
X84750000Y-138179605D01*
X83777073Y-139152532D01*
X81409715Y-139152532D01*
X81635278Y-138927363D01*
X81884716Y-138326648D01*
X81885174Y-137802059D01*
X81929673Y-137735461D01*
X83104092Y-137735461D01*
X83128144Y-138385460D01*
X83330613Y-138874264D01*
X83597468Y-138972927D01*
X84570395Y-138000000D01*
X83597468Y-137027073D01*
X83330613Y-137125736D01*
X83104092Y-137735461D01*
X81929673Y-137735461D01*
X82056215Y-137546077D01*
X82065380Y-137500000D01*
X82135001Y-137150000D01*
X82135000Y-137149995D01*
X82135000Y-136847468D01*
X83777073Y-136847468D01*
X84750000Y-137820395D01*
X84764143Y-137806253D01*
X84943748Y-137985858D01*
X84929605Y-138000000D01*
X85902532Y-138972927D01*
X86169387Y-138874264D01*
X86395908Y-138264539D01*
X86371856Y-137614540D01*
X86274010Y-137378318D01*
X86425435Y-137374250D01*
X87024467Y-137126123D01*
X87153715Y-136833320D01*
X86000000Y-135679605D01*
X85985858Y-135693748D01*
X85806253Y-135514143D01*
X85820395Y-135500000D01*
X86179605Y-135500000D01*
X87333320Y-136653715D01*
X87500000Y-136580140D01*
X87666680Y-136653715D01*
X88820395Y-135500000D01*
X87666680Y-134346285D01*
X87500000Y-134419860D01*
X87333320Y-134346285D01*
X86179605Y-135500000D01*
X85820395Y-135500000D01*
X84666680Y-134346285D01*
X84373877Y-134475533D01*
X84105612Y-135175806D01*
X84125750Y-135925435D01*
X84320777Y-136396271D01*
X83875736Y-136580613D01*
X83777073Y-136847468D01*
X82135000Y-136847468D01*
X82135000Y-134166680D01*
X84846285Y-134166680D01*
X86000000Y-135320395D01*
X87153715Y-134166680D01*
X87846285Y-134166680D01*
X89000000Y-135320395D01*
X90153715Y-134166680D01*
X90024467Y-133873877D01*
X89324194Y-133605612D01*
X88574565Y-133625750D01*
X87975533Y-133873877D01*
X87846285Y-134166680D01*
X87153715Y-134166680D01*
X87024467Y-133873877D01*
X86324194Y-133605612D01*
X85574565Y-133625750D01*
X84975533Y-133873877D01*
X84846285Y-134166680D01*
X82135000Y-134166680D01*
X82135000Y-133035000D01*
X84499995Y-133035000D01*
X84500000Y-133035001D01*
X84896077Y-132956215D01*
X85231856Y-132731856D01*
X87428711Y-130535000D01*
X90999995Y-130535000D01*
X91000000Y-130535001D01*
X91396077Y-130456215D01*
X91731856Y-130231856D01*
X99731853Y-122231858D01*
X99731856Y-122231856D01*
X99956215Y-121896077D01*
X100035000Y-121500000D01*
X100035000Y-117928712D01*
X150428711Y-67535000D01*
X150648087Y-67535000D01*
X150603922Y-67543785D01*
G36*
X163734176Y-89536077D02*
X163515250Y-90063309D01*
X163514752Y-90634187D01*
X163732757Y-91161800D01*
X164015000Y-91444536D01*
X164015000Y-91481370D01*
X164064988Y-91732675D01*
X164064988Y-111619626D01*
X163857550Y-111619626D01*
X163698800Y-111778376D01*
X163698800Y-112427626D01*
X163718800Y-112427626D01*
X163718800Y-112681626D01*
X163698800Y-112681626D01*
X163698800Y-112701626D01*
X163444800Y-112701626D01*
X163444800Y-112681626D01*
X162345550Y-112681626D01*
X162186800Y-112840376D01*
X162186800Y-112980936D01*
X162276568Y-113197654D01*
X162223643Y-113276861D01*
X162174360Y-113524626D01*
X162174360Y-114124626D01*
X162182862Y-114167371D01*
X161863991Y-114230799D01*
X161560655Y-114433481D01*
X157938855Y-118055281D01*
X157736173Y-118358617D01*
X157665000Y-118716426D01*
X157665000Y-132200000D01*
X157736173Y-132557809D01*
X157938855Y-132861145D01*
X159138855Y-134061145D01*
X159442191Y-134263827D01*
X159800000Y-134335000D01*
X162100000Y-134335000D01*
X162457809Y-134263827D01*
X162761145Y-134061145D01*
X165030346Y-131791944D01*
X165371661Y-131792242D01*
X165885303Y-131580010D01*
X166278629Y-131187370D01*
X166364949Y-130979488D01*
X166449990Y-131185303D01*
X166700000Y-131435750D01*
X166700000Y-132235000D01*
X166771173Y-132592809D01*
X166973855Y-132896145D01*
X168938855Y-134861145D01*
X169242191Y-135063827D01*
X169600000Y-135135000D01*
X173500000Y-135135000D01*
X173857809Y-135063827D01*
X174161145Y-134861145D01*
X176061145Y-132961145D01*
X176263827Y-132657809D01*
X176335000Y-132300000D01*
X176335000Y-131094083D01*
X176715824Y-130713923D01*
X176903644Y-130261602D01*
X183844608Y-137202566D01*
X184212828Y-137448603D01*
X184295261Y-137465000D01*
X161195132Y-137465000D01*
X146240132Y-122510000D01*
X146614250Y-122510000D01*
X146773000Y-122351250D01*
X146773000Y-121627000D01*
X147027000Y-121627000D01*
X147027000Y-122351250D01*
X147185750Y-122510000D01*
X147626309Y-122510000D01*
X147859698Y-122413327D01*
X148038327Y-122234699D01*
X148135000Y-122001310D01*
X148135000Y-121785750D01*
X147976250Y-121627000D01*
X147027000Y-121627000D01*
X146773000Y-121627000D01*
X146753000Y-121627000D01*
X146753000Y-121373000D01*
X146773000Y-121373000D01*
X146773000Y-121353000D01*
X147027000Y-121353000D01*
X147027000Y-121373000D01*
X147976250Y-121373000D01*
X148135000Y-121214250D01*
X148135000Y-121196219D01*
X148182757Y-121311800D01*
X148586077Y-121715824D01*
X149113309Y-121934750D01*
X149684187Y-121935248D01*
X150211800Y-121717243D01*
X150615824Y-121313923D01*
X150834750Y-120786691D01*
X150835248Y-120215813D01*
X150617243Y-119688200D01*
X150335000Y-119405464D01*
X150335000Y-119368635D01*
X150335001Y-119368630D01*
X150265171Y-119017577D01*
X150263827Y-119010821D01*
X150061145Y-118707485D01*
X150061142Y-118707483D01*
X145966573Y-114612913D01*
X146115824Y-114463923D01*
X146334750Y-113936691D01*
X146335248Y-113365813D01*
X146117243Y-112838200D01*
X145785000Y-112505377D01*
X145785000Y-112128316D01*
X162186800Y-112128316D01*
X162186800Y-112268876D01*
X162345550Y-112427626D01*
X163444800Y-112427626D01*
X163444800Y-111778376D01*
X163286050Y-111619626D01*
X162695491Y-111619626D01*
X162462102Y-111716299D01*
X162283473Y-111894927D01*
X162186800Y-112128316D01*
X145785000Y-112128316D01*
X145785000Y-111987290D01*
X154261145Y-103511145D01*
X154463827Y-103207809D01*
X154535000Y-102850000D01*
X154535000Y-98637290D01*
X163687290Y-89485000D01*
X163785342Y-89485000D01*
X163734176Y-89536077D01*
X163734176Y-89536077D01*
G37*
X163734176Y-89536077D02*
X163515250Y-90063309D01*
X163514752Y-90634187D01*
X163732757Y-91161800D01*
X164015000Y-91444536D01*
X164015000Y-91481370D01*
X164064988Y-91732675D01*
X164064988Y-111619626D01*
X163857550Y-111619626D01*
X163698800Y-111778376D01*
X163698800Y-112427626D01*
X163718800Y-112427626D01*
X163718800Y-112681626D01*
X163698800Y-112681626D01*
X163698800Y-112701626D01*
X163444800Y-112701626D01*
X163444800Y-112681626D01*
X162345550Y-112681626D01*
X162186800Y-112840376D01*
X162186800Y-112980936D01*
X162276568Y-113197654D01*
X162223643Y-113276861D01*
X162174360Y-113524626D01*
X162174360Y-114124626D01*
X162182862Y-114167371D01*
X161863991Y-114230799D01*
X161560655Y-114433481D01*
X157938855Y-118055281D01*
X157736173Y-118358617D01*
X157665000Y-118716426D01*
X157665000Y-132200000D01*
X157736173Y-132557809D01*
X157938855Y-132861145D01*
X159138855Y-134061145D01*
X159442191Y-134263827D01*
X159800000Y-134335000D01*
X162100000Y-134335000D01*
X162457809Y-134263827D01*
X162761145Y-134061145D01*
X165030346Y-131791944D01*
X165371661Y-131792242D01*
X165885303Y-131580010D01*
X166278629Y-131187370D01*
X166364949Y-130979488D01*
X166449990Y-131185303D01*
X166700000Y-131435750D01*
X166700000Y-132235000D01*
X166771173Y-132592809D01*
X166973855Y-132896145D01*
X168938855Y-134861145D01*
X169242191Y-135063827D01*
X169600000Y-135135000D01*
X173500000Y-135135000D01*
X173857809Y-135063827D01*
X174161145Y-134861145D01*
X176061145Y-132961145D01*
X176263827Y-132657809D01*
X176335000Y-132300000D01*
X176335000Y-131094083D01*
X176715824Y-130713923D01*
X176903644Y-130261602D01*
X183844608Y-137202566D01*
X184212828Y-137448603D01*
X184295261Y-137465000D01*
X161195132Y-137465000D01*
X146240132Y-122510000D01*
X146614250Y-122510000D01*
X146773000Y-122351250D01*
X146773000Y-121627000D01*
X147027000Y-121627000D01*
X147027000Y-122351250D01*
X147185750Y-122510000D01*
X147626309Y-122510000D01*
X147859698Y-122413327D01*
X148038327Y-122234699D01*
X148135000Y-122001310D01*
X148135000Y-121785750D01*
X147976250Y-121627000D01*
X147027000Y-121627000D01*
X146773000Y-121627000D01*
X146753000Y-121627000D01*
X146753000Y-121373000D01*
X146773000Y-121373000D01*
X146773000Y-121353000D01*
X147027000Y-121353000D01*
X147027000Y-121373000D01*
X147976250Y-121373000D01*
X148135000Y-121214250D01*
X148135000Y-121196219D01*
X148182757Y-121311800D01*
X148586077Y-121715824D01*
X149113309Y-121934750D01*
X149684187Y-121935248D01*
X150211800Y-121717243D01*
X150615824Y-121313923D01*
X150834750Y-120786691D01*
X150835248Y-120215813D01*
X150617243Y-119688200D01*
X150335000Y-119405464D01*
X150335000Y-119368635D01*
X150335001Y-119368630D01*
X150265171Y-119017577D01*
X150263827Y-119010821D01*
X150061145Y-118707485D01*
X150061142Y-118707483D01*
X145966573Y-114612913D01*
X146115824Y-114463923D01*
X146334750Y-113936691D01*
X146335248Y-113365813D01*
X146117243Y-112838200D01*
X145785000Y-112505377D01*
X145785000Y-112128316D01*
X162186800Y-112128316D01*
X162186800Y-112268876D01*
X162345550Y-112427626D01*
X163444800Y-112427626D01*
X163444800Y-111778376D01*
X163286050Y-111619626D01*
X162695491Y-111619626D01*
X162462102Y-111716299D01*
X162283473Y-111894927D01*
X162186800Y-112128316D01*
X145785000Y-112128316D01*
X145785000Y-111987290D01*
X154261145Y-103511145D01*
X154463827Y-103207809D01*
X154535000Y-102850000D01*
X154535000Y-98637290D01*
X163687290Y-89485000D01*
X163785342Y-89485000D01*
X163734176Y-89536077D01*
G36*
X69193748Y-135485858D02*
X69179605Y-135500000D01*
X69193748Y-135514143D01*
X69014143Y-135693748D01*
X69000000Y-135679605D01*
X68985858Y-135693748D01*
X68806253Y-135514143D01*
X68820395Y-135500000D01*
X68806253Y-135485858D01*
X68985858Y-135306253D01*
X69000000Y-135320395D01*
X69014143Y-135306253D01*
X69193748Y-135485858D01*
X69193748Y-135485858D01*
G37*
X69193748Y-135485858D02*
X69179605Y-135500000D01*
X69193748Y-135514143D01*
X69014143Y-135693748D01*
X69000000Y-135679605D01*
X68985858Y-135693748D01*
X68806253Y-135514143D01*
X68820395Y-135500000D01*
X68806253Y-135485858D01*
X68985858Y-135306253D01*
X69000000Y-135320395D01*
X69014143Y-135306253D01*
X69193748Y-135485858D01*
G36*
X172438200Y-89682757D02*
X172034176Y-90086077D01*
X171815250Y-90613309D01*
X171814752Y-91184187D01*
X172032757Y-91711800D01*
X172265000Y-91944448D01*
X172265000Y-108405742D01*
X171984176Y-108686077D01*
X171765250Y-109213309D01*
X171764752Y-109784187D01*
X171982757Y-110311800D01*
X172386077Y-110715824D01*
X172913309Y-110934750D01*
X173484187Y-110935248D01*
X174011800Y-110717243D01*
X174100507Y-110628690D01*
X189915000Y-110628690D01*
X189915000Y-110769250D01*
X190073750Y-110928000D01*
X191173000Y-110928000D01*
X191173000Y-110278750D01*
X191014250Y-110120000D01*
X190423691Y-110120000D01*
X190190302Y-110216673D01*
X190011673Y-110395301D01*
X189915000Y-110628690D01*
X174100507Y-110628690D01*
X174415824Y-110313923D01*
X174634750Y-109786691D01*
X174635248Y-109215813D01*
X174417243Y-108688200D01*
X174135000Y-108405464D01*
X174135000Y-102572407D01*
X187205683Y-102572407D01*
X187545062Y-103393766D01*
X188172928Y-104022729D01*
X188993694Y-104363541D01*
X189882407Y-104364317D01*
X190703766Y-104024938D01*
X191332729Y-103397072D01*
X191673541Y-102576306D01*
X191674317Y-101687593D01*
X191334938Y-100866234D01*
X190707072Y-100237271D01*
X189886306Y-99896459D01*
X188997593Y-99895683D01*
X188176234Y-100235062D01*
X187547271Y-100862928D01*
X187206459Y-101683694D01*
X187205683Y-102572407D01*
X174135000Y-102572407D01*
X174135000Y-92044171D01*
X174465824Y-91713923D01*
X174684750Y-91186691D01*
X174685248Y-90615813D01*
X174467243Y-90088200D01*
X174063923Y-89684176D01*
X173584254Y-89485000D01*
X202999454Y-89485000D01*
X202742191Y-89536173D01*
X202438855Y-89738855D01*
X192238855Y-99938855D01*
X192036173Y-100242191D01*
X191965000Y-100600000D01*
X191965000Y-110120000D01*
X191585750Y-110120000D01*
X191427000Y-110278750D01*
X191427000Y-110928000D01*
X191447000Y-110928000D01*
X191447000Y-111182000D01*
X191427000Y-111182000D01*
X191427000Y-111202000D01*
X191173000Y-111202000D01*
X191173000Y-111182000D01*
X190073750Y-111182000D01*
X189915000Y-111340750D01*
X189915000Y-111481310D01*
X190004768Y-111698028D01*
X189951843Y-111777235D01*
X189902560Y-112025000D01*
X189902560Y-112625000D01*
X189909522Y-112660000D01*
X189705000Y-112660000D01*
X189347191Y-112731173D01*
X189043855Y-112933855D01*
X184838855Y-117138855D01*
X184636173Y-117442191D01*
X184565000Y-117800000D01*
X184565000Y-132400000D01*
X184636173Y-132757809D01*
X184838855Y-133061145D01*
X185938855Y-134161145D01*
X186242191Y-134363827D01*
X186600000Y-134435000D01*
X189600000Y-134435000D01*
X189957809Y-134363827D01*
X190261145Y-134161145D01*
X192755656Y-131666634D01*
X192965303Y-131580010D01*
X193358629Y-131187370D01*
X193444949Y-130979488D01*
X193529990Y-131185303D01*
X193834837Y-131490683D01*
X193851173Y-131572809D01*
X194053855Y-131876145D01*
X197138855Y-134961145D01*
X197442191Y-135163827D01*
X197800000Y-135235000D01*
X199559868Y-135235000D01*
X199529868Y-135265000D01*
X185117306Y-135265000D01*
X176486570Y-126634264D01*
X177011800Y-126417243D01*
X177415824Y-126013923D01*
X177634750Y-125486691D01*
X177635248Y-124915813D01*
X177417243Y-124388200D01*
X177135000Y-124105464D01*
X177135000Y-119300000D01*
X177063827Y-118942191D01*
X176861145Y-118638855D01*
X172655771Y-114433481D01*
X172352435Y-114230799D01*
X171994626Y-114159626D01*
X170362278Y-114159626D01*
X170369240Y-114124626D01*
X170369240Y-113524626D01*
X170319957Y-113276861D01*
X170261668Y-113189626D01*
X170319957Y-113102391D01*
X170350655Y-112948061D01*
X170982945Y-112315771D01*
X171185627Y-112012435D01*
X171256800Y-111654626D01*
X171256800Y-92521800D01*
X171185627Y-92163991D01*
X170982945Y-91860655D01*
X170734902Y-91612612D01*
X170735248Y-91215813D01*
X170517243Y-90688200D01*
X170113923Y-90284176D01*
X169586691Y-90065250D01*
X169015813Y-90064752D01*
X168488200Y-90282757D01*
X168447187Y-90323698D01*
X168267243Y-89888200D01*
X167864746Y-89485000D01*
X172916809Y-89485000D01*
X172438200Y-89682757D01*
X172438200Y-89682757D01*
G37*
X172438200Y-89682757D02*
X172034176Y-90086077D01*
X171815250Y-90613309D01*
X171814752Y-91184187D01*
X172032757Y-91711800D01*
X172265000Y-91944448D01*
X172265000Y-108405742D01*
X171984176Y-108686077D01*
X171765250Y-109213309D01*
X171764752Y-109784187D01*
X171982757Y-110311800D01*
X172386077Y-110715824D01*
X172913309Y-110934750D01*
X173484187Y-110935248D01*
X174011800Y-110717243D01*
X174100507Y-110628690D01*
X189915000Y-110628690D01*
X189915000Y-110769250D01*
X190073750Y-110928000D01*
X191173000Y-110928000D01*
X191173000Y-110278750D01*
X191014250Y-110120000D01*
X190423691Y-110120000D01*
X190190302Y-110216673D01*
X190011673Y-110395301D01*
X189915000Y-110628690D01*
X174100507Y-110628690D01*
X174415824Y-110313923D01*
X174634750Y-109786691D01*
X174635248Y-109215813D01*
X174417243Y-108688200D01*
X174135000Y-108405464D01*
X174135000Y-102572407D01*
X187205683Y-102572407D01*
X187545062Y-103393766D01*
X188172928Y-104022729D01*
X188993694Y-104363541D01*
X189882407Y-104364317D01*
X190703766Y-104024938D01*
X191332729Y-103397072D01*
X191673541Y-102576306D01*
X191674317Y-101687593D01*
X191334938Y-100866234D01*
X190707072Y-100237271D01*
X189886306Y-99896459D01*
X188997593Y-99895683D01*
X188176234Y-100235062D01*
X187547271Y-100862928D01*
X187206459Y-101683694D01*
X187205683Y-102572407D01*
X174135000Y-102572407D01*
X174135000Y-92044171D01*
X174465824Y-91713923D01*
X174684750Y-91186691D01*
X174685248Y-90615813D01*
X174467243Y-90088200D01*
X174063923Y-89684176D01*
X173584254Y-89485000D01*
X202999454Y-89485000D01*
X202742191Y-89536173D01*
X202438855Y-89738855D01*
X192238855Y-99938855D01*
X192036173Y-100242191D01*
X191965000Y-100600000D01*
X191965000Y-110120000D01*
X191585750Y-110120000D01*
X191427000Y-110278750D01*
X191427000Y-110928000D01*
X191447000Y-110928000D01*
X191447000Y-111182000D01*
X191427000Y-111182000D01*
X191427000Y-111202000D01*
X191173000Y-111202000D01*
X191173000Y-111182000D01*
X190073750Y-111182000D01*
X189915000Y-111340750D01*
X189915000Y-111481310D01*
X190004768Y-111698028D01*
X189951843Y-111777235D01*
X189902560Y-112025000D01*
X189902560Y-112625000D01*
X189909522Y-112660000D01*
X189705000Y-112660000D01*
X189347191Y-112731173D01*
X189043855Y-112933855D01*
X184838855Y-117138855D01*
X184636173Y-117442191D01*
X184565000Y-117800000D01*
X184565000Y-132400000D01*
X184636173Y-132757809D01*
X184838855Y-133061145D01*
X185938855Y-134161145D01*
X186242191Y-134363827D01*
X186600000Y-134435000D01*
X189600000Y-134435000D01*
X189957809Y-134363827D01*
X190261145Y-134161145D01*
X192755656Y-131666634D01*
X192965303Y-131580010D01*
X193358629Y-131187370D01*
X193444949Y-130979488D01*
X193529990Y-131185303D01*
X193834837Y-131490683D01*
X193851173Y-131572809D01*
X194053855Y-131876145D01*
X197138855Y-134961145D01*
X197442191Y-135163827D01*
X197800000Y-135235000D01*
X199559868Y-135235000D01*
X199529868Y-135265000D01*
X185117306Y-135265000D01*
X176486570Y-126634264D01*
X177011800Y-126417243D01*
X177415824Y-126013923D01*
X177634750Y-125486691D01*
X177635248Y-124915813D01*
X177417243Y-124388200D01*
X177135000Y-124105464D01*
X177135000Y-119300000D01*
X177063827Y-118942191D01*
X176861145Y-118638855D01*
X172655771Y-114433481D01*
X172352435Y-114230799D01*
X171994626Y-114159626D01*
X170362278Y-114159626D01*
X170369240Y-114124626D01*
X170369240Y-113524626D01*
X170319957Y-113276861D01*
X170261668Y-113189626D01*
X170319957Y-113102391D01*
X170350655Y-112948061D01*
X170982945Y-112315771D01*
X171185627Y-112012435D01*
X171256800Y-111654626D01*
X171256800Y-92521800D01*
X171185627Y-92163991D01*
X170982945Y-91860655D01*
X170734902Y-91612612D01*
X170735248Y-91215813D01*
X170517243Y-90688200D01*
X170113923Y-90284176D01*
X169586691Y-90065250D01*
X169015813Y-90064752D01*
X168488200Y-90282757D01*
X168447187Y-90323698D01*
X168267243Y-89888200D01*
X167864746Y-89485000D01*
X172916809Y-89485000D01*
X172438200Y-89682757D01*
G36*
X147114752Y-84534187D02*
X147332757Y-85061800D01*
X147615000Y-85344536D01*
X147615000Y-99562710D01*
X140112710Y-107065000D01*
X139050000Y-107065000D01*
X138692191Y-107136173D01*
X138388855Y-107338855D01*
X137588855Y-108138855D01*
X137386173Y-108442191D01*
X137315000Y-108800000D01*
X137315000Y-110300000D01*
X137386173Y-110657809D01*
X137588855Y-110961145D01*
X137865000Y-111237290D01*
X137865000Y-111620000D01*
X137585750Y-111620000D01*
X137427000Y-111778750D01*
X137427000Y-112428000D01*
X137447000Y-112428000D01*
X137447000Y-112682000D01*
X137427000Y-112682000D01*
X137427000Y-112702000D01*
X137173000Y-112702000D01*
X137173000Y-112682000D01*
X136073750Y-112682000D01*
X135915000Y-112840750D01*
X135915000Y-112981310D01*
X136004768Y-113198028D01*
X135951843Y-113277235D01*
X135902560Y-113525000D01*
X135902560Y-114125000D01*
X135909522Y-114160000D01*
X134005000Y-114160000D01*
X133647191Y-114231173D01*
X133435843Y-114372391D01*
X133343855Y-114433855D01*
X130938855Y-116838855D01*
X130736173Y-117142191D01*
X130665000Y-117500000D01*
X130665000Y-132259868D01*
X121835148Y-123430016D01*
X121835248Y-123315813D01*
X121617243Y-122788200D01*
X121291781Y-122462170D01*
X121409698Y-122413327D01*
X121588327Y-122234699D01*
X121685000Y-122001310D01*
X121685000Y-121785750D01*
X121526250Y-121627000D01*
X120577000Y-121627000D01*
X120577000Y-121647000D01*
X120323000Y-121647000D01*
X120323000Y-121627000D01*
X120303000Y-121627000D01*
X120303000Y-121373000D01*
X120323000Y-121373000D01*
X120323000Y-121353000D01*
X120577000Y-121353000D01*
X120577000Y-121373000D01*
X121526250Y-121373000D01*
X121685000Y-121214250D01*
X121685000Y-120998690D01*
X121588327Y-120765301D01*
X121572658Y-120749632D01*
X124161145Y-118161145D01*
X124363827Y-117857809D01*
X124435000Y-117500000D01*
X124435000Y-112128690D01*
X135915000Y-112128690D01*
X135915000Y-112269250D01*
X136073750Y-112428000D01*
X137173000Y-112428000D01*
X137173000Y-111778750D01*
X137014250Y-111620000D01*
X136423691Y-111620000D01*
X136190302Y-111716673D01*
X136011673Y-111895301D01*
X135915000Y-112128690D01*
X124435000Y-112128690D01*
X124435000Y-106887290D01*
X147115037Y-84207252D01*
X147114752Y-84534187D01*
X147114752Y-84534187D01*
G37*
X147114752Y-84534187D02*
X147332757Y-85061800D01*
X147615000Y-85344536D01*
X147615000Y-99562710D01*
X140112710Y-107065000D01*
X139050000Y-107065000D01*
X138692191Y-107136173D01*
X138388855Y-107338855D01*
X137588855Y-108138855D01*
X137386173Y-108442191D01*
X137315000Y-108800000D01*
X137315000Y-110300000D01*
X137386173Y-110657809D01*
X137588855Y-110961145D01*
X137865000Y-111237290D01*
X137865000Y-111620000D01*
X137585750Y-111620000D01*
X137427000Y-111778750D01*
X137427000Y-112428000D01*
X137447000Y-112428000D01*
X137447000Y-112682000D01*
X137427000Y-112682000D01*
X137427000Y-112702000D01*
X137173000Y-112702000D01*
X137173000Y-112682000D01*
X136073750Y-112682000D01*
X135915000Y-112840750D01*
X135915000Y-112981310D01*
X136004768Y-113198028D01*
X135951843Y-113277235D01*
X135902560Y-113525000D01*
X135902560Y-114125000D01*
X135909522Y-114160000D01*
X134005000Y-114160000D01*
X133647191Y-114231173D01*
X133435843Y-114372391D01*
X133343855Y-114433855D01*
X130938855Y-116838855D01*
X130736173Y-117142191D01*
X130665000Y-117500000D01*
X130665000Y-132259868D01*
X121835148Y-123430016D01*
X121835248Y-123315813D01*
X121617243Y-122788200D01*
X121291781Y-122462170D01*
X121409698Y-122413327D01*
X121588327Y-122234699D01*
X121685000Y-122001310D01*
X121685000Y-121785750D01*
X121526250Y-121627000D01*
X120577000Y-121627000D01*
X120577000Y-121647000D01*
X120323000Y-121647000D01*
X120323000Y-121627000D01*
X120303000Y-121627000D01*
X120303000Y-121373000D01*
X120323000Y-121373000D01*
X120323000Y-121353000D01*
X120577000Y-121353000D01*
X120577000Y-121373000D01*
X121526250Y-121373000D01*
X121685000Y-121214250D01*
X121685000Y-120998690D01*
X121588327Y-120765301D01*
X121572658Y-120749632D01*
X124161145Y-118161145D01*
X124363827Y-117857809D01*
X124435000Y-117500000D01*
X124435000Y-112128690D01*
X135915000Y-112128690D01*
X135915000Y-112269250D01*
X136073750Y-112428000D01*
X137173000Y-112428000D01*
X137173000Y-111778750D01*
X137014250Y-111620000D01*
X136423691Y-111620000D01*
X136190302Y-111716673D01*
X136011673Y-111895301D01*
X135915000Y-112128690D01*
X124435000Y-112128690D01*
X124435000Y-106887290D01*
X147115037Y-84207252D01*
X147114752Y-84534187D01*
G36*
X175265000Y-119687290D02*
X175265000Y-124105742D01*
X174984176Y-124386077D01*
X174765357Y-124913051D01*
X172361932Y-122509626D01*
X172736050Y-122509626D01*
X172894800Y-122350876D01*
X172894800Y-121626626D01*
X173148800Y-121626626D01*
X173148800Y-122350876D01*
X173307550Y-122509626D01*
X173748109Y-122509626D01*
X173981498Y-122412953D01*
X174160127Y-122234325D01*
X174256800Y-122000936D01*
X174256800Y-121785376D01*
X174098050Y-121626626D01*
X173148800Y-121626626D01*
X172894800Y-121626626D01*
X172874800Y-121626626D01*
X172874800Y-121372626D01*
X172894800Y-121372626D01*
X172894800Y-121352626D01*
X173148800Y-121352626D01*
X173148800Y-121372626D01*
X174098050Y-121372626D01*
X174256800Y-121213876D01*
X174256800Y-120998316D01*
X174160127Y-120764927D01*
X174087143Y-120691944D01*
X174465824Y-120313923D01*
X174684750Y-119786691D01*
X174685248Y-119215813D01*
X174609008Y-119031298D01*
X175265000Y-119687290D01*
X175265000Y-119687290D01*
G37*
X175265000Y-119687290D02*
X175265000Y-124105742D01*
X174984176Y-124386077D01*
X174765357Y-124913051D01*
X172361932Y-122509626D01*
X172736050Y-122509626D01*
X172894800Y-122350876D01*
X172894800Y-121626626D01*
X173148800Y-121626626D01*
X173148800Y-122350876D01*
X173307550Y-122509626D01*
X173748109Y-122509626D01*
X173981498Y-122412953D01*
X174160127Y-122234325D01*
X174256800Y-122000936D01*
X174256800Y-121785376D01*
X174098050Y-121626626D01*
X173148800Y-121626626D01*
X172894800Y-121626626D01*
X172874800Y-121626626D01*
X172874800Y-121372626D01*
X172894800Y-121372626D01*
X172894800Y-121352626D01*
X173148800Y-121352626D01*
X173148800Y-121372626D01*
X174098050Y-121372626D01*
X174256800Y-121213876D01*
X174256800Y-120998316D01*
X174160127Y-120764927D01*
X174087143Y-120691944D01*
X174465824Y-120313923D01*
X174684750Y-119786691D01*
X174685248Y-119215813D01*
X174609008Y-119031298D01*
X175265000Y-119687290D01*
G36*
X95964999Y-116500000D02*
X95965000Y-116500005D01*
X95965000Y-119571289D01*
X94071520Y-121464769D01*
X94145908Y-121264539D01*
X94121856Y-120614540D01*
X93919387Y-120125736D01*
X93652532Y-120027073D01*
X92679605Y-121000000D01*
X92693748Y-121014143D01*
X92514143Y-121193748D01*
X92500000Y-121179605D01*
X92485858Y-121193748D01*
X92306253Y-121014143D01*
X92320395Y-121000000D01*
X92306253Y-120985858D01*
X92485858Y-120806253D01*
X92500000Y-120820395D01*
X93472927Y-119847468D01*
X93374264Y-119580613D01*
X92764539Y-119354092D01*
X92114540Y-119378144D01*
X91625736Y-119580613D01*
X91559600Y-119759491D01*
X91558157Y-119752235D01*
X91417809Y-119542191D01*
X91207765Y-119401843D01*
X90960000Y-119352560D01*
X90895000Y-119352560D01*
X90895000Y-118516595D01*
X91057809Y-118407809D01*
X91100000Y-118344666D01*
X91142191Y-118407809D01*
X91352235Y-118548157D01*
X91600000Y-118597440D01*
X92800000Y-118597440D01*
X93047765Y-118548157D01*
X93217115Y-118435000D01*
X93400000Y-118435000D01*
X93757809Y-118363827D01*
X94061145Y-118161145D01*
X96025266Y-116197024D01*
X95964999Y-116500000D01*
X95964999Y-116500000D01*
G37*
X95964999Y-116500000D02*
X95965000Y-116500005D01*
X95965000Y-119571289D01*
X94071520Y-121464769D01*
X94145908Y-121264539D01*
X94121856Y-120614540D01*
X93919387Y-120125736D01*
X93652532Y-120027073D01*
X92679605Y-121000000D01*
X92693748Y-121014143D01*
X92514143Y-121193748D01*
X92500000Y-121179605D01*
X92485858Y-121193748D01*
X92306253Y-121014143D01*
X92320395Y-121000000D01*
X92306253Y-120985858D01*
X92485858Y-120806253D01*
X92500000Y-120820395D01*
X93472927Y-119847468D01*
X93374264Y-119580613D01*
X92764539Y-119354092D01*
X92114540Y-119378144D01*
X91625736Y-119580613D01*
X91559600Y-119759491D01*
X91558157Y-119752235D01*
X91417809Y-119542191D01*
X91207765Y-119401843D01*
X90960000Y-119352560D01*
X90895000Y-119352560D01*
X90895000Y-118516595D01*
X91057809Y-118407809D01*
X91100000Y-118344666D01*
X91142191Y-118407809D01*
X91352235Y-118548157D01*
X91600000Y-118597440D01*
X92800000Y-118597440D01*
X93047765Y-118548157D01*
X93217115Y-118435000D01*
X93400000Y-118435000D01*
X93757809Y-118363827D01*
X94061145Y-118161145D01*
X96025266Y-116197024D01*
X95964999Y-116500000D01*
G36*
X200643941Y-54858491D02*
X200987974Y-55284180D01*
X201468723Y-55545810D01*
X201542930Y-55560770D01*
X201758998Y-55438271D01*
X201758998Y-55551262D01*
X197741000Y-59569260D01*
X197741000Y-55263639D01*
X197793828Y-55228340D01*
X198076000Y-54806041D01*
X198358172Y-55228340D01*
X198811391Y-55531172D01*
X199346000Y-55637512D01*
X199880609Y-55531172D01*
X200333828Y-55228340D01*
X200624642Y-54793107D01*
X200643941Y-54858491D01*
X200643941Y-54858491D01*
G37*
X200643941Y-54858491D02*
X200987974Y-55284180D01*
X201468723Y-55545810D01*
X201542930Y-55560770D01*
X201758998Y-55438271D01*
X201758998Y-55551262D01*
X197741000Y-59569260D01*
X197741000Y-55263639D01*
X197793828Y-55228340D01*
X198076000Y-54806041D01*
X198358172Y-55228340D01*
X198811391Y-55531172D01*
X199346000Y-55637512D01*
X199880609Y-55531172D01*
X200333828Y-55228340D01*
X200624642Y-54793107D01*
X200643941Y-54858491D01*
M02*
