G04 #@! TF.FileFunction,Copper,L1,Top,Signal*
%FSLAX46Y46*%
G04 Gerber Fmt 4.6, Leading zero omitted, Abs format (unit mm)*
G04 Created by KiCad (PCBNEW 4.1.0-alpha+201607130321+6976~46~ubuntu14.04.1-product) date Wed Jul 13 20:18:51 2016*
%MOMM*%
%LPD*%
G01*
G04 APERTURE LIST*
%ADD10C,0.100000*%
%ADD11C,2.500000*%
%ADD12C,2.000000*%
%ADD13C,3.810000*%
%ADD14R,1.524000X1.524000*%
%ADD15C,1.524000*%
%ADD16R,2.000000X2.000000*%
%ADD17O,1.524000X2.199640*%
%ADD18O,1.524000X2.197100*%
%ADD19O,1.998980X1.539240*%
%ADD20O,1.998980X1.536700*%
%ADD21C,1.800000*%
%ADD22C,1.600000*%
%ADD23C,1.000000*%
%ADD24C,0.800000*%
%ADD25C,0.600000*%
%ADD26C,0.254000*%
G04 APERTURE END LIST*
D10*
D11*
X79000000Y-135500000D03*
X86000000Y-135500000D03*
D12*
X80250000Y-138000000D03*
X84750000Y-138000000D03*
D11*
X69000000Y-135500000D03*
X76000000Y-135500000D03*
D12*
X70250000Y-138000000D03*
X74750000Y-138000000D03*
D11*
X89000000Y-135500000D03*
X96000000Y-135500000D03*
D12*
X90250000Y-138000000D03*
X94750000Y-138000000D03*
D13*
X246655000Y-135500000D03*
X271655000Y-135500000D03*
D14*
X253615000Y-134080000D03*
D15*
X256385000Y-134080000D03*
X259155000Y-134080000D03*
X261925000Y-134080000D03*
X264695000Y-134080000D03*
X263310000Y-136920000D03*
X260540000Y-136920000D03*
X257770000Y-136920000D03*
X255000000Y-136920000D03*
D16*
X89960000Y-121000000D03*
D12*
X92500000Y-121000000D03*
D16*
X80960000Y-121000000D03*
D12*
X83500000Y-121000000D03*
D16*
X70960000Y-121000000D03*
D12*
X73500000Y-121000000D03*
D17*
X203410000Y-102130000D03*
X205950000Y-102130000D03*
X208490000Y-102130000D03*
X211030000Y-102130000D03*
X213570000Y-102130000D03*
X216110000Y-102130000D03*
X218650000Y-102130000D03*
X221190000Y-102130000D03*
X226270000Y-102130000D03*
X228810000Y-102130000D03*
X231350000Y-102130000D03*
X233890000Y-102130000D03*
X236430000Y-102130000D03*
X238970000Y-102130000D03*
X241510000Y-102130000D03*
X244050000Y-102130000D03*
X249130000Y-102130000D03*
X251670000Y-102130000D03*
X254210000Y-102130000D03*
D18*
X256750000Y-102130000D03*
X259290000Y-102130000D03*
X261830000Y-102130000D03*
X264370000Y-102130000D03*
X266910000Y-102130000D03*
D19*
X269201080Y-97050000D03*
X269201080Y-94510000D03*
X269201080Y-91970000D03*
X269201080Y-89430000D03*
X269201080Y-86890000D03*
X269201080Y-84350000D03*
X269201080Y-81810000D03*
X269201080Y-79270000D03*
X269201080Y-76730000D03*
X269201080Y-74190000D03*
X269201080Y-71650000D03*
X269201080Y-69110000D03*
X269201080Y-66570000D03*
X269201080Y-64030000D03*
X269201080Y-61490000D03*
X269201080Y-58950000D03*
X269201080Y-56410000D03*
X269201080Y-53870000D03*
D20*
X272236380Y-97050000D03*
X272236380Y-94510000D03*
X272236380Y-91970000D03*
X272236380Y-89430000D03*
X272236380Y-86890000D03*
X272236380Y-84350000D03*
X272236380Y-81810000D03*
X272236380Y-79270000D03*
X272236380Y-76730000D03*
X272236380Y-74190000D03*
X272236380Y-71650000D03*
X272236380Y-69110000D03*
X272236380Y-66570000D03*
X272236380Y-64030000D03*
X272236380Y-61490000D03*
X272236380Y-58950000D03*
X272236380Y-56410000D03*
X272236380Y-53870000D03*
D18*
X261830000Y-53870000D03*
X259290000Y-53870000D03*
X256750000Y-53870000D03*
X254210000Y-53870000D03*
X251670000Y-53870000D03*
X249130000Y-53870000D03*
X246590000Y-53870000D03*
X244050000Y-53870000D03*
X238970000Y-53870000D03*
X236430000Y-53870000D03*
X233890000Y-53870000D03*
X231350000Y-53870000D03*
X228810000Y-53870000D03*
X226270000Y-53870000D03*
X223730000Y-53870000D03*
X221190000Y-53870000D03*
X217126000Y-53870000D03*
X214586000Y-53870000D03*
X212046000Y-53870000D03*
X209506000Y-53870000D03*
X206966000Y-53870000D03*
X204426000Y-53870000D03*
X201886000Y-53870000D03*
X199346000Y-53870000D03*
X196806000Y-53870000D03*
X194266000Y-53870000D03*
D15*
X108555000Y-130395000D03*
X111095000Y-130395000D03*
X113635000Y-130395000D03*
X116175000Y-130395000D03*
X109825000Y-127855000D03*
X112365000Y-127855000D03*
X114905000Y-127855000D03*
X117445000Y-127855000D03*
X106650000Y-131665000D03*
D21*
X107920000Y-141190000D03*
X118080000Y-132300000D03*
D15*
X135555000Y-130395000D03*
X138095000Y-130395000D03*
X140635000Y-130395000D03*
X143175000Y-130395000D03*
X136825000Y-127855000D03*
X139365000Y-127855000D03*
X141905000Y-127855000D03*
X144445000Y-127855000D03*
X133650000Y-131665000D03*
D21*
X134920000Y-141190000D03*
X145080000Y-132300000D03*
D15*
X162555000Y-130395000D03*
X165095000Y-130395000D03*
X167635000Y-130395000D03*
X170175000Y-130395000D03*
X163825000Y-127855000D03*
X166365000Y-127855000D03*
X168905000Y-127855000D03*
X171445000Y-127855000D03*
X160650000Y-131665000D03*
D21*
X161920000Y-141190000D03*
X172080000Y-132300000D03*
D15*
X189635000Y-130395000D03*
X192175000Y-130395000D03*
X194715000Y-130395000D03*
X197255000Y-130395000D03*
X190905000Y-127855000D03*
X193445000Y-127855000D03*
X195985000Y-127855000D03*
X198525000Y-127855000D03*
X187730000Y-131665000D03*
D21*
X189000000Y-141190000D03*
X199160000Y-132300000D03*
D13*
X212115000Y-135500000D03*
X237115000Y-135500000D03*
D14*
X219075000Y-134080000D03*
D15*
X221845000Y-134080000D03*
X224615000Y-134080000D03*
X227385000Y-134080000D03*
X230155000Y-134080000D03*
X228770000Y-136920000D03*
X226000000Y-136920000D03*
X223230000Y-136920000D03*
X220460000Y-136920000D03*
D22*
X236000000Y-142000000D03*
X219800000Y-142000000D03*
X69000000Y-130500000D03*
X77000000Y-132000000D03*
X88000000Y-132000000D03*
X100000000Y-132000000D03*
X144800000Y-116900000D03*
X161499994Y-119100000D03*
X229500000Y-125700000D03*
X213600000Y-121700000D03*
X198677241Y-114895010D03*
X196700000Y-121500000D03*
X189200000Y-117100000D03*
X135400010Y-117577143D03*
X142800000Y-122900000D03*
X169400000Y-123200000D03*
X171100000Y-116500000D03*
X120400000Y-123600000D03*
X120000000Y-116800000D03*
X117600000Y-125300000D03*
X113400000Y-124400000D03*
X227500000Y-139000000D03*
X255000000Y-141500000D03*
X263500000Y-141500000D03*
X272500000Y-99000000D03*
X269000000Y-99000000D03*
X202000000Y-51500000D03*
X200000000Y-56500000D03*
X218500000Y-105000000D03*
X216000000Y-105000000D03*
X190500000Y-109000000D03*
X162000000Y-111500000D03*
X111500000Y-111000000D03*
X136000000Y-110500000D03*
X87500000Y-138000000D03*
X94500000Y-120000000D03*
X86000000Y-121000000D03*
X76000000Y-121000000D03*
X123600000Y-121500000D03*
X148100000Y-122900000D03*
X174000000Y-123000000D03*
X204000000Y-120000000D03*
X231300000Y-124900000D03*
X233500000Y-131900000D03*
X208300000Y-92100000D03*
X191000000Y-122200000D03*
X196400000Y-107300000D03*
X208500000Y-85200000D03*
X164950000Y-90350000D03*
X164700000Y-84150000D03*
X200600000Y-116900000D03*
X200500000Y-106000000D03*
X144900000Y-113650000D03*
X147400000Y-119350000D03*
X210900000Y-90400000D03*
X211100000Y-85200000D03*
X167050000Y-90700000D03*
X166650000Y-85400000D03*
X163500000Y-123100000D03*
X168550000Y-108450000D03*
X110000000Y-123250000D03*
X114750000Y-108750000D03*
X136700000Y-123450000D03*
X141900000Y-109750000D03*
X150700000Y-84200000D03*
X150800000Y-76300000D03*
X148550000Y-84250000D03*
X148500000Y-76300000D03*
X173250000Y-119500000D03*
X173250000Y-90900000D03*
X173350000Y-72500000D03*
X173200000Y-109500000D03*
X169050000Y-70600000D03*
X169300000Y-91500000D03*
X120749990Y-114750000D03*
X122000000Y-128000000D03*
X118500000Y-118250012D03*
X120000000Y-128000000D03*
X109500000Y-125500000D03*
X106000000Y-125500000D03*
X119196063Y-112419094D03*
X111500000Y-126000000D03*
X149400000Y-120500000D03*
X148700000Y-129100000D03*
X145414224Y-118683874D03*
X146500000Y-128000000D03*
X138800000Y-126300000D03*
X139850011Y-109752511D03*
X176200000Y-125200000D03*
X175500000Y-129900000D03*
X171200000Y-118874616D03*
X173700000Y-128000000D03*
X165600000Y-126300000D03*
X166700000Y-109150000D03*
X202500000Y-117700000D03*
X202100000Y-123700000D03*
X198800000Y-116900000D03*
X200600000Y-128100000D03*
X194600000Y-108200000D03*
X193400000Y-126000000D03*
X192500000Y-68500000D03*
X219500000Y-69000000D03*
X194500000Y-66500000D03*
X221500000Y-67000000D03*
D23*
X219800000Y-142000000D02*
X236000000Y-142000000D01*
D24*
X69000000Y-130500000D02*
X70500000Y-132000000D01*
X70500000Y-132000000D02*
X77000000Y-132000000D01*
X88000000Y-132000000D02*
X77000000Y-132000000D01*
X100000000Y-132000000D02*
X88000000Y-132000000D01*
D25*
X143600000Y-116900000D02*
X142800000Y-117700000D01*
X142800000Y-117700000D02*
X142800000Y-122900000D01*
X144800000Y-116900000D02*
X143600000Y-116900000D01*
X144800000Y-116900000D02*
X136077153Y-116900000D01*
X136077153Y-116900000D02*
X135400010Y-117577143D01*
X162631364Y-119100000D02*
X161499994Y-119100000D01*
X168500000Y-119100000D02*
X162631364Y-119100000D01*
X168800000Y-118800000D02*
X168500000Y-119100000D01*
D23*
X213600000Y-121700000D02*
X217600000Y-125700000D01*
X217600000Y-125700000D02*
X229500000Y-125700000D01*
D25*
X197888902Y-115633297D02*
X198627189Y-114895010D01*
X198627189Y-114895010D02*
X198677241Y-114895010D01*
X196700000Y-116822199D02*
X197888902Y-115633297D01*
X196700000Y-121500000D02*
X196700000Y-116822199D01*
X196422199Y-117100000D02*
X197888902Y-115633297D01*
X189200000Y-117100000D02*
X196422199Y-117100000D01*
X169400000Y-118200000D02*
X169400000Y-119400000D01*
X169400000Y-119400000D02*
X169400000Y-123200000D01*
X168800000Y-118800000D02*
X169400000Y-119400000D01*
X171100000Y-116500000D02*
X169400000Y-118200000D01*
X168800000Y-118800000D02*
X171100000Y-116500000D01*
X168800000Y-118800000D02*
X169400000Y-118200000D01*
X120000000Y-116800000D02*
X120000000Y-123200000D01*
X120000000Y-123200000D02*
X120400000Y-123600000D01*
X113400000Y-124400000D02*
X116700000Y-124400000D01*
X116700000Y-124400000D02*
X117600000Y-125300000D01*
X255000000Y-137000000D02*
X255000000Y-141500000D01*
X271990000Y-97050000D02*
X271990000Y-98490000D01*
X271990000Y-98490000D02*
X272500000Y-99000000D01*
X201886000Y-53870000D02*
X201886000Y-51614000D01*
X201886000Y-51614000D02*
X202000000Y-51500000D01*
X218650000Y-102130000D02*
X218650000Y-104850000D01*
X218650000Y-104850000D02*
X218500000Y-105000000D01*
X233500000Y-131900000D02*
X233500000Y-127100000D01*
X233500000Y-127100000D02*
X231300000Y-124900000D01*
X196400000Y-107300000D02*
X196400000Y-108431370D01*
X194031370Y-110800000D02*
X193100000Y-110800000D01*
X196400000Y-108431370D02*
X194031370Y-110800000D01*
X193100000Y-110800000D02*
X187500000Y-116400000D01*
X187500000Y-116400000D02*
X187500000Y-118700000D01*
X187500000Y-118700000D02*
X191000000Y-122200000D01*
X208500000Y-85200000D02*
X208500000Y-91900000D01*
X208500000Y-91900000D02*
X208300000Y-92100000D01*
X164700000Y-84150000D02*
X164700000Y-90100000D01*
X164700000Y-90100000D02*
X164950000Y-90350000D01*
X200500000Y-106000000D02*
X200500000Y-116800000D01*
X200500000Y-116800000D02*
X200600000Y-116900000D01*
X147400000Y-116150000D02*
X145699999Y-114449999D01*
X147400000Y-119350000D02*
X147400000Y-116150000D01*
X145699999Y-114449999D02*
X144900000Y-113650000D01*
X211100000Y-85200000D02*
X211100000Y-90200000D01*
X211100000Y-90200000D02*
X210900000Y-90400000D01*
X168550000Y-108450000D02*
X168550000Y-109581370D01*
X168550000Y-109581370D02*
X160000000Y-118131370D01*
X160000000Y-118131370D02*
X160000000Y-120100000D01*
X160000000Y-120100000D02*
X162200001Y-122300001D01*
X162200001Y-122300001D02*
X162700001Y-122300001D01*
X162700001Y-122300001D02*
X163500000Y-123100000D01*
X166650000Y-85400000D02*
X166650000Y-90300000D01*
X166650000Y-90300000D02*
X167050000Y-90700000D01*
X114750000Y-108750000D02*
X114750000Y-114750000D01*
X114750000Y-114750000D02*
X110000000Y-119500000D01*
X110000000Y-119500000D02*
X110000000Y-123250000D01*
X141900000Y-109750000D02*
X140500000Y-111150000D01*
X140500000Y-111150000D02*
X139650000Y-111150000D01*
X139650000Y-111150000D02*
X134000000Y-116800000D01*
X134000000Y-116800000D02*
X134000000Y-120750000D01*
X134000000Y-120750000D02*
X136700000Y-123450000D01*
X150800000Y-76300000D02*
X150700000Y-76400000D01*
X150700000Y-76400000D02*
X150700000Y-84200000D01*
X148500000Y-76300000D02*
X148550000Y-76350000D01*
X148550000Y-76350000D02*
X148550000Y-84250000D01*
X173250000Y-119500000D02*
X173250000Y-109550000D01*
X173250000Y-109550000D02*
X173200000Y-109500000D01*
X173350000Y-90800000D02*
X173250000Y-90900000D01*
X173350000Y-72500000D02*
X173350000Y-90800000D01*
X169050000Y-91250000D02*
X169300000Y-91500000D01*
X169050000Y-70600000D02*
X169050000Y-91250000D01*
X120749990Y-114750000D02*
X122000000Y-116000010D01*
X122000000Y-116000010D02*
X122000000Y-128000000D01*
X120000000Y-128000000D02*
X120000000Y-125300000D01*
X120000000Y-125300000D02*
X118500000Y-123800000D01*
X118500000Y-123800000D02*
X118500000Y-118250012D01*
X106000000Y-125500000D02*
X109500000Y-125500000D01*
X111500000Y-126000000D02*
X111500000Y-120115157D01*
X111500000Y-120115157D02*
X118396064Y-113219093D01*
X118396064Y-113219093D02*
X119196063Y-112419094D01*
X148700000Y-129100000D02*
X149499999Y-128300001D01*
X149499999Y-128300001D02*
X149499999Y-120599999D01*
X149499999Y-120599999D02*
X149400000Y-120500000D01*
X145414224Y-126914224D02*
X145414224Y-118683874D01*
X146500000Y-128000000D02*
X145414224Y-126914224D01*
X139850011Y-109752511D02*
X139547489Y-109752511D01*
X139547489Y-109752511D02*
X132900000Y-116400000D01*
X137668630Y-126300000D02*
X138800000Y-126300000D01*
X132900000Y-116400000D02*
X132900000Y-121531370D01*
X132900000Y-121531370D02*
X137668630Y-126300000D01*
X175500000Y-129900000D02*
X175500000Y-125900000D01*
X175500000Y-125900000D02*
X176200000Y-125200000D01*
X171200000Y-120005986D02*
X171200000Y-118874616D01*
X171200000Y-125500000D02*
X171200000Y-120005986D01*
X173700000Y-128000000D02*
X171200000Y-125500000D01*
X166700000Y-109150000D02*
X166700000Y-109300000D01*
X166700000Y-109300000D02*
X158600000Y-117400000D01*
X158600000Y-117400000D02*
X158600000Y-120431370D01*
X158600000Y-120431370D02*
X164468630Y-126300000D01*
X164468630Y-126300000D02*
X165600000Y-126300000D01*
X202100000Y-123700000D02*
X202100000Y-118100000D01*
X202100000Y-118100000D02*
X202500000Y-117700000D01*
X200600000Y-128100000D02*
X198800000Y-126300000D01*
X198800000Y-126300000D02*
X198800000Y-116900000D01*
X193400000Y-126000000D02*
X192400000Y-126000000D01*
X192400000Y-126000000D02*
X186200000Y-119800000D01*
X186200000Y-119800000D02*
X186200000Y-115700000D01*
X186200000Y-115700000D02*
X192300000Y-109600000D01*
X192300000Y-109600000D02*
X193200000Y-109600000D01*
X193200000Y-109600000D02*
X194600000Y-108200000D01*
D24*
X219500000Y-69000000D02*
X193000000Y-69000000D01*
X193000000Y-69000000D02*
X192500000Y-68500000D01*
X221500000Y-67000000D02*
X195000000Y-67000000D01*
X195000000Y-67000000D02*
X194500000Y-66500000D01*
D26*
G36*
X275290000Y-144290000D02*
X67710000Y-144290000D01*
X67710000Y-141493991D01*
X106384735Y-141493991D01*
X106617932Y-142058371D01*
X107049357Y-142490551D01*
X107613330Y-142724733D01*
X108223991Y-142725265D01*
X108788371Y-142492068D01*
X109220551Y-142060643D01*
X109454733Y-141496670D01*
X109454735Y-141493991D01*
X133384735Y-141493991D01*
X133617932Y-142058371D01*
X134049357Y-142490551D01*
X134613330Y-142724733D01*
X135223991Y-142725265D01*
X135788371Y-142492068D01*
X136220551Y-142060643D01*
X136454733Y-141496670D01*
X136454735Y-141493991D01*
X160384735Y-141493991D01*
X160617932Y-142058371D01*
X161049357Y-142490551D01*
X161613330Y-142724733D01*
X162223991Y-142725265D01*
X162788371Y-142492068D01*
X163220551Y-142060643D01*
X163454733Y-141496670D01*
X163454735Y-141493991D01*
X187464735Y-141493991D01*
X187697932Y-142058371D01*
X188129357Y-142490551D01*
X188693330Y-142724733D01*
X189303991Y-142725265D01*
X189868371Y-142492068D01*
X190076615Y-142284187D01*
X218364752Y-142284187D01*
X218582757Y-142811800D01*
X218986077Y-143215824D01*
X219513309Y-143434750D01*
X220084187Y-143435248D01*
X220611800Y-143217243D01*
X220694187Y-143135000D01*
X235105394Y-143135000D01*
X235186077Y-143215824D01*
X235713309Y-143434750D01*
X236284187Y-143435248D01*
X236811800Y-143217243D01*
X237215824Y-142813923D01*
X237434750Y-142286691D01*
X237435248Y-141715813D01*
X237217243Y-141188200D01*
X236813923Y-140784176D01*
X236286691Y-140565250D01*
X235715813Y-140564752D01*
X235188200Y-140782757D01*
X235105813Y-140865000D01*
X220694606Y-140865000D01*
X220613923Y-140784176D01*
X220086691Y-140565250D01*
X219515813Y-140564752D01*
X218988200Y-140782757D01*
X218584176Y-141186077D01*
X218365250Y-141713309D01*
X218364752Y-142284187D01*
X190076615Y-142284187D01*
X190300551Y-142060643D01*
X190534733Y-141496670D01*
X190535265Y-140886009D01*
X190302068Y-140321629D01*
X189870643Y-139889449D01*
X189306670Y-139655267D01*
X188696009Y-139654735D01*
X188131629Y-139887932D01*
X187699449Y-140319357D01*
X187465267Y-140883330D01*
X187464735Y-141493991D01*
X163454735Y-141493991D01*
X163455265Y-140886009D01*
X163222068Y-140321629D01*
X162790643Y-139889449D01*
X162226670Y-139655267D01*
X161616009Y-139654735D01*
X161051629Y-139887932D01*
X160619449Y-140319357D01*
X160385267Y-140883330D01*
X160384735Y-141493991D01*
X136454735Y-141493991D01*
X136455265Y-140886009D01*
X136222068Y-140321629D01*
X135790643Y-139889449D01*
X135226670Y-139655267D01*
X134616009Y-139654735D01*
X134051629Y-139887932D01*
X133619449Y-140319357D01*
X133385267Y-140883330D01*
X133384735Y-141493991D01*
X109454735Y-141493991D01*
X109455265Y-140886009D01*
X109222068Y-140321629D01*
X108790643Y-139889449D01*
X108226670Y-139655267D01*
X107616009Y-139654735D01*
X107051629Y-139887932D01*
X106619449Y-140319357D01*
X106385267Y-140883330D01*
X106384735Y-141493991D01*
X67710000Y-141493991D01*
X67710000Y-136924500D01*
X67732554Y-136947054D01*
X67846286Y-136833322D01*
X67975533Y-137126123D01*
X68675806Y-137394388D01*
X68731744Y-137392885D01*
X68615284Y-137673352D01*
X68614716Y-138323795D01*
X68863106Y-138924943D01*
X69322637Y-139385278D01*
X69923352Y-139634716D01*
X70573795Y-139635284D01*
X71174943Y-139386894D01*
X71409715Y-139152532D01*
X73777073Y-139152532D01*
X73875736Y-139419387D01*
X74485461Y-139645908D01*
X75135460Y-139621856D01*
X75624264Y-139419387D01*
X75722927Y-139152532D01*
X74750000Y-138179605D01*
X73777073Y-139152532D01*
X71409715Y-139152532D01*
X71635278Y-138927363D01*
X71884716Y-138326648D01*
X71885232Y-137735461D01*
X73104092Y-137735461D01*
X73128144Y-138385460D01*
X73330613Y-138874264D01*
X73597468Y-138972927D01*
X74570395Y-138000000D01*
X73597468Y-137027073D01*
X73330613Y-137125736D01*
X73104092Y-137735461D01*
X71885232Y-137735461D01*
X71885284Y-137676205D01*
X71636894Y-137075057D01*
X71409703Y-136847468D01*
X73777073Y-136847468D01*
X74750000Y-137820395D01*
X74764143Y-137806253D01*
X74943748Y-137985858D01*
X74929605Y-138000000D01*
X75902532Y-138972927D01*
X76169387Y-138874264D01*
X76395908Y-138264539D01*
X76371856Y-137614540D01*
X76274010Y-137378318D01*
X76425435Y-137374250D01*
X77024467Y-137126123D01*
X77153715Y-136833320D01*
X77846285Y-136833320D01*
X77975533Y-137126123D01*
X78675806Y-137394388D01*
X78731744Y-137392885D01*
X78615284Y-137673352D01*
X78614716Y-138323795D01*
X78863106Y-138924943D01*
X79322637Y-139385278D01*
X79923352Y-139634716D01*
X80573795Y-139635284D01*
X81174943Y-139386894D01*
X81409715Y-139152532D01*
X83777073Y-139152532D01*
X83875736Y-139419387D01*
X84485461Y-139645908D01*
X85135460Y-139621856D01*
X85624264Y-139419387D01*
X85722927Y-139152532D01*
X84750000Y-138179605D01*
X83777073Y-139152532D01*
X81409715Y-139152532D01*
X81635278Y-138927363D01*
X81884716Y-138326648D01*
X81885232Y-137735461D01*
X83104092Y-137735461D01*
X83128144Y-138385460D01*
X83330613Y-138874264D01*
X83597468Y-138972927D01*
X84570395Y-138000000D01*
X83597468Y-137027073D01*
X83330613Y-137125736D01*
X83104092Y-137735461D01*
X81885232Y-137735461D01*
X81885284Y-137676205D01*
X81636894Y-137075057D01*
X81409703Y-136847468D01*
X83777073Y-136847468D01*
X84750000Y-137820395D01*
X84764143Y-137806253D01*
X84943748Y-137985858D01*
X84929605Y-138000000D01*
X85902532Y-138972927D01*
X86169387Y-138874264D01*
X86395908Y-138264539D01*
X86371856Y-137614540D01*
X86274010Y-137378318D01*
X86425435Y-137374250D01*
X87024467Y-137126123D01*
X87153715Y-136833320D01*
X87846285Y-136833320D01*
X87975533Y-137126123D01*
X88675806Y-137394388D01*
X88731744Y-137392885D01*
X88615284Y-137673352D01*
X88614716Y-138323795D01*
X88863106Y-138924943D01*
X89322637Y-139385278D01*
X89923352Y-139634716D01*
X90573795Y-139635284D01*
X91174943Y-139386894D01*
X91409715Y-139152532D01*
X93777073Y-139152532D01*
X93875736Y-139419387D01*
X94485461Y-139645908D01*
X95135460Y-139621856D01*
X95624264Y-139419387D01*
X95722927Y-139152532D01*
X94750000Y-138179605D01*
X93777073Y-139152532D01*
X91409715Y-139152532D01*
X91635278Y-138927363D01*
X91884716Y-138326648D01*
X91885232Y-137735461D01*
X93104092Y-137735461D01*
X93128144Y-138385460D01*
X93330613Y-138874264D01*
X93597468Y-138972927D01*
X94570395Y-138000000D01*
X93597468Y-137027073D01*
X93330613Y-137125736D01*
X93104092Y-137735461D01*
X91885232Y-137735461D01*
X91885284Y-137676205D01*
X91636894Y-137075057D01*
X91409703Y-136847468D01*
X93777073Y-136847468D01*
X94750000Y-137820395D01*
X94764143Y-137806253D01*
X94943748Y-137985858D01*
X94929605Y-138000000D01*
X95902532Y-138972927D01*
X96169387Y-138874264D01*
X96395908Y-138264539D01*
X96371856Y-137614540D01*
X96274010Y-137378318D01*
X96425435Y-137374250D01*
X97024467Y-137126123D01*
X97153715Y-136833320D01*
X96000000Y-135679605D01*
X95985858Y-135693748D01*
X95806253Y-135514143D01*
X95820395Y-135500000D01*
X96179605Y-135500000D01*
X97333320Y-136653715D01*
X97626123Y-136524467D01*
X97825881Y-136003021D01*
X209574560Y-136003021D01*
X209960437Y-136936915D01*
X210674327Y-137652052D01*
X211607546Y-138039559D01*
X212618021Y-138040440D01*
X213551915Y-137654563D01*
X214010616Y-137196661D01*
X219062758Y-137196661D01*
X219274990Y-137710303D01*
X219667630Y-138103629D01*
X220180900Y-138316757D01*
X220736661Y-138317242D01*
X221250303Y-138105010D01*
X221643629Y-137712370D01*
X221845233Y-137226853D01*
X222044990Y-137710303D01*
X222437630Y-138103629D01*
X222950900Y-138316757D01*
X223506661Y-138317242D01*
X224020303Y-138105010D01*
X224225457Y-137900213D01*
X225199392Y-137900213D01*
X225268857Y-138142397D01*
X225792302Y-138329144D01*
X226347368Y-138301362D01*
X226731143Y-138142397D01*
X226800608Y-137900213D01*
X227969392Y-137900213D01*
X228038857Y-138142397D01*
X228562302Y-138329144D01*
X229117368Y-138301362D01*
X229501143Y-138142397D01*
X229570608Y-137900213D01*
X228770000Y-137099605D01*
X227969392Y-137900213D01*
X226800608Y-137900213D01*
X226000000Y-137099605D01*
X225199392Y-137900213D01*
X224225457Y-137900213D01*
X224413629Y-137712370D01*
X224616462Y-137223893D01*
X224618638Y-137267368D01*
X224777603Y-137651143D01*
X225019787Y-137720608D01*
X225820395Y-136920000D01*
X226179605Y-136920000D01*
X226980213Y-137720608D01*
X227222397Y-137651143D01*
X227385030Y-137195288D01*
X227388638Y-137267368D01*
X227547603Y-137651143D01*
X227789787Y-137720608D01*
X228590395Y-136920000D01*
X228949605Y-136920000D01*
X229750213Y-137720608D01*
X229992397Y-137651143D01*
X230179144Y-137127698D01*
X230151362Y-136572632D01*
X229992397Y-136188857D01*
X229750213Y-136119392D01*
X228949605Y-136920000D01*
X228590395Y-136920000D01*
X227789787Y-136119392D01*
X227547603Y-136188857D01*
X227384970Y-136644712D01*
X227381362Y-136572632D01*
X227222397Y-136188857D01*
X226980213Y-136119392D01*
X226179605Y-136920000D01*
X225820395Y-136920000D01*
X225019787Y-136119392D01*
X224777603Y-136188857D01*
X224620919Y-136628036D01*
X224415010Y-136129697D01*
X224225432Y-135939787D01*
X225199392Y-135939787D01*
X226000000Y-136740395D01*
X226800608Y-135939787D01*
X227969392Y-135939787D01*
X228770000Y-136740395D01*
X229507374Y-136003021D01*
X234574560Y-136003021D01*
X234960437Y-136936915D01*
X235674327Y-137652052D01*
X236607546Y-138039559D01*
X237618021Y-138040440D01*
X238551915Y-137654563D01*
X239267052Y-136940673D01*
X239654559Y-136007454D01*
X239654562Y-136003021D01*
X244114560Y-136003021D01*
X244500437Y-136936915D01*
X245214327Y-137652052D01*
X246147546Y-138039559D01*
X247158021Y-138040440D01*
X247497396Y-137900213D01*
X254199392Y-137900213D01*
X254268857Y-138142397D01*
X254792302Y-138329144D01*
X255347368Y-138301362D01*
X255731143Y-138142397D01*
X255800608Y-137900213D01*
X256969392Y-137900213D01*
X257038857Y-138142397D01*
X257562302Y-138329144D01*
X258117368Y-138301362D01*
X258501143Y-138142397D01*
X258570608Y-137900213D01*
X259739392Y-137900213D01*
X259808857Y-138142397D01*
X260332302Y-138329144D01*
X260887368Y-138301362D01*
X261271143Y-138142397D01*
X261340608Y-137900213D01*
X262509392Y-137900213D01*
X262578857Y-138142397D01*
X263102302Y-138329144D01*
X263657368Y-138301362D01*
X264041143Y-138142397D01*
X264110608Y-137900213D01*
X263310000Y-137099605D01*
X262509392Y-137900213D01*
X261340608Y-137900213D01*
X260540000Y-137099605D01*
X259739392Y-137900213D01*
X258570608Y-137900213D01*
X257770000Y-137099605D01*
X256969392Y-137900213D01*
X255800608Y-137900213D01*
X255000000Y-137099605D01*
X254199392Y-137900213D01*
X247497396Y-137900213D01*
X248091915Y-137654563D01*
X248807052Y-136940673D01*
X248901880Y-136712302D01*
X253590856Y-136712302D01*
X253618638Y-137267368D01*
X253777603Y-137651143D01*
X254019787Y-137720608D01*
X254820395Y-136920000D01*
X255179605Y-136920000D01*
X255980213Y-137720608D01*
X256222397Y-137651143D01*
X256385030Y-137195288D01*
X256388638Y-137267368D01*
X256547603Y-137651143D01*
X256789787Y-137720608D01*
X257590395Y-136920000D01*
X257949605Y-136920000D01*
X258750213Y-137720608D01*
X258992397Y-137651143D01*
X259155030Y-137195288D01*
X259158638Y-137267368D01*
X259317603Y-137651143D01*
X259559787Y-137720608D01*
X260360395Y-136920000D01*
X260719605Y-136920000D01*
X261520213Y-137720608D01*
X261762397Y-137651143D01*
X261925030Y-137195288D01*
X261928638Y-137267368D01*
X262087603Y-137651143D01*
X262329787Y-137720608D01*
X263130395Y-136920000D01*
X263489605Y-136920000D01*
X264290213Y-137720608D01*
X264532397Y-137651143D01*
X264719144Y-137127698D01*
X264691362Y-136572632D01*
X264532397Y-136188857D01*
X264290213Y-136119392D01*
X263489605Y-136920000D01*
X263130395Y-136920000D01*
X262329787Y-136119392D01*
X262087603Y-136188857D01*
X261924970Y-136644712D01*
X261921362Y-136572632D01*
X261762397Y-136188857D01*
X261520213Y-136119392D01*
X260719605Y-136920000D01*
X260360395Y-136920000D01*
X259559787Y-136119392D01*
X259317603Y-136188857D01*
X259154970Y-136644712D01*
X259151362Y-136572632D01*
X258992397Y-136188857D01*
X258750213Y-136119392D01*
X257949605Y-136920000D01*
X257590395Y-136920000D01*
X256789787Y-136119392D01*
X256547603Y-136188857D01*
X256384970Y-136644712D01*
X256381362Y-136572632D01*
X256222397Y-136188857D01*
X255980213Y-136119392D01*
X255179605Y-136920000D01*
X254820395Y-136920000D01*
X254019787Y-136119392D01*
X253777603Y-136188857D01*
X253590856Y-136712302D01*
X248901880Y-136712302D01*
X249194559Y-136007454D01*
X249194617Y-135939787D01*
X254199392Y-135939787D01*
X255000000Y-136740395D01*
X255800608Y-135939787D01*
X256969392Y-135939787D01*
X257770000Y-136740395D01*
X258570608Y-135939787D01*
X259739392Y-135939787D01*
X260540000Y-136740395D01*
X261340608Y-135939787D01*
X262509392Y-135939787D01*
X263310000Y-136740395D01*
X264047374Y-136003021D01*
X269114560Y-136003021D01*
X269500437Y-136936915D01*
X270214327Y-137652052D01*
X271147546Y-138039559D01*
X272158021Y-138040440D01*
X273091915Y-137654563D01*
X273807052Y-136940673D01*
X274194559Y-136007454D01*
X274195440Y-134996979D01*
X273809563Y-134063085D01*
X273095673Y-133347948D01*
X272162454Y-132960441D01*
X271151979Y-132959560D01*
X270218085Y-133345437D01*
X269502948Y-134059327D01*
X269115441Y-134992546D01*
X269114560Y-136003021D01*
X264047374Y-136003021D01*
X264110608Y-135939787D01*
X264041143Y-135697603D01*
X263517698Y-135510856D01*
X262962632Y-135538638D01*
X262578857Y-135697603D01*
X262509392Y-135939787D01*
X261340608Y-135939787D01*
X261271143Y-135697603D01*
X260747698Y-135510856D01*
X260192632Y-135538638D01*
X259808857Y-135697603D01*
X259739392Y-135939787D01*
X258570608Y-135939787D01*
X258501143Y-135697603D01*
X257977698Y-135510856D01*
X257422632Y-135538638D01*
X257038857Y-135697603D01*
X256969392Y-135939787D01*
X255800608Y-135939787D01*
X255731143Y-135697603D01*
X255207698Y-135510856D01*
X254652632Y-135538638D01*
X254268857Y-135697603D01*
X254199392Y-135939787D01*
X249194617Y-135939787D01*
X249195440Y-134996979D01*
X248809563Y-134063085D01*
X248095673Y-133347948D01*
X248023551Y-133318000D01*
X252205560Y-133318000D01*
X252205560Y-134842000D01*
X252254843Y-135089765D01*
X252395191Y-135299809D01*
X252605235Y-135440157D01*
X252853000Y-135489440D01*
X254377000Y-135489440D01*
X254624765Y-135440157D01*
X254834809Y-135299809D01*
X254975157Y-135089765D01*
X254981035Y-135060213D01*
X255584392Y-135060213D01*
X255653857Y-135302397D01*
X256177302Y-135489144D01*
X256732368Y-135461362D01*
X257116143Y-135302397D01*
X257185608Y-135060213D01*
X256385000Y-134259605D01*
X255584392Y-135060213D01*
X254981035Y-135060213D01*
X255024440Y-134842000D01*
X255024440Y-134477588D01*
X255162603Y-134811143D01*
X255404787Y-134880608D01*
X256205395Y-134080000D01*
X256564605Y-134080000D01*
X257365213Y-134880608D01*
X257607397Y-134811143D01*
X257764081Y-134371964D01*
X257969990Y-134870303D01*
X258362630Y-135263629D01*
X258875900Y-135476757D01*
X259431661Y-135477242D01*
X259945303Y-135265010D01*
X260338629Y-134872370D01*
X260540233Y-134386853D01*
X260739990Y-134870303D01*
X261132630Y-135263629D01*
X261645900Y-135476757D01*
X262201661Y-135477242D01*
X262715303Y-135265010D01*
X263108629Y-134872370D01*
X263310233Y-134386853D01*
X263509990Y-134870303D01*
X263902630Y-135263629D01*
X264415900Y-135476757D01*
X264971661Y-135477242D01*
X265485303Y-135265010D01*
X265878629Y-134872370D01*
X266091757Y-134359100D01*
X266092242Y-133803339D01*
X265880010Y-133289697D01*
X265487370Y-132896371D01*
X264974100Y-132683243D01*
X264418339Y-132682758D01*
X263904697Y-132894990D01*
X263511371Y-133287630D01*
X263309767Y-133773147D01*
X263110010Y-133289697D01*
X262717370Y-132896371D01*
X262204100Y-132683243D01*
X261648339Y-132682758D01*
X261134697Y-132894990D01*
X260741371Y-133287630D01*
X260539767Y-133773147D01*
X260340010Y-133289697D01*
X259947370Y-132896371D01*
X259434100Y-132683243D01*
X258878339Y-132682758D01*
X258364697Y-132894990D01*
X257971371Y-133287630D01*
X257768538Y-133776107D01*
X257766362Y-133732632D01*
X257607397Y-133348857D01*
X257365213Y-133279392D01*
X256564605Y-134080000D01*
X256205395Y-134080000D01*
X255404787Y-133279392D01*
X255162603Y-133348857D01*
X255024440Y-133736123D01*
X255024440Y-133318000D01*
X254981036Y-133099787D01*
X255584392Y-133099787D01*
X256385000Y-133900395D01*
X257185608Y-133099787D01*
X257116143Y-132857603D01*
X256592698Y-132670856D01*
X256037632Y-132698638D01*
X255653857Y-132857603D01*
X255584392Y-133099787D01*
X254981036Y-133099787D01*
X254975157Y-133070235D01*
X254834809Y-132860191D01*
X254624765Y-132719843D01*
X254377000Y-132670560D01*
X252853000Y-132670560D01*
X252605235Y-132719843D01*
X252395191Y-132860191D01*
X252254843Y-133070235D01*
X252205560Y-133318000D01*
X248023551Y-133318000D01*
X247162454Y-132960441D01*
X246151979Y-132959560D01*
X245218085Y-133345437D01*
X244502948Y-134059327D01*
X244115441Y-134992546D01*
X244114560Y-136003021D01*
X239654562Y-136003021D01*
X239655440Y-134996979D01*
X239269563Y-134063085D01*
X238555673Y-133347948D01*
X237622454Y-132960441D01*
X236611979Y-132959560D01*
X235678085Y-133345437D01*
X234962948Y-134059327D01*
X234575441Y-134992546D01*
X234574560Y-136003021D01*
X229507374Y-136003021D01*
X229570608Y-135939787D01*
X229501143Y-135697603D01*
X228977698Y-135510856D01*
X228422632Y-135538638D01*
X228038857Y-135697603D01*
X227969392Y-135939787D01*
X226800608Y-135939787D01*
X226731143Y-135697603D01*
X226207698Y-135510856D01*
X225652632Y-135538638D01*
X225268857Y-135697603D01*
X225199392Y-135939787D01*
X224225432Y-135939787D01*
X224022370Y-135736371D01*
X223509100Y-135523243D01*
X222953339Y-135522758D01*
X222439697Y-135734990D01*
X222046371Y-136127630D01*
X221844767Y-136613147D01*
X221645010Y-136129697D01*
X221252370Y-135736371D01*
X220739100Y-135523243D01*
X220183339Y-135522758D01*
X219669697Y-135734990D01*
X219276371Y-136127630D01*
X219063243Y-136640900D01*
X219062758Y-137196661D01*
X214010616Y-137196661D01*
X214267052Y-136940673D01*
X214654559Y-136007454D01*
X214655440Y-134996979D01*
X214269563Y-134063085D01*
X213555673Y-133347948D01*
X213483551Y-133318000D01*
X217665560Y-133318000D01*
X217665560Y-134842000D01*
X217714843Y-135089765D01*
X217855191Y-135299809D01*
X218065235Y-135440157D01*
X218313000Y-135489440D01*
X219837000Y-135489440D01*
X220084765Y-135440157D01*
X220294809Y-135299809D01*
X220435157Y-135089765D01*
X220484440Y-134842000D01*
X220484440Y-134445438D01*
X220659990Y-134870303D01*
X221052630Y-135263629D01*
X221565900Y-135476757D01*
X222121661Y-135477242D01*
X222635303Y-135265010D01*
X223028629Y-134872370D01*
X223230233Y-134386853D01*
X223429990Y-134870303D01*
X223822630Y-135263629D01*
X224335900Y-135476757D01*
X224891661Y-135477242D01*
X225405303Y-135265010D01*
X225798629Y-134872370D01*
X226000233Y-134386853D01*
X226199990Y-134870303D01*
X226592630Y-135263629D01*
X227105900Y-135476757D01*
X227661661Y-135477242D01*
X228175303Y-135265010D01*
X228568629Y-134872370D01*
X228770233Y-134386853D01*
X228969990Y-134870303D01*
X229362630Y-135263629D01*
X229875900Y-135476757D01*
X230431661Y-135477242D01*
X230945303Y-135265010D01*
X231338629Y-134872370D01*
X231551757Y-134359100D01*
X231552242Y-133803339D01*
X231340010Y-133289697D01*
X230947370Y-132896371D01*
X230434100Y-132683243D01*
X229878339Y-132682758D01*
X229364697Y-132894990D01*
X228971371Y-133287630D01*
X228769767Y-133773147D01*
X228570010Y-133289697D01*
X228177370Y-132896371D01*
X227664100Y-132683243D01*
X227108339Y-132682758D01*
X226594697Y-132894990D01*
X226201371Y-133287630D01*
X225999767Y-133773147D01*
X225800010Y-133289697D01*
X225407370Y-132896371D01*
X224894100Y-132683243D01*
X224338339Y-132682758D01*
X223824697Y-132894990D01*
X223431371Y-133287630D01*
X223229767Y-133773147D01*
X223030010Y-133289697D01*
X222637370Y-132896371D01*
X222124100Y-132683243D01*
X221568339Y-132682758D01*
X221054697Y-132894990D01*
X220661371Y-133287630D01*
X220484440Y-133713728D01*
X220484440Y-133318000D01*
X220435157Y-133070235D01*
X220294809Y-132860191D01*
X220084765Y-132719843D01*
X219837000Y-132670560D01*
X218313000Y-132670560D01*
X218065235Y-132719843D01*
X217855191Y-132860191D01*
X217714843Y-133070235D01*
X217665560Y-133318000D01*
X213483551Y-133318000D01*
X212622454Y-132960441D01*
X211611979Y-132959560D01*
X210678085Y-133345437D01*
X209962948Y-134059327D01*
X209575441Y-134992546D01*
X209574560Y-136003021D01*
X97825881Y-136003021D01*
X97894388Y-135824194D01*
X97874250Y-135074565D01*
X97626123Y-134475533D01*
X97333320Y-134346285D01*
X96179605Y-135500000D01*
X95820395Y-135500000D01*
X94666680Y-134346285D01*
X94373877Y-134475533D01*
X94105612Y-135175806D01*
X94125750Y-135925435D01*
X94320777Y-136396271D01*
X93875736Y-136580613D01*
X93777073Y-136847468D01*
X91409703Y-136847468D01*
X91177363Y-136614722D01*
X90671945Y-136404855D01*
X90894388Y-135824194D01*
X90874250Y-135074565D01*
X90626123Y-134475533D01*
X90333320Y-134346285D01*
X89179605Y-135500000D01*
X89193748Y-135514143D01*
X89014143Y-135693748D01*
X89000000Y-135679605D01*
X87846285Y-136833320D01*
X87153715Y-136833320D01*
X86000000Y-135679605D01*
X85985858Y-135693748D01*
X85806253Y-135514143D01*
X85820395Y-135500000D01*
X86179605Y-135500000D01*
X87333320Y-136653715D01*
X87500000Y-136580140D01*
X87666680Y-136653715D01*
X88820395Y-135500000D01*
X87666680Y-134346285D01*
X87500000Y-134419860D01*
X87333320Y-134346285D01*
X86179605Y-135500000D01*
X85820395Y-135500000D01*
X84666680Y-134346285D01*
X84373877Y-134475533D01*
X84105612Y-135175806D01*
X84125750Y-135925435D01*
X84320777Y-136396271D01*
X83875736Y-136580613D01*
X83777073Y-136847468D01*
X81409703Y-136847468D01*
X81177363Y-136614722D01*
X80671945Y-136404855D01*
X80894388Y-135824194D01*
X80874250Y-135074565D01*
X80626123Y-134475533D01*
X80333320Y-134346285D01*
X79179605Y-135500000D01*
X79193748Y-135514143D01*
X79014143Y-135693748D01*
X79000000Y-135679605D01*
X77846285Y-136833320D01*
X77153715Y-136833320D01*
X76000000Y-135679605D01*
X75985858Y-135693748D01*
X75806253Y-135514143D01*
X75820395Y-135500000D01*
X76179605Y-135500000D01*
X77333320Y-136653715D01*
X77500000Y-136580140D01*
X77666680Y-136653715D01*
X78820395Y-135500000D01*
X77666680Y-134346285D01*
X77500000Y-134419860D01*
X77333320Y-134346285D01*
X76179605Y-135500000D01*
X75820395Y-135500000D01*
X74666680Y-134346285D01*
X74373877Y-134475533D01*
X74105612Y-135175806D01*
X74125750Y-135925435D01*
X74320777Y-136396271D01*
X73875736Y-136580613D01*
X73777073Y-136847468D01*
X71409703Y-136847468D01*
X71177363Y-136614722D01*
X70671945Y-136404855D01*
X70894388Y-135824194D01*
X70874250Y-135074565D01*
X70626123Y-134475533D01*
X70333320Y-134346285D01*
X69179605Y-135500000D01*
X69193748Y-135514143D01*
X69014143Y-135693748D01*
X69000000Y-135679605D01*
X68985858Y-135693748D01*
X68806253Y-135514143D01*
X68820395Y-135500000D01*
X68806253Y-135485858D01*
X68985858Y-135306253D01*
X69000000Y-135320395D01*
X70153715Y-134166680D01*
X74846285Y-134166680D01*
X76000000Y-135320395D01*
X77153715Y-134166680D01*
X77846285Y-134166680D01*
X79000000Y-135320395D01*
X80153715Y-134166680D01*
X84846285Y-134166680D01*
X86000000Y-135320395D01*
X87153715Y-134166680D01*
X87846285Y-134166680D01*
X89000000Y-135320395D01*
X90153715Y-134166680D01*
X94846285Y-134166680D01*
X96000000Y-135320395D01*
X97153715Y-134166680D01*
X97024467Y-133873877D01*
X96324194Y-133605612D01*
X95574565Y-133625750D01*
X94975533Y-133873877D01*
X94846285Y-134166680D01*
X90153715Y-134166680D01*
X90024467Y-133873877D01*
X89324194Y-133605612D01*
X88574565Y-133625750D01*
X87975533Y-133873877D01*
X87846285Y-134166680D01*
X87153715Y-134166680D01*
X87024467Y-133873877D01*
X86324194Y-133605612D01*
X85574565Y-133625750D01*
X84975533Y-133873877D01*
X84846285Y-134166680D01*
X80153715Y-134166680D01*
X80024467Y-133873877D01*
X79324194Y-133605612D01*
X78574565Y-133625750D01*
X77975533Y-133873877D01*
X77846285Y-134166680D01*
X77153715Y-134166680D01*
X77024467Y-133873877D01*
X76324194Y-133605612D01*
X75574565Y-133625750D01*
X74975533Y-133873877D01*
X74846285Y-134166680D01*
X70153715Y-134166680D01*
X70024467Y-133873877D01*
X69324194Y-133605612D01*
X68574565Y-133625750D01*
X67975533Y-133873877D01*
X67846286Y-134166678D01*
X67732554Y-134052946D01*
X67710000Y-134075500D01*
X67710000Y-131135714D01*
X67782757Y-131311800D01*
X68186077Y-131715824D01*
X68713309Y-131934750D01*
X68971263Y-131934975D01*
X69768142Y-132731853D01*
X69768144Y-132731856D01*
X69890967Y-132813923D01*
X70103922Y-132956215D01*
X70500000Y-133035000D01*
X76005568Y-133035000D01*
X76186077Y-133215824D01*
X76713309Y-133434750D01*
X77284187Y-133435248D01*
X77811800Y-133217243D01*
X77994361Y-133035000D01*
X87005568Y-133035000D01*
X87186077Y-133215824D01*
X87713309Y-133434750D01*
X88284187Y-133435248D01*
X88811800Y-133217243D01*
X88994361Y-133035000D01*
X99005568Y-133035000D01*
X99186077Y-133215824D01*
X99713309Y-133434750D01*
X100284187Y-133435248D01*
X100811800Y-133217243D01*
X101215824Y-132813923D01*
X101434750Y-132286691D01*
X101435050Y-131941661D01*
X105252758Y-131941661D01*
X105464990Y-132455303D01*
X105857630Y-132848629D01*
X106370900Y-133061757D01*
X106926661Y-133062242D01*
X107440303Y-132850010D01*
X107833629Y-132457370D01*
X108046757Y-131944100D01*
X108046973Y-131696698D01*
X108275900Y-131791757D01*
X108831661Y-131792242D01*
X109345303Y-131580010D01*
X109738629Y-131187370D01*
X109824949Y-130979488D01*
X109909990Y-131185303D01*
X110302630Y-131578629D01*
X110815900Y-131791757D01*
X111371661Y-131792242D01*
X111885303Y-131580010D01*
X112278629Y-131187370D01*
X112364949Y-130979488D01*
X112449990Y-131185303D01*
X112842630Y-131578629D01*
X113355900Y-131791757D01*
X113911661Y-131792242D01*
X114425303Y-131580010D01*
X114818629Y-131187370D01*
X114904949Y-130979488D01*
X114989990Y-131185303D01*
X115382630Y-131578629D01*
X115895900Y-131791757D01*
X116451661Y-131792242D01*
X116665445Y-131703908D01*
X116545267Y-131993330D01*
X116544735Y-132603991D01*
X116777932Y-133168371D01*
X117209357Y-133600551D01*
X117773330Y-133834733D01*
X118383991Y-133835265D01*
X118948371Y-133602068D01*
X119380551Y-133170643D01*
X119614733Y-132606670D01*
X119615265Y-131996009D01*
X119592809Y-131941661D01*
X132252758Y-131941661D01*
X132464990Y-132455303D01*
X132857630Y-132848629D01*
X133370900Y-133061757D01*
X133926661Y-133062242D01*
X134440303Y-132850010D01*
X134833629Y-132457370D01*
X135046757Y-131944100D01*
X135046973Y-131696698D01*
X135275900Y-131791757D01*
X135831661Y-131792242D01*
X136345303Y-131580010D01*
X136738629Y-131187370D01*
X136824949Y-130979488D01*
X136909990Y-131185303D01*
X137302630Y-131578629D01*
X137815900Y-131791757D01*
X138371661Y-131792242D01*
X138885303Y-131580010D01*
X139278629Y-131187370D01*
X139364949Y-130979488D01*
X139449990Y-131185303D01*
X139842630Y-131578629D01*
X140355900Y-131791757D01*
X140911661Y-131792242D01*
X141425303Y-131580010D01*
X141818629Y-131187370D01*
X141904949Y-130979488D01*
X141989990Y-131185303D01*
X142382630Y-131578629D01*
X142895900Y-131791757D01*
X143451661Y-131792242D01*
X143665445Y-131703908D01*
X143545267Y-131993330D01*
X143544735Y-132603991D01*
X143777932Y-133168371D01*
X144209357Y-133600551D01*
X144773330Y-133834733D01*
X145383991Y-133835265D01*
X145948371Y-133602068D01*
X146380551Y-133170643D01*
X146614733Y-132606670D01*
X146615265Y-131996009D01*
X146592809Y-131941661D01*
X159252758Y-131941661D01*
X159464990Y-132455303D01*
X159857630Y-132848629D01*
X160370900Y-133061757D01*
X160926661Y-133062242D01*
X161440303Y-132850010D01*
X161833629Y-132457370D01*
X162046757Y-131944100D01*
X162046973Y-131696698D01*
X162275900Y-131791757D01*
X162831661Y-131792242D01*
X163345303Y-131580010D01*
X163738629Y-131187370D01*
X163824949Y-130979488D01*
X163909990Y-131185303D01*
X164302630Y-131578629D01*
X164815900Y-131791757D01*
X165371661Y-131792242D01*
X165885303Y-131580010D01*
X166278629Y-131187370D01*
X166364949Y-130979488D01*
X166449990Y-131185303D01*
X166842630Y-131578629D01*
X167355900Y-131791757D01*
X167911661Y-131792242D01*
X168425303Y-131580010D01*
X168818629Y-131187370D01*
X168904949Y-130979488D01*
X168989990Y-131185303D01*
X169382630Y-131578629D01*
X169895900Y-131791757D01*
X170451661Y-131792242D01*
X170665445Y-131703908D01*
X170545267Y-131993330D01*
X170544735Y-132603991D01*
X170777932Y-133168371D01*
X171209357Y-133600551D01*
X171773330Y-133834733D01*
X172383991Y-133835265D01*
X172948371Y-133602068D01*
X173380551Y-133170643D01*
X173614733Y-132606670D01*
X173615265Y-131996009D01*
X173592809Y-131941661D01*
X186332758Y-131941661D01*
X186544990Y-132455303D01*
X186937630Y-132848629D01*
X187450900Y-133061757D01*
X188006661Y-133062242D01*
X188520303Y-132850010D01*
X188913629Y-132457370D01*
X189126757Y-131944100D01*
X189126973Y-131696698D01*
X189355900Y-131791757D01*
X189911661Y-131792242D01*
X190425303Y-131580010D01*
X190818629Y-131187370D01*
X190904949Y-130979488D01*
X190989990Y-131185303D01*
X191382630Y-131578629D01*
X191895900Y-131791757D01*
X192451661Y-131792242D01*
X192965303Y-131580010D01*
X193358629Y-131187370D01*
X193444949Y-130979488D01*
X193529990Y-131185303D01*
X193922630Y-131578629D01*
X194435900Y-131791757D01*
X194991661Y-131792242D01*
X195505303Y-131580010D01*
X195898629Y-131187370D01*
X195984949Y-130979488D01*
X196069990Y-131185303D01*
X196462630Y-131578629D01*
X196975900Y-131791757D01*
X197531661Y-131792242D01*
X197745445Y-131703908D01*
X197625267Y-131993330D01*
X197624735Y-132603991D01*
X197857932Y-133168371D01*
X198289357Y-133600551D01*
X198853330Y-133834733D01*
X199463991Y-133835265D01*
X200028371Y-133602068D01*
X200460551Y-133170643D01*
X200694733Y-132606670D01*
X200695265Y-131996009D01*
X200462068Y-131431629D01*
X200030643Y-130999449D01*
X199466670Y-130765267D01*
X198856009Y-130764735D01*
X198564026Y-130885380D01*
X198651757Y-130674100D01*
X198652242Y-130118339D01*
X198440010Y-129604697D01*
X198047370Y-129211371D01*
X197534100Y-128998243D01*
X196978339Y-128997758D01*
X196464697Y-129209990D01*
X196071371Y-129602630D01*
X195985051Y-129810512D01*
X195900010Y-129604697D01*
X195507370Y-129211371D01*
X194994100Y-128998243D01*
X194438339Y-128997758D01*
X193924697Y-129209990D01*
X193531371Y-129602630D01*
X193445051Y-129810512D01*
X193360010Y-129604697D01*
X192967370Y-129211371D01*
X192454100Y-128998243D01*
X191898339Y-128997758D01*
X191384697Y-129209990D01*
X190991371Y-129602630D01*
X190905051Y-129810512D01*
X190820010Y-129604697D01*
X190427370Y-129211371D01*
X189914100Y-128998243D01*
X189358339Y-128997758D01*
X188844697Y-129209990D01*
X188451371Y-129602630D01*
X188238243Y-130115900D01*
X188238027Y-130363302D01*
X188009100Y-130268243D01*
X187453339Y-130267758D01*
X186939697Y-130479990D01*
X186546371Y-130872630D01*
X186333243Y-131385900D01*
X186332758Y-131941661D01*
X173592809Y-131941661D01*
X173382068Y-131431629D01*
X172950643Y-130999449D01*
X172386670Y-130765267D01*
X171776009Y-130764735D01*
X171484026Y-130885380D01*
X171571757Y-130674100D01*
X171572242Y-130118339D01*
X171360010Y-129604697D01*
X170967370Y-129211371D01*
X170454100Y-128998243D01*
X169898339Y-128997758D01*
X169384697Y-129209990D01*
X168991371Y-129602630D01*
X168905051Y-129810512D01*
X168820010Y-129604697D01*
X168427370Y-129211371D01*
X167914100Y-128998243D01*
X167358339Y-128997758D01*
X166844697Y-129209990D01*
X166451371Y-129602630D01*
X166365051Y-129810512D01*
X166280010Y-129604697D01*
X165887370Y-129211371D01*
X165374100Y-128998243D01*
X164818339Y-128997758D01*
X164304697Y-129209990D01*
X163911371Y-129602630D01*
X163825051Y-129810512D01*
X163740010Y-129604697D01*
X163347370Y-129211371D01*
X162834100Y-128998243D01*
X162278339Y-128997758D01*
X161764697Y-129209990D01*
X161371371Y-129602630D01*
X161158243Y-130115900D01*
X161158027Y-130363302D01*
X160929100Y-130268243D01*
X160373339Y-130267758D01*
X159859697Y-130479990D01*
X159466371Y-130872630D01*
X159253243Y-131385900D01*
X159252758Y-131941661D01*
X146592809Y-131941661D01*
X146382068Y-131431629D01*
X145950643Y-130999449D01*
X145386670Y-130765267D01*
X144776009Y-130764735D01*
X144484026Y-130885380D01*
X144571757Y-130674100D01*
X144572242Y-130118339D01*
X144360010Y-129604697D01*
X143967370Y-129211371D01*
X143454100Y-128998243D01*
X142898339Y-128997758D01*
X142384697Y-129209990D01*
X141991371Y-129602630D01*
X141905051Y-129810512D01*
X141820010Y-129604697D01*
X141427370Y-129211371D01*
X140914100Y-128998243D01*
X140358339Y-128997758D01*
X139844697Y-129209990D01*
X139451371Y-129602630D01*
X139365051Y-129810512D01*
X139280010Y-129604697D01*
X138887370Y-129211371D01*
X138374100Y-128998243D01*
X137818339Y-128997758D01*
X137304697Y-129209990D01*
X136911371Y-129602630D01*
X136825051Y-129810512D01*
X136740010Y-129604697D01*
X136347370Y-129211371D01*
X135834100Y-128998243D01*
X135278339Y-128997758D01*
X134764697Y-129209990D01*
X134371371Y-129602630D01*
X134158243Y-130115900D01*
X134158027Y-130363302D01*
X133929100Y-130268243D01*
X133373339Y-130267758D01*
X132859697Y-130479990D01*
X132466371Y-130872630D01*
X132253243Y-131385900D01*
X132252758Y-131941661D01*
X119592809Y-131941661D01*
X119382068Y-131431629D01*
X118950643Y-130999449D01*
X118386670Y-130765267D01*
X117776009Y-130764735D01*
X117484026Y-130885380D01*
X117571757Y-130674100D01*
X117572242Y-130118339D01*
X117360010Y-129604697D01*
X116967370Y-129211371D01*
X116454100Y-128998243D01*
X115898339Y-128997758D01*
X115384697Y-129209990D01*
X114991371Y-129602630D01*
X114905051Y-129810512D01*
X114820010Y-129604697D01*
X114427370Y-129211371D01*
X113914100Y-128998243D01*
X113358339Y-128997758D01*
X112844697Y-129209990D01*
X112451371Y-129602630D01*
X112365051Y-129810512D01*
X112280010Y-129604697D01*
X111887370Y-129211371D01*
X111374100Y-128998243D01*
X110818339Y-128997758D01*
X110304697Y-129209990D01*
X109911371Y-129602630D01*
X109825051Y-129810512D01*
X109740010Y-129604697D01*
X109347370Y-129211371D01*
X108834100Y-128998243D01*
X108278339Y-128997758D01*
X107764697Y-129209990D01*
X107371371Y-129602630D01*
X107158243Y-130115900D01*
X107158027Y-130363302D01*
X106929100Y-130268243D01*
X106373339Y-130267758D01*
X105859697Y-130479990D01*
X105466371Y-130872630D01*
X105253243Y-131385900D01*
X105252758Y-131941661D01*
X101435050Y-131941661D01*
X101435248Y-131715813D01*
X101217243Y-131188200D01*
X100813923Y-130784176D01*
X100286691Y-130565250D01*
X99715813Y-130564752D01*
X99188200Y-130782757D01*
X99005639Y-130965000D01*
X88994432Y-130965000D01*
X88813923Y-130784176D01*
X88286691Y-130565250D01*
X87715813Y-130564752D01*
X87188200Y-130782757D01*
X87005639Y-130965000D01*
X77994432Y-130965000D01*
X77813923Y-130784176D01*
X77286691Y-130565250D01*
X76715813Y-130564752D01*
X76188200Y-130782757D01*
X76005639Y-130965000D01*
X70928711Y-130965000D01*
X70435025Y-130471314D01*
X70435248Y-130215813D01*
X70217243Y-129688200D01*
X69813923Y-129284176D01*
X69286691Y-129065250D01*
X68715813Y-129064752D01*
X68188200Y-129282757D01*
X67784176Y-129686077D01*
X67710000Y-129864713D01*
X67710000Y-125784187D01*
X104564752Y-125784187D01*
X104782757Y-126311800D01*
X105186077Y-126715824D01*
X105713309Y-126934750D01*
X106284187Y-126935248D01*
X106811800Y-126717243D01*
X107094536Y-126435000D01*
X108405742Y-126435000D01*
X108686077Y-126715824D01*
X108899858Y-126804594D01*
X108641371Y-127062630D01*
X108428243Y-127575900D01*
X108427758Y-128131661D01*
X108639990Y-128645303D01*
X109032630Y-129038629D01*
X109545900Y-129251757D01*
X110101661Y-129252242D01*
X110615303Y-129040010D01*
X111008629Y-128647370D01*
X111094949Y-128439488D01*
X111179990Y-128645303D01*
X111572630Y-129038629D01*
X112085900Y-129251757D01*
X112641661Y-129252242D01*
X113155303Y-129040010D01*
X113548629Y-128647370D01*
X113634949Y-128439488D01*
X113719990Y-128645303D01*
X114112630Y-129038629D01*
X114625900Y-129251757D01*
X115181661Y-129252242D01*
X115695303Y-129040010D01*
X116088629Y-128647370D01*
X116174949Y-128439488D01*
X116259990Y-128645303D01*
X116652630Y-129038629D01*
X117165900Y-129251757D01*
X117721661Y-129252242D01*
X118235303Y-129040010D01*
X118628629Y-128647370D01*
X118671829Y-128543333D01*
X118782757Y-128811800D01*
X119186077Y-129215824D01*
X119713309Y-129434750D01*
X120284187Y-129435248D01*
X120811800Y-129217243D01*
X120999974Y-129029397D01*
X121186077Y-129215824D01*
X121713309Y-129434750D01*
X122284187Y-129435248D01*
X122811800Y-129217243D01*
X123215824Y-128813923D01*
X123434750Y-128286691D01*
X123435248Y-127715813D01*
X123217243Y-127188200D01*
X122935000Y-126905464D01*
X122935000Y-116400000D01*
X131965000Y-116400000D01*
X131965000Y-121531370D01*
X132036173Y-121889179D01*
X132238855Y-122192515D01*
X136517033Y-126470693D01*
X136034697Y-126669990D01*
X135641371Y-127062630D01*
X135428243Y-127575900D01*
X135427758Y-128131661D01*
X135639990Y-128645303D01*
X136032630Y-129038629D01*
X136545900Y-129251757D01*
X137101661Y-129252242D01*
X137615303Y-129040010D01*
X138008629Y-128647370D01*
X138094949Y-128439488D01*
X138179990Y-128645303D01*
X138572630Y-129038629D01*
X139085900Y-129251757D01*
X139641661Y-129252242D01*
X140155303Y-129040010D01*
X140548629Y-128647370D01*
X140634949Y-128439488D01*
X140719990Y-128645303D01*
X141112630Y-129038629D01*
X141625900Y-129251757D01*
X142181661Y-129252242D01*
X142695303Y-129040010D01*
X143088629Y-128647370D01*
X143174949Y-128439488D01*
X143259990Y-128645303D01*
X143652630Y-129038629D01*
X144165900Y-129251757D01*
X144721661Y-129252242D01*
X145235303Y-129040010D01*
X145373176Y-128902377D01*
X145686077Y-129215824D01*
X146213309Y-129434750D01*
X146784187Y-129435248D01*
X147264881Y-129236630D01*
X147264752Y-129384187D01*
X147482757Y-129911800D01*
X147886077Y-130315824D01*
X148413309Y-130534750D01*
X148984187Y-130535248D01*
X149511800Y-130317243D01*
X149915824Y-129913923D01*
X150134750Y-129386691D01*
X150135098Y-128987192D01*
X150161144Y-128961146D01*
X150363826Y-128657810D01*
X150434999Y-128300001D01*
X150434999Y-121494433D01*
X150615824Y-121313923D01*
X150834750Y-120786691D01*
X150835248Y-120215813D01*
X150617243Y-119688200D01*
X150213923Y-119284176D01*
X149686691Y-119065250D01*
X149115813Y-119064752D01*
X148835148Y-119180720D01*
X148835248Y-119065813D01*
X148617243Y-118538200D01*
X148335000Y-118255464D01*
X148335000Y-117400000D01*
X157665000Y-117400000D01*
X157665000Y-120431370D01*
X157736173Y-120789179D01*
X157938855Y-121092515D01*
X163375510Y-126529170D01*
X163034697Y-126669990D01*
X162641371Y-127062630D01*
X162428243Y-127575900D01*
X162427758Y-128131661D01*
X162639990Y-128645303D01*
X163032630Y-129038629D01*
X163545900Y-129251757D01*
X164101661Y-129252242D01*
X164615303Y-129040010D01*
X165008629Y-128647370D01*
X165094949Y-128439488D01*
X165179990Y-128645303D01*
X165572630Y-129038629D01*
X166085900Y-129251757D01*
X166641661Y-129252242D01*
X167155303Y-129040010D01*
X167548629Y-128647370D01*
X167634949Y-128439488D01*
X167719990Y-128645303D01*
X168112630Y-129038629D01*
X168625900Y-129251757D01*
X169181661Y-129252242D01*
X169695303Y-129040010D01*
X170088629Y-128647370D01*
X170174949Y-128439488D01*
X170259990Y-128645303D01*
X170652630Y-129038629D01*
X171165900Y-129251757D01*
X171721661Y-129252242D01*
X172235303Y-129040010D01*
X172477254Y-128798481D01*
X172482757Y-128811800D01*
X172886077Y-129215824D01*
X173413309Y-129434750D01*
X173984187Y-129435248D01*
X174171289Y-129357939D01*
X174065250Y-129613309D01*
X174064752Y-130184187D01*
X174282757Y-130711800D01*
X174686077Y-131115824D01*
X175213309Y-131334750D01*
X175784187Y-131335248D01*
X176311800Y-131117243D01*
X176715824Y-130713923D01*
X176934750Y-130186691D01*
X176935248Y-129615813D01*
X176717243Y-129088200D01*
X176435000Y-128805464D01*
X176435000Y-126635205D01*
X176484187Y-126635248D01*
X177011800Y-126417243D01*
X177415824Y-126013923D01*
X177634750Y-125486691D01*
X177635248Y-124915813D01*
X177417243Y-124388200D01*
X177013923Y-123984176D01*
X176486691Y-123765250D01*
X175915813Y-123764752D01*
X175388200Y-123982757D01*
X174984176Y-124386077D01*
X174765250Y-124913309D01*
X174764869Y-125349583D01*
X174636173Y-125542191D01*
X174565000Y-125900000D01*
X174565000Y-126835342D01*
X174513923Y-126784176D01*
X173986691Y-126565250D01*
X173587192Y-126564902D01*
X172135000Y-125112710D01*
X172135000Y-120414221D01*
X172436077Y-120715824D01*
X172963309Y-120934750D01*
X173534187Y-120935248D01*
X174061800Y-120717243D01*
X174465824Y-120313923D01*
X174684750Y-119786691D01*
X174685248Y-119215813D01*
X174467243Y-118688200D01*
X174185000Y-118405464D01*
X174185000Y-115700000D01*
X185265000Y-115700000D01*
X185265000Y-119800000D01*
X185336173Y-120157809D01*
X185538855Y-120461145D01*
X191738855Y-126661145D01*
X192042191Y-126863827D01*
X192282389Y-126911606D01*
X192347410Y-126976741D01*
X192261371Y-127062630D01*
X192175051Y-127270512D01*
X192090010Y-127064697D01*
X191697370Y-126671371D01*
X191184100Y-126458243D01*
X190628339Y-126457758D01*
X190114697Y-126669990D01*
X189721371Y-127062630D01*
X189508243Y-127575900D01*
X189507758Y-128131661D01*
X189719990Y-128645303D01*
X190112630Y-129038629D01*
X190625900Y-129251757D01*
X191181661Y-129252242D01*
X191695303Y-129040010D01*
X192088629Y-128647370D01*
X192174949Y-128439488D01*
X192259990Y-128645303D01*
X192652630Y-129038629D01*
X193165900Y-129251757D01*
X193721661Y-129252242D01*
X194235303Y-129040010D01*
X194628629Y-128647370D01*
X194714949Y-128439488D01*
X194799990Y-128645303D01*
X195192630Y-129038629D01*
X195705900Y-129251757D01*
X196261661Y-129252242D01*
X196775303Y-129040010D01*
X197168629Y-128647370D01*
X197254949Y-128439488D01*
X197339990Y-128645303D01*
X197732630Y-129038629D01*
X198245900Y-129251757D01*
X198801661Y-129252242D01*
X199315303Y-129040010D01*
X199413194Y-128942290D01*
X199786077Y-129315824D01*
X200313309Y-129534750D01*
X200884187Y-129535248D01*
X201411800Y-129317243D01*
X201815824Y-128913923D01*
X202034750Y-128386691D01*
X202035248Y-127815813D01*
X201817243Y-127288200D01*
X201413923Y-126884176D01*
X200886691Y-126665250D01*
X200487192Y-126664902D01*
X199735000Y-125912710D01*
X199735000Y-118064658D01*
X199786077Y-118115824D01*
X200313309Y-118334750D01*
X200884187Y-118335248D01*
X201162322Y-118220325D01*
X201165000Y-118226806D01*
X201165000Y-122605742D01*
X200884176Y-122886077D01*
X200665250Y-123413309D01*
X200664752Y-123984187D01*
X200882757Y-124511800D01*
X201286077Y-124915824D01*
X201813309Y-125134750D01*
X202384187Y-125135248D01*
X202911800Y-124917243D01*
X203315824Y-124513923D01*
X203534750Y-123986691D01*
X203535248Y-123415813D01*
X203317243Y-122888200D01*
X203035000Y-122605464D01*
X203035000Y-121984187D01*
X212164752Y-121984187D01*
X212382757Y-122511800D01*
X212786077Y-122915824D01*
X213313309Y-123134750D01*
X213429720Y-123134852D01*
X216797434Y-126502566D01*
X217165654Y-126748603D01*
X217600000Y-126835000D01*
X228605394Y-126835000D01*
X228686077Y-126915824D01*
X229213309Y-127134750D01*
X229784187Y-127135248D01*
X230311800Y-126917243D01*
X230715824Y-126513923D01*
X230823031Y-126255740D01*
X231013309Y-126334750D01*
X231412808Y-126335098D01*
X232565000Y-127487290D01*
X232565000Y-130805742D01*
X232284176Y-131086077D01*
X232065250Y-131613309D01*
X232064752Y-132184187D01*
X232282757Y-132711800D01*
X232686077Y-133115824D01*
X233213309Y-133334750D01*
X233784187Y-133335248D01*
X234311800Y-133117243D01*
X234715824Y-132713923D01*
X234934750Y-132186691D01*
X234935248Y-131615813D01*
X234717243Y-131088200D01*
X234435000Y-130805464D01*
X234435000Y-127100000D01*
X234363827Y-126742191D01*
X234161145Y-126438855D01*
X232734902Y-125012612D01*
X232735248Y-124615813D01*
X232517243Y-124088200D01*
X232113923Y-123684176D01*
X231586691Y-123465250D01*
X231015813Y-123464752D01*
X230488200Y-123682757D01*
X230084176Y-124086077D01*
X229976969Y-124344260D01*
X229786691Y-124265250D01*
X229215813Y-124264752D01*
X228688200Y-124482757D01*
X228605813Y-124565000D01*
X218070132Y-124565000D01*
X215035148Y-121530016D01*
X215035248Y-121415813D01*
X214817243Y-120888200D01*
X214413923Y-120484176D01*
X213886691Y-120265250D01*
X213315813Y-120264752D01*
X212788200Y-120482757D01*
X212384176Y-120886077D01*
X212165250Y-121413309D01*
X212164752Y-121984187D01*
X203035000Y-121984187D01*
X203035000Y-119031614D01*
X203311800Y-118917243D01*
X203715824Y-118513923D01*
X203934750Y-117986691D01*
X203935248Y-117415813D01*
X203717243Y-116888200D01*
X203313923Y-116484176D01*
X202786691Y-116265250D01*
X202215813Y-116264752D01*
X201937678Y-116379675D01*
X201817243Y-116088200D01*
X201435000Y-115705290D01*
X201435000Y-110442619D01*
X267764613Y-110442619D01*
X268104155Y-111264372D01*
X268732321Y-111893636D01*
X269553481Y-112234611D01*
X270442619Y-112235387D01*
X271264372Y-111895845D01*
X271893636Y-111267679D01*
X272234611Y-110446519D01*
X272235387Y-109557381D01*
X271895845Y-108735628D01*
X271267679Y-108106364D01*
X270446519Y-107765389D01*
X269557381Y-107764613D01*
X268735628Y-108104155D01*
X268106364Y-108732321D01*
X267765389Y-109553481D01*
X267764613Y-110442619D01*
X201435000Y-110442619D01*
X201435000Y-107094258D01*
X201715824Y-106813923D01*
X201934750Y-106286691D01*
X201935248Y-105715813D01*
X201717243Y-105188200D01*
X201313923Y-104784176D01*
X200786691Y-104565250D01*
X200215813Y-104564752D01*
X199688200Y-104782757D01*
X199284176Y-105186077D01*
X199065250Y-105713309D01*
X199064752Y-106284187D01*
X199282757Y-106811800D01*
X199565000Y-107094536D01*
X199565000Y-113753151D01*
X199491164Y-113679186D01*
X198963932Y-113460260D01*
X198393054Y-113459762D01*
X197865441Y-113677767D01*
X197461417Y-114081087D01*
X197242491Y-114608319D01*
X197242186Y-114957723D01*
X196034909Y-116165000D01*
X190294258Y-116165000D01*
X190013923Y-115884176D01*
X189536399Y-115685891D01*
X193487290Y-111735000D01*
X194031370Y-111735000D01*
X194389179Y-111663827D01*
X194692515Y-111461145D01*
X197061145Y-109092515D01*
X197263827Y-108789179D01*
X197335000Y-108431370D01*
X197335000Y-108394258D01*
X197615824Y-108113923D01*
X197834750Y-107586691D01*
X197835248Y-107015813D01*
X197617243Y-106488200D01*
X197213923Y-106084176D01*
X196686691Y-105865250D01*
X196115813Y-105864752D01*
X195588200Y-106082757D01*
X195184176Y-106486077D01*
X195041552Y-106829554D01*
X194886691Y-106765250D01*
X194315813Y-106764752D01*
X193788200Y-106982757D01*
X193384176Y-107386077D01*
X193165250Y-107913309D01*
X193164902Y-108312808D01*
X192812710Y-108665000D01*
X192300000Y-108665000D01*
X191942191Y-108736173D01*
X191638855Y-108938855D01*
X185538855Y-115038855D01*
X185336173Y-115342191D01*
X185265000Y-115700000D01*
X174185000Y-115700000D01*
X174185000Y-110544345D01*
X174415824Y-110313923D01*
X174634750Y-109786691D01*
X174635248Y-109215813D01*
X174417243Y-108688200D01*
X174013923Y-108284176D01*
X173486691Y-108065250D01*
X172915813Y-108064752D01*
X172388200Y-108282757D01*
X171984176Y-108686077D01*
X171765250Y-109213309D01*
X171764752Y-109784187D01*
X171982757Y-110311800D01*
X172315000Y-110644623D01*
X172315000Y-115685953D01*
X171913923Y-115284176D01*
X171386691Y-115065250D01*
X170815813Y-115064752D01*
X170288200Y-115282757D01*
X169884176Y-115686077D01*
X169665250Y-116213309D01*
X169664902Y-116612808D01*
X168112710Y-118165000D01*
X162594252Y-118165000D01*
X162313917Y-117884176D01*
X161787904Y-117665756D01*
X169211145Y-110242515D01*
X169413827Y-109939179D01*
X169485000Y-109581370D01*
X169485000Y-109544258D01*
X169765824Y-109263923D01*
X169984750Y-108736691D01*
X169985248Y-108165813D01*
X169767243Y-107638200D01*
X169363923Y-107234176D01*
X168836691Y-107015250D01*
X168265813Y-107014752D01*
X167738200Y-107232757D01*
X167334176Y-107636077D01*
X167255033Y-107826675D01*
X166986691Y-107715250D01*
X166415813Y-107714752D01*
X165888200Y-107932757D01*
X165484176Y-108336077D01*
X165265250Y-108863309D01*
X165264771Y-109412939D01*
X157938855Y-116738855D01*
X157736173Y-117042191D01*
X157665000Y-117400000D01*
X148335000Y-117400000D01*
X148335000Y-116150000D01*
X148263827Y-115792191D01*
X148061145Y-115488855D01*
X146334902Y-113762612D01*
X146335248Y-113365813D01*
X146117243Y-112838200D01*
X145713923Y-112434176D01*
X145186691Y-112215250D01*
X144615813Y-112214752D01*
X144088200Y-112432757D01*
X143684176Y-112836077D01*
X143465250Y-113363309D01*
X143464752Y-113934187D01*
X143682757Y-114461800D01*
X144086077Y-114865824D01*
X144613309Y-115084750D01*
X145012808Y-115085098D01*
X145610440Y-115682730D01*
X145086691Y-115465250D01*
X144515813Y-115464752D01*
X143988200Y-115682757D01*
X143705464Y-115965000D01*
X136157290Y-115965000D01*
X140037290Y-112085000D01*
X140500000Y-112085000D01*
X140857809Y-112013827D01*
X141161145Y-111811145D01*
X141787388Y-111184902D01*
X142184187Y-111185248D01*
X142711800Y-110967243D01*
X143115824Y-110563923D01*
X143334750Y-110036691D01*
X143335248Y-109465813D01*
X143117243Y-108938200D01*
X142713923Y-108534176D01*
X142186691Y-108315250D01*
X141615813Y-108314752D01*
X141088200Y-108532757D01*
X140873732Y-108746851D01*
X140663934Y-108536687D01*
X140136702Y-108317761D01*
X139565824Y-108317263D01*
X139038211Y-108535268D01*
X138634187Y-108938588D01*
X138415261Y-109465820D01*
X138415177Y-109562533D01*
X132238855Y-115738855D01*
X132036173Y-116042191D01*
X131965000Y-116400000D01*
X122935000Y-116400000D01*
X122935000Y-116000010D01*
X122863827Y-115642201D01*
X122661145Y-115338865D01*
X122184892Y-114862612D01*
X122185238Y-114465813D01*
X121967233Y-113938200D01*
X121563913Y-113534176D01*
X121036681Y-113315250D01*
X120465803Y-113314752D01*
X120234108Y-113410486D01*
X120411887Y-113233017D01*
X120630813Y-112705785D01*
X120631311Y-112134907D01*
X120413306Y-111607294D01*
X120009986Y-111203270D01*
X119482754Y-110984344D01*
X118911876Y-110983846D01*
X118384263Y-111201851D01*
X117980239Y-111605171D01*
X117761313Y-112132403D01*
X117760965Y-112531902D01*
X115685000Y-114607867D01*
X115685000Y-109844258D01*
X115965824Y-109563923D01*
X116184750Y-109036691D01*
X116185248Y-108465813D01*
X115967243Y-107938200D01*
X115563923Y-107534176D01*
X115036691Y-107315250D01*
X114465813Y-107314752D01*
X113938200Y-107532757D01*
X113534176Y-107936077D01*
X113315250Y-108463309D01*
X113314752Y-109034187D01*
X113532757Y-109561800D01*
X113815000Y-109844536D01*
X113815000Y-114362710D01*
X109338855Y-118838855D01*
X109136173Y-119142191D01*
X109065000Y-119500000D01*
X109065000Y-122155742D01*
X108784176Y-122436077D01*
X108565250Y-122963309D01*
X108564752Y-123534187D01*
X108782757Y-124061800D01*
X108911305Y-124190572D01*
X108688200Y-124282757D01*
X108405464Y-124565000D01*
X107094258Y-124565000D01*
X106813923Y-124284176D01*
X106286691Y-124065250D01*
X105715813Y-124064752D01*
X105188200Y-124282757D01*
X104784176Y-124686077D01*
X104565250Y-125213309D01*
X104564752Y-125784187D01*
X67710000Y-125784187D01*
X67710000Y-120000000D01*
X69312560Y-120000000D01*
X69312560Y-122000000D01*
X69361843Y-122247765D01*
X69502191Y-122457809D01*
X69712235Y-122598157D01*
X69960000Y-122647440D01*
X71960000Y-122647440D01*
X72207765Y-122598157D01*
X72417809Y-122457809D01*
X72558157Y-122247765D01*
X72559600Y-122240509D01*
X72625736Y-122419387D01*
X73235461Y-122645908D01*
X73885460Y-122621856D01*
X74374264Y-122419387D01*
X74472927Y-122152532D01*
X73500000Y-121179605D01*
X73485858Y-121193748D01*
X73306253Y-121014143D01*
X73320395Y-121000000D01*
X73679605Y-121000000D01*
X74652532Y-121972927D01*
X74919387Y-121874264D01*
X75145908Y-121264539D01*
X75121856Y-120614540D01*
X74919387Y-120125736D01*
X74652532Y-120027073D01*
X73679605Y-121000000D01*
X73320395Y-121000000D01*
X73306253Y-120985858D01*
X73485858Y-120806253D01*
X73500000Y-120820395D01*
X74320395Y-120000000D01*
X79312560Y-120000000D01*
X79312560Y-122000000D01*
X79361843Y-122247765D01*
X79502191Y-122457809D01*
X79712235Y-122598157D01*
X79960000Y-122647440D01*
X81960000Y-122647440D01*
X82207765Y-122598157D01*
X82417809Y-122457809D01*
X82558157Y-122247765D01*
X82559600Y-122240509D01*
X82625736Y-122419387D01*
X83235461Y-122645908D01*
X83885460Y-122621856D01*
X84374264Y-122419387D01*
X84472927Y-122152532D01*
X83500000Y-121179605D01*
X83485858Y-121193748D01*
X83306253Y-121014143D01*
X83320395Y-121000000D01*
X83679605Y-121000000D01*
X84652532Y-121972927D01*
X84919387Y-121874264D01*
X85145908Y-121264539D01*
X85121856Y-120614540D01*
X84919387Y-120125736D01*
X84652532Y-120027073D01*
X83679605Y-121000000D01*
X83320395Y-121000000D01*
X83306253Y-120985858D01*
X83485858Y-120806253D01*
X83500000Y-120820395D01*
X84320395Y-120000000D01*
X88312560Y-120000000D01*
X88312560Y-122000000D01*
X88361843Y-122247765D01*
X88502191Y-122457809D01*
X88712235Y-122598157D01*
X88960000Y-122647440D01*
X90960000Y-122647440D01*
X91207765Y-122598157D01*
X91417809Y-122457809D01*
X91558157Y-122247765D01*
X91559600Y-122240509D01*
X91625736Y-122419387D01*
X92235461Y-122645908D01*
X92885460Y-122621856D01*
X93374264Y-122419387D01*
X93472927Y-122152532D01*
X92500000Y-121179605D01*
X92485858Y-121193748D01*
X92306253Y-121014143D01*
X92320395Y-121000000D01*
X92679605Y-121000000D01*
X93652532Y-121972927D01*
X93919387Y-121874264D01*
X94145908Y-121264539D01*
X94121856Y-120614540D01*
X93919387Y-120125736D01*
X93652532Y-120027073D01*
X92679605Y-121000000D01*
X92320395Y-121000000D01*
X92306253Y-120985858D01*
X92485858Y-120806253D01*
X92500000Y-120820395D01*
X93472927Y-119847468D01*
X93374264Y-119580613D01*
X92764539Y-119354092D01*
X92114540Y-119378144D01*
X91625736Y-119580613D01*
X91559600Y-119759491D01*
X91558157Y-119752235D01*
X91417809Y-119542191D01*
X91207765Y-119401843D01*
X90960000Y-119352560D01*
X88960000Y-119352560D01*
X88712235Y-119401843D01*
X88502191Y-119542191D01*
X88361843Y-119752235D01*
X88312560Y-120000000D01*
X84320395Y-120000000D01*
X84472927Y-119847468D01*
X84374264Y-119580613D01*
X83764539Y-119354092D01*
X83114540Y-119378144D01*
X82625736Y-119580613D01*
X82559600Y-119759491D01*
X82558157Y-119752235D01*
X82417809Y-119542191D01*
X82207765Y-119401843D01*
X81960000Y-119352560D01*
X79960000Y-119352560D01*
X79712235Y-119401843D01*
X79502191Y-119542191D01*
X79361843Y-119752235D01*
X79312560Y-120000000D01*
X74320395Y-120000000D01*
X74472927Y-119847468D01*
X74374264Y-119580613D01*
X73764539Y-119354092D01*
X73114540Y-119378144D01*
X72625736Y-119580613D01*
X72559600Y-119759491D01*
X72558157Y-119752235D01*
X72417809Y-119542191D01*
X72207765Y-119401843D01*
X71960000Y-119352560D01*
X69960000Y-119352560D01*
X69712235Y-119401843D01*
X69502191Y-119542191D01*
X69361843Y-119752235D01*
X69312560Y-120000000D01*
X67710000Y-120000000D01*
X67710000Y-110442619D01*
X72764613Y-110442619D01*
X73104155Y-111264372D01*
X73732321Y-111893636D01*
X74553481Y-112234611D01*
X75442619Y-112235387D01*
X76264372Y-111895845D01*
X76893636Y-111267679D01*
X77234611Y-110446519D01*
X77235387Y-109557381D01*
X76895845Y-108735628D01*
X76267679Y-108106364D01*
X75446519Y-107765389D01*
X74557381Y-107764613D01*
X73735628Y-108104155D01*
X73106364Y-108732321D01*
X72765389Y-109553481D01*
X72764613Y-110442619D01*
X67710000Y-110442619D01*
X67710000Y-102572407D01*
X187205683Y-102572407D01*
X187545062Y-103393766D01*
X188172928Y-104022729D01*
X188993694Y-104363541D01*
X189882407Y-104364317D01*
X190703766Y-104024938D01*
X191332729Y-103397072D01*
X191673541Y-102576306D01*
X191674255Y-101758193D01*
X202013000Y-101758193D01*
X202013000Y-102501807D01*
X202119340Y-103036416D01*
X202422172Y-103489635D01*
X202875391Y-103792467D01*
X203410000Y-103898807D01*
X203944609Y-103792467D01*
X204397828Y-103489635D01*
X204680000Y-103067336D01*
X204962172Y-103489635D01*
X205415391Y-103792467D01*
X205950000Y-103898807D01*
X206484609Y-103792467D01*
X206937828Y-103489635D01*
X207220000Y-103067336D01*
X207502172Y-103489635D01*
X207955391Y-103792467D01*
X208490000Y-103898807D01*
X209024609Y-103792467D01*
X209477828Y-103489635D01*
X209760000Y-103067336D01*
X210042172Y-103489635D01*
X210495391Y-103792467D01*
X211030000Y-103898807D01*
X211564609Y-103792467D01*
X212017828Y-103489635D01*
X212300000Y-103067336D01*
X212582172Y-103489635D01*
X213035391Y-103792467D01*
X213570000Y-103898807D01*
X214104609Y-103792467D01*
X214557828Y-103489635D01*
X214848647Y-103054394D01*
X214867941Y-103119761D01*
X215211974Y-103545450D01*
X215692723Y-103807080D01*
X215766930Y-103822040D01*
X215983000Y-103699540D01*
X215983000Y-102257000D01*
X216237000Y-102257000D01*
X216237000Y-103699540D01*
X216453070Y-103822040D01*
X216527277Y-103807080D01*
X217008026Y-103545450D01*
X217352059Y-103119761D01*
X217380000Y-103025097D01*
X217407941Y-103119761D01*
X217751974Y-103545450D01*
X218232723Y-103807080D01*
X218306930Y-103822040D01*
X218523000Y-103699540D01*
X218523000Y-102257000D01*
X216237000Y-102257000D01*
X215983000Y-102257000D01*
X215963000Y-102257000D01*
X215963000Y-102003000D01*
X215983000Y-102003000D01*
X215983000Y-100560460D01*
X216237000Y-100560460D01*
X216237000Y-102003000D01*
X218523000Y-102003000D01*
X218523000Y-100560460D01*
X218777000Y-100560460D01*
X218777000Y-102003000D01*
X218797000Y-102003000D01*
X218797000Y-102257000D01*
X218777000Y-102257000D01*
X218777000Y-103699540D01*
X218993070Y-103822040D01*
X219067277Y-103807080D01*
X219548026Y-103545450D01*
X219892059Y-103119761D01*
X219911353Y-103054394D01*
X220202172Y-103489635D01*
X220655391Y-103792467D01*
X221190000Y-103898807D01*
X221724609Y-103792467D01*
X222177828Y-103489635D01*
X222480660Y-103036416D01*
X222587000Y-102501807D01*
X222587000Y-101758193D01*
X224873000Y-101758193D01*
X224873000Y-102501807D01*
X224979340Y-103036416D01*
X225282172Y-103489635D01*
X225735391Y-103792467D01*
X226270000Y-103898807D01*
X226804609Y-103792467D01*
X227257828Y-103489635D01*
X227540000Y-103067336D01*
X227822172Y-103489635D01*
X228275391Y-103792467D01*
X228810000Y-103898807D01*
X229344609Y-103792467D01*
X229797828Y-103489635D01*
X230080000Y-103067336D01*
X230362172Y-103489635D01*
X230815391Y-103792467D01*
X231350000Y-103898807D01*
X231884609Y-103792467D01*
X232337828Y-103489635D01*
X232620000Y-103067336D01*
X232902172Y-103489635D01*
X233355391Y-103792467D01*
X233890000Y-103898807D01*
X234424609Y-103792467D01*
X234877828Y-103489635D01*
X235160000Y-103067336D01*
X235442172Y-103489635D01*
X235895391Y-103792467D01*
X236430000Y-103898807D01*
X236964609Y-103792467D01*
X237417828Y-103489635D01*
X237700000Y-103067336D01*
X237982172Y-103489635D01*
X238435391Y-103792467D01*
X238970000Y-103898807D01*
X239504609Y-103792467D01*
X239957828Y-103489635D01*
X240240000Y-103067336D01*
X240522172Y-103489635D01*
X240975391Y-103792467D01*
X241510000Y-103898807D01*
X242044609Y-103792467D01*
X242497828Y-103489635D01*
X242780000Y-103067336D01*
X243062172Y-103489635D01*
X243515391Y-103792467D01*
X244050000Y-103898807D01*
X244584609Y-103792467D01*
X245037828Y-103489635D01*
X245340660Y-103036416D01*
X245447000Y-102501807D01*
X245447000Y-101758193D01*
X247733000Y-101758193D01*
X247733000Y-102501807D01*
X247839340Y-103036416D01*
X248142172Y-103489635D01*
X248595391Y-103792467D01*
X249130000Y-103898807D01*
X249664609Y-103792467D01*
X250117828Y-103489635D01*
X250400000Y-103067336D01*
X250682172Y-103489635D01*
X251135391Y-103792467D01*
X251670000Y-103898807D01*
X252204609Y-103792467D01*
X252657828Y-103489635D01*
X252940000Y-103067336D01*
X253222172Y-103489635D01*
X253675391Y-103792467D01*
X254210000Y-103898807D01*
X254744609Y-103792467D01*
X255197828Y-103489635D01*
X255480433Y-103066688D01*
X255762172Y-103488340D01*
X256215391Y-103791172D01*
X256750000Y-103897512D01*
X257284609Y-103791172D01*
X257737828Y-103488340D01*
X258020000Y-103066041D01*
X258302172Y-103488340D01*
X258755391Y-103791172D01*
X259290000Y-103897512D01*
X259824609Y-103791172D01*
X260277828Y-103488340D01*
X260560000Y-103066041D01*
X260842172Y-103488340D01*
X261295391Y-103791172D01*
X261830000Y-103897512D01*
X262364609Y-103791172D01*
X262817828Y-103488340D01*
X263100000Y-103066041D01*
X263382172Y-103488340D01*
X263835391Y-103791172D01*
X264370000Y-103897512D01*
X264904609Y-103791172D01*
X265357828Y-103488340D01*
X265640000Y-103066041D01*
X265922172Y-103488340D01*
X266375391Y-103791172D01*
X266910000Y-103897512D01*
X267444609Y-103791172D01*
X267897828Y-103488340D01*
X268200660Y-103035121D01*
X268292699Y-102572407D01*
X269755683Y-102572407D01*
X270095062Y-103393766D01*
X270722928Y-104022729D01*
X271543694Y-104363541D01*
X272432407Y-104364317D01*
X273253766Y-104024938D01*
X273882729Y-103397072D01*
X274223541Y-102576306D01*
X274224317Y-101687593D01*
X273884938Y-100866234D01*
X273257072Y-100237271D01*
X272436306Y-99896459D01*
X271547593Y-99895683D01*
X270726234Y-100235062D01*
X270097271Y-100862928D01*
X269756459Y-101683694D01*
X269755683Y-102572407D01*
X268292699Y-102572407D01*
X268307000Y-102500512D01*
X268307000Y-101759488D01*
X268200660Y-101224879D01*
X267897828Y-100771660D01*
X267444609Y-100468828D01*
X266910000Y-100362488D01*
X266375391Y-100468828D01*
X265922172Y-100771660D01*
X265640000Y-101193959D01*
X265357828Y-100771660D01*
X264904609Y-100468828D01*
X264370000Y-100362488D01*
X263835391Y-100468828D01*
X263382172Y-100771660D01*
X263100000Y-101193959D01*
X262817828Y-100771660D01*
X262364609Y-100468828D01*
X261830000Y-100362488D01*
X261295391Y-100468828D01*
X260842172Y-100771660D01*
X260560000Y-101193959D01*
X260277828Y-100771660D01*
X259824609Y-100468828D01*
X259290000Y-100362488D01*
X258755391Y-100468828D01*
X258302172Y-100771660D01*
X258020000Y-101193959D01*
X257737828Y-100771660D01*
X257284609Y-100468828D01*
X256750000Y-100362488D01*
X256215391Y-100468828D01*
X255762172Y-100771660D01*
X255480433Y-101193312D01*
X255197828Y-100770365D01*
X254744609Y-100467533D01*
X254210000Y-100361193D01*
X253675391Y-100467533D01*
X253222172Y-100770365D01*
X252940000Y-101192664D01*
X252657828Y-100770365D01*
X252204609Y-100467533D01*
X251670000Y-100361193D01*
X251135391Y-100467533D01*
X250682172Y-100770365D01*
X250400000Y-101192664D01*
X250117828Y-100770365D01*
X249664609Y-100467533D01*
X249130000Y-100361193D01*
X248595391Y-100467533D01*
X248142172Y-100770365D01*
X247839340Y-101223584D01*
X247733000Y-101758193D01*
X245447000Y-101758193D01*
X245340660Y-101223584D01*
X245037828Y-100770365D01*
X244584609Y-100467533D01*
X244050000Y-100361193D01*
X243515391Y-100467533D01*
X243062172Y-100770365D01*
X242780000Y-101192664D01*
X242497828Y-100770365D01*
X242044609Y-100467533D01*
X241510000Y-100361193D01*
X240975391Y-100467533D01*
X240522172Y-100770365D01*
X240240000Y-101192664D01*
X239957828Y-100770365D01*
X239504609Y-100467533D01*
X238970000Y-100361193D01*
X238435391Y-100467533D01*
X237982172Y-100770365D01*
X237700000Y-101192664D01*
X237417828Y-100770365D01*
X236964609Y-100467533D01*
X236430000Y-100361193D01*
X235895391Y-100467533D01*
X235442172Y-100770365D01*
X235160000Y-101192664D01*
X234877828Y-100770365D01*
X234424609Y-100467533D01*
X233890000Y-100361193D01*
X233355391Y-100467533D01*
X232902172Y-100770365D01*
X232620000Y-101192664D01*
X232337828Y-100770365D01*
X231884609Y-100467533D01*
X231350000Y-100361193D01*
X230815391Y-100467533D01*
X230362172Y-100770365D01*
X230080000Y-101192664D01*
X229797828Y-100770365D01*
X229344609Y-100467533D01*
X228810000Y-100361193D01*
X228275391Y-100467533D01*
X227822172Y-100770365D01*
X227540000Y-101192664D01*
X227257828Y-100770365D01*
X226804609Y-100467533D01*
X226270000Y-100361193D01*
X225735391Y-100467533D01*
X225282172Y-100770365D01*
X224979340Y-101223584D01*
X224873000Y-101758193D01*
X222587000Y-101758193D01*
X222480660Y-101223584D01*
X222177828Y-100770365D01*
X221724609Y-100467533D01*
X221190000Y-100361193D01*
X220655391Y-100467533D01*
X220202172Y-100770365D01*
X219911353Y-101205606D01*
X219892059Y-101140239D01*
X219548026Y-100714550D01*
X219067277Y-100452920D01*
X218993070Y-100437960D01*
X218777000Y-100560460D01*
X218523000Y-100560460D01*
X218306930Y-100437960D01*
X218232723Y-100452920D01*
X217751974Y-100714550D01*
X217407941Y-101140239D01*
X217380000Y-101234903D01*
X217352059Y-101140239D01*
X217008026Y-100714550D01*
X216527277Y-100452920D01*
X216453070Y-100437960D01*
X216237000Y-100560460D01*
X215983000Y-100560460D01*
X215766930Y-100437960D01*
X215692723Y-100452920D01*
X215211974Y-100714550D01*
X214867941Y-101140239D01*
X214848647Y-101205606D01*
X214557828Y-100770365D01*
X214104609Y-100467533D01*
X213570000Y-100361193D01*
X213035391Y-100467533D01*
X212582172Y-100770365D01*
X212300000Y-101192664D01*
X212017828Y-100770365D01*
X211564609Y-100467533D01*
X211030000Y-100361193D01*
X210495391Y-100467533D01*
X210042172Y-100770365D01*
X209760000Y-101192664D01*
X209477828Y-100770365D01*
X209024609Y-100467533D01*
X208490000Y-100361193D01*
X207955391Y-100467533D01*
X207502172Y-100770365D01*
X207220000Y-101192664D01*
X206937828Y-100770365D01*
X206484609Y-100467533D01*
X205950000Y-100361193D01*
X205415391Y-100467533D01*
X204962172Y-100770365D01*
X204680000Y-101192664D01*
X204397828Y-100770365D01*
X203944609Y-100467533D01*
X203410000Y-100361193D01*
X202875391Y-100467533D01*
X202422172Y-100770365D01*
X202119340Y-101223584D01*
X202013000Y-101758193D01*
X191674255Y-101758193D01*
X191674317Y-101687593D01*
X191334938Y-100866234D01*
X190707072Y-100237271D01*
X189886306Y-99896459D01*
X188997593Y-99895683D01*
X188176234Y-100235062D01*
X187547271Y-100862928D01*
X187206459Y-101683694D01*
X187205683Y-102572407D01*
X67710000Y-102572407D01*
X67710000Y-97492407D01*
X239275683Y-97492407D01*
X239615062Y-98313766D01*
X240242928Y-98942729D01*
X241063694Y-99283541D01*
X241952407Y-99284317D01*
X242773766Y-98944938D01*
X243402729Y-98317072D01*
X243743541Y-97496306D01*
X243743630Y-97394267D01*
X267609433Y-97394267D01*
X267624907Y-97479012D01*
X267891564Y-97961563D01*
X268322587Y-98305337D01*
X268852357Y-98457997D01*
X269074080Y-98300505D01*
X269074080Y-97177000D01*
X269328080Y-97177000D01*
X269328080Y-98300505D01*
X269549803Y-98457997D01*
X270079573Y-98305337D01*
X270510596Y-97961563D01*
X270718634Y-97585092D01*
X270927319Y-97961880D01*
X271358332Y-98304970D01*
X271887831Y-98457002D01*
X272109380Y-98299296D01*
X272109380Y-97177000D01*
X272363380Y-97177000D01*
X272363380Y-98299296D01*
X272584929Y-98457002D01*
X273114428Y-98304970D01*
X273545441Y-97961880D01*
X273812351Y-97479965D01*
X273828038Y-97394068D01*
X273705623Y-97177000D01*
X272363380Y-97177000D01*
X272109380Y-97177000D01*
X270767137Y-97177000D01*
X270718708Y-97262875D01*
X270670330Y-97177000D01*
X269328080Y-97177000D01*
X269074080Y-97177000D01*
X267731830Y-97177000D01*
X267609433Y-97394267D01*
X243743630Y-97394267D01*
X243744317Y-96607593D01*
X243404938Y-95786234D01*
X242777072Y-95157271D01*
X241956306Y-94816459D01*
X241067593Y-94815683D01*
X240246234Y-95155062D01*
X239617271Y-95782928D01*
X239276459Y-96603694D01*
X239275683Y-97492407D01*
X67710000Y-97492407D01*
X67710000Y-76584187D01*
X147064752Y-76584187D01*
X147282757Y-77111800D01*
X147615000Y-77444623D01*
X147615000Y-83155742D01*
X147334176Y-83436077D01*
X147115250Y-83963309D01*
X147114752Y-84534187D01*
X147332757Y-85061800D01*
X147736077Y-85465824D01*
X148263309Y-85684750D01*
X148834187Y-85685248D01*
X149361800Y-85467243D01*
X149650105Y-85179440D01*
X149886077Y-85415824D01*
X150413309Y-85634750D01*
X150984187Y-85635248D01*
X151511800Y-85417243D01*
X151915824Y-85013923D01*
X152134750Y-84486691D01*
X152134795Y-84434187D01*
X163264752Y-84434187D01*
X163482757Y-84961800D01*
X163765000Y-85244536D01*
X163765000Y-89505307D01*
X163734176Y-89536077D01*
X163515250Y-90063309D01*
X163514752Y-90634187D01*
X163732757Y-91161800D01*
X164136077Y-91565824D01*
X164663309Y-91784750D01*
X165234187Y-91785248D01*
X165761800Y-91567243D01*
X165828255Y-91500904D01*
X165832757Y-91511800D01*
X166236077Y-91915824D01*
X166763309Y-92134750D01*
X167334187Y-92135248D01*
X167861800Y-91917243D01*
X167902813Y-91876302D01*
X168082757Y-92311800D01*
X168486077Y-92715824D01*
X169013309Y-92934750D01*
X169584187Y-92935248D01*
X170111800Y-92717243D01*
X170445437Y-92384187D01*
X206864752Y-92384187D01*
X207082757Y-92911800D01*
X207486077Y-93315824D01*
X208013309Y-93534750D01*
X208584187Y-93535248D01*
X209111800Y-93317243D01*
X209515824Y-92913923D01*
X209734750Y-92386691D01*
X209735248Y-91815813D01*
X209517243Y-91288200D01*
X209435000Y-91205813D01*
X209435000Y-86294258D01*
X209715824Y-86013923D01*
X209799936Y-85811358D01*
X209882757Y-86011800D01*
X210165000Y-86294536D01*
X210165000Y-89151024D01*
X210088200Y-89182757D01*
X209684176Y-89586077D01*
X209465250Y-90113309D01*
X209464752Y-90684187D01*
X209682757Y-91211800D01*
X210086077Y-91615824D01*
X210613309Y-91834750D01*
X211184187Y-91835248D01*
X211711800Y-91617243D01*
X212115824Y-91213923D01*
X212334750Y-90686691D01*
X212335248Y-90115813D01*
X212117243Y-89588200D01*
X212035000Y-89505813D01*
X212035000Y-86294258D01*
X212315824Y-86013923D01*
X212534750Y-85486691D01*
X212535248Y-84915813D01*
X212317243Y-84388200D01*
X211913923Y-83984176D01*
X211386691Y-83765250D01*
X210815813Y-83764752D01*
X210288200Y-83982757D01*
X209884176Y-84386077D01*
X209800064Y-84588642D01*
X209717243Y-84388200D01*
X209313923Y-83984176D01*
X208786691Y-83765250D01*
X208215813Y-83764752D01*
X207688200Y-83982757D01*
X207284176Y-84386077D01*
X207065250Y-84913309D01*
X207064752Y-85484187D01*
X207282757Y-86011800D01*
X207565000Y-86294536D01*
X207565000Y-90851024D01*
X207488200Y-90882757D01*
X207084176Y-91286077D01*
X206865250Y-91813309D01*
X206864752Y-92384187D01*
X170445437Y-92384187D01*
X170515824Y-92313923D01*
X170734750Y-91786691D01*
X170735248Y-91215813D01*
X170722181Y-91184187D01*
X171814752Y-91184187D01*
X172032757Y-91711800D01*
X172436077Y-92115824D01*
X172963309Y-92334750D01*
X173534187Y-92335248D01*
X174061800Y-92117243D01*
X174465824Y-91713923D01*
X174684750Y-91186691D01*
X174685248Y-90615813D01*
X174467243Y-90088200D01*
X174285000Y-89905639D01*
X174285000Y-73594258D01*
X174565824Y-73313923D01*
X174784750Y-72786691D01*
X174785248Y-72215813D01*
X174567243Y-71688200D01*
X174163923Y-71284176D01*
X173636691Y-71065250D01*
X173065813Y-71064752D01*
X172538200Y-71282757D01*
X172134176Y-71686077D01*
X171915250Y-72213309D01*
X171914752Y-72784187D01*
X172132757Y-73311800D01*
X172415000Y-73594536D01*
X172415000Y-89705917D01*
X172034176Y-90086077D01*
X171815250Y-90613309D01*
X171814752Y-91184187D01*
X170722181Y-91184187D01*
X170517243Y-90688200D01*
X170113923Y-90284176D01*
X169985000Y-90230642D01*
X169985000Y-71694258D01*
X170265824Y-71413923D01*
X170484750Y-70886691D01*
X170485248Y-70315813D01*
X170267243Y-69788200D01*
X169863923Y-69384176D01*
X169336691Y-69165250D01*
X168765813Y-69164752D01*
X168238200Y-69382757D01*
X167834176Y-69786077D01*
X167615250Y-70313309D01*
X167614752Y-70884187D01*
X167832757Y-71411800D01*
X168115000Y-71694536D01*
X168115000Y-89735691D01*
X167863923Y-89484176D01*
X167585000Y-89368357D01*
X167585000Y-86494258D01*
X167865824Y-86213923D01*
X168084750Y-85686691D01*
X168085248Y-85115813D01*
X167867243Y-84588200D01*
X167463923Y-84184176D01*
X166936691Y-83965250D01*
X166365813Y-83964752D01*
X166135079Y-84060089D01*
X166135248Y-83865813D01*
X165917243Y-83338200D01*
X165513923Y-82934176D01*
X164986691Y-82715250D01*
X164415813Y-82714752D01*
X163888200Y-82932757D01*
X163484176Y-83336077D01*
X163265250Y-83863309D01*
X163264752Y-84434187D01*
X152134795Y-84434187D01*
X152135248Y-83915813D01*
X151917243Y-83388200D01*
X151635000Y-83105464D01*
X151635000Y-77494083D01*
X152015824Y-77113923D01*
X152234750Y-76586691D01*
X152235248Y-76015813D01*
X152017243Y-75488200D01*
X151613923Y-75084176D01*
X151086691Y-74865250D01*
X150515813Y-74864752D01*
X149988200Y-75082757D01*
X149649764Y-75420603D01*
X149313923Y-75084176D01*
X148786691Y-74865250D01*
X148215813Y-74864752D01*
X147688200Y-75082757D01*
X147284176Y-75486077D01*
X147065250Y-76013309D01*
X147064752Y-76584187D01*
X67710000Y-76584187D01*
X67710000Y-68784187D01*
X191064752Y-68784187D01*
X191282757Y-69311800D01*
X191686077Y-69715824D01*
X192213309Y-69934750D01*
X192572267Y-69935063D01*
X192577942Y-69938855D01*
X192603923Y-69956215D01*
X193000000Y-70035001D01*
X193000005Y-70035000D01*
X218505568Y-70035000D01*
X218686077Y-70215824D01*
X219213309Y-70434750D01*
X219784187Y-70435248D01*
X220311800Y-70217243D01*
X220715824Y-69813923D01*
X220824415Y-69552407D01*
X239275683Y-69552407D01*
X239615062Y-70373766D01*
X240242928Y-71002729D01*
X241063694Y-71343541D01*
X241952407Y-71344317D01*
X242773766Y-71004938D01*
X243402729Y-70377072D01*
X243743541Y-69556306D01*
X243744317Y-68667593D01*
X243404938Y-67846234D01*
X242777072Y-67217271D01*
X241956306Y-66876459D01*
X241067593Y-66875683D01*
X240246234Y-67215062D01*
X239617271Y-67842928D01*
X239276459Y-68663694D01*
X239275683Y-69552407D01*
X220824415Y-69552407D01*
X220934750Y-69286691D01*
X220935248Y-68715813D01*
X220737476Y-68237167D01*
X221213309Y-68434750D01*
X221784187Y-68435248D01*
X222311800Y-68217243D01*
X222715824Y-67813923D01*
X222934750Y-67286691D01*
X222935248Y-66715813D01*
X222717243Y-66188200D01*
X222313923Y-65784176D01*
X221786691Y-65565250D01*
X221215813Y-65564752D01*
X220688200Y-65782757D01*
X220505639Y-65965000D01*
X195831614Y-65965000D01*
X195717243Y-65688200D01*
X195313923Y-65284176D01*
X194786691Y-65065250D01*
X194215813Y-65064752D01*
X193688200Y-65282757D01*
X193284176Y-65686077D01*
X193065250Y-66213309D01*
X193064752Y-66784187D01*
X193262524Y-67262833D01*
X192786691Y-67065250D01*
X192215813Y-67064752D01*
X191688200Y-67282757D01*
X191284176Y-67686077D01*
X191065250Y-68213309D01*
X191064752Y-68784187D01*
X67710000Y-68784187D01*
X67710000Y-54312407D01*
X188475683Y-54312407D01*
X188815062Y-55133766D01*
X189442928Y-55762729D01*
X190263694Y-56103541D01*
X191152407Y-56104317D01*
X191973766Y-55764938D01*
X192602729Y-55137072D01*
X192903336Y-54413131D01*
X192975340Y-54775121D01*
X193278172Y-55228340D01*
X193731391Y-55531172D01*
X194266000Y-55637512D01*
X194800609Y-55531172D01*
X195253828Y-55228340D01*
X195536000Y-54806041D01*
X195818172Y-55228340D01*
X196271391Y-55531172D01*
X196806000Y-55637512D01*
X197340609Y-55531172D01*
X197793828Y-55228340D01*
X198076000Y-54806041D01*
X198358172Y-55228340D01*
X198811391Y-55531172D01*
X199346000Y-55637512D01*
X199880609Y-55531172D01*
X200333828Y-55228340D01*
X200624642Y-54793107D01*
X200643941Y-54858491D01*
X200987974Y-55284180D01*
X201468723Y-55545810D01*
X201542930Y-55560770D01*
X201759000Y-55438270D01*
X201759000Y-53997000D01*
X201739000Y-53997000D01*
X201739000Y-53743000D01*
X201759000Y-53743000D01*
X201759000Y-52301730D01*
X202013000Y-52301730D01*
X202013000Y-53743000D01*
X202033000Y-53743000D01*
X202033000Y-53997000D01*
X202013000Y-53997000D01*
X202013000Y-55438270D01*
X202229070Y-55560770D01*
X202303277Y-55545810D01*
X202784026Y-55284180D01*
X203128059Y-54858491D01*
X203147358Y-54793107D01*
X203438172Y-55228340D01*
X203891391Y-55531172D01*
X204426000Y-55637512D01*
X204960609Y-55531172D01*
X205413828Y-55228340D01*
X205696000Y-54806041D01*
X205978172Y-55228340D01*
X206431391Y-55531172D01*
X206966000Y-55637512D01*
X207500609Y-55531172D01*
X207953828Y-55228340D01*
X208236000Y-54806041D01*
X208518172Y-55228340D01*
X208971391Y-55531172D01*
X209506000Y-55637512D01*
X210040609Y-55531172D01*
X210493828Y-55228340D01*
X210776000Y-54806041D01*
X211058172Y-55228340D01*
X211511391Y-55531172D01*
X212046000Y-55637512D01*
X212580609Y-55531172D01*
X213033828Y-55228340D01*
X213316000Y-54806041D01*
X213598172Y-55228340D01*
X214051391Y-55531172D01*
X214586000Y-55637512D01*
X215120609Y-55531172D01*
X215573828Y-55228340D01*
X215856000Y-54806041D01*
X216138172Y-55228340D01*
X216591391Y-55531172D01*
X217126000Y-55637512D01*
X217660609Y-55531172D01*
X218113828Y-55228340D01*
X218416660Y-54775121D01*
X218523000Y-54240512D01*
X218523000Y-53499488D01*
X219793000Y-53499488D01*
X219793000Y-54240512D01*
X219899340Y-54775121D01*
X220202172Y-55228340D01*
X220655391Y-55531172D01*
X221190000Y-55637512D01*
X221724609Y-55531172D01*
X222177828Y-55228340D01*
X222460000Y-54806041D01*
X222742172Y-55228340D01*
X223195391Y-55531172D01*
X223730000Y-55637512D01*
X224264609Y-55531172D01*
X224717828Y-55228340D01*
X225000000Y-54806041D01*
X225282172Y-55228340D01*
X225735391Y-55531172D01*
X226270000Y-55637512D01*
X226804609Y-55531172D01*
X227257828Y-55228340D01*
X227540000Y-54806041D01*
X227822172Y-55228340D01*
X228275391Y-55531172D01*
X228810000Y-55637512D01*
X229344609Y-55531172D01*
X229797828Y-55228340D01*
X230080000Y-54806041D01*
X230362172Y-55228340D01*
X230815391Y-55531172D01*
X231350000Y-55637512D01*
X231884609Y-55531172D01*
X232337828Y-55228340D01*
X232620000Y-54806041D01*
X232902172Y-55228340D01*
X233355391Y-55531172D01*
X233890000Y-55637512D01*
X234424609Y-55531172D01*
X234877828Y-55228340D01*
X235160000Y-54806041D01*
X235442172Y-55228340D01*
X235895391Y-55531172D01*
X236430000Y-55637512D01*
X236964609Y-55531172D01*
X237417828Y-55228340D01*
X237700000Y-54806041D01*
X237982172Y-55228340D01*
X238435391Y-55531172D01*
X238970000Y-55637512D01*
X239504609Y-55531172D01*
X239957828Y-55228340D01*
X240260660Y-54775121D01*
X240367000Y-54240512D01*
X240367000Y-53499488D01*
X242653000Y-53499488D01*
X242653000Y-54240512D01*
X242759340Y-54775121D01*
X243062172Y-55228340D01*
X243515391Y-55531172D01*
X244050000Y-55637512D01*
X244584609Y-55531172D01*
X245037828Y-55228340D01*
X245320000Y-54806041D01*
X245602172Y-55228340D01*
X246055391Y-55531172D01*
X246590000Y-55637512D01*
X247124609Y-55531172D01*
X247577828Y-55228340D01*
X247860000Y-54806041D01*
X248142172Y-55228340D01*
X248595391Y-55531172D01*
X249130000Y-55637512D01*
X249664609Y-55531172D01*
X250117828Y-55228340D01*
X250400000Y-54806041D01*
X250682172Y-55228340D01*
X251135391Y-55531172D01*
X251670000Y-55637512D01*
X252204609Y-55531172D01*
X252657828Y-55228340D01*
X252940000Y-54806041D01*
X253222172Y-55228340D01*
X253675391Y-55531172D01*
X254210000Y-55637512D01*
X254744609Y-55531172D01*
X255197828Y-55228340D01*
X255480000Y-54806041D01*
X255762172Y-55228340D01*
X256215391Y-55531172D01*
X256750000Y-55637512D01*
X257284609Y-55531172D01*
X257737828Y-55228340D01*
X258020000Y-54806041D01*
X258302172Y-55228340D01*
X258755391Y-55531172D01*
X259290000Y-55637512D01*
X259824609Y-55531172D01*
X260277828Y-55228340D01*
X260560000Y-54806041D01*
X260842172Y-55228340D01*
X261295391Y-55531172D01*
X261830000Y-55637512D01*
X262364609Y-55531172D01*
X262817828Y-55228340D01*
X263120660Y-54775121D01*
X263212699Y-54312407D01*
X263405683Y-54312407D01*
X263745062Y-55133766D01*
X264372928Y-55762729D01*
X265193694Y-56103541D01*
X266082407Y-56104317D01*
X266903766Y-55764938D01*
X267532729Y-55137072D01*
X267761243Y-54586750D01*
X267945972Y-54863216D01*
X268360207Y-55140000D01*
X267945972Y-55416784D01*
X267641488Y-55872475D01*
X267534568Y-56410000D01*
X267641488Y-56947525D01*
X267945972Y-57403216D01*
X268360207Y-57680000D01*
X267945972Y-57956784D01*
X267641488Y-58412475D01*
X267534568Y-58950000D01*
X267641488Y-59487525D01*
X267945972Y-59943216D01*
X268360207Y-60220000D01*
X267945972Y-60496784D01*
X267641488Y-60952475D01*
X267534568Y-61490000D01*
X267641488Y-62027525D01*
X267945972Y-62483216D01*
X268360207Y-62760000D01*
X267945972Y-63036784D01*
X267641488Y-63492475D01*
X267534568Y-64030000D01*
X267641488Y-64567525D01*
X267945972Y-65023216D01*
X268360207Y-65300000D01*
X267945972Y-65576784D01*
X267641488Y-66032475D01*
X267534568Y-66570000D01*
X267641488Y-67107525D01*
X267945972Y-67563216D01*
X268360207Y-67840000D01*
X267945972Y-68116784D01*
X267641488Y-68572475D01*
X267534568Y-69110000D01*
X267641488Y-69647525D01*
X267945972Y-70103216D01*
X268360207Y-70380000D01*
X267945972Y-70656784D01*
X267641488Y-71112475D01*
X267534568Y-71650000D01*
X267641488Y-72187525D01*
X267945972Y-72643216D01*
X268360207Y-72920000D01*
X267945972Y-73196784D01*
X267641488Y-73652475D01*
X267534568Y-74190000D01*
X267641488Y-74727525D01*
X267945972Y-75183216D01*
X268360207Y-75460000D01*
X267945972Y-75736784D01*
X267641488Y-76192475D01*
X267534568Y-76730000D01*
X267641488Y-77267525D01*
X267945972Y-77723216D01*
X268360207Y-78000000D01*
X267945972Y-78276784D01*
X267641488Y-78732475D01*
X267534568Y-79270000D01*
X267641488Y-79807525D01*
X267945972Y-80263216D01*
X268360207Y-80540000D01*
X267945972Y-80816784D01*
X267641488Y-81272475D01*
X267534568Y-81810000D01*
X267641488Y-82347525D01*
X267945972Y-82803216D01*
X268360207Y-83080000D01*
X267945972Y-83356784D01*
X267641488Y-83812475D01*
X267534568Y-84350000D01*
X267641488Y-84887525D01*
X267945972Y-85343216D01*
X268360207Y-85620000D01*
X267945972Y-85896784D01*
X267641488Y-86352475D01*
X267534568Y-86890000D01*
X267641488Y-87427525D01*
X267945972Y-87883216D01*
X268360207Y-88160000D01*
X267945972Y-88436784D01*
X267641488Y-88892475D01*
X267534568Y-89430000D01*
X267641488Y-89967525D01*
X267945972Y-90423216D01*
X268360207Y-90700000D01*
X267945972Y-90976784D01*
X267641488Y-91432475D01*
X267534568Y-91970000D01*
X267641488Y-92507525D01*
X267945972Y-92963216D01*
X268360207Y-93240000D01*
X267945972Y-93516784D01*
X267641488Y-93972475D01*
X267534568Y-94510000D01*
X267641488Y-95047525D01*
X267945972Y-95503216D01*
X268364204Y-95782671D01*
X268322587Y-95794663D01*
X267891564Y-96138437D01*
X267624907Y-96620988D01*
X267609433Y-96705733D01*
X267731830Y-96923000D01*
X269074080Y-96923000D01*
X269074080Y-96903000D01*
X269328080Y-96903000D01*
X269328080Y-96923000D01*
X270670330Y-96923000D01*
X270718708Y-96837125D01*
X270767137Y-96923000D01*
X272109380Y-96923000D01*
X272109380Y-96903000D01*
X272363380Y-96903000D01*
X272363380Y-96923000D01*
X273705623Y-96923000D01*
X273828038Y-96705932D01*
X273812351Y-96620035D01*
X273545441Y-96138120D01*
X273114428Y-95795030D01*
X273072012Y-95782851D01*
X273491860Y-95502318D01*
X273796068Y-95047039D01*
X273902892Y-94510000D01*
X273796068Y-93972961D01*
X273491860Y-93517682D01*
X273076280Y-93240000D01*
X273491860Y-92962318D01*
X273796068Y-92507039D01*
X273902892Y-91970000D01*
X273796068Y-91432961D01*
X273491860Y-90977682D01*
X273076280Y-90700000D01*
X273491860Y-90422318D01*
X273796068Y-89967039D01*
X273902892Y-89430000D01*
X273796068Y-88892961D01*
X273491860Y-88437682D01*
X273076280Y-88160000D01*
X273491860Y-87882318D01*
X273796068Y-87427039D01*
X273902892Y-86890000D01*
X273796068Y-86352961D01*
X273491860Y-85897682D01*
X273076280Y-85620000D01*
X273491860Y-85342318D01*
X273796068Y-84887039D01*
X273902892Y-84350000D01*
X273796068Y-83812961D01*
X273491860Y-83357682D01*
X273076280Y-83080000D01*
X273491860Y-82802318D01*
X273796068Y-82347039D01*
X273902892Y-81810000D01*
X273796068Y-81272961D01*
X273491860Y-80817682D01*
X273076280Y-80540000D01*
X273491860Y-80262318D01*
X273796068Y-79807039D01*
X273902892Y-79270000D01*
X273796068Y-78732961D01*
X273491860Y-78277682D01*
X273076280Y-78000000D01*
X273491860Y-77722318D01*
X273796068Y-77267039D01*
X273902892Y-76730000D01*
X273796068Y-76192961D01*
X273491860Y-75737682D01*
X273076280Y-75460000D01*
X273491860Y-75182318D01*
X273796068Y-74727039D01*
X273902892Y-74190000D01*
X273796068Y-73652961D01*
X273491860Y-73197682D01*
X273076280Y-72920000D01*
X273491860Y-72642318D01*
X273796068Y-72187039D01*
X273902892Y-71650000D01*
X273796068Y-71112961D01*
X273491860Y-70657682D01*
X273076280Y-70380000D01*
X273491860Y-70102318D01*
X273796068Y-69647039D01*
X273902892Y-69110000D01*
X273796068Y-68572961D01*
X273491860Y-68117682D01*
X273076280Y-67840000D01*
X273491860Y-67562318D01*
X273796068Y-67107039D01*
X273902892Y-66570000D01*
X273796068Y-66032961D01*
X273491860Y-65577682D01*
X273076280Y-65300000D01*
X273491860Y-65022318D01*
X273796068Y-64567039D01*
X273902892Y-64030000D01*
X273796068Y-63492961D01*
X273491860Y-63037682D01*
X273076280Y-62760000D01*
X273491860Y-62482318D01*
X273796068Y-62027039D01*
X273902892Y-61490000D01*
X273796068Y-60952961D01*
X273491860Y-60497682D01*
X273076280Y-60220000D01*
X273491860Y-59942318D01*
X273796068Y-59487039D01*
X273902892Y-58950000D01*
X273796068Y-58412961D01*
X273491860Y-57957682D01*
X273076280Y-57680000D01*
X273491860Y-57402318D01*
X273796068Y-56947039D01*
X273902892Y-56410000D01*
X273796068Y-55872961D01*
X273491860Y-55417682D01*
X273076280Y-55140000D01*
X273491860Y-54862318D01*
X273796068Y-54407039D01*
X273902892Y-53870000D01*
X273796068Y-53332961D01*
X273491860Y-52877682D01*
X273036581Y-52573474D01*
X272499542Y-52466650D01*
X271973218Y-52466650D01*
X271436179Y-52573474D01*
X270980900Y-52877682D01*
X270718844Y-53269876D01*
X270456188Y-52876784D01*
X270000497Y-52572300D01*
X269462972Y-52465380D01*
X268939188Y-52465380D01*
X268401663Y-52572300D01*
X267945972Y-52876784D01*
X267761068Y-53153511D01*
X267534938Y-52606234D01*
X266907072Y-51977271D01*
X266086306Y-51636459D01*
X265197593Y-51635683D01*
X264376234Y-51975062D01*
X263747271Y-52602928D01*
X263406459Y-53423694D01*
X263405683Y-54312407D01*
X263212699Y-54312407D01*
X263227000Y-54240512D01*
X263227000Y-53499488D01*
X263120660Y-52964879D01*
X262817828Y-52511660D01*
X262364609Y-52208828D01*
X261830000Y-52102488D01*
X261295391Y-52208828D01*
X260842172Y-52511660D01*
X260560000Y-52933959D01*
X260277828Y-52511660D01*
X259824609Y-52208828D01*
X259290000Y-52102488D01*
X258755391Y-52208828D01*
X258302172Y-52511660D01*
X258020000Y-52933959D01*
X257737828Y-52511660D01*
X257284609Y-52208828D01*
X256750000Y-52102488D01*
X256215391Y-52208828D01*
X255762172Y-52511660D01*
X255480000Y-52933959D01*
X255197828Y-52511660D01*
X254744609Y-52208828D01*
X254210000Y-52102488D01*
X253675391Y-52208828D01*
X253222172Y-52511660D01*
X252940000Y-52933959D01*
X252657828Y-52511660D01*
X252204609Y-52208828D01*
X251670000Y-52102488D01*
X251135391Y-52208828D01*
X250682172Y-52511660D01*
X250400000Y-52933959D01*
X250117828Y-52511660D01*
X249664609Y-52208828D01*
X249130000Y-52102488D01*
X248595391Y-52208828D01*
X248142172Y-52511660D01*
X247860000Y-52933959D01*
X247577828Y-52511660D01*
X247124609Y-52208828D01*
X246590000Y-52102488D01*
X246055391Y-52208828D01*
X245602172Y-52511660D01*
X245320000Y-52933959D01*
X245037828Y-52511660D01*
X244584609Y-52208828D01*
X244050000Y-52102488D01*
X243515391Y-52208828D01*
X243062172Y-52511660D01*
X242759340Y-52964879D01*
X242653000Y-53499488D01*
X240367000Y-53499488D01*
X240260660Y-52964879D01*
X239957828Y-52511660D01*
X239504609Y-52208828D01*
X238970000Y-52102488D01*
X238435391Y-52208828D01*
X237982172Y-52511660D01*
X237700000Y-52933959D01*
X237417828Y-52511660D01*
X236964609Y-52208828D01*
X236430000Y-52102488D01*
X235895391Y-52208828D01*
X235442172Y-52511660D01*
X235160000Y-52933959D01*
X234877828Y-52511660D01*
X234424609Y-52208828D01*
X233890000Y-52102488D01*
X233355391Y-52208828D01*
X232902172Y-52511660D01*
X232620000Y-52933959D01*
X232337828Y-52511660D01*
X231884609Y-52208828D01*
X231350000Y-52102488D01*
X230815391Y-52208828D01*
X230362172Y-52511660D01*
X230080000Y-52933959D01*
X229797828Y-52511660D01*
X229344609Y-52208828D01*
X228810000Y-52102488D01*
X228275391Y-52208828D01*
X227822172Y-52511660D01*
X227540000Y-52933959D01*
X227257828Y-52511660D01*
X226804609Y-52208828D01*
X226270000Y-52102488D01*
X225735391Y-52208828D01*
X225282172Y-52511660D01*
X225000000Y-52933959D01*
X224717828Y-52511660D01*
X224264609Y-52208828D01*
X223730000Y-52102488D01*
X223195391Y-52208828D01*
X222742172Y-52511660D01*
X222460000Y-52933959D01*
X222177828Y-52511660D01*
X221724609Y-52208828D01*
X221190000Y-52102488D01*
X220655391Y-52208828D01*
X220202172Y-52511660D01*
X219899340Y-52964879D01*
X219793000Y-53499488D01*
X218523000Y-53499488D01*
X218416660Y-52964879D01*
X218113828Y-52511660D01*
X217660609Y-52208828D01*
X217126000Y-52102488D01*
X216591391Y-52208828D01*
X216138172Y-52511660D01*
X215856000Y-52933959D01*
X215573828Y-52511660D01*
X215120609Y-52208828D01*
X214586000Y-52102488D01*
X214051391Y-52208828D01*
X213598172Y-52511660D01*
X213316000Y-52933959D01*
X213033828Y-52511660D01*
X212580609Y-52208828D01*
X212046000Y-52102488D01*
X211511391Y-52208828D01*
X211058172Y-52511660D01*
X210776000Y-52933959D01*
X210493828Y-52511660D01*
X210040609Y-52208828D01*
X209506000Y-52102488D01*
X208971391Y-52208828D01*
X208518172Y-52511660D01*
X208236000Y-52933959D01*
X207953828Y-52511660D01*
X207500609Y-52208828D01*
X206966000Y-52102488D01*
X206431391Y-52208828D01*
X205978172Y-52511660D01*
X205696000Y-52933959D01*
X205413828Y-52511660D01*
X204960609Y-52208828D01*
X204426000Y-52102488D01*
X203891391Y-52208828D01*
X203438172Y-52511660D01*
X203147358Y-52946893D01*
X203128059Y-52881509D01*
X202784026Y-52455820D01*
X202303277Y-52194190D01*
X202229070Y-52179230D01*
X202013000Y-52301730D01*
X201759000Y-52301730D01*
X201542930Y-52179230D01*
X201468723Y-52194190D01*
X200987974Y-52455820D01*
X200643941Y-52881509D01*
X200624642Y-52946893D01*
X200333828Y-52511660D01*
X199880609Y-52208828D01*
X199346000Y-52102488D01*
X198811391Y-52208828D01*
X198358172Y-52511660D01*
X198076000Y-52933959D01*
X197793828Y-52511660D01*
X197340609Y-52208828D01*
X196806000Y-52102488D01*
X196271391Y-52208828D01*
X195818172Y-52511660D01*
X195536000Y-52933959D01*
X195253828Y-52511660D01*
X194800609Y-52208828D01*
X194266000Y-52102488D01*
X193731391Y-52208828D01*
X193278172Y-52511660D01*
X192975340Y-52964879D01*
X192903129Y-53327910D01*
X192604938Y-52606234D01*
X191977072Y-51977271D01*
X191156306Y-51636459D01*
X190267593Y-51635683D01*
X189446234Y-51975062D01*
X188817271Y-52602928D01*
X188476459Y-53423694D01*
X188475683Y-54312407D01*
X67710000Y-54312407D01*
X67710000Y-45442619D01*
X72764613Y-45442619D01*
X73104155Y-46264372D01*
X73732321Y-46893636D01*
X74553481Y-47234611D01*
X75442619Y-47235387D01*
X76264372Y-46895845D01*
X76893636Y-46267679D01*
X77234611Y-45446519D01*
X77234614Y-45442619D01*
X267764613Y-45442619D01*
X268104155Y-46264372D01*
X268732321Y-46893636D01*
X269553481Y-47234611D01*
X270442619Y-47235387D01*
X271264372Y-46895845D01*
X271893636Y-46267679D01*
X272234611Y-45446519D01*
X272235387Y-44557381D01*
X271895845Y-43735628D01*
X271267679Y-43106364D01*
X270446519Y-42765389D01*
X269557381Y-42764613D01*
X268735628Y-43104155D01*
X268106364Y-43732321D01*
X267765389Y-44553481D01*
X267764613Y-45442619D01*
X77234614Y-45442619D01*
X77235387Y-44557381D01*
X76895845Y-43735628D01*
X76267679Y-43106364D01*
X75446519Y-42765389D01*
X74557381Y-42764613D01*
X73735628Y-43104155D01*
X73106364Y-43732321D01*
X72765389Y-44553481D01*
X72764613Y-45442619D01*
X67710000Y-45442619D01*
X67710000Y-40710000D01*
X275290000Y-40710000D01*
X275290000Y-144290000D01*
X275290000Y-144290000D01*
G37*
X275290000Y-144290000D02*
X67710000Y-144290000D01*
X67710000Y-141493991D01*
X106384735Y-141493991D01*
X106617932Y-142058371D01*
X107049357Y-142490551D01*
X107613330Y-142724733D01*
X108223991Y-142725265D01*
X108788371Y-142492068D01*
X109220551Y-142060643D01*
X109454733Y-141496670D01*
X109454735Y-141493991D01*
X133384735Y-141493991D01*
X133617932Y-142058371D01*
X134049357Y-142490551D01*
X134613330Y-142724733D01*
X135223991Y-142725265D01*
X135788371Y-142492068D01*
X136220551Y-142060643D01*
X136454733Y-141496670D01*
X136454735Y-141493991D01*
X160384735Y-141493991D01*
X160617932Y-142058371D01*
X161049357Y-142490551D01*
X161613330Y-142724733D01*
X162223991Y-142725265D01*
X162788371Y-142492068D01*
X163220551Y-142060643D01*
X163454733Y-141496670D01*
X163454735Y-141493991D01*
X187464735Y-141493991D01*
X187697932Y-142058371D01*
X188129357Y-142490551D01*
X188693330Y-142724733D01*
X189303991Y-142725265D01*
X189868371Y-142492068D01*
X190076615Y-142284187D01*
X218364752Y-142284187D01*
X218582757Y-142811800D01*
X218986077Y-143215824D01*
X219513309Y-143434750D01*
X220084187Y-143435248D01*
X220611800Y-143217243D01*
X220694187Y-143135000D01*
X235105394Y-143135000D01*
X235186077Y-143215824D01*
X235713309Y-143434750D01*
X236284187Y-143435248D01*
X236811800Y-143217243D01*
X237215824Y-142813923D01*
X237434750Y-142286691D01*
X237435248Y-141715813D01*
X237217243Y-141188200D01*
X236813923Y-140784176D01*
X236286691Y-140565250D01*
X235715813Y-140564752D01*
X235188200Y-140782757D01*
X235105813Y-140865000D01*
X220694606Y-140865000D01*
X220613923Y-140784176D01*
X220086691Y-140565250D01*
X219515813Y-140564752D01*
X218988200Y-140782757D01*
X218584176Y-141186077D01*
X218365250Y-141713309D01*
X218364752Y-142284187D01*
X190076615Y-142284187D01*
X190300551Y-142060643D01*
X190534733Y-141496670D01*
X190535265Y-140886009D01*
X190302068Y-140321629D01*
X189870643Y-139889449D01*
X189306670Y-139655267D01*
X188696009Y-139654735D01*
X188131629Y-139887932D01*
X187699449Y-140319357D01*
X187465267Y-140883330D01*
X187464735Y-141493991D01*
X163454735Y-141493991D01*
X163455265Y-140886009D01*
X163222068Y-140321629D01*
X162790643Y-139889449D01*
X162226670Y-139655267D01*
X161616009Y-139654735D01*
X161051629Y-139887932D01*
X160619449Y-140319357D01*
X160385267Y-140883330D01*
X160384735Y-141493991D01*
X136454735Y-141493991D01*
X136455265Y-140886009D01*
X136222068Y-140321629D01*
X135790643Y-139889449D01*
X135226670Y-139655267D01*
X134616009Y-139654735D01*
X134051629Y-139887932D01*
X133619449Y-140319357D01*
X133385267Y-140883330D01*
X133384735Y-141493991D01*
X109454735Y-141493991D01*
X109455265Y-140886009D01*
X109222068Y-140321629D01*
X108790643Y-139889449D01*
X108226670Y-139655267D01*
X107616009Y-139654735D01*
X107051629Y-139887932D01*
X106619449Y-140319357D01*
X106385267Y-140883330D01*
X106384735Y-141493991D01*
X67710000Y-141493991D01*
X67710000Y-136924500D01*
X67732554Y-136947054D01*
X67846286Y-136833322D01*
X67975533Y-137126123D01*
X68675806Y-137394388D01*
X68731744Y-137392885D01*
X68615284Y-137673352D01*
X68614716Y-138323795D01*
X68863106Y-138924943D01*
X69322637Y-139385278D01*
X69923352Y-139634716D01*
X70573795Y-139635284D01*
X71174943Y-139386894D01*
X71409715Y-139152532D01*
X73777073Y-139152532D01*
X73875736Y-139419387D01*
X74485461Y-139645908D01*
X75135460Y-139621856D01*
X75624264Y-139419387D01*
X75722927Y-139152532D01*
X74750000Y-138179605D01*
X73777073Y-139152532D01*
X71409715Y-139152532D01*
X71635278Y-138927363D01*
X71884716Y-138326648D01*
X71885232Y-137735461D01*
X73104092Y-137735461D01*
X73128144Y-138385460D01*
X73330613Y-138874264D01*
X73597468Y-138972927D01*
X74570395Y-138000000D01*
X73597468Y-137027073D01*
X73330613Y-137125736D01*
X73104092Y-137735461D01*
X71885232Y-137735461D01*
X71885284Y-137676205D01*
X71636894Y-137075057D01*
X71409703Y-136847468D01*
X73777073Y-136847468D01*
X74750000Y-137820395D01*
X74764143Y-137806253D01*
X74943748Y-137985858D01*
X74929605Y-138000000D01*
X75902532Y-138972927D01*
X76169387Y-138874264D01*
X76395908Y-138264539D01*
X76371856Y-137614540D01*
X76274010Y-137378318D01*
X76425435Y-137374250D01*
X77024467Y-137126123D01*
X77153715Y-136833320D01*
X77846285Y-136833320D01*
X77975533Y-137126123D01*
X78675806Y-137394388D01*
X78731744Y-137392885D01*
X78615284Y-137673352D01*
X78614716Y-138323795D01*
X78863106Y-138924943D01*
X79322637Y-139385278D01*
X79923352Y-139634716D01*
X80573795Y-139635284D01*
X81174943Y-139386894D01*
X81409715Y-139152532D01*
X83777073Y-139152532D01*
X83875736Y-139419387D01*
X84485461Y-139645908D01*
X85135460Y-139621856D01*
X85624264Y-139419387D01*
X85722927Y-139152532D01*
X84750000Y-138179605D01*
X83777073Y-139152532D01*
X81409715Y-139152532D01*
X81635278Y-138927363D01*
X81884716Y-138326648D01*
X81885232Y-137735461D01*
X83104092Y-137735461D01*
X83128144Y-138385460D01*
X83330613Y-138874264D01*
X83597468Y-138972927D01*
X84570395Y-138000000D01*
X83597468Y-137027073D01*
X83330613Y-137125736D01*
X83104092Y-137735461D01*
X81885232Y-137735461D01*
X81885284Y-137676205D01*
X81636894Y-137075057D01*
X81409703Y-136847468D01*
X83777073Y-136847468D01*
X84750000Y-137820395D01*
X84764143Y-137806253D01*
X84943748Y-137985858D01*
X84929605Y-138000000D01*
X85902532Y-138972927D01*
X86169387Y-138874264D01*
X86395908Y-138264539D01*
X86371856Y-137614540D01*
X86274010Y-137378318D01*
X86425435Y-137374250D01*
X87024467Y-137126123D01*
X87153715Y-136833320D01*
X87846285Y-136833320D01*
X87975533Y-137126123D01*
X88675806Y-137394388D01*
X88731744Y-137392885D01*
X88615284Y-137673352D01*
X88614716Y-138323795D01*
X88863106Y-138924943D01*
X89322637Y-139385278D01*
X89923352Y-139634716D01*
X90573795Y-139635284D01*
X91174943Y-139386894D01*
X91409715Y-139152532D01*
X93777073Y-139152532D01*
X93875736Y-139419387D01*
X94485461Y-139645908D01*
X95135460Y-139621856D01*
X95624264Y-139419387D01*
X95722927Y-139152532D01*
X94750000Y-138179605D01*
X93777073Y-139152532D01*
X91409715Y-139152532D01*
X91635278Y-138927363D01*
X91884716Y-138326648D01*
X91885232Y-137735461D01*
X93104092Y-137735461D01*
X93128144Y-138385460D01*
X93330613Y-138874264D01*
X93597468Y-138972927D01*
X94570395Y-138000000D01*
X93597468Y-137027073D01*
X93330613Y-137125736D01*
X93104092Y-137735461D01*
X91885232Y-137735461D01*
X91885284Y-137676205D01*
X91636894Y-137075057D01*
X91409703Y-136847468D01*
X93777073Y-136847468D01*
X94750000Y-137820395D01*
X94764143Y-137806253D01*
X94943748Y-137985858D01*
X94929605Y-138000000D01*
X95902532Y-138972927D01*
X96169387Y-138874264D01*
X96395908Y-138264539D01*
X96371856Y-137614540D01*
X96274010Y-137378318D01*
X96425435Y-137374250D01*
X97024467Y-137126123D01*
X97153715Y-136833320D01*
X96000000Y-135679605D01*
X95985858Y-135693748D01*
X95806253Y-135514143D01*
X95820395Y-135500000D01*
X96179605Y-135500000D01*
X97333320Y-136653715D01*
X97626123Y-136524467D01*
X97825881Y-136003021D01*
X209574560Y-136003021D01*
X209960437Y-136936915D01*
X210674327Y-137652052D01*
X211607546Y-138039559D01*
X212618021Y-138040440D01*
X213551915Y-137654563D01*
X214010616Y-137196661D01*
X219062758Y-137196661D01*
X219274990Y-137710303D01*
X219667630Y-138103629D01*
X220180900Y-138316757D01*
X220736661Y-138317242D01*
X221250303Y-138105010D01*
X221643629Y-137712370D01*
X221845233Y-137226853D01*
X222044990Y-137710303D01*
X222437630Y-138103629D01*
X222950900Y-138316757D01*
X223506661Y-138317242D01*
X224020303Y-138105010D01*
X224225457Y-137900213D01*
X225199392Y-137900213D01*
X225268857Y-138142397D01*
X225792302Y-138329144D01*
X226347368Y-138301362D01*
X226731143Y-138142397D01*
X226800608Y-137900213D01*
X227969392Y-137900213D01*
X228038857Y-138142397D01*
X228562302Y-138329144D01*
X229117368Y-138301362D01*
X229501143Y-138142397D01*
X229570608Y-137900213D01*
X228770000Y-137099605D01*
X227969392Y-137900213D01*
X226800608Y-137900213D01*
X226000000Y-137099605D01*
X225199392Y-137900213D01*
X224225457Y-137900213D01*
X224413629Y-137712370D01*
X224616462Y-137223893D01*
X224618638Y-137267368D01*
X224777603Y-137651143D01*
X225019787Y-137720608D01*
X225820395Y-136920000D01*
X226179605Y-136920000D01*
X226980213Y-137720608D01*
X227222397Y-137651143D01*
X227385030Y-137195288D01*
X227388638Y-137267368D01*
X227547603Y-137651143D01*
X227789787Y-137720608D01*
X228590395Y-136920000D01*
X228949605Y-136920000D01*
X229750213Y-137720608D01*
X229992397Y-137651143D01*
X230179144Y-137127698D01*
X230151362Y-136572632D01*
X229992397Y-136188857D01*
X229750213Y-136119392D01*
X228949605Y-136920000D01*
X228590395Y-136920000D01*
X227789787Y-136119392D01*
X227547603Y-136188857D01*
X227384970Y-136644712D01*
X227381362Y-136572632D01*
X227222397Y-136188857D01*
X226980213Y-136119392D01*
X226179605Y-136920000D01*
X225820395Y-136920000D01*
X225019787Y-136119392D01*
X224777603Y-136188857D01*
X224620919Y-136628036D01*
X224415010Y-136129697D01*
X224225432Y-135939787D01*
X225199392Y-135939787D01*
X226000000Y-136740395D01*
X226800608Y-135939787D01*
X227969392Y-135939787D01*
X228770000Y-136740395D01*
X229507374Y-136003021D01*
X234574560Y-136003021D01*
X234960437Y-136936915D01*
X235674327Y-137652052D01*
X236607546Y-138039559D01*
X237618021Y-138040440D01*
X238551915Y-137654563D01*
X239267052Y-136940673D01*
X239654559Y-136007454D01*
X239654562Y-136003021D01*
X244114560Y-136003021D01*
X244500437Y-136936915D01*
X245214327Y-137652052D01*
X246147546Y-138039559D01*
X247158021Y-138040440D01*
X247497396Y-137900213D01*
X254199392Y-137900213D01*
X254268857Y-138142397D01*
X254792302Y-138329144D01*
X255347368Y-138301362D01*
X255731143Y-138142397D01*
X255800608Y-137900213D01*
X256969392Y-137900213D01*
X257038857Y-138142397D01*
X257562302Y-138329144D01*
X258117368Y-138301362D01*
X258501143Y-138142397D01*
X258570608Y-137900213D01*
X259739392Y-137900213D01*
X259808857Y-138142397D01*
X260332302Y-138329144D01*
X260887368Y-138301362D01*
X261271143Y-138142397D01*
X261340608Y-137900213D01*
X262509392Y-137900213D01*
X262578857Y-138142397D01*
X263102302Y-138329144D01*
X263657368Y-138301362D01*
X264041143Y-138142397D01*
X264110608Y-137900213D01*
X263310000Y-137099605D01*
X262509392Y-137900213D01*
X261340608Y-137900213D01*
X260540000Y-137099605D01*
X259739392Y-137900213D01*
X258570608Y-137900213D01*
X257770000Y-137099605D01*
X256969392Y-137900213D01*
X255800608Y-137900213D01*
X255000000Y-137099605D01*
X254199392Y-137900213D01*
X247497396Y-137900213D01*
X248091915Y-137654563D01*
X248807052Y-136940673D01*
X248901880Y-136712302D01*
X253590856Y-136712302D01*
X253618638Y-137267368D01*
X253777603Y-137651143D01*
X254019787Y-137720608D01*
X254820395Y-136920000D01*
X255179605Y-136920000D01*
X255980213Y-137720608D01*
X256222397Y-137651143D01*
X256385030Y-137195288D01*
X256388638Y-137267368D01*
X256547603Y-137651143D01*
X256789787Y-137720608D01*
X257590395Y-136920000D01*
X257949605Y-136920000D01*
X258750213Y-137720608D01*
X258992397Y-137651143D01*
X259155030Y-137195288D01*
X259158638Y-137267368D01*
X259317603Y-137651143D01*
X259559787Y-137720608D01*
X260360395Y-136920000D01*
X260719605Y-136920000D01*
X261520213Y-137720608D01*
X261762397Y-137651143D01*
X261925030Y-137195288D01*
X261928638Y-137267368D01*
X262087603Y-137651143D01*
X262329787Y-137720608D01*
X263130395Y-136920000D01*
X263489605Y-136920000D01*
X264290213Y-137720608D01*
X264532397Y-137651143D01*
X264719144Y-137127698D01*
X264691362Y-136572632D01*
X264532397Y-136188857D01*
X264290213Y-136119392D01*
X263489605Y-136920000D01*
X263130395Y-136920000D01*
X262329787Y-136119392D01*
X262087603Y-136188857D01*
X261924970Y-136644712D01*
X261921362Y-136572632D01*
X261762397Y-136188857D01*
X261520213Y-136119392D01*
X260719605Y-136920000D01*
X260360395Y-136920000D01*
X259559787Y-136119392D01*
X259317603Y-136188857D01*
X259154970Y-136644712D01*
X259151362Y-136572632D01*
X258992397Y-136188857D01*
X258750213Y-136119392D01*
X257949605Y-136920000D01*
X257590395Y-136920000D01*
X256789787Y-136119392D01*
X256547603Y-136188857D01*
X256384970Y-136644712D01*
X256381362Y-136572632D01*
X256222397Y-136188857D01*
X255980213Y-136119392D01*
X255179605Y-136920000D01*
X254820395Y-136920000D01*
X254019787Y-136119392D01*
X253777603Y-136188857D01*
X253590856Y-136712302D01*
X248901880Y-136712302D01*
X249194559Y-136007454D01*
X249194617Y-135939787D01*
X254199392Y-135939787D01*
X255000000Y-136740395D01*
X255800608Y-135939787D01*
X256969392Y-135939787D01*
X257770000Y-136740395D01*
X258570608Y-135939787D01*
X259739392Y-135939787D01*
X260540000Y-136740395D01*
X261340608Y-135939787D01*
X262509392Y-135939787D01*
X263310000Y-136740395D01*
X264047374Y-136003021D01*
X269114560Y-136003021D01*
X269500437Y-136936915D01*
X270214327Y-137652052D01*
X271147546Y-138039559D01*
X272158021Y-138040440D01*
X273091915Y-137654563D01*
X273807052Y-136940673D01*
X274194559Y-136007454D01*
X274195440Y-134996979D01*
X273809563Y-134063085D01*
X273095673Y-133347948D01*
X272162454Y-132960441D01*
X271151979Y-132959560D01*
X270218085Y-133345437D01*
X269502948Y-134059327D01*
X269115441Y-134992546D01*
X269114560Y-136003021D01*
X264047374Y-136003021D01*
X264110608Y-135939787D01*
X264041143Y-135697603D01*
X263517698Y-135510856D01*
X262962632Y-135538638D01*
X262578857Y-135697603D01*
X262509392Y-135939787D01*
X261340608Y-135939787D01*
X261271143Y-135697603D01*
X260747698Y-135510856D01*
X260192632Y-135538638D01*
X259808857Y-135697603D01*
X259739392Y-135939787D01*
X258570608Y-135939787D01*
X258501143Y-135697603D01*
X257977698Y-135510856D01*
X257422632Y-135538638D01*
X257038857Y-135697603D01*
X256969392Y-135939787D01*
X255800608Y-135939787D01*
X255731143Y-135697603D01*
X255207698Y-135510856D01*
X254652632Y-135538638D01*
X254268857Y-135697603D01*
X254199392Y-135939787D01*
X249194617Y-135939787D01*
X249195440Y-134996979D01*
X248809563Y-134063085D01*
X248095673Y-133347948D01*
X248023551Y-133318000D01*
X252205560Y-133318000D01*
X252205560Y-134842000D01*
X252254843Y-135089765D01*
X252395191Y-135299809D01*
X252605235Y-135440157D01*
X252853000Y-135489440D01*
X254377000Y-135489440D01*
X254624765Y-135440157D01*
X254834809Y-135299809D01*
X254975157Y-135089765D01*
X254981035Y-135060213D01*
X255584392Y-135060213D01*
X255653857Y-135302397D01*
X256177302Y-135489144D01*
X256732368Y-135461362D01*
X257116143Y-135302397D01*
X257185608Y-135060213D01*
X256385000Y-134259605D01*
X255584392Y-135060213D01*
X254981035Y-135060213D01*
X255024440Y-134842000D01*
X255024440Y-134477588D01*
X255162603Y-134811143D01*
X255404787Y-134880608D01*
X256205395Y-134080000D01*
X256564605Y-134080000D01*
X257365213Y-134880608D01*
X257607397Y-134811143D01*
X257764081Y-134371964D01*
X257969990Y-134870303D01*
X258362630Y-135263629D01*
X258875900Y-135476757D01*
X259431661Y-135477242D01*
X259945303Y-135265010D01*
X260338629Y-134872370D01*
X260540233Y-134386853D01*
X260739990Y-134870303D01*
X261132630Y-135263629D01*
X261645900Y-135476757D01*
X262201661Y-135477242D01*
X262715303Y-135265010D01*
X263108629Y-134872370D01*
X263310233Y-134386853D01*
X263509990Y-134870303D01*
X263902630Y-135263629D01*
X264415900Y-135476757D01*
X264971661Y-135477242D01*
X265485303Y-135265010D01*
X265878629Y-134872370D01*
X266091757Y-134359100D01*
X266092242Y-133803339D01*
X265880010Y-133289697D01*
X265487370Y-132896371D01*
X264974100Y-132683243D01*
X264418339Y-132682758D01*
X263904697Y-132894990D01*
X263511371Y-133287630D01*
X263309767Y-133773147D01*
X263110010Y-133289697D01*
X262717370Y-132896371D01*
X262204100Y-132683243D01*
X261648339Y-132682758D01*
X261134697Y-132894990D01*
X260741371Y-133287630D01*
X260539767Y-133773147D01*
X260340010Y-133289697D01*
X259947370Y-132896371D01*
X259434100Y-132683243D01*
X258878339Y-132682758D01*
X258364697Y-132894990D01*
X257971371Y-133287630D01*
X257768538Y-133776107D01*
X257766362Y-133732632D01*
X257607397Y-133348857D01*
X257365213Y-133279392D01*
X256564605Y-134080000D01*
X256205395Y-134080000D01*
X255404787Y-133279392D01*
X255162603Y-133348857D01*
X255024440Y-133736123D01*
X255024440Y-133318000D01*
X254981036Y-133099787D01*
X255584392Y-133099787D01*
X256385000Y-133900395D01*
X257185608Y-133099787D01*
X257116143Y-132857603D01*
X256592698Y-132670856D01*
X256037632Y-132698638D01*
X255653857Y-132857603D01*
X255584392Y-133099787D01*
X254981036Y-133099787D01*
X254975157Y-133070235D01*
X254834809Y-132860191D01*
X254624765Y-132719843D01*
X254377000Y-132670560D01*
X252853000Y-132670560D01*
X252605235Y-132719843D01*
X252395191Y-132860191D01*
X252254843Y-133070235D01*
X252205560Y-133318000D01*
X248023551Y-133318000D01*
X247162454Y-132960441D01*
X246151979Y-132959560D01*
X245218085Y-133345437D01*
X244502948Y-134059327D01*
X244115441Y-134992546D01*
X244114560Y-136003021D01*
X239654562Y-136003021D01*
X239655440Y-134996979D01*
X239269563Y-134063085D01*
X238555673Y-133347948D01*
X237622454Y-132960441D01*
X236611979Y-132959560D01*
X235678085Y-133345437D01*
X234962948Y-134059327D01*
X234575441Y-134992546D01*
X234574560Y-136003021D01*
X229507374Y-136003021D01*
X229570608Y-135939787D01*
X229501143Y-135697603D01*
X228977698Y-135510856D01*
X228422632Y-135538638D01*
X228038857Y-135697603D01*
X227969392Y-135939787D01*
X226800608Y-135939787D01*
X226731143Y-135697603D01*
X226207698Y-135510856D01*
X225652632Y-135538638D01*
X225268857Y-135697603D01*
X225199392Y-135939787D01*
X224225432Y-135939787D01*
X224022370Y-135736371D01*
X223509100Y-135523243D01*
X222953339Y-135522758D01*
X222439697Y-135734990D01*
X222046371Y-136127630D01*
X221844767Y-136613147D01*
X221645010Y-136129697D01*
X221252370Y-135736371D01*
X220739100Y-135523243D01*
X220183339Y-135522758D01*
X219669697Y-135734990D01*
X219276371Y-136127630D01*
X219063243Y-136640900D01*
X219062758Y-137196661D01*
X214010616Y-137196661D01*
X214267052Y-136940673D01*
X214654559Y-136007454D01*
X214655440Y-134996979D01*
X214269563Y-134063085D01*
X213555673Y-133347948D01*
X213483551Y-133318000D01*
X217665560Y-133318000D01*
X217665560Y-134842000D01*
X217714843Y-135089765D01*
X217855191Y-135299809D01*
X218065235Y-135440157D01*
X218313000Y-135489440D01*
X219837000Y-135489440D01*
X220084765Y-135440157D01*
X220294809Y-135299809D01*
X220435157Y-135089765D01*
X220484440Y-134842000D01*
X220484440Y-134445438D01*
X220659990Y-134870303D01*
X221052630Y-135263629D01*
X221565900Y-135476757D01*
X222121661Y-135477242D01*
X222635303Y-135265010D01*
X223028629Y-134872370D01*
X223230233Y-134386853D01*
X223429990Y-134870303D01*
X223822630Y-135263629D01*
X224335900Y-135476757D01*
X224891661Y-135477242D01*
X225405303Y-135265010D01*
X225798629Y-134872370D01*
X226000233Y-134386853D01*
X226199990Y-134870303D01*
X226592630Y-135263629D01*
X227105900Y-135476757D01*
X227661661Y-135477242D01*
X228175303Y-135265010D01*
X228568629Y-134872370D01*
X228770233Y-134386853D01*
X228969990Y-134870303D01*
X229362630Y-135263629D01*
X229875900Y-135476757D01*
X230431661Y-135477242D01*
X230945303Y-135265010D01*
X231338629Y-134872370D01*
X231551757Y-134359100D01*
X231552242Y-133803339D01*
X231340010Y-133289697D01*
X230947370Y-132896371D01*
X230434100Y-132683243D01*
X229878339Y-132682758D01*
X229364697Y-132894990D01*
X228971371Y-133287630D01*
X228769767Y-133773147D01*
X228570010Y-133289697D01*
X228177370Y-132896371D01*
X227664100Y-132683243D01*
X227108339Y-132682758D01*
X226594697Y-132894990D01*
X226201371Y-133287630D01*
X225999767Y-133773147D01*
X225800010Y-133289697D01*
X225407370Y-132896371D01*
X224894100Y-132683243D01*
X224338339Y-132682758D01*
X223824697Y-132894990D01*
X223431371Y-133287630D01*
X223229767Y-133773147D01*
X223030010Y-133289697D01*
X222637370Y-132896371D01*
X222124100Y-132683243D01*
X221568339Y-132682758D01*
X221054697Y-132894990D01*
X220661371Y-133287630D01*
X220484440Y-133713728D01*
X220484440Y-133318000D01*
X220435157Y-133070235D01*
X220294809Y-132860191D01*
X220084765Y-132719843D01*
X219837000Y-132670560D01*
X218313000Y-132670560D01*
X218065235Y-132719843D01*
X217855191Y-132860191D01*
X217714843Y-133070235D01*
X217665560Y-133318000D01*
X213483551Y-133318000D01*
X212622454Y-132960441D01*
X211611979Y-132959560D01*
X210678085Y-133345437D01*
X209962948Y-134059327D01*
X209575441Y-134992546D01*
X209574560Y-136003021D01*
X97825881Y-136003021D01*
X97894388Y-135824194D01*
X97874250Y-135074565D01*
X97626123Y-134475533D01*
X97333320Y-134346285D01*
X96179605Y-135500000D01*
X95820395Y-135500000D01*
X94666680Y-134346285D01*
X94373877Y-134475533D01*
X94105612Y-135175806D01*
X94125750Y-135925435D01*
X94320777Y-136396271D01*
X93875736Y-136580613D01*
X93777073Y-136847468D01*
X91409703Y-136847468D01*
X91177363Y-136614722D01*
X90671945Y-136404855D01*
X90894388Y-135824194D01*
X90874250Y-135074565D01*
X90626123Y-134475533D01*
X90333320Y-134346285D01*
X89179605Y-135500000D01*
X89193748Y-135514143D01*
X89014143Y-135693748D01*
X89000000Y-135679605D01*
X87846285Y-136833320D01*
X87153715Y-136833320D01*
X86000000Y-135679605D01*
X85985858Y-135693748D01*
X85806253Y-135514143D01*
X85820395Y-135500000D01*
X86179605Y-135500000D01*
X87333320Y-136653715D01*
X87500000Y-136580140D01*
X87666680Y-136653715D01*
X88820395Y-135500000D01*
X87666680Y-134346285D01*
X87500000Y-134419860D01*
X87333320Y-134346285D01*
X86179605Y-135500000D01*
X85820395Y-135500000D01*
X84666680Y-134346285D01*
X84373877Y-134475533D01*
X84105612Y-135175806D01*
X84125750Y-135925435D01*
X84320777Y-136396271D01*
X83875736Y-136580613D01*
X83777073Y-136847468D01*
X81409703Y-136847468D01*
X81177363Y-136614722D01*
X80671945Y-136404855D01*
X80894388Y-135824194D01*
X80874250Y-135074565D01*
X80626123Y-134475533D01*
X80333320Y-134346285D01*
X79179605Y-135500000D01*
X79193748Y-135514143D01*
X79014143Y-135693748D01*
X79000000Y-135679605D01*
X77846285Y-136833320D01*
X77153715Y-136833320D01*
X76000000Y-135679605D01*
X75985858Y-135693748D01*
X75806253Y-135514143D01*
X75820395Y-135500000D01*
X76179605Y-135500000D01*
X77333320Y-136653715D01*
X77500000Y-136580140D01*
X77666680Y-136653715D01*
X78820395Y-135500000D01*
X77666680Y-134346285D01*
X77500000Y-134419860D01*
X77333320Y-134346285D01*
X76179605Y-135500000D01*
X75820395Y-135500000D01*
X74666680Y-134346285D01*
X74373877Y-134475533D01*
X74105612Y-135175806D01*
X74125750Y-135925435D01*
X74320777Y-136396271D01*
X73875736Y-136580613D01*
X73777073Y-136847468D01*
X71409703Y-136847468D01*
X71177363Y-136614722D01*
X70671945Y-136404855D01*
X70894388Y-135824194D01*
X70874250Y-135074565D01*
X70626123Y-134475533D01*
X70333320Y-134346285D01*
X69179605Y-135500000D01*
X69193748Y-135514143D01*
X69014143Y-135693748D01*
X69000000Y-135679605D01*
X68985858Y-135693748D01*
X68806253Y-135514143D01*
X68820395Y-135500000D01*
X68806253Y-135485858D01*
X68985858Y-135306253D01*
X69000000Y-135320395D01*
X70153715Y-134166680D01*
X74846285Y-134166680D01*
X76000000Y-135320395D01*
X77153715Y-134166680D01*
X77846285Y-134166680D01*
X79000000Y-135320395D01*
X80153715Y-134166680D01*
X84846285Y-134166680D01*
X86000000Y-135320395D01*
X87153715Y-134166680D01*
X87846285Y-134166680D01*
X89000000Y-135320395D01*
X90153715Y-134166680D01*
X94846285Y-134166680D01*
X96000000Y-135320395D01*
X97153715Y-134166680D01*
X97024467Y-133873877D01*
X96324194Y-133605612D01*
X95574565Y-133625750D01*
X94975533Y-133873877D01*
X94846285Y-134166680D01*
X90153715Y-134166680D01*
X90024467Y-133873877D01*
X89324194Y-133605612D01*
X88574565Y-133625750D01*
X87975533Y-133873877D01*
X87846285Y-134166680D01*
X87153715Y-134166680D01*
X87024467Y-133873877D01*
X86324194Y-133605612D01*
X85574565Y-133625750D01*
X84975533Y-133873877D01*
X84846285Y-134166680D01*
X80153715Y-134166680D01*
X80024467Y-133873877D01*
X79324194Y-133605612D01*
X78574565Y-133625750D01*
X77975533Y-133873877D01*
X77846285Y-134166680D01*
X77153715Y-134166680D01*
X77024467Y-133873877D01*
X76324194Y-133605612D01*
X75574565Y-133625750D01*
X74975533Y-133873877D01*
X74846285Y-134166680D01*
X70153715Y-134166680D01*
X70024467Y-133873877D01*
X69324194Y-133605612D01*
X68574565Y-133625750D01*
X67975533Y-133873877D01*
X67846286Y-134166678D01*
X67732554Y-134052946D01*
X67710000Y-134075500D01*
X67710000Y-131135714D01*
X67782757Y-131311800D01*
X68186077Y-131715824D01*
X68713309Y-131934750D01*
X68971263Y-131934975D01*
X69768142Y-132731853D01*
X69768144Y-132731856D01*
X69890967Y-132813923D01*
X70103922Y-132956215D01*
X70500000Y-133035000D01*
X76005568Y-133035000D01*
X76186077Y-133215824D01*
X76713309Y-133434750D01*
X77284187Y-133435248D01*
X77811800Y-133217243D01*
X77994361Y-133035000D01*
X87005568Y-133035000D01*
X87186077Y-133215824D01*
X87713309Y-133434750D01*
X88284187Y-133435248D01*
X88811800Y-133217243D01*
X88994361Y-133035000D01*
X99005568Y-133035000D01*
X99186077Y-133215824D01*
X99713309Y-133434750D01*
X100284187Y-133435248D01*
X100811800Y-133217243D01*
X101215824Y-132813923D01*
X101434750Y-132286691D01*
X101435050Y-131941661D01*
X105252758Y-131941661D01*
X105464990Y-132455303D01*
X105857630Y-132848629D01*
X106370900Y-133061757D01*
X106926661Y-133062242D01*
X107440303Y-132850010D01*
X107833629Y-132457370D01*
X108046757Y-131944100D01*
X108046973Y-131696698D01*
X108275900Y-131791757D01*
X108831661Y-131792242D01*
X109345303Y-131580010D01*
X109738629Y-131187370D01*
X109824949Y-130979488D01*
X109909990Y-131185303D01*
X110302630Y-131578629D01*
X110815900Y-131791757D01*
X111371661Y-131792242D01*
X111885303Y-131580010D01*
X112278629Y-131187370D01*
X112364949Y-130979488D01*
X112449990Y-131185303D01*
X112842630Y-131578629D01*
X113355900Y-131791757D01*
X113911661Y-131792242D01*
X114425303Y-131580010D01*
X114818629Y-131187370D01*
X114904949Y-130979488D01*
X114989990Y-131185303D01*
X115382630Y-131578629D01*
X115895900Y-131791757D01*
X116451661Y-131792242D01*
X116665445Y-131703908D01*
X116545267Y-131993330D01*
X116544735Y-132603991D01*
X116777932Y-133168371D01*
X117209357Y-133600551D01*
X117773330Y-133834733D01*
X118383991Y-133835265D01*
X118948371Y-133602068D01*
X119380551Y-133170643D01*
X119614733Y-132606670D01*
X119615265Y-131996009D01*
X119592809Y-131941661D01*
X132252758Y-131941661D01*
X132464990Y-132455303D01*
X132857630Y-132848629D01*
X133370900Y-133061757D01*
X133926661Y-133062242D01*
X134440303Y-132850010D01*
X134833629Y-132457370D01*
X135046757Y-131944100D01*
X135046973Y-131696698D01*
X135275900Y-131791757D01*
X135831661Y-131792242D01*
X136345303Y-131580010D01*
X136738629Y-131187370D01*
X136824949Y-130979488D01*
X136909990Y-131185303D01*
X137302630Y-131578629D01*
X137815900Y-131791757D01*
X138371661Y-131792242D01*
X138885303Y-131580010D01*
X139278629Y-131187370D01*
X139364949Y-130979488D01*
X139449990Y-131185303D01*
X139842630Y-131578629D01*
X140355900Y-131791757D01*
X140911661Y-131792242D01*
X141425303Y-131580010D01*
X141818629Y-131187370D01*
X141904949Y-130979488D01*
X141989990Y-131185303D01*
X142382630Y-131578629D01*
X142895900Y-131791757D01*
X143451661Y-131792242D01*
X143665445Y-131703908D01*
X143545267Y-131993330D01*
X143544735Y-132603991D01*
X143777932Y-133168371D01*
X144209357Y-133600551D01*
X144773330Y-133834733D01*
X145383991Y-133835265D01*
X145948371Y-133602068D01*
X146380551Y-133170643D01*
X146614733Y-132606670D01*
X146615265Y-131996009D01*
X146592809Y-131941661D01*
X159252758Y-131941661D01*
X159464990Y-132455303D01*
X159857630Y-132848629D01*
X160370900Y-133061757D01*
X160926661Y-133062242D01*
X161440303Y-132850010D01*
X161833629Y-132457370D01*
X162046757Y-131944100D01*
X162046973Y-131696698D01*
X162275900Y-131791757D01*
X162831661Y-131792242D01*
X163345303Y-131580010D01*
X163738629Y-131187370D01*
X163824949Y-130979488D01*
X163909990Y-131185303D01*
X164302630Y-131578629D01*
X164815900Y-131791757D01*
X165371661Y-131792242D01*
X165885303Y-131580010D01*
X166278629Y-131187370D01*
X166364949Y-130979488D01*
X166449990Y-131185303D01*
X166842630Y-131578629D01*
X167355900Y-131791757D01*
X167911661Y-131792242D01*
X168425303Y-131580010D01*
X168818629Y-131187370D01*
X168904949Y-130979488D01*
X168989990Y-131185303D01*
X169382630Y-131578629D01*
X169895900Y-131791757D01*
X170451661Y-131792242D01*
X170665445Y-131703908D01*
X170545267Y-131993330D01*
X170544735Y-132603991D01*
X170777932Y-133168371D01*
X171209357Y-133600551D01*
X171773330Y-133834733D01*
X172383991Y-133835265D01*
X172948371Y-133602068D01*
X173380551Y-133170643D01*
X173614733Y-132606670D01*
X173615265Y-131996009D01*
X173592809Y-131941661D01*
X186332758Y-131941661D01*
X186544990Y-132455303D01*
X186937630Y-132848629D01*
X187450900Y-133061757D01*
X188006661Y-133062242D01*
X188520303Y-132850010D01*
X188913629Y-132457370D01*
X189126757Y-131944100D01*
X189126973Y-131696698D01*
X189355900Y-131791757D01*
X189911661Y-131792242D01*
X190425303Y-131580010D01*
X190818629Y-131187370D01*
X190904949Y-130979488D01*
X190989990Y-131185303D01*
X191382630Y-131578629D01*
X191895900Y-131791757D01*
X192451661Y-131792242D01*
X192965303Y-131580010D01*
X193358629Y-131187370D01*
X193444949Y-130979488D01*
X193529990Y-131185303D01*
X193922630Y-131578629D01*
X194435900Y-131791757D01*
X194991661Y-131792242D01*
X195505303Y-131580010D01*
X195898629Y-131187370D01*
X195984949Y-130979488D01*
X196069990Y-131185303D01*
X196462630Y-131578629D01*
X196975900Y-131791757D01*
X197531661Y-131792242D01*
X197745445Y-131703908D01*
X197625267Y-131993330D01*
X197624735Y-132603991D01*
X197857932Y-133168371D01*
X198289357Y-133600551D01*
X198853330Y-133834733D01*
X199463991Y-133835265D01*
X200028371Y-133602068D01*
X200460551Y-133170643D01*
X200694733Y-132606670D01*
X200695265Y-131996009D01*
X200462068Y-131431629D01*
X200030643Y-130999449D01*
X199466670Y-130765267D01*
X198856009Y-130764735D01*
X198564026Y-130885380D01*
X198651757Y-130674100D01*
X198652242Y-130118339D01*
X198440010Y-129604697D01*
X198047370Y-129211371D01*
X197534100Y-128998243D01*
X196978339Y-128997758D01*
X196464697Y-129209990D01*
X196071371Y-129602630D01*
X195985051Y-129810512D01*
X195900010Y-129604697D01*
X195507370Y-129211371D01*
X194994100Y-128998243D01*
X194438339Y-128997758D01*
X193924697Y-129209990D01*
X193531371Y-129602630D01*
X193445051Y-129810512D01*
X193360010Y-129604697D01*
X192967370Y-129211371D01*
X192454100Y-128998243D01*
X191898339Y-128997758D01*
X191384697Y-129209990D01*
X190991371Y-129602630D01*
X190905051Y-129810512D01*
X190820010Y-129604697D01*
X190427370Y-129211371D01*
X189914100Y-128998243D01*
X189358339Y-128997758D01*
X188844697Y-129209990D01*
X188451371Y-129602630D01*
X188238243Y-130115900D01*
X188238027Y-130363302D01*
X188009100Y-130268243D01*
X187453339Y-130267758D01*
X186939697Y-130479990D01*
X186546371Y-130872630D01*
X186333243Y-131385900D01*
X186332758Y-131941661D01*
X173592809Y-131941661D01*
X173382068Y-131431629D01*
X172950643Y-130999449D01*
X172386670Y-130765267D01*
X171776009Y-130764735D01*
X171484026Y-130885380D01*
X171571757Y-130674100D01*
X171572242Y-130118339D01*
X171360010Y-129604697D01*
X170967370Y-129211371D01*
X170454100Y-128998243D01*
X169898339Y-128997758D01*
X169384697Y-129209990D01*
X168991371Y-129602630D01*
X168905051Y-129810512D01*
X168820010Y-129604697D01*
X168427370Y-129211371D01*
X167914100Y-128998243D01*
X167358339Y-128997758D01*
X166844697Y-129209990D01*
X166451371Y-129602630D01*
X166365051Y-129810512D01*
X166280010Y-129604697D01*
X165887370Y-129211371D01*
X165374100Y-128998243D01*
X164818339Y-128997758D01*
X164304697Y-129209990D01*
X163911371Y-129602630D01*
X163825051Y-129810512D01*
X163740010Y-129604697D01*
X163347370Y-129211371D01*
X162834100Y-128998243D01*
X162278339Y-128997758D01*
X161764697Y-129209990D01*
X161371371Y-129602630D01*
X161158243Y-130115900D01*
X161158027Y-130363302D01*
X160929100Y-130268243D01*
X160373339Y-130267758D01*
X159859697Y-130479990D01*
X159466371Y-130872630D01*
X159253243Y-131385900D01*
X159252758Y-131941661D01*
X146592809Y-131941661D01*
X146382068Y-131431629D01*
X145950643Y-130999449D01*
X145386670Y-130765267D01*
X144776009Y-130764735D01*
X144484026Y-130885380D01*
X144571757Y-130674100D01*
X144572242Y-130118339D01*
X144360010Y-129604697D01*
X143967370Y-129211371D01*
X143454100Y-128998243D01*
X142898339Y-128997758D01*
X142384697Y-129209990D01*
X141991371Y-129602630D01*
X141905051Y-129810512D01*
X141820010Y-129604697D01*
X141427370Y-129211371D01*
X140914100Y-128998243D01*
X140358339Y-128997758D01*
X139844697Y-129209990D01*
X139451371Y-129602630D01*
X139365051Y-129810512D01*
X139280010Y-129604697D01*
X138887370Y-129211371D01*
X138374100Y-128998243D01*
X137818339Y-128997758D01*
X137304697Y-129209990D01*
X136911371Y-129602630D01*
X136825051Y-129810512D01*
X136740010Y-129604697D01*
X136347370Y-129211371D01*
X135834100Y-128998243D01*
X135278339Y-128997758D01*
X134764697Y-129209990D01*
X134371371Y-129602630D01*
X134158243Y-130115900D01*
X134158027Y-130363302D01*
X133929100Y-130268243D01*
X133373339Y-130267758D01*
X132859697Y-130479990D01*
X132466371Y-130872630D01*
X132253243Y-131385900D01*
X132252758Y-131941661D01*
X119592809Y-131941661D01*
X119382068Y-131431629D01*
X118950643Y-130999449D01*
X118386670Y-130765267D01*
X117776009Y-130764735D01*
X117484026Y-130885380D01*
X117571757Y-130674100D01*
X117572242Y-130118339D01*
X117360010Y-129604697D01*
X116967370Y-129211371D01*
X116454100Y-128998243D01*
X115898339Y-128997758D01*
X115384697Y-129209990D01*
X114991371Y-129602630D01*
X114905051Y-129810512D01*
X114820010Y-129604697D01*
X114427370Y-129211371D01*
X113914100Y-128998243D01*
X113358339Y-128997758D01*
X112844697Y-129209990D01*
X112451371Y-129602630D01*
X112365051Y-129810512D01*
X112280010Y-129604697D01*
X111887370Y-129211371D01*
X111374100Y-128998243D01*
X110818339Y-128997758D01*
X110304697Y-129209990D01*
X109911371Y-129602630D01*
X109825051Y-129810512D01*
X109740010Y-129604697D01*
X109347370Y-129211371D01*
X108834100Y-128998243D01*
X108278339Y-128997758D01*
X107764697Y-129209990D01*
X107371371Y-129602630D01*
X107158243Y-130115900D01*
X107158027Y-130363302D01*
X106929100Y-130268243D01*
X106373339Y-130267758D01*
X105859697Y-130479990D01*
X105466371Y-130872630D01*
X105253243Y-131385900D01*
X105252758Y-131941661D01*
X101435050Y-131941661D01*
X101435248Y-131715813D01*
X101217243Y-131188200D01*
X100813923Y-130784176D01*
X100286691Y-130565250D01*
X99715813Y-130564752D01*
X99188200Y-130782757D01*
X99005639Y-130965000D01*
X88994432Y-130965000D01*
X88813923Y-130784176D01*
X88286691Y-130565250D01*
X87715813Y-130564752D01*
X87188200Y-130782757D01*
X87005639Y-130965000D01*
X77994432Y-130965000D01*
X77813923Y-130784176D01*
X77286691Y-130565250D01*
X76715813Y-130564752D01*
X76188200Y-130782757D01*
X76005639Y-130965000D01*
X70928711Y-130965000D01*
X70435025Y-130471314D01*
X70435248Y-130215813D01*
X70217243Y-129688200D01*
X69813923Y-129284176D01*
X69286691Y-129065250D01*
X68715813Y-129064752D01*
X68188200Y-129282757D01*
X67784176Y-129686077D01*
X67710000Y-129864713D01*
X67710000Y-125784187D01*
X104564752Y-125784187D01*
X104782757Y-126311800D01*
X105186077Y-126715824D01*
X105713309Y-126934750D01*
X106284187Y-126935248D01*
X106811800Y-126717243D01*
X107094536Y-126435000D01*
X108405742Y-126435000D01*
X108686077Y-126715824D01*
X108899858Y-126804594D01*
X108641371Y-127062630D01*
X108428243Y-127575900D01*
X108427758Y-128131661D01*
X108639990Y-128645303D01*
X109032630Y-129038629D01*
X109545900Y-129251757D01*
X110101661Y-129252242D01*
X110615303Y-129040010D01*
X111008629Y-128647370D01*
X111094949Y-128439488D01*
X111179990Y-128645303D01*
X111572630Y-129038629D01*
X112085900Y-129251757D01*
X112641661Y-129252242D01*
X113155303Y-129040010D01*
X113548629Y-128647370D01*
X113634949Y-128439488D01*
X113719990Y-128645303D01*
X114112630Y-129038629D01*
X114625900Y-129251757D01*
X115181661Y-129252242D01*
X115695303Y-129040010D01*
X116088629Y-128647370D01*
X116174949Y-128439488D01*
X116259990Y-128645303D01*
X116652630Y-129038629D01*
X117165900Y-129251757D01*
X117721661Y-129252242D01*
X118235303Y-129040010D01*
X118628629Y-128647370D01*
X118671829Y-128543333D01*
X118782757Y-128811800D01*
X119186077Y-129215824D01*
X119713309Y-129434750D01*
X120284187Y-129435248D01*
X120811800Y-129217243D01*
X120999974Y-129029397D01*
X121186077Y-129215824D01*
X121713309Y-129434750D01*
X122284187Y-129435248D01*
X122811800Y-129217243D01*
X123215824Y-128813923D01*
X123434750Y-128286691D01*
X123435248Y-127715813D01*
X123217243Y-127188200D01*
X122935000Y-126905464D01*
X122935000Y-116400000D01*
X131965000Y-116400000D01*
X131965000Y-121531370D01*
X132036173Y-121889179D01*
X132238855Y-122192515D01*
X136517033Y-126470693D01*
X136034697Y-126669990D01*
X135641371Y-127062630D01*
X135428243Y-127575900D01*
X135427758Y-128131661D01*
X135639990Y-128645303D01*
X136032630Y-129038629D01*
X136545900Y-129251757D01*
X137101661Y-129252242D01*
X137615303Y-129040010D01*
X138008629Y-128647370D01*
X138094949Y-128439488D01*
X138179990Y-128645303D01*
X138572630Y-129038629D01*
X139085900Y-129251757D01*
X139641661Y-129252242D01*
X140155303Y-129040010D01*
X140548629Y-128647370D01*
X140634949Y-128439488D01*
X140719990Y-128645303D01*
X141112630Y-129038629D01*
X141625900Y-129251757D01*
X142181661Y-129252242D01*
X142695303Y-129040010D01*
X143088629Y-128647370D01*
X143174949Y-128439488D01*
X143259990Y-128645303D01*
X143652630Y-129038629D01*
X144165900Y-129251757D01*
X144721661Y-129252242D01*
X145235303Y-129040010D01*
X145373176Y-128902377D01*
X145686077Y-129215824D01*
X146213309Y-129434750D01*
X146784187Y-129435248D01*
X147264881Y-129236630D01*
X147264752Y-129384187D01*
X147482757Y-129911800D01*
X147886077Y-130315824D01*
X148413309Y-130534750D01*
X148984187Y-130535248D01*
X149511800Y-130317243D01*
X149915824Y-129913923D01*
X150134750Y-129386691D01*
X150135098Y-128987192D01*
X150161144Y-128961146D01*
X150363826Y-128657810D01*
X150434999Y-128300001D01*
X150434999Y-121494433D01*
X150615824Y-121313923D01*
X150834750Y-120786691D01*
X150835248Y-120215813D01*
X150617243Y-119688200D01*
X150213923Y-119284176D01*
X149686691Y-119065250D01*
X149115813Y-119064752D01*
X148835148Y-119180720D01*
X148835248Y-119065813D01*
X148617243Y-118538200D01*
X148335000Y-118255464D01*
X148335000Y-117400000D01*
X157665000Y-117400000D01*
X157665000Y-120431370D01*
X157736173Y-120789179D01*
X157938855Y-121092515D01*
X163375510Y-126529170D01*
X163034697Y-126669990D01*
X162641371Y-127062630D01*
X162428243Y-127575900D01*
X162427758Y-128131661D01*
X162639990Y-128645303D01*
X163032630Y-129038629D01*
X163545900Y-129251757D01*
X164101661Y-129252242D01*
X164615303Y-129040010D01*
X165008629Y-128647370D01*
X165094949Y-128439488D01*
X165179990Y-128645303D01*
X165572630Y-129038629D01*
X166085900Y-129251757D01*
X166641661Y-129252242D01*
X167155303Y-129040010D01*
X167548629Y-128647370D01*
X167634949Y-128439488D01*
X167719990Y-128645303D01*
X168112630Y-129038629D01*
X168625900Y-129251757D01*
X169181661Y-129252242D01*
X169695303Y-129040010D01*
X170088629Y-128647370D01*
X170174949Y-128439488D01*
X170259990Y-128645303D01*
X170652630Y-129038629D01*
X171165900Y-129251757D01*
X171721661Y-129252242D01*
X172235303Y-129040010D01*
X172477254Y-128798481D01*
X172482757Y-128811800D01*
X172886077Y-129215824D01*
X173413309Y-129434750D01*
X173984187Y-129435248D01*
X174171289Y-129357939D01*
X174065250Y-129613309D01*
X174064752Y-130184187D01*
X174282757Y-130711800D01*
X174686077Y-131115824D01*
X175213309Y-131334750D01*
X175784187Y-131335248D01*
X176311800Y-131117243D01*
X176715824Y-130713923D01*
X176934750Y-130186691D01*
X176935248Y-129615813D01*
X176717243Y-129088200D01*
X176435000Y-128805464D01*
X176435000Y-126635205D01*
X176484187Y-126635248D01*
X177011800Y-126417243D01*
X177415824Y-126013923D01*
X177634750Y-125486691D01*
X177635248Y-124915813D01*
X177417243Y-124388200D01*
X177013923Y-123984176D01*
X176486691Y-123765250D01*
X175915813Y-123764752D01*
X175388200Y-123982757D01*
X174984176Y-124386077D01*
X174765250Y-124913309D01*
X174764869Y-125349583D01*
X174636173Y-125542191D01*
X174565000Y-125900000D01*
X174565000Y-126835342D01*
X174513923Y-126784176D01*
X173986691Y-126565250D01*
X173587192Y-126564902D01*
X172135000Y-125112710D01*
X172135000Y-120414221D01*
X172436077Y-120715824D01*
X172963309Y-120934750D01*
X173534187Y-120935248D01*
X174061800Y-120717243D01*
X174465824Y-120313923D01*
X174684750Y-119786691D01*
X174685248Y-119215813D01*
X174467243Y-118688200D01*
X174185000Y-118405464D01*
X174185000Y-115700000D01*
X185265000Y-115700000D01*
X185265000Y-119800000D01*
X185336173Y-120157809D01*
X185538855Y-120461145D01*
X191738855Y-126661145D01*
X192042191Y-126863827D01*
X192282389Y-126911606D01*
X192347410Y-126976741D01*
X192261371Y-127062630D01*
X192175051Y-127270512D01*
X192090010Y-127064697D01*
X191697370Y-126671371D01*
X191184100Y-126458243D01*
X190628339Y-126457758D01*
X190114697Y-126669990D01*
X189721371Y-127062630D01*
X189508243Y-127575900D01*
X189507758Y-128131661D01*
X189719990Y-128645303D01*
X190112630Y-129038629D01*
X190625900Y-129251757D01*
X191181661Y-129252242D01*
X191695303Y-129040010D01*
X192088629Y-128647370D01*
X192174949Y-128439488D01*
X192259990Y-128645303D01*
X192652630Y-129038629D01*
X193165900Y-129251757D01*
X193721661Y-129252242D01*
X194235303Y-129040010D01*
X194628629Y-128647370D01*
X194714949Y-128439488D01*
X194799990Y-128645303D01*
X195192630Y-129038629D01*
X195705900Y-129251757D01*
X196261661Y-129252242D01*
X196775303Y-129040010D01*
X197168629Y-128647370D01*
X197254949Y-128439488D01*
X197339990Y-128645303D01*
X197732630Y-129038629D01*
X198245900Y-129251757D01*
X198801661Y-129252242D01*
X199315303Y-129040010D01*
X199413194Y-128942290D01*
X199786077Y-129315824D01*
X200313309Y-129534750D01*
X200884187Y-129535248D01*
X201411800Y-129317243D01*
X201815824Y-128913923D01*
X202034750Y-128386691D01*
X202035248Y-127815813D01*
X201817243Y-127288200D01*
X201413923Y-126884176D01*
X200886691Y-126665250D01*
X200487192Y-126664902D01*
X199735000Y-125912710D01*
X199735000Y-118064658D01*
X199786077Y-118115824D01*
X200313309Y-118334750D01*
X200884187Y-118335248D01*
X201162322Y-118220325D01*
X201165000Y-118226806D01*
X201165000Y-122605742D01*
X200884176Y-122886077D01*
X200665250Y-123413309D01*
X200664752Y-123984187D01*
X200882757Y-124511800D01*
X201286077Y-124915824D01*
X201813309Y-125134750D01*
X202384187Y-125135248D01*
X202911800Y-124917243D01*
X203315824Y-124513923D01*
X203534750Y-123986691D01*
X203535248Y-123415813D01*
X203317243Y-122888200D01*
X203035000Y-122605464D01*
X203035000Y-121984187D01*
X212164752Y-121984187D01*
X212382757Y-122511800D01*
X212786077Y-122915824D01*
X213313309Y-123134750D01*
X213429720Y-123134852D01*
X216797434Y-126502566D01*
X217165654Y-126748603D01*
X217600000Y-126835000D01*
X228605394Y-126835000D01*
X228686077Y-126915824D01*
X229213309Y-127134750D01*
X229784187Y-127135248D01*
X230311800Y-126917243D01*
X230715824Y-126513923D01*
X230823031Y-126255740D01*
X231013309Y-126334750D01*
X231412808Y-126335098D01*
X232565000Y-127487290D01*
X232565000Y-130805742D01*
X232284176Y-131086077D01*
X232065250Y-131613309D01*
X232064752Y-132184187D01*
X232282757Y-132711800D01*
X232686077Y-133115824D01*
X233213309Y-133334750D01*
X233784187Y-133335248D01*
X234311800Y-133117243D01*
X234715824Y-132713923D01*
X234934750Y-132186691D01*
X234935248Y-131615813D01*
X234717243Y-131088200D01*
X234435000Y-130805464D01*
X234435000Y-127100000D01*
X234363827Y-126742191D01*
X234161145Y-126438855D01*
X232734902Y-125012612D01*
X232735248Y-124615813D01*
X232517243Y-124088200D01*
X232113923Y-123684176D01*
X231586691Y-123465250D01*
X231015813Y-123464752D01*
X230488200Y-123682757D01*
X230084176Y-124086077D01*
X229976969Y-124344260D01*
X229786691Y-124265250D01*
X229215813Y-124264752D01*
X228688200Y-124482757D01*
X228605813Y-124565000D01*
X218070132Y-124565000D01*
X215035148Y-121530016D01*
X215035248Y-121415813D01*
X214817243Y-120888200D01*
X214413923Y-120484176D01*
X213886691Y-120265250D01*
X213315813Y-120264752D01*
X212788200Y-120482757D01*
X212384176Y-120886077D01*
X212165250Y-121413309D01*
X212164752Y-121984187D01*
X203035000Y-121984187D01*
X203035000Y-119031614D01*
X203311800Y-118917243D01*
X203715824Y-118513923D01*
X203934750Y-117986691D01*
X203935248Y-117415813D01*
X203717243Y-116888200D01*
X203313923Y-116484176D01*
X202786691Y-116265250D01*
X202215813Y-116264752D01*
X201937678Y-116379675D01*
X201817243Y-116088200D01*
X201435000Y-115705290D01*
X201435000Y-110442619D01*
X267764613Y-110442619D01*
X268104155Y-111264372D01*
X268732321Y-111893636D01*
X269553481Y-112234611D01*
X270442619Y-112235387D01*
X271264372Y-111895845D01*
X271893636Y-111267679D01*
X272234611Y-110446519D01*
X272235387Y-109557381D01*
X271895845Y-108735628D01*
X271267679Y-108106364D01*
X270446519Y-107765389D01*
X269557381Y-107764613D01*
X268735628Y-108104155D01*
X268106364Y-108732321D01*
X267765389Y-109553481D01*
X267764613Y-110442619D01*
X201435000Y-110442619D01*
X201435000Y-107094258D01*
X201715824Y-106813923D01*
X201934750Y-106286691D01*
X201935248Y-105715813D01*
X201717243Y-105188200D01*
X201313923Y-104784176D01*
X200786691Y-104565250D01*
X200215813Y-104564752D01*
X199688200Y-104782757D01*
X199284176Y-105186077D01*
X199065250Y-105713309D01*
X199064752Y-106284187D01*
X199282757Y-106811800D01*
X199565000Y-107094536D01*
X199565000Y-113753151D01*
X199491164Y-113679186D01*
X198963932Y-113460260D01*
X198393054Y-113459762D01*
X197865441Y-113677767D01*
X197461417Y-114081087D01*
X197242491Y-114608319D01*
X197242186Y-114957723D01*
X196034909Y-116165000D01*
X190294258Y-116165000D01*
X190013923Y-115884176D01*
X189536399Y-115685891D01*
X193487290Y-111735000D01*
X194031370Y-111735000D01*
X194389179Y-111663827D01*
X194692515Y-111461145D01*
X197061145Y-109092515D01*
X197263827Y-108789179D01*
X197335000Y-108431370D01*
X197335000Y-108394258D01*
X197615824Y-108113923D01*
X197834750Y-107586691D01*
X197835248Y-107015813D01*
X197617243Y-106488200D01*
X197213923Y-106084176D01*
X196686691Y-105865250D01*
X196115813Y-105864752D01*
X195588200Y-106082757D01*
X195184176Y-106486077D01*
X195041552Y-106829554D01*
X194886691Y-106765250D01*
X194315813Y-106764752D01*
X193788200Y-106982757D01*
X193384176Y-107386077D01*
X193165250Y-107913309D01*
X193164902Y-108312808D01*
X192812710Y-108665000D01*
X192300000Y-108665000D01*
X191942191Y-108736173D01*
X191638855Y-108938855D01*
X185538855Y-115038855D01*
X185336173Y-115342191D01*
X185265000Y-115700000D01*
X174185000Y-115700000D01*
X174185000Y-110544345D01*
X174415824Y-110313923D01*
X174634750Y-109786691D01*
X174635248Y-109215813D01*
X174417243Y-108688200D01*
X174013923Y-108284176D01*
X173486691Y-108065250D01*
X172915813Y-108064752D01*
X172388200Y-108282757D01*
X171984176Y-108686077D01*
X171765250Y-109213309D01*
X171764752Y-109784187D01*
X171982757Y-110311800D01*
X172315000Y-110644623D01*
X172315000Y-115685953D01*
X171913923Y-115284176D01*
X171386691Y-115065250D01*
X170815813Y-115064752D01*
X170288200Y-115282757D01*
X169884176Y-115686077D01*
X169665250Y-116213309D01*
X169664902Y-116612808D01*
X168112710Y-118165000D01*
X162594252Y-118165000D01*
X162313917Y-117884176D01*
X161787904Y-117665756D01*
X169211145Y-110242515D01*
X169413827Y-109939179D01*
X169485000Y-109581370D01*
X169485000Y-109544258D01*
X169765824Y-109263923D01*
X169984750Y-108736691D01*
X169985248Y-108165813D01*
X169767243Y-107638200D01*
X169363923Y-107234176D01*
X168836691Y-107015250D01*
X168265813Y-107014752D01*
X167738200Y-107232757D01*
X167334176Y-107636077D01*
X167255033Y-107826675D01*
X166986691Y-107715250D01*
X166415813Y-107714752D01*
X165888200Y-107932757D01*
X165484176Y-108336077D01*
X165265250Y-108863309D01*
X165264771Y-109412939D01*
X157938855Y-116738855D01*
X157736173Y-117042191D01*
X157665000Y-117400000D01*
X148335000Y-117400000D01*
X148335000Y-116150000D01*
X148263827Y-115792191D01*
X148061145Y-115488855D01*
X146334902Y-113762612D01*
X146335248Y-113365813D01*
X146117243Y-112838200D01*
X145713923Y-112434176D01*
X145186691Y-112215250D01*
X144615813Y-112214752D01*
X144088200Y-112432757D01*
X143684176Y-112836077D01*
X143465250Y-113363309D01*
X143464752Y-113934187D01*
X143682757Y-114461800D01*
X144086077Y-114865824D01*
X144613309Y-115084750D01*
X145012808Y-115085098D01*
X145610440Y-115682730D01*
X145086691Y-115465250D01*
X144515813Y-115464752D01*
X143988200Y-115682757D01*
X143705464Y-115965000D01*
X136157290Y-115965000D01*
X140037290Y-112085000D01*
X140500000Y-112085000D01*
X140857809Y-112013827D01*
X141161145Y-111811145D01*
X141787388Y-111184902D01*
X142184187Y-111185248D01*
X142711800Y-110967243D01*
X143115824Y-110563923D01*
X143334750Y-110036691D01*
X143335248Y-109465813D01*
X143117243Y-108938200D01*
X142713923Y-108534176D01*
X142186691Y-108315250D01*
X141615813Y-108314752D01*
X141088200Y-108532757D01*
X140873732Y-108746851D01*
X140663934Y-108536687D01*
X140136702Y-108317761D01*
X139565824Y-108317263D01*
X139038211Y-108535268D01*
X138634187Y-108938588D01*
X138415261Y-109465820D01*
X138415177Y-109562533D01*
X132238855Y-115738855D01*
X132036173Y-116042191D01*
X131965000Y-116400000D01*
X122935000Y-116400000D01*
X122935000Y-116000010D01*
X122863827Y-115642201D01*
X122661145Y-115338865D01*
X122184892Y-114862612D01*
X122185238Y-114465813D01*
X121967233Y-113938200D01*
X121563913Y-113534176D01*
X121036681Y-113315250D01*
X120465803Y-113314752D01*
X120234108Y-113410486D01*
X120411887Y-113233017D01*
X120630813Y-112705785D01*
X120631311Y-112134907D01*
X120413306Y-111607294D01*
X120009986Y-111203270D01*
X119482754Y-110984344D01*
X118911876Y-110983846D01*
X118384263Y-111201851D01*
X117980239Y-111605171D01*
X117761313Y-112132403D01*
X117760965Y-112531902D01*
X115685000Y-114607867D01*
X115685000Y-109844258D01*
X115965824Y-109563923D01*
X116184750Y-109036691D01*
X116185248Y-108465813D01*
X115967243Y-107938200D01*
X115563923Y-107534176D01*
X115036691Y-107315250D01*
X114465813Y-107314752D01*
X113938200Y-107532757D01*
X113534176Y-107936077D01*
X113315250Y-108463309D01*
X113314752Y-109034187D01*
X113532757Y-109561800D01*
X113815000Y-109844536D01*
X113815000Y-114362710D01*
X109338855Y-118838855D01*
X109136173Y-119142191D01*
X109065000Y-119500000D01*
X109065000Y-122155742D01*
X108784176Y-122436077D01*
X108565250Y-122963309D01*
X108564752Y-123534187D01*
X108782757Y-124061800D01*
X108911305Y-124190572D01*
X108688200Y-124282757D01*
X108405464Y-124565000D01*
X107094258Y-124565000D01*
X106813923Y-124284176D01*
X106286691Y-124065250D01*
X105715813Y-124064752D01*
X105188200Y-124282757D01*
X104784176Y-124686077D01*
X104565250Y-125213309D01*
X104564752Y-125784187D01*
X67710000Y-125784187D01*
X67710000Y-120000000D01*
X69312560Y-120000000D01*
X69312560Y-122000000D01*
X69361843Y-122247765D01*
X69502191Y-122457809D01*
X69712235Y-122598157D01*
X69960000Y-122647440D01*
X71960000Y-122647440D01*
X72207765Y-122598157D01*
X72417809Y-122457809D01*
X72558157Y-122247765D01*
X72559600Y-122240509D01*
X72625736Y-122419387D01*
X73235461Y-122645908D01*
X73885460Y-122621856D01*
X74374264Y-122419387D01*
X74472927Y-122152532D01*
X73500000Y-121179605D01*
X73485858Y-121193748D01*
X73306253Y-121014143D01*
X73320395Y-121000000D01*
X73679605Y-121000000D01*
X74652532Y-121972927D01*
X74919387Y-121874264D01*
X75145908Y-121264539D01*
X75121856Y-120614540D01*
X74919387Y-120125736D01*
X74652532Y-120027073D01*
X73679605Y-121000000D01*
X73320395Y-121000000D01*
X73306253Y-120985858D01*
X73485858Y-120806253D01*
X73500000Y-120820395D01*
X74320395Y-120000000D01*
X79312560Y-120000000D01*
X79312560Y-122000000D01*
X79361843Y-122247765D01*
X79502191Y-122457809D01*
X79712235Y-122598157D01*
X79960000Y-122647440D01*
X81960000Y-122647440D01*
X82207765Y-122598157D01*
X82417809Y-122457809D01*
X82558157Y-122247765D01*
X82559600Y-122240509D01*
X82625736Y-122419387D01*
X83235461Y-122645908D01*
X83885460Y-122621856D01*
X84374264Y-122419387D01*
X84472927Y-122152532D01*
X83500000Y-121179605D01*
X83485858Y-121193748D01*
X83306253Y-121014143D01*
X83320395Y-121000000D01*
X83679605Y-121000000D01*
X84652532Y-121972927D01*
X84919387Y-121874264D01*
X85145908Y-121264539D01*
X85121856Y-120614540D01*
X84919387Y-120125736D01*
X84652532Y-120027073D01*
X83679605Y-121000000D01*
X83320395Y-121000000D01*
X83306253Y-120985858D01*
X83485858Y-120806253D01*
X83500000Y-120820395D01*
X84320395Y-120000000D01*
X88312560Y-120000000D01*
X88312560Y-122000000D01*
X88361843Y-122247765D01*
X88502191Y-122457809D01*
X88712235Y-122598157D01*
X88960000Y-122647440D01*
X90960000Y-122647440D01*
X91207765Y-122598157D01*
X91417809Y-122457809D01*
X91558157Y-122247765D01*
X91559600Y-122240509D01*
X91625736Y-122419387D01*
X92235461Y-122645908D01*
X92885460Y-122621856D01*
X93374264Y-122419387D01*
X93472927Y-122152532D01*
X92500000Y-121179605D01*
X92485858Y-121193748D01*
X92306253Y-121014143D01*
X92320395Y-121000000D01*
X92679605Y-121000000D01*
X93652532Y-121972927D01*
X93919387Y-121874264D01*
X94145908Y-121264539D01*
X94121856Y-120614540D01*
X93919387Y-120125736D01*
X93652532Y-120027073D01*
X92679605Y-121000000D01*
X92320395Y-121000000D01*
X92306253Y-120985858D01*
X92485858Y-120806253D01*
X92500000Y-120820395D01*
X93472927Y-119847468D01*
X93374264Y-119580613D01*
X92764539Y-119354092D01*
X92114540Y-119378144D01*
X91625736Y-119580613D01*
X91559600Y-119759491D01*
X91558157Y-119752235D01*
X91417809Y-119542191D01*
X91207765Y-119401843D01*
X90960000Y-119352560D01*
X88960000Y-119352560D01*
X88712235Y-119401843D01*
X88502191Y-119542191D01*
X88361843Y-119752235D01*
X88312560Y-120000000D01*
X84320395Y-120000000D01*
X84472927Y-119847468D01*
X84374264Y-119580613D01*
X83764539Y-119354092D01*
X83114540Y-119378144D01*
X82625736Y-119580613D01*
X82559600Y-119759491D01*
X82558157Y-119752235D01*
X82417809Y-119542191D01*
X82207765Y-119401843D01*
X81960000Y-119352560D01*
X79960000Y-119352560D01*
X79712235Y-119401843D01*
X79502191Y-119542191D01*
X79361843Y-119752235D01*
X79312560Y-120000000D01*
X74320395Y-120000000D01*
X74472927Y-119847468D01*
X74374264Y-119580613D01*
X73764539Y-119354092D01*
X73114540Y-119378144D01*
X72625736Y-119580613D01*
X72559600Y-119759491D01*
X72558157Y-119752235D01*
X72417809Y-119542191D01*
X72207765Y-119401843D01*
X71960000Y-119352560D01*
X69960000Y-119352560D01*
X69712235Y-119401843D01*
X69502191Y-119542191D01*
X69361843Y-119752235D01*
X69312560Y-120000000D01*
X67710000Y-120000000D01*
X67710000Y-110442619D01*
X72764613Y-110442619D01*
X73104155Y-111264372D01*
X73732321Y-111893636D01*
X74553481Y-112234611D01*
X75442619Y-112235387D01*
X76264372Y-111895845D01*
X76893636Y-111267679D01*
X77234611Y-110446519D01*
X77235387Y-109557381D01*
X76895845Y-108735628D01*
X76267679Y-108106364D01*
X75446519Y-107765389D01*
X74557381Y-107764613D01*
X73735628Y-108104155D01*
X73106364Y-108732321D01*
X72765389Y-109553481D01*
X72764613Y-110442619D01*
X67710000Y-110442619D01*
X67710000Y-102572407D01*
X187205683Y-102572407D01*
X187545062Y-103393766D01*
X188172928Y-104022729D01*
X188993694Y-104363541D01*
X189882407Y-104364317D01*
X190703766Y-104024938D01*
X191332729Y-103397072D01*
X191673541Y-102576306D01*
X191674255Y-101758193D01*
X202013000Y-101758193D01*
X202013000Y-102501807D01*
X202119340Y-103036416D01*
X202422172Y-103489635D01*
X202875391Y-103792467D01*
X203410000Y-103898807D01*
X203944609Y-103792467D01*
X204397828Y-103489635D01*
X204680000Y-103067336D01*
X204962172Y-103489635D01*
X205415391Y-103792467D01*
X205950000Y-103898807D01*
X206484609Y-103792467D01*
X206937828Y-103489635D01*
X207220000Y-103067336D01*
X207502172Y-103489635D01*
X207955391Y-103792467D01*
X208490000Y-103898807D01*
X209024609Y-103792467D01*
X209477828Y-103489635D01*
X209760000Y-103067336D01*
X210042172Y-103489635D01*
X210495391Y-103792467D01*
X211030000Y-103898807D01*
X211564609Y-103792467D01*
X212017828Y-103489635D01*
X212300000Y-103067336D01*
X212582172Y-103489635D01*
X213035391Y-103792467D01*
X213570000Y-103898807D01*
X214104609Y-103792467D01*
X214557828Y-103489635D01*
X214848647Y-103054394D01*
X214867941Y-103119761D01*
X215211974Y-103545450D01*
X215692723Y-103807080D01*
X215766930Y-103822040D01*
X215983000Y-103699540D01*
X215983000Y-102257000D01*
X216237000Y-102257000D01*
X216237000Y-103699540D01*
X216453070Y-103822040D01*
X216527277Y-103807080D01*
X217008026Y-103545450D01*
X217352059Y-103119761D01*
X217380000Y-103025097D01*
X217407941Y-103119761D01*
X217751974Y-103545450D01*
X218232723Y-103807080D01*
X218306930Y-103822040D01*
X218523000Y-103699540D01*
X218523000Y-102257000D01*
X216237000Y-102257000D01*
X215983000Y-102257000D01*
X215963000Y-102257000D01*
X215963000Y-102003000D01*
X215983000Y-102003000D01*
X215983000Y-100560460D01*
X216237000Y-100560460D01*
X216237000Y-102003000D01*
X218523000Y-102003000D01*
X218523000Y-100560460D01*
X218777000Y-100560460D01*
X218777000Y-102003000D01*
X218797000Y-102003000D01*
X218797000Y-102257000D01*
X218777000Y-102257000D01*
X218777000Y-103699540D01*
X218993070Y-103822040D01*
X219067277Y-103807080D01*
X219548026Y-103545450D01*
X219892059Y-103119761D01*
X219911353Y-103054394D01*
X220202172Y-103489635D01*
X220655391Y-103792467D01*
X221190000Y-103898807D01*
X221724609Y-103792467D01*
X222177828Y-103489635D01*
X222480660Y-103036416D01*
X222587000Y-102501807D01*
X222587000Y-101758193D01*
X224873000Y-101758193D01*
X224873000Y-102501807D01*
X224979340Y-103036416D01*
X225282172Y-103489635D01*
X225735391Y-103792467D01*
X226270000Y-103898807D01*
X226804609Y-103792467D01*
X227257828Y-103489635D01*
X227540000Y-103067336D01*
X227822172Y-103489635D01*
X228275391Y-103792467D01*
X228810000Y-103898807D01*
X229344609Y-103792467D01*
X229797828Y-103489635D01*
X230080000Y-103067336D01*
X230362172Y-103489635D01*
X230815391Y-103792467D01*
X231350000Y-103898807D01*
X231884609Y-103792467D01*
X232337828Y-103489635D01*
X232620000Y-103067336D01*
X232902172Y-103489635D01*
X233355391Y-103792467D01*
X233890000Y-103898807D01*
X234424609Y-103792467D01*
X234877828Y-103489635D01*
X235160000Y-103067336D01*
X235442172Y-103489635D01*
X235895391Y-103792467D01*
X236430000Y-103898807D01*
X236964609Y-103792467D01*
X237417828Y-103489635D01*
X237700000Y-103067336D01*
X237982172Y-103489635D01*
X238435391Y-103792467D01*
X238970000Y-103898807D01*
X239504609Y-103792467D01*
X239957828Y-103489635D01*
X240240000Y-103067336D01*
X240522172Y-103489635D01*
X240975391Y-103792467D01*
X241510000Y-103898807D01*
X242044609Y-103792467D01*
X242497828Y-103489635D01*
X242780000Y-103067336D01*
X243062172Y-103489635D01*
X243515391Y-103792467D01*
X244050000Y-103898807D01*
X244584609Y-103792467D01*
X245037828Y-103489635D01*
X245340660Y-103036416D01*
X245447000Y-102501807D01*
X245447000Y-101758193D01*
X247733000Y-101758193D01*
X247733000Y-102501807D01*
X247839340Y-103036416D01*
X248142172Y-103489635D01*
X248595391Y-103792467D01*
X249130000Y-103898807D01*
X249664609Y-103792467D01*
X250117828Y-103489635D01*
X250400000Y-103067336D01*
X250682172Y-103489635D01*
X251135391Y-103792467D01*
X251670000Y-103898807D01*
X252204609Y-103792467D01*
X252657828Y-103489635D01*
X252940000Y-103067336D01*
X253222172Y-103489635D01*
X253675391Y-103792467D01*
X254210000Y-103898807D01*
X254744609Y-103792467D01*
X255197828Y-103489635D01*
X255480433Y-103066688D01*
X255762172Y-103488340D01*
X256215391Y-103791172D01*
X256750000Y-103897512D01*
X257284609Y-103791172D01*
X257737828Y-103488340D01*
X258020000Y-103066041D01*
X258302172Y-103488340D01*
X258755391Y-103791172D01*
X259290000Y-103897512D01*
X259824609Y-103791172D01*
X260277828Y-103488340D01*
X260560000Y-103066041D01*
X260842172Y-103488340D01*
X261295391Y-103791172D01*
X261830000Y-103897512D01*
X262364609Y-103791172D01*
X262817828Y-103488340D01*
X263100000Y-103066041D01*
X263382172Y-103488340D01*
X263835391Y-103791172D01*
X264370000Y-103897512D01*
X264904609Y-103791172D01*
X265357828Y-103488340D01*
X265640000Y-103066041D01*
X265922172Y-103488340D01*
X266375391Y-103791172D01*
X266910000Y-103897512D01*
X267444609Y-103791172D01*
X267897828Y-103488340D01*
X268200660Y-103035121D01*
X268292699Y-102572407D01*
X269755683Y-102572407D01*
X270095062Y-103393766D01*
X270722928Y-104022729D01*
X271543694Y-104363541D01*
X272432407Y-104364317D01*
X273253766Y-104024938D01*
X273882729Y-103397072D01*
X274223541Y-102576306D01*
X274224317Y-101687593D01*
X273884938Y-100866234D01*
X273257072Y-100237271D01*
X272436306Y-99896459D01*
X271547593Y-99895683D01*
X270726234Y-100235062D01*
X270097271Y-100862928D01*
X269756459Y-101683694D01*
X269755683Y-102572407D01*
X268292699Y-102572407D01*
X268307000Y-102500512D01*
X268307000Y-101759488D01*
X268200660Y-101224879D01*
X267897828Y-100771660D01*
X267444609Y-100468828D01*
X266910000Y-100362488D01*
X266375391Y-100468828D01*
X265922172Y-100771660D01*
X265640000Y-101193959D01*
X265357828Y-100771660D01*
X264904609Y-100468828D01*
X264370000Y-100362488D01*
X263835391Y-100468828D01*
X263382172Y-100771660D01*
X263100000Y-101193959D01*
X262817828Y-100771660D01*
X262364609Y-100468828D01*
X261830000Y-100362488D01*
X261295391Y-100468828D01*
X260842172Y-100771660D01*
X260560000Y-101193959D01*
X260277828Y-100771660D01*
X259824609Y-100468828D01*
X259290000Y-100362488D01*
X258755391Y-100468828D01*
X258302172Y-100771660D01*
X258020000Y-101193959D01*
X257737828Y-100771660D01*
X257284609Y-100468828D01*
X256750000Y-100362488D01*
X256215391Y-100468828D01*
X255762172Y-100771660D01*
X255480433Y-101193312D01*
X255197828Y-100770365D01*
X254744609Y-100467533D01*
X254210000Y-100361193D01*
X253675391Y-100467533D01*
X253222172Y-100770365D01*
X252940000Y-101192664D01*
X252657828Y-100770365D01*
X252204609Y-100467533D01*
X251670000Y-100361193D01*
X251135391Y-100467533D01*
X250682172Y-100770365D01*
X250400000Y-101192664D01*
X250117828Y-100770365D01*
X249664609Y-100467533D01*
X249130000Y-100361193D01*
X248595391Y-100467533D01*
X248142172Y-100770365D01*
X247839340Y-101223584D01*
X247733000Y-101758193D01*
X245447000Y-101758193D01*
X245340660Y-101223584D01*
X245037828Y-100770365D01*
X244584609Y-100467533D01*
X244050000Y-100361193D01*
X243515391Y-100467533D01*
X243062172Y-100770365D01*
X242780000Y-101192664D01*
X242497828Y-100770365D01*
X242044609Y-100467533D01*
X241510000Y-100361193D01*
X240975391Y-100467533D01*
X240522172Y-100770365D01*
X240240000Y-101192664D01*
X239957828Y-100770365D01*
X239504609Y-100467533D01*
X238970000Y-100361193D01*
X238435391Y-100467533D01*
X237982172Y-100770365D01*
X237700000Y-101192664D01*
X237417828Y-100770365D01*
X236964609Y-100467533D01*
X236430000Y-100361193D01*
X235895391Y-100467533D01*
X235442172Y-100770365D01*
X235160000Y-101192664D01*
X234877828Y-100770365D01*
X234424609Y-100467533D01*
X233890000Y-100361193D01*
X233355391Y-100467533D01*
X232902172Y-100770365D01*
X232620000Y-101192664D01*
X232337828Y-100770365D01*
X231884609Y-100467533D01*
X231350000Y-100361193D01*
X230815391Y-100467533D01*
X230362172Y-100770365D01*
X230080000Y-101192664D01*
X229797828Y-100770365D01*
X229344609Y-100467533D01*
X228810000Y-100361193D01*
X228275391Y-100467533D01*
X227822172Y-100770365D01*
X227540000Y-101192664D01*
X227257828Y-100770365D01*
X226804609Y-100467533D01*
X226270000Y-100361193D01*
X225735391Y-100467533D01*
X225282172Y-100770365D01*
X224979340Y-101223584D01*
X224873000Y-101758193D01*
X222587000Y-101758193D01*
X222480660Y-101223584D01*
X222177828Y-100770365D01*
X221724609Y-100467533D01*
X221190000Y-100361193D01*
X220655391Y-100467533D01*
X220202172Y-100770365D01*
X219911353Y-101205606D01*
X219892059Y-101140239D01*
X219548026Y-100714550D01*
X219067277Y-100452920D01*
X218993070Y-100437960D01*
X218777000Y-100560460D01*
X218523000Y-100560460D01*
X218306930Y-100437960D01*
X218232723Y-100452920D01*
X217751974Y-100714550D01*
X217407941Y-101140239D01*
X217380000Y-101234903D01*
X217352059Y-101140239D01*
X217008026Y-100714550D01*
X216527277Y-100452920D01*
X216453070Y-100437960D01*
X216237000Y-100560460D01*
X215983000Y-100560460D01*
X215766930Y-100437960D01*
X215692723Y-100452920D01*
X215211974Y-100714550D01*
X214867941Y-101140239D01*
X214848647Y-101205606D01*
X214557828Y-100770365D01*
X214104609Y-100467533D01*
X213570000Y-100361193D01*
X213035391Y-100467533D01*
X212582172Y-100770365D01*
X212300000Y-101192664D01*
X212017828Y-100770365D01*
X211564609Y-100467533D01*
X211030000Y-100361193D01*
X210495391Y-100467533D01*
X210042172Y-100770365D01*
X209760000Y-101192664D01*
X209477828Y-100770365D01*
X209024609Y-100467533D01*
X208490000Y-100361193D01*
X207955391Y-100467533D01*
X207502172Y-100770365D01*
X207220000Y-101192664D01*
X206937828Y-100770365D01*
X206484609Y-100467533D01*
X205950000Y-100361193D01*
X205415391Y-100467533D01*
X204962172Y-100770365D01*
X204680000Y-101192664D01*
X204397828Y-100770365D01*
X203944609Y-100467533D01*
X203410000Y-100361193D01*
X202875391Y-100467533D01*
X202422172Y-100770365D01*
X202119340Y-101223584D01*
X202013000Y-101758193D01*
X191674255Y-101758193D01*
X191674317Y-101687593D01*
X191334938Y-100866234D01*
X190707072Y-100237271D01*
X189886306Y-99896459D01*
X188997593Y-99895683D01*
X188176234Y-100235062D01*
X187547271Y-100862928D01*
X187206459Y-101683694D01*
X187205683Y-102572407D01*
X67710000Y-102572407D01*
X67710000Y-97492407D01*
X239275683Y-97492407D01*
X239615062Y-98313766D01*
X240242928Y-98942729D01*
X241063694Y-99283541D01*
X241952407Y-99284317D01*
X242773766Y-98944938D01*
X243402729Y-98317072D01*
X243743541Y-97496306D01*
X243743630Y-97394267D01*
X267609433Y-97394267D01*
X267624907Y-97479012D01*
X267891564Y-97961563D01*
X268322587Y-98305337D01*
X268852357Y-98457997D01*
X269074080Y-98300505D01*
X269074080Y-97177000D01*
X269328080Y-97177000D01*
X269328080Y-98300505D01*
X269549803Y-98457997D01*
X270079573Y-98305337D01*
X270510596Y-97961563D01*
X270718634Y-97585092D01*
X270927319Y-97961880D01*
X271358332Y-98304970D01*
X271887831Y-98457002D01*
X272109380Y-98299296D01*
X272109380Y-97177000D01*
X272363380Y-97177000D01*
X272363380Y-98299296D01*
X272584929Y-98457002D01*
X273114428Y-98304970D01*
X273545441Y-97961880D01*
X273812351Y-97479965D01*
X273828038Y-97394068D01*
X273705623Y-97177000D01*
X272363380Y-97177000D01*
X272109380Y-97177000D01*
X270767137Y-97177000D01*
X270718708Y-97262875D01*
X270670330Y-97177000D01*
X269328080Y-97177000D01*
X269074080Y-97177000D01*
X267731830Y-97177000D01*
X267609433Y-97394267D01*
X243743630Y-97394267D01*
X243744317Y-96607593D01*
X243404938Y-95786234D01*
X242777072Y-95157271D01*
X241956306Y-94816459D01*
X241067593Y-94815683D01*
X240246234Y-95155062D01*
X239617271Y-95782928D01*
X239276459Y-96603694D01*
X239275683Y-97492407D01*
X67710000Y-97492407D01*
X67710000Y-76584187D01*
X147064752Y-76584187D01*
X147282757Y-77111800D01*
X147615000Y-77444623D01*
X147615000Y-83155742D01*
X147334176Y-83436077D01*
X147115250Y-83963309D01*
X147114752Y-84534187D01*
X147332757Y-85061800D01*
X147736077Y-85465824D01*
X148263309Y-85684750D01*
X148834187Y-85685248D01*
X149361800Y-85467243D01*
X149650105Y-85179440D01*
X149886077Y-85415824D01*
X150413309Y-85634750D01*
X150984187Y-85635248D01*
X151511800Y-85417243D01*
X151915824Y-85013923D01*
X152134750Y-84486691D01*
X152134795Y-84434187D01*
X163264752Y-84434187D01*
X163482757Y-84961800D01*
X163765000Y-85244536D01*
X163765000Y-89505307D01*
X163734176Y-89536077D01*
X163515250Y-90063309D01*
X163514752Y-90634187D01*
X163732757Y-91161800D01*
X164136077Y-91565824D01*
X164663309Y-91784750D01*
X165234187Y-91785248D01*
X165761800Y-91567243D01*
X165828255Y-91500904D01*
X165832757Y-91511800D01*
X166236077Y-91915824D01*
X166763309Y-92134750D01*
X167334187Y-92135248D01*
X167861800Y-91917243D01*
X167902813Y-91876302D01*
X168082757Y-92311800D01*
X168486077Y-92715824D01*
X169013309Y-92934750D01*
X169584187Y-92935248D01*
X170111800Y-92717243D01*
X170445437Y-92384187D01*
X206864752Y-92384187D01*
X207082757Y-92911800D01*
X207486077Y-93315824D01*
X208013309Y-93534750D01*
X208584187Y-93535248D01*
X209111800Y-93317243D01*
X209515824Y-92913923D01*
X209734750Y-92386691D01*
X209735248Y-91815813D01*
X209517243Y-91288200D01*
X209435000Y-91205813D01*
X209435000Y-86294258D01*
X209715824Y-86013923D01*
X209799936Y-85811358D01*
X209882757Y-86011800D01*
X210165000Y-86294536D01*
X210165000Y-89151024D01*
X210088200Y-89182757D01*
X209684176Y-89586077D01*
X209465250Y-90113309D01*
X209464752Y-90684187D01*
X209682757Y-91211800D01*
X210086077Y-91615824D01*
X210613309Y-91834750D01*
X211184187Y-91835248D01*
X211711800Y-91617243D01*
X212115824Y-91213923D01*
X212334750Y-90686691D01*
X212335248Y-90115813D01*
X212117243Y-89588200D01*
X212035000Y-89505813D01*
X212035000Y-86294258D01*
X212315824Y-86013923D01*
X212534750Y-85486691D01*
X212535248Y-84915813D01*
X212317243Y-84388200D01*
X211913923Y-83984176D01*
X211386691Y-83765250D01*
X210815813Y-83764752D01*
X210288200Y-83982757D01*
X209884176Y-84386077D01*
X209800064Y-84588642D01*
X209717243Y-84388200D01*
X209313923Y-83984176D01*
X208786691Y-83765250D01*
X208215813Y-83764752D01*
X207688200Y-83982757D01*
X207284176Y-84386077D01*
X207065250Y-84913309D01*
X207064752Y-85484187D01*
X207282757Y-86011800D01*
X207565000Y-86294536D01*
X207565000Y-90851024D01*
X207488200Y-90882757D01*
X207084176Y-91286077D01*
X206865250Y-91813309D01*
X206864752Y-92384187D01*
X170445437Y-92384187D01*
X170515824Y-92313923D01*
X170734750Y-91786691D01*
X170735248Y-91215813D01*
X170722181Y-91184187D01*
X171814752Y-91184187D01*
X172032757Y-91711800D01*
X172436077Y-92115824D01*
X172963309Y-92334750D01*
X173534187Y-92335248D01*
X174061800Y-92117243D01*
X174465824Y-91713923D01*
X174684750Y-91186691D01*
X174685248Y-90615813D01*
X174467243Y-90088200D01*
X174285000Y-89905639D01*
X174285000Y-73594258D01*
X174565824Y-73313923D01*
X174784750Y-72786691D01*
X174785248Y-72215813D01*
X174567243Y-71688200D01*
X174163923Y-71284176D01*
X173636691Y-71065250D01*
X173065813Y-71064752D01*
X172538200Y-71282757D01*
X172134176Y-71686077D01*
X171915250Y-72213309D01*
X171914752Y-72784187D01*
X172132757Y-73311800D01*
X172415000Y-73594536D01*
X172415000Y-89705917D01*
X172034176Y-90086077D01*
X171815250Y-90613309D01*
X171814752Y-91184187D01*
X170722181Y-91184187D01*
X170517243Y-90688200D01*
X170113923Y-90284176D01*
X169985000Y-90230642D01*
X169985000Y-71694258D01*
X170265824Y-71413923D01*
X170484750Y-70886691D01*
X170485248Y-70315813D01*
X170267243Y-69788200D01*
X169863923Y-69384176D01*
X169336691Y-69165250D01*
X168765813Y-69164752D01*
X168238200Y-69382757D01*
X167834176Y-69786077D01*
X167615250Y-70313309D01*
X167614752Y-70884187D01*
X167832757Y-71411800D01*
X168115000Y-71694536D01*
X168115000Y-89735691D01*
X167863923Y-89484176D01*
X167585000Y-89368357D01*
X167585000Y-86494258D01*
X167865824Y-86213923D01*
X168084750Y-85686691D01*
X168085248Y-85115813D01*
X167867243Y-84588200D01*
X167463923Y-84184176D01*
X166936691Y-83965250D01*
X166365813Y-83964752D01*
X166135079Y-84060089D01*
X166135248Y-83865813D01*
X165917243Y-83338200D01*
X165513923Y-82934176D01*
X164986691Y-82715250D01*
X164415813Y-82714752D01*
X163888200Y-82932757D01*
X163484176Y-83336077D01*
X163265250Y-83863309D01*
X163264752Y-84434187D01*
X152134795Y-84434187D01*
X152135248Y-83915813D01*
X151917243Y-83388200D01*
X151635000Y-83105464D01*
X151635000Y-77494083D01*
X152015824Y-77113923D01*
X152234750Y-76586691D01*
X152235248Y-76015813D01*
X152017243Y-75488200D01*
X151613923Y-75084176D01*
X151086691Y-74865250D01*
X150515813Y-74864752D01*
X149988200Y-75082757D01*
X149649764Y-75420603D01*
X149313923Y-75084176D01*
X148786691Y-74865250D01*
X148215813Y-74864752D01*
X147688200Y-75082757D01*
X147284176Y-75486077D01*
X147065250Y-76013309D01*
X147064752Y-76584187D01*
X67710000Y-76584187D01*
X67710000Y-68784187D01*
X191064752Y-68784187D01*
X191282757Y-69311800D01*
X191686077Y-69715824D01*
X192213309Y-69934750D01*
X192572267Y-69935063D01*
X192577942Y-69938855D01*
X192603923Y-69956215D01*
X193000000Y-70035001D01*
X193000005Y-70035000D01*
X218505568Y-70035000D01*
X218686077Y-70215824D01*
X219213309Y-70434750D01*
X219784187Y-70435248D01*
X220311800Y-70217243D01*
X220715824Y-69813923D01*
X220824415Y-69552407D01*
X239275683Y-69552407D01*
X239615062Y-70373766D01*
X240242928Y-71002729D01*
X241063694Y-71343541D01*
X241952407Y-71344317D01*
X242773766Y-71004938D01*
X243402729Y-70377072D01*
X243743541Y-69556306D01*
X243744317Y-68667593D01*
X243404938Y-67846234D01*
X242777072Y-67217271D01*
X241956306Y-66876459D01*
X241067593Y-66875683D01*
X240246234Y-67215062D01*
X239617271Y-67842928D01*
X239276459Y-68663694D01*
X239275683Y-69552407D01*
X220824415Y-69552407D01*
X220934750Y-69286691D01*
X220935248Y-68715813D01*
X220737476Y-68237167D01*
X221213309Y-68434750D01*
X221784187Y-68435248D01*
X222311800Y-68217243D01*
X222715824Y-67813923D01*
X222934750Y-67286691D01*
X222935248Y-66715813D01*
X222717243Y-66188200D01*
X222313923Y-65784176D01*
X221786691Y-65565250D01*
X221215813Y-65564752D01*
X220688200Y-65782757D01*
X220505639Y-65965000D01*
X195831614Y-65965000D01*
X195717243Y-65688200D01*
X195313923Y-65284176D01*
X194786691Y-65065250D01*
X194215813Y-65064752D01*
X193688200Y-65282757D01*
X193284176Y-65686077D01*
X193065250Y-66213309D01*
X193064752Y-66784187D01*
X193262524Y-67262833D01*
X192786691Y-67065250D01*
X192215813Y-67064752D01*
X191688200Y-67282757D01*
X191284176Y-67686077D01*
X191065250Y-68213309D01*
X191064752Y-68784187D01*
X67710000Y-68784187D01*
X67710000Y-54312407D01*
X188475683Y-54312407D01*
X188815062Y-55133766D01*
X189442928Y-55762729D01*
X190263694Y-56103541D01*
X191152407Y-56104317D01*
X191973766Y-55764938D01*
X192602729Y-55137072D01*
X192903336Y-54413131D01*
X192975340Y-54775121D01*
X193278172Y-55228340D01*
X193731391Y-55531172D01*
X194266000Y-55637512D01*
X194800609Y-55531172D01*
X195253828Y-55228340D01*
X195536000Y-54806041D01*
X195818172Y-55228340D01*
X196271391Y-55531172D01*
X196806000Y-55637512D01*
X197340609Y-55531172D01*
X197793828Y-55228340D01*
X198076000Y-54806041D01*
X198358172Y-55228340D01*
X198811391Y-55531172D01*
X199346000Y-55637512D01*
X199880609Y-55531172D01*
X200333828Y-55228340D01*
X200624642Y-54793107D01*
X200643941Y-54858491D01*
X200987974Y-55284180D01*
X201468723Y-55545810D01*
X201542930Y-55560770D01*
X201759000Y-55438270D01*
X201759000Y-53997000D01*
X201739000Y-53997000D01*
X201739000Y-53743000D01*
X201759000Y-53743000D01*
X201759000Y-52301730D01*
X202013000Y-52301730D01*
X202013000Y-53743000D01*
X202033000Y-53743000D01*
X202033000Y-53997000D01*
X202013000Y-53997000D01*
X202013000Y-55438270D01*
X202229070Y-55560770D01*
X202303277Y-55545810D01*
X202784026Y-55284180D01*
X203128059Y-54858491D01*
X203147358Y-54793107D01*
X203438172Y-55228340D01*
X203891391Y-55531172D01*
X204426000Y-55637512D01*
X204960609Y-55531172D01*
X205413828Y-55228340D01*
X205696000Y-54806041D01*
X205978172Y-55228340D01*
X206431391Y-55531172D01*
X206966000Y-55637512D01*
X207500609Y-55531172D01*
X207953828Y-55228340D01*
X208236000Y-54806041D01*
X208518172Y-55228340D01*
X208971391Y-55531172D01*
X209506000Y-55637512D01*
X210040609Y-55531172D01*
X210493828Y-55228340D01*
X210776000Y-54806041D01*
X211058172Y-55228340D01*
X211511391Y-55531172D01*
X212046000Y-55637512D01*
X212580609Y-55531172D01*
X213033828Y-55228340D01*
X213316000Y-54806041D01*
X213598172Y-55228340D01*
X214051391Y-55531172D01*
X214586000Y-55637512D01*
X215120609Y-55531172D01*
X215573828Y-55228340D01*
X215856000Y-54806041D01*
X216138172Y-55228340D01*
X216591391Y-55531172D01*
X217126000Y-55637512D01*
X217660609Y-55531172D01*
X218113828Y-55228340D01*
X218416660Y-54775121D01*
X218523000Y-54240512D01*
X218523000Y-53499488D01*
X219793000Y-53499488D01*
X219793000Y-54240512D01*
X219899340Y-54775121D01*
X220202172Y-55228340D01*
X220655391Y-55531172D01*
X221190000Y-55637512D01*
X221724609Y-55531172D01*
X222177828Y-55228340D01*
X222460000Y-54806041D01*
X222742172Y-55228340D01*
X223195391Y-55531172D01*
X223730000Y-55637512D01*
X224264609Y-55531172D01*
X224717828Y-55228340D01*
X225000000Y-54806041D01*
X225282172Y-55228340D01*
X225735391Y-55531172D01*
X226270000Y-55637512D01*
X226804609Y-55531172D01*
X227257828Y-55228340D01*
X227540000Y-54806041D01*
X227822172Y-55228340D01*
X228275391Y-55531172D01*
X228810000Y-55637512D01*
X229344609Y-55531172D01*
X229797828Y-55228340D01*
X230080000Y-54806041D01*
X230362172Y-55228340D01*
X230815391Y-55531172D01*
X231350000Y-55637512D01*
X231884609Y-55531172D01*
X232337828Y-55228340D01*
X232620000Y-54806041D01*
X232902172Y-55228340D01*
X233355391Y-55531172D01*
X233890000Y-55637512D01*
X234424609Y-55531172D01*
X234877828Y-55228340D01*
X235160000Y-54806041D01*
X235442172Y-55228340D01*
X235895391Y-55531172D01*
X236430000Y-55637512D01*
X236964609Y-55531172D01*
X237417828Y-55228340D01*
X237700000Y-54806041D01*
X237982172Y-55228340D01*
X238435391Y-55531172D01*
X238970000Y-55637512D01*
X239504609Y-55531172D01*
X239957828Y-55228340D01*
X240260660Y-54775121D01*
X240367000Y-54240512D01*
X240367000Y-53499488D01*
X242653000Y-53499488D01*
X242653000Y-54240512D01*
X242759340Y-54775121D01*
X243062172Y-55228340D01*
X243515391Y-55531172D01*
X244050000Y-55637512D01*
X244584609Y-55531172D01*
X245037828Y-55228340D01*
X245320000Y-54806041D01*
X245602172Y-55228340D01*
X246055391Y-55531172D01*
X246590000Y-55637512D01*
X247124609Y-55531172D01*
X247577828Y-55228340D01*
X247860000Y-54806041D01*
X248142172Y-55228340D01*
X248595391Y-55531172D01*
X249130000Y-55637512D01*
X249664609Y-55531172D01*
X250117828Y-55228340D01*
X250400000Y-54806041D01*
X250682172Y-55228340D01*
X251135391Y-55531172D01*
X251670000Y-55637512D01*
X252204609Y-55531172D01*
X252657828Y-55228340D01*
X252940000Y-54806041D01*
X253222172Y-55228340D01*
X253675391Y-55531172D01*
X254210000Y-55637512D01*
X254744609Y-55531172D01*
X255197828Y-55228340D01*
X255480000Y-54806041D01*
X255762172Y-55228340D01*
X256215391Y-55531172D01*
X256750000Y-55637512D01*
X257284609Y-55531172D01*
X257737828Y-55228340D01*
X258020000Y-54806041D01*
X258302172Y-55228340D01*
X258755391Y-55531172D01*
X259290000Y-55637512D01*
X259824609Y-55531172D01*
X260277828Y-55228340D01*
X260560000Y-54806041D01*
X260842172Y-55228340D01*
X261295391Y-55531172D01*
X261830000Y-55637512D01*
X262364609Y-55531172D01*
X262817828Y-55228340D01*
X263120660Y-54775121D01*
X263212699Y-54312407D01*
X263405683Y-54312407D01*
X263745062Y-55133766D01*
X264372928Y-55762729D01*
X265193694Y-56103541D01*
X266082407Y-56104317D01*
X266903766Y-55764938D01*
X267532729Y-55137072D01*
X267761243Y-54586750D01*
X267945972Y-54863216D01*
X268360207Y-55140000D01*
X267945972Y-55416784D01*
X267641488Y-55872475D01*
X267534568Y-56410000D01*
X267641488Y-56947525D01*
X267945972Y-57403216D01*
X268360207Y-57680000D01*
X267945972Y-57956784D01*
X267641488Y-58412475D01*
X267534568Y-58950000D01*
X267641488Y-59487525D01*
X267945972Y-59943216D01*
X268360207Y-60220000D01*
X267945972Y-60496784D01*
X267641488Y-60952475D01*
X267534568Y-61490000D01*
X267641488Y-62027525D01*
X267945972Y-62483216D01*
X268360207Y-62760000D01*
X267945972Y-63036784D01*
X267641488Y-63492475D01*
X267534568Y-64030000D01*
X267641488Y-64567525D01*
X267945972Y-65023216D01*
X268360207Y-65300000D01*
X267945972Y-65576784D01*
X267641488Y-66032475D01*
X267534568Y-66570000D01*
X267641488Y-67107525D01*
X267945972Y-67563216D01*
X268360207Y-67840000D01*
X267945972Y-68116784D01*
X267641488Y-68572475D01*
X267534568Y-69110000D01*
X267641488Y-69647525D01*
X267945972Y-70103216D01*
X268360207Y-70380000D01*
X267945972Y-70656784D01*
X267641488Y-71112475D01*
X267534568Y-71650000D01*
X267641488Y-72187525D01*
X267945972Y-72643216D01*
X268360207Y-72920000D01*
X267945972Y-73196784D01*
X267641488Y-73652475D01*
X267534568Y-74190000D01*
X267641488Y-74727525D01*
X267945972Y-75183216D01*
X268360207Y-75460000D01*
X267945972Y-75736784D01*
X267641488Y-76192475D01*
X267534568Y-76730000D01*
X267641488Y-77267525D01*
X267945972Y-77723216D01*
X268360207Y-78000000D01*
X267945972Y-78276784D01*
X267641488Y-78732475D01*
X267534568Y-79270000D01*
X267641488Y-79807525D01*
X267945972Y-80263216D01*
X268360207Y-80540000D01*
X267945972Y-80816784D01*
X267641488Y-81272475D01*
X267534568Y-81810000D01*
X267641488Y-82347525D01*
X267945972Y-82803216D01*
X268360207Y-83080000D01*
X267945972Y-83356784D01*
X267641488Y-83812475D01*
X267534568Y-84350000D01*
X267641488Y-84887525D01*
X267945972Y-85343216D01*
X268360207Y-85620000D01*
X267945972Y-85896784D01*
X267641488Y-86352475D01*
X267534568Y-86890000D01*
X267641488Y-87427525D01*
X267945972Y-87883216D01*
X268360207Y-88160000D01*
X267945972Y-88436784D01*
X267641488Y-88892475D01*
X267534568Y-89430000D01*
X267641488Y-89967525D01*
X267945972Y-90423216D01*
X268360207Y-90700000D01*
X267945972Y-90976784D01*
X267641488Y-91432475D01*
X267534568Y-91970000D01*
X267641488Y-92507525D01*
X267945972Y-92963216D01*
X268360207Y-93240000D01*
X267945972Y-93516784D01*
X267641488Y-93972475D01*
X267534568Y-94510000D01*
X267641488Y-95047525D01*
X267945972Y-95503216D01*
X268364204Y-95782671D01*
X268322587Y-95794663D01*
X267891564Y-96138437D01*
X267624907Y-96620988D01*
X267609433Y-96705733D01*
X267731830Y-96923000D01*
X269074080Y-96923000D01*
X269074080Y-96903000D01*
X269328080Y-96903000D01*
X269328080Y-96923000D01*
X270670330Y-96923000D01*
X270718708Y-96837125D01*
X270767137Y-96923000D01*
X272109380Y-96923000D01*
X272109380Y-96903000D01*
X272363380Y-96903000D01*
X272363380Y-96923000D01*
X273705623Y-96923000D01*
X273828038Y-96705932D01*
X273812351Y-96620035D01*
X273545441Y-96138120D01*
X273114428Y-95795030D01*
X273072012Y-95782851D01*
X273491860Y-95502318D01*
X273796068Y-95047039D01*
X273902892Y-94510000D01*
X273796068Y-93972961D01*
X273491860Y-93517682D01*
X273076280Y-93240000D01*
X273491860Y-92962318D01*
X273796068Y-92507039D01*
X273902892Y-91970000D01*
X273796068Y-91432961D01*
X273491860Y-90977682D01*
X273076280Y-90700000D01*
X273491860Y-90422318D01*
X273796068Y-89967039D01*
X273902892Y-89430000D01*
X273796068Y-88892961D01*
X273491860Y-88437682D01*
X273076280Y-88160000D01*
X273491860Y-87882318D01*
X273796068Y-87427039D01*
X273902892Y-86890000D01*
X273796068Y-86352961D01*
X273491860Y-85897682D01*
X273076280Y-85620000D01*
X273491860Y-85342318D01*
X273796068Y-84887039D01*
X273902892Y-84350000D01*
X273796068Y-83812961D01*
X273491860Y-83357682D01*
X273076280Y-83080000D01*
X273491860Y-82802318D01*
X273796068Y-82347039D01*
X273902892Y-81810000D01*
X273796068Y-81272961D01*
X273491860Y-80817682D01*
X273076280Y-80540000D01*
X273491860Y-80262318D01*
X273796068Y-79807039D01*
X273902892Y-79270000D01*
X273796068Y-78732961D01*
X273491860Y-78277682D01*
X273076280Y-78000000D01*
X273491860Y-77722318D01*
X273796068Y-77267039D01*
X273902892Y-76730000D01*
X273796068Y-76192961D01*
X273491860Y-75737682D01*
X273076280Y-75460000D01*
X273491860Y-75182318D01*
X273796068Y-74727039D01*
X273902892Y-74190000D01*
X273796068Y-73652961D01*
X273491860Y-73197682D01*
X273076280Y-72920000D01*
X273491860Y-72642318D01*
X273796068Y-72187039D01*
X273902892Y-71650000D01*
X273796068Y-71112961D01*
X273491860Y-70657682D01*
X273076280Y-70380000D01*
X273491860Y-70102318D01*
X273796068Y-69647039D01*
X273902892Y-69110000D01*
X273796068Y-68572961D01*
X273491860Y-68117682D01*
X273076280Y-67840000D01*
X273491860Y-67562318D01*
X273796068Y-67107039D01*
X273902892Y-66570000D01*
X273796068Y-66032961D01*
X273491860Y-65577682D01*
X273076280Y-65300000D01*
X273491860Y-65022318D01*
X273796068Y-64567039D01*
X273902892Y-64030000D01*
X273796068Y-63492961D01*
X273491860Y-63037682D01*
X273076280Y-62760000D01*
X273491860Y-62482318D01*
X273796068Y-62027039D01*
X273902892Y-61490000D01*
X273796068Y-60952961D01*
X273491860Y-60497682D01*
X273076280Y-60220000D01*
X273491860Y-59942318D01*
X273796068Y-59487039D01*
X273902892Y-58950000D01*
X273796068Y-58412961D01*
X273491860Y-57957682D01*
X273076280Y-57680000D01*
X273491860Y-57402318D01*
X273796068Y-56947039D01*
X273902892Y-56410000D01*
X273796068Y-55872961D01*
X273491860Y-55417682D01*
X273076280Y-55140000D01*
X273491860Y-54862318D01*
X273796068Y-54407039D01*
X273902892Y-53870000D01*
X273796068Y-53332961D01*
X273491860Y-52877682D01*
X273036581Y-52573474D01*
X272499542Y-52466650D01*
X271973218Y-52466650D01*
X271436179Y-52573474D01*
X270980900Y-52877682D01*
X270718844Y-53269876D01*
X270456188Y-52876784D01*
X270000497Y-52572300D01*
X269462972Y-52465380D01*
X268939188Y-52465380D01*
X268401663Y-52572300D01*
X267945972Y-52876784D01*
X267761068Y-53153511D01*
X267534938Y-52606234D01*
X266907072Y-51977271D01*
X266086306Y-51636459D01*
X265197593Y-51635683D01*
X264376234Y-51975062D01*
X263747271Y-52602928D01*
X263406459Y-53423694D01*
X263405683Y-54312407D01*
X263212699Y-54312407D01*
X263227000Y-54240512D01*
X263227000Y-53499488D01*
X263120660Y-52964879D01*
X262817828Y-52511660D01*
X262364609Y-52208828D01*
X261830000Y-52102488D01*
X261295391Y-52208828D01*
X260842172Y-52511660D01*
X260560000Y-52933959D01*
X260277828Y-52511660D01*
X259824609Y-52208828D01*
X259290000Y-52102488D01*
X258755391Y-52208828D01*
X258302172Y-52511660D01*
X258020000Y-52933959D01*
X257737828Y-52511660D01*
X257284609Y-52208828D01*
X256750000Y-52102488D01*
X256215391Y-52208828D01*
X255762172Y-52511660D01*
X255480000Y-52933959D01*
X255197828Y-52511660D01*
X254744609Y-52208828D01*
X254210000Y-52102488D01*
X253675391Y-52208828D01*
X253222172Y-52511660D01*
X252940000Y-52933959D01*
X252657828Y-52511660D01*
X252204609Y-52208828D01*
X251670000Y-52102488D01*
X251135391Y-52208828D01*
X250682172Y-52511660D01*
X250400000Y-52933959D01*
X250117828Y-52511660D01*
X249664609Y-52208828D01*
X249130000Y-52102488D01*
X248595391Y-52208828D01*
X248142172Y-52511660D01*
X247860000Y-52933959D01*
X247577828Y-52511660D01*
X247124609Y-52208828D01*
X246590000Y-52102488D01*
X246055391Y-52208828D01*
X245602172Y-52511660D01*
X245320000Y-52933959D01*
X245037828Y-52511660D01*
X244584609Y-52208828D01*
X244050000Y-52102488D01*
X243515391Y-52208828D01*
X243062172Y-52511660D01*
X242759340Y-52964879D01*
X242653000Y-53499488D01*
X240367000Y-53499488D01*
X240260660Y-52964879D01*
X239957828Y-52511660D01*
X239504609Y-52208828D01*
X238970000Y-52102488D01*
X238435391Y-52208828D01*
X237982172Y-52511660D01*
X237700000Y-52933959D01*
X237417828Y-52511660D01*
X236964609Y-52208828D01*
X236430000Y-52102488D01*
X235895391Y-52208828D01*
X235442172Y-52511660D01*
X235160000Y-52933959D01*
X234877828Y-52511660D01*
X234424609Y-52208828D01*
X233890000Y-52102488D01*
X233355391Y-52208828D01*
X232902172Y-52511660D01*
X232620000Y-52933959D01*
X232337828Y-52511660D01*
X231884609Y-52208828D01*
X231350000Y-52102488D01*
X230815391Y-52208828D01*
X230362172Y-52511660D01*
X230080000Y-52933959D01*
X229797828Y-52511660D01*
X229344609Y-52208828D01*
X228810000Y-52102488D01*
X228275391Y-52208828D01*
X227822172Y-52511660D01*
X227540000Y-52933959D01*
X227257828Y-52511660D01*
X226804609Y-52208828D01*
X226270000Y-52102488D01*
X225735391Y-52208828D01*
X225282172Y-52511660D01*
X225000000Y-52933959D01*
X224717828Y-52511660D01*
X224264609Y-52208828D01*
X223730000Y-52102488D01*
X223195391Y-52208828D01*
X222742172Y-52511660D01*
X222460000Y-52933959D01*
X222177828Y-52511660D01*
X221724609Y-52208828D01*
X221190000Y-52102488D01*
X220655391Y-52208828D01*
X220202172Y-52511660D01*
X219899340Y-52964879D01*
X219793000Y-53499488D01*
X218523000Y-53499488D01*
X218416660Y-52964879D01*
X218113828Y-52511660D01*
X217660609Y-52208828D01*
X217126000Y-52102488D01*
X216591391Y-52208828D01*
X216138172Y-52511660D01*
X215856000Y-52933959D01*
X215573828Y-52511660D01*
X215120609Y-52208828D01*
X214586000Y-52102488D01*
X214051391Y-52208828D01*
X213598172Y-52511660D01*
X213316000Y-52933959D01*
X213033828Y-52511660D01*
X212580609Y-52208828D01*
X212046000Y-52102488D01*
X211511391Y-52208828D01*
X211058172Y-52511660D01*
X210776000Y-52933959D01*
X210493828Y-52511660D01*
X210040609Y-52208828D01*
X209506000Y-52102488D01*
X208971391Y-52208828D01*
X208518172Y-52511660D01*
X208236000Y-52933959D01*
X207953828Y-52511660D01*
X207500609Y-52208828D01*
X206966000Y-52102488D01*
X206431391Y-52208828D01*
X205978172Y-52511660D01*
X205696000Y-52933959D01*
X205413828Y-52511660D01*
X204960609Y-52208828D01*
X204426000Y-52102488D01*
X203891391Y-52208828D01*
X203438172Y-52511660D01*
X203147358Y-52946893D01*
X203128059Y-52881509D01*
X202784026Y-52455820D01*
X202303277Y-52194190D01*
X202229070Y-52179230D01*
X202013000Y-52301730D01*
X201759000Y-52301730D01*
X201542930Y-52179230D01*
X201468723Y-52194190D01*
X200987974Y-52455820D01*
X200643941Y-52881509D01*
X200624642Y-52946893D01*
X200333828Y-52511660D01*
X199880609Y-52208828D01*
X199346000Y-52102488D01*
X198811391Y-52208828D01*
X198358172Y-52511660D01*
X198076000Y-52933959D01*
X197793828Y-52511660D01*
X197340609Y-52208828D01*
X196806000Y-52102488D01*
X196271391Y-52208828D01*
X195818172Y-52511660D01*
X195536000Y-52933959D01*
X195253828Y-52511660D01*
X194800609Y-52208828D01*
X194266000Y-52102488D01*
X193731391Y-52208828D01*
X193278172Y-52511660D01*
X192975340Y-52964879D01*
X192903129Y-53327910D01*
X192604938Y-52606234D01*
X191977072Y-51977271D01*
X191156306Y-51636459D01*
X190267593Y-51635683D01*
X189446234Y-51975062D01*
X188817271Y-52602928D01*
X188476459Y-53423694D01*
X188475683Y-54312407D01*
X67710000Y-54312407D01*
X67710000Y-45442619D01*
X72764613Y-45442619D01*
X73104155Y-46264372D01*
X73732321Y-46893636D01*
X74553481Y-47234611D01*
X75442619Y-47235387D01*
X76264372Y-46895845D01*
X76893636Y-46267679D01*
X77234611Y-45446519D01*
X77234614Y-45442619D01*
X267764613Y-45442619D01*
X268104155Y-46264372D01*
X268732321Y-46893636D01*
X269553481Y-47234611D01*
X270442619Y-47235387D01*
X271264372Y-46895845D01*
X271893636Y-46267679D01*
X272234611Y-45446519D01*
X272235387Y-44557381D01*
X271895845Y-43735628D01*
X271267679Y-43106364D01*
X270446519Y-42765389D01*
X269557381Y-42764613D01*
X268735628Y-43104155D01*
X268106364Y-43732321D01*
X267765389Y-44553481D01*
X267764613Y-45442619D01*
X77234614Y-45442619D01*
X77235387Y-44557381D01*
X76895845Y-43735628D01*
X76267679Y-43106364D01*
X75446519Y-42765389D01*
X74557381Y-42764613D01*
X73735628Y-43104155D01*
X73106364Y-43732321D01*
X72765389Y-44553481D01*
X72764613Y-45442619D01*
X67710000Y-45442619D01*
X67710000Y-40710000D01*
X275290000Y-40710000D01*
X275290000Y-144290000D01*
G36*
X146586077Y-120565824D02*
X147113309Y-120784750D01*
X147684187Y-120785248D01*
X147964852Y-120669280D01*
X147964752Y-120784187D01*
X148182757Y-121311800D01*
X148564999Y-121694709D01*
X148564999Y-127664882D01*
X148415813Y-127664752D01*
X147935119Y-127863370D01*
X147935248Y-127715813D01*
X147717243Y-127188200D01*
X147313923Y-126784176D01*
X146786691Y-126565250D01*
X146387192Y-126564902D01*
X146349224Y-126526934D01*
X146349224Y-120328558D01*
X146586077Y-120565824D01*
X146586077Y-120565824D01*
G37*
X146586077Y-120565824D02*
X147113309Y-120784750D01*
X147684187Y-120785248D01*
X147964852Y-120669280D01*
X147964752Y-120784187D01*
X148182757Y-121311800D01*
X148564999Y-121694709D01*
X148564999Y-127664882D01*
X148415813Y-127664752D01*
X147935119Y-127863370D01*
X147935248Y-127715813D01*
X147717243Y-127188200D01*
X147313923Y-126784176D01*
X146786691Y-126565250D01*
X146387192Y-126564902D01*
X146349224Y-126526934D01*
X146349224Y-120328558D01*
X146586077Y-120565824D01*
M02*
